<svg width="48" height="48" viewBox="0 0 48 48" fill="none" xmlns="http://www.w3.org/2000/svg">
<path d="M11.9734 11.7958H18.8863C19.8974 11.7958 20.717 12.6173 20.717 13.6307V30.8473C20.717 31.5808 20.1235 32.1757 19.3917 32.1757H18.6065C17.9782 32.1757 17.4685 31.6648 17.4685 31.0349C17.4685 29.812 16.4796 28.8208 15.2594 28.8208C14.0332 28.8208 13.0386 27.8244 13.0386 26.5949V18.9386C13.0386 18.0922 12.4696 17.3521 11.6531 17.1361L11.084 16.9856C10.5996 16.8575 10.2614 16.4183 10.261 15.9158L10.2571 13.5105C10.2601 12.5626 11.0277 11.7954 11.9734 11.7954V11.7958Z" fill="#151515"/>
<path d="M36.3899 13.9651C36.3899 18.1432 33.2976 21.53 28.85 21.53C25.8161 21.53 22.0409 19.3933 22.0506 15.9549C22.0614 12.0082 25.4666 9.94193 30.1954 9.86451C34.3589 9.79628 36.3899 9.78753 36.3899 13.9651Z" fill="#151515"/>
<path d="M34.8975 19.9734C35.4348 19.8294 36.0374 20.0206 36.469 20.3394C36.9871 20.7222 37.1349 21.2706 37.1651 21.8808C37.2257 23.1047 37.2428 24.3321 37.1367 25.5524C37.0957 26.0234 36.9172 26.5619 36.5157 26.8729C36.133 27.1694 35.601 27.1861 35.1725 26.9739C34.6253 26.7027 34.5703 26.2247 34.6183 25.6761C34.6846 24.9155 34.7907 24.1592 34.8901 23.4022C34.963 22.8488 35.0564 22.2412 34.4599 21.9294C34.0941 21.7383 33.8136 21.8498 33.6002 22.1152C33.1398 22.6874 32.9906 23.9724 32.9683 24.4689C32.9063 25.855 32.9709 27.2459 33.1603 28.6211C33.2314 29.1364 32.6702 30.6844 32.065 29.7002C31.5002 28.7825 32.0409 27.7985 31.9978 26.8362C31.9843 26.5334 32.0147 25.0883 31.4714 25.1263C30.847 25.1701 31.1848 26.4718 31.187 26.8104V26.8117C31.1935 27.8474 31.166 28.8836 31.1045 29.9177C31.0739 30.4285 30.8923 30.7902 30.3643 30.5693C29.8451 30.3519 29.7146 29.4889 29.7298 29.0512C29.753 28.3972 29.8377 27.7477 29.9031 27.0973C29.9615 26.5147 29.9982 25.897 29.7289 25.3726C29.0744 24.098 27.9637 24.9195 27.8721 26.0047C27.8272 26.5378 27.952 27.0688 28.0279 27.5985C28.1365 28.3578 28.1423 29.1251 28.1282 29.8901C28.1204 30.3122 28.2387 30.5737 27.7984 30.6499C27.6016 30.684 27.2839 30.5882 27.1328 30.4635C26.7022 30.1079 26.8361 29.3162 26.8231 28.8372C26.8077 28.2853 27.1482 26.8781 26.8012 26.418C26.2841 25.7317 26.1545 26.9153 26.1688 27.2237C26.2007 27.8894 26.3578 28.5486 26.384 29.2121V29.2134C26.3962 29.5358 26.3417 29.9203 26.0453 30.0654C25.101 30.5287 25.1962 28.884 25.1821 28.4593C25.1507 27.5036 25.1446 26.5471 25.1385 25.59C25.132 24.5839 25.0766 23.5054 25.5143 22.5562C25.7993 21.9381 26.1483 21.5467 26.1183 20.8625C26.0903 20.2314 25.9922 19.5574 25.4911 19.1015C25.0198 18.6734 24.3508 18.5255 24.0257 17.9678C23.6915 17.3944 23.4484 16.468 23.8394 15.8736C24.1436 15.4108 24.7222 15.1592 25.1552 14.8308C26.2854 13.9735 27.6954 13.5007 29.1219 13.3576C29.8433 13.2855 30.5834 13.2951 31.2795 13.4919C31.9759 13.6883 32.6284 14.085 33.0315 14.6703C33.207 14.9248 33.3358 15.2297 33.2855 15.5319C33.2196 15.9318 32.8679 16.2213 32.5302 16.4588C31.451 17.2186 30.2683 17.8397 29.0229 18.3007L28.5127 18.2111C28.2142 18.2745 27.9516 18.4779 27.8211 18.7459C27.7451 18.9021 27.7132 19.0741 27.684 19.2446C27.5658 19.9348 27.3968 21.2248 27.8363 21.8467C28.302 22.5059 29.6591 22.4425 30.3778 22.4393C30.9177 22.4372 31.4697 22.4328 31.9785 22.2566C33.1354 21.8559 33.7298 20.2856 34.8967 19.9725" fill="#151515"/>
<path d="M29.9188 16.6206C29.0582 16.974 27.9261 17.0055 27.0128 16.9206C26.195 16.8446 25.3659 16.2672 24.6759 15.8582C24.6262 15.8289 24.5716 15.7917 24.5642 15.7344C24.5581 15.6875 24.5869 15.6438 24.6157 15.6062C25.2524 14.7664 26.387 14.4646 27.4396 14.4603C28.1443 14.4576 28.8487 14.5657 29.5216 14.7756C30.1819 14.9816 30.7261 15.3656 31.3523 15.6273C31.1712 15.9925 30.7766 16.1945 30.4153 16.3826C30.2526 16.4671 30.0894 16.551 29.9196 16.6206H29.9188Z" fill="#DBB5D6"/>
<path d="M33.5029 15.5451C33.3309 15.2814 33.0233 15.0242 32.9486 15.0505C33.0673 15.0089 33.1856 14.9669 33.3029 14.9241L33.5456 14.8357L33.3692 14.3493L33.1267 14.4377C32.9141 14.5151 32.6986 14.5903 32.4812 14.6638C32.1212 14.3891 31.7293 14.1394 31.3169 13.9211C31.3955 13.8297 31.4718 13.7356 31.5439 13.6372L31.697 13.429L31.2815 13.122L31.1285 13.3302C31.0377 13.4535 30.939 13.5716 30.8351 13.6858C30.5607 13.562 30.2796 13.4526 29.9951 13.3595C29.759 13.2825 29.5229 13.2173 29.2877 13.164C29.3466 13.0161 29.4008 12.8665 29.45 12.7143L29.5299 12.4685L29.0389 12.3084L28.9591 12.5542C28.9028 12.7274 28.8395 12.898 28.7701 13.0651C28.1505 12.9697 27.5443 12.9592 26.9731 13.0332L26.9932 12.0805L26.4769 12.0696L26.4547 13.1255C26.26 13.1705 26.0702 13.2256 25.8873 13.2921C25.4946 13.4343 25.1284 13.6337 24.7837 13.8655C24.5895 13.6403 24.4197 13.3997 24.2788 13.1469L24.1527 12.9212L23.7019 13.1736L23.828 13.3993C23.979 13.6696 24.1588 13.9277 24.3639 14.17C24.0519 14.4127 23.7573 14.676 23.4745 14.9402C23.2537 15.1463 23.0385 15.3728 23.0425 15.6733C23.0459 15.9611 23.2498 16.1811 23.4693 16.3762C23.7595 16.6343 24.1143 16.8749 24.5855 17.1343C25.797 17.8009 27.1922 18.149 28.6074 18.149C28.9936 18.149 29.3815 18.1232 29.7673 18.0707C30.0505 18.0322 31.5028 17.733 31.3335 17.2838C31.1402 16.7703 29.9794 17.36 29.6765 17.4019C28.0192 17.6276 26.3259 17.3224 24.9099 16.5424C24.4839 16.308 24.1679 16.0945 23.9162 15.8706C23.7843 15.7534 23.7381 15.6917 23.722 15.6646C23.7394 15.6344 23.7896 15.5684 23.934 15.4332C24.2103 15.1752 24.5101 14.9039 24.8352 14.6559C25.056 14.8572 25.2961 15.0431 25.5535 15.2093L25.7703 15.3496L26.0505 14.9149L25.8336 14.7744C25.6338 14.645 25.4452 14.5033 25.2699 14.3506C25.536 14.1809 25.8184 14.0335 26.1169 13.9255C26.2234 13.887 26.3316 13.8529 26.4411 13.8231L26.4298 14.3721C26.428 14.4591 26.4259 14.558 26.4001 14.6161L26.2958 14.8528L26.768 15.0618L26.8723 14.8252C26.9399 14.6721 26.943 14.5116 26.946 14.383L26.96 13.7142C27.4496 13.6403 27.9572 13.642 28.4642 13.7063C28.3447 13.9259 28.2133 14.138 28.0702 14.3427L27.9223 14.5545L28.3451 14.8515L28.493 14.6397C28.6811 14.3703 28.8505 14.0886 29.0005 13.7964C29.447 13.89 29.8882 14.0287 30.3123 14.2028C30.2224 14.2855 30.1316 14.3672 30.0418 14.4482C29.8096 14.6572 29.5465 14.8939 29.2571 14.9752L29.0088 15.0453L29.149 15.5434L29.3973 15.4734C29.8022 15.3592 30.1264 15.0675 30.3865 14.8331C30.5314 14.7027 30.6785 14.5702 30.8229 14.4333C31.121 14.5807 31.4072 14.7447 31.6766 14.9219C31.4727 14.9844 31.2676 15.0457 31.062 15.1042C30.8832 15.1554 30.7217 15.1974 30.5633 15.1978H30.3054L30.3067 15.7158H30.5646C30.7889 15.7148 30.9944 15.6611 31.2035 15.6016C31.5377 15.5062 31.8703 15.4052 32.1998 15.2998C32.4852 15.526 33.0507 16.3321 33.5338 16.0167C33.68 15.9213 33.6258 15.7302 33.5037 15.543L33.5029 15.5451Z" fill="#5C57A2"/>
<path d="M28.3974 16.4417C27.8681 17.2767 26.0745 16.9622 26.1138 15.8639C26.1426 15.0538 26.5017 14.3207 27.3697 14.361C27.6241 14.3728 27.8881 14.4187 28.0928 14.5705C28.4437 14.8303 28.5261 15.3176 28.5335 15.7545C28.5375 15.9916 28.5244 16.2413 28.3974 16.4417Z" fill="#0D0F1A"/>
<path fill-rule="evenodd" clip-rule="evenodd" d="M26.6971 15.5224C26.7285 15.483 26.7595 15.4472 26.7905 15.4135C26.8214 15.3794 26.8533 15.3474 26.8869 15.3168C26.9545 15.2569 27.0335 15.2026 27.126 15.1759C27.1718 15.1572 27.2216 15.155 27.2674 15.1624C27.3137 15.1698 27.3568 15.1865 27.397 15.2057C27.4376 15.225 27.476 15.2456 27.5179 15.2647C27.5603 15.284 27.606 15.301 27.665 15.3207C27.665 15.3916 27.6702 15.4441 27.6903 15.4913C27.7099 15.539 27.747 15.5819 27.8011 15.6453C27.7907 15.6904 27.7701 15.7306 27.7579 15.7708C27.7452 15.8119 27.7417 15.8531 27.7504 15.9183C27.7112 15.9655 27.6593 15.9965 27.6108 16.0245C27.5607 16.053 27.5161 16.0792 27.4563 16.1295C27.4297 16.1164 27.4049 16.1125 27.3796 16.1107C27.3669 16.1107 27.3538 16.1103 27.3407 16.1103C27.3276 16.1107 27.3141 16.1103 27.3005 16.1099C27.2914 16.098 27.2831 16.0858 27.2727 16.0788C27.2674 16.0753 27.2617 16.0735 27.2547 16.0735C27.2478 16.0735 27.2399 16.0744 27.2298 16.0784C27.2081 16.0771 27.1897 16.0661 27.1775 16.0512C27.1661 16.0341 27.16 16.0136 27.1657 15.9861C27.1552 15.9861 27.1457 15.9852 27.136 15.9834C27.1273 15.9813 27.119 15.9778 27.1116 15.9733C27.0959 15.9655 27.0859 15.9537 27.0771 15.9409C27.0749 15.9379 27.0732 15.9344 27.071 15.9314C27.0697 15.9279 27.0679 15.9239 27.0671 15.9205C27.0645 15.9129 27.0627 15.9055 27.061 15.8981C27.0579 15.8833 27.0592 15.8679 27.0597 15.8535C27.061 15.8391 27.0645 15.8251 27.0658 15.8115C27.0688 15.798 27.071 15.7848 27.0714 15.7708C27.0745 15.7433 27.0697 15.7135 27.0584 15.6698C27.0828 15.6663 27.1015 15.6615 27.1177 15.6553C27.1256 15.6523 27.1321 15.6488 27.1382 15.6444C27.1448 15.6409 27.1505 15.6366 27.1552 15.6318C27.1754 15.6129 27.1902 15.5884 27.2111 15.5644C27.222 15.5534 27.2329 15.5408 27.2473 15.5334C27.2543 15.5294 27.2608 15.525 27.2687 15.5228C27.2762 15.5206 27.284 15.5193 27.2914 15.5184C27.3067 15.5167 27.3224 15.5232 27.3351 15.5321C27.3477 15.543 27.3577 15.5595 27.3625 15.581C27.3332 15.5875 27.3106 15.5937 27.2883 15.6051C27.2665 15.6164 27.2473 15.6353 27.2364 15.6602C27.2272 15.658 27.2194 15.6589 27.2129 15.6615C27.2068 15.6641 27.2023 15.6694 27.1989 15.6755C27.1949 15.6811 27.1932 15.6881 27.1923 15.6956C27.1915 15.703 27.1902 15.71 27.1906 15.7179C27.1906 15.7254 27.1906 15.7324 27.1906 15.7389C27.1906 15.7454 27.1897 15.7515 27.1871 15.7569C27.1841 15.7621 27.1806 15.7669 27.1745 15.7713C27.1683 15.7756 27.1596 15.7796 27.147 15.7835C27.1592 15.7932 27.1679 15.8006 27.1741 15.8067C27.1801 15.8132 27.1854 15.8181 27.1875 15.8229C27.1893 15.8282 27.1906 15.8325 27.191 15.8373C27.1915 15.8421 27.1893 15.8473 27.1893 15.8527C27.1884 15.8627 27.1854 15.8749 27.191 15.8855C27.1945 15.8968 27.2059 15.9042 27.2233 15.9047C27.2324 15.9055 27.2395 15.9073 27.2452 15.9099C27.2517 15.9121 27.2569 15.9152 27.2613 15.9196C27.2714 15.927 27.2792 15.9383 27.2896 15.948C27.3093 15.9681 27.3394 15.9865 27.373 15.9659C27.4253 15.9476 27.4629 15.948 27.5226 15.9546C27.5275 15.9493 27.531 15.9431 27.5354 15.9375C27.5393 15.9318 27.5436 15.9279 27.5471 15.9218C27.551 15.9161 27.5549 15.9108 27.559 15.9055L27.5694 15.889C27.582 15.8666 27.5934 15.8425 27.593 15.8145C27.6444 15.7875 27.6663 15.7236 27.6427 15.6672C27.6178 15.6344 27.624 15.6055 27.6244 15.5727C27.6253 15.5408 27.6204 15.5045 27.582 15.4874C27.5952 15.4493 27.5611 15.4322 27.531 15.4218C27.4996 15.4104 27.4747 15.4026 27.479 15.3518C27.4472 15.3435 27.4192 15.3343 27.3909 15.3273C27.3625 15.3199 27.3332 15.3168 27.3037 15.3221C27.2892 15.2736 27.2539 15.2797 27.2251 15.2941C27.1949 15.309 27.1722 15.3282 27.1408 15.3041C27.1125 15.3356 27.082 15.3356 27.0479 15.3427C27.0148 15.3488 26.9785 15.3605 26.9658 15.4022C26.9257 15.3959 26.9121 15.4322 26.9056 15.4647C26.8973 15.4979 26.893 15.5245 26.8419 15.5272C26.8375 15.5604 26.8332 15.5901 26.8301 15.6199C26.8301 15.6348 26.828 15.6496 26.8301 15.6646C26.831 15.672 26.8319 15.6794 26.8332 15.6868C26.8349 15.6943 26.8375 15.7017 26.8402 15.7091C26.8228 15.7376 26.8174 15.7704 26.817 15.8036C26.8187 15.8364 26.8249 15.8697 26.8367 15.9016C26.8581 15.9663 26.8899 16.025 26.9095 16.0984C26.9611 16.1177 27.0073 16.1325 27.0462 16.1509C27.0653 16.1605 27.0833 16.1697 27.0985 16.1842C27.1143 16.1968 27.1286 16.2126 27.1408 16.2331C27.1679 16.2292 27.1875 16.2363 27.2068 16.245C27.2259 16.2528 27.2426 16.2682 27.2621 16.2774C27.2814 16.2874 27.3014 16.2974 27.3241 16.2961C27.3355 16.2961 27.3473 16.2935 27.3594 16.2887C27.3717 16.283 27.3843 16.2743 27.3965 16.262C27.4136 16.2856 27.435 16.2883 27.4559 16.2939C27.4773 16.3006 27.4978 16.3058 27.52 16.3369C27.5257 16.3312 27.5319 16.3263 27.5371 16.3219C27.5428 16.3171 27.548 16.3123 27.5536 16.3084C27.5646 16.3006 27.575 16.2939 27.5855 16.2887C27.6065 16.2774 27.627 16.2695 27.6479 16.262C27.6715 16.2717 27.6946 16.2708 27.7155 16.2629C27.7261 16.2585 27.7361 16.2533 27.7456 16.2472L27.7601 16.2376L27.7736 16.2261C27.7998 16.2345 27.829 16.2398 27.8343 16.199C27.857 16.1684 27.8858 16.1575 27.9394 16.1733C27.9285 16.1894 27.9163 16.2043 27.9036 16.2187C27.8906 16.2327 27.8757 16.2446 27.8618 16.2568C27.8478 16.2699 27.8316 16.2795 27.8169 16.2918L27.7937 16.3102C27.7859 16.3158 27.7779 16.3219 27.7701 16.3285C27.7243 16.3006 27.6951 16.3215 27.6615 16.346C27.6449 16.3574 27.6279 16.3697 27.61 16.3762C27.5921 16.3814 27.5733 16.381 27.5554 16.3679C27.4782 16.381 27.397 16.3941 27.3167 16.3858C27.2368 16.3779 27.1583 16.3482 27.1072 16.2861C27.0907 16.2795 27.0732 16.2739 27.0549 16.2682L27.0016 16.2476C26.9838 16.2406 26.9663 16.2318 26.9483 16.2231C26.9318 16.2135 26.9139 16.2043 26.8986 16.1925C26.8354 16.1479 26.7864 16.0823 26.7878 16.0048C26.766 15.9939 26.7555 15.9772 26.7489 15.9602C26.7437 15.9423 26.7424 15.9239 26.7415 15.906C26.7411 15.8877 26.7376 15.8705 26.7298 15.8531C26.7254 15.8443 26.7193 15.836 26.7106 15.8273C26.7019 15.8186 26.6913 15.8093 26.677 15.7997C26.68 15.7774 26.6874 15.7551 26.6922 15.7337C26.6992 15.7122 26.704 15.6913 26.7084 15.6702C26.7106 15.6598 26.7123 15.6492 26.7127 15.6383C26.7136 15.6274 26.7145 15.6164 26.7136 15.6046C26.7123 15.5928 26.711 15.5806 26.7088 15.567C26.7066 15.5534 26.7023 15.539 26.6988 15.5237L26.6971 15.5224Z" fill="#DBB5D6"/>
<path d="M33.5112 35.1979C32.2081 37.6687 29.5645 39.3592 26.5145 39.3592C23.4646 39.3592 20.8209 37.6687 19.5178 35.1979C20.8205 32.7269 23.4646 31.0364 26.5145 31.0364C29.5641 31.0364 32.2086 32.7269 33.5112 35.1979Z" fill="#5B58A3"/>
<path d="M23.5157 33.1384C24.0167 33.3501 24.4277 33.7862 24.9261 34.4467C25.3045 34.9474 25.6959 35.4807 25.7692 36.1026C25.9066 37.2622 25.1504 38.4729 24.2279 39.1124C22.8345 40.0786 21.2172 40.1268 19.6056 39.8613C17.5411 39.5209 15.7771 37.7315 16.4514 35.5638C16.8118 34.4046 18.1529 32.7687 19.5109 32.8313C19.9211 32.8501 20.3021 33.0387 20.7031 33.1271C21.0657 33.2066 21.4467 33.2027 21.8077 33.1156C22.5377 32.9398 23.0636 32.9472 23.5157 33.1384Z" fill="#DBB5D6"/>
<path d="M18.6484 33.9585C18.9364 33.8321 19.2244 33.7551 19.4579 33.7783C19.6892 33.8014 19.8804 33.9647 20.1038 34.0276C20.497 34.1383 20.9042 33.9248 21.3121 33.8955C21.8606 33.8561 22.3874 34.1606 22.7439 34.5691C23.1 34.9781 23.3156 35.4829 23.5255 35.9788C23.5586 36.0572 23.5892 36.1543 23.5339 36.2195C23.5046 36.2536 23.4583 36.2684 23.4147 36.282C22.3302 36.6109 21.2009 36.9433 20.0776 36.7806C19.2296 36.6578 18.4062 36.254 17.5565 36.3646C16.1335 36.5497 16.9024 35.3447 17.5121 34.72C17.7525 34.4733 18.2002 34.1562 18.6484 33.9589V33.9585Z" fill="#151515"/>
<path d="M18.6944 39.1186C19.0362 39.318 19.4486 39.3421 19.8435 39.361C20.3693 39.3863 20.9126 39.4086 21.4049 39.2214C21.9827 39.0014 22.416 38.5215 22.8258 38.0579C23.0191 37.8392 23.2154 37.6166 23.3385 37.3511C23.4616 37.0861 23.503 36.7676 23.38 36.5025C22.7499 36.4815 22.1851 36.8686 21.5759 37.0327C20.9231 37.2084 20.2489 37.1157 19.5969 36.9867C18.6634 36.8017 17.8661 36.6473 16.9039 36.6145C16.8686 36.6132 16.8293 36.6136 16.8044 36.6386C16.337 37.1 18.3925 38.9423 18.6949 39.119L18.6944 39.1186Z" fill="#151515"/>
<path d="M37.2836 31.3275C36.9629 33.9033 34.8617 35.8926 32.3175 35.8926C31.3745 35.8926 30.4921 35.6193 29.7389 35.1438C30.9114 32.7976 33.2567 31.1968 35.9584 31.1968C36.4118 31.1968 36.8547 31.2418 37.2841 31.328L37.2836 31.3275Z" fill="#5B58A3"/>
<path d="M37.7429 37.666C35.6988 39.2598 32.8099 39.1772 31.0106 37.3743C30.3438 36.7059 29.9127 35.8871 29.7155 35.0171C32.1998 34.1891 34.9875 34.7188 36.898 36.6337C37.2183 36.9547 37.4997 37.3007 37.7429 37.666Z" fill="#5B58A3"/>
<path d="M29.0452 21.5396C28.5891 21.5396 28.1257 21.5029 27.6561 21.429C27.7356 20.8871 28.1933 20.4878 28.7219 20.5096C30.2195 20.5717 31.6325 20.1933 32.933 19.3798C35.5981 17.7124 36.326 14.9174 36.333 14.8894C36.868 15.0338 37.1498 15.6422 36.9216 16.164C36.4403 17.2641 35.4147 19.0216 33.4432 20.2554C32.0772 21.1101 30.6031 21.5396 29.0452 21.5396Z" fill="#5C57A2"/>
<path d="M32.3377 8.32682C32.6209 8.43223 32.8932 8.57089 33.1524 8.75284C33.5355 9.02229 33.5513 9.63159 33.2869 10.0252C32.9774 10.4858 32.3988 10.296 31.9105 10.2334C30.5834 10.0637 29.2624 9.85291 27.927 10.0738C26.2797 10.3463 24.6463 11.0374 23.5356 12.326C22.0523 14.0467 21.4527 15.4503 21.4527 17.6329V24.3423C21.4527 24.9021 21.3594 25.5495 21.5749 26.0814C22.1004 27.3769 23.4803 26.1439 24.2771 27.0161C24.6699 27.4456 24.8836 28.5112 24.3827 28.9367C24.1187 29.1607 23.7499 29.1983 23.4051 29.2267C22.673 29.2866 21.9407 29.3461 21.2084 29.406C20.8667 29.8521 21.2873 30.6575 20.8365 30.9921C20.7257 31.0743 20.5843 31.1027 20.4477 31.122C19.8381 31.2099 18.6018 31.2772 18.2174 30.6871C18.0603 30.4462 18.0174 30.1501 17.9891 29.8636C17.9415 29.3837 18.2876 27.9779 17.5588 28.0116C17.1351 28.0313 16.71 28.0251 16.2867 27.9932C16.0088 27.9727 15.7264 27.939 15.4733 27.8226C14.8528 27.5366 14.6712 26.6421 15.4332 26.4544C16.0218 26.3092 16.9064 26.8857 17.341 26.2336C17.4318 26.0971 17.4619 25.9304 17.4881 25.7686C17.8468 23.5378 17.8111 21.2647 17.7749 19.0055C17.7688 18.6338 17.76 18.2506 17.6091 17.9111C17.2804 17.1754 16.412 16.8811 15.6374 16.6637C14.5578 16.3615 13.4777 16.0592 12.3981 15.7565C12.3906 15.7548 12.3832 15.7526 12.3758 15.7504C10.0686 15.1017 10.2623 13.0997 10.2623 13.0997C10.2558 12.9781 10.2558 12.8439 10.2615 12.7017V12.6999C10.3117 11.7202 10.6438 11.218 10.7494 11.0453C10.9209 10.7636 11.1404 10.5125 11.3882 10.2956C11.7862 9.94826 12.2523 9.68494 12.7376 9.48156C13.2132 9.28254 13.7125 9.13951 14.2191 9.04503C15.5907 8.78915 16.556 9.20074 17.9023 9.4575C19.4161 9.74574 20.9776 9.91415 22.507 9.63946C23.8254 9.40282 25.0643 8.85039 26.3547 8.49085C27.6543 8.12868 29.0093 7.9664 30.3586 8.00576C31.053 8.02589 31.7207 8.09718 32.3373 8.32682H32.3377Z" fill="#5C57A2"/>
<path d="M22.0326 13.0996C21.9854 13.226 21.9327 13.3441 21.8738 13.4548C21.9213 13.3358 21.9741 13.2168 22.0326 13.0996Z" fill="#5C57A2"/>
<path d="M15.2502 38.5907C15.128 38.9218 14.8985 39.1996 14.521 39.2713C13.5099 39.4633 12.1313 37.3834 11.763 36.6145C11.2773 35.5988 12.0074 34.6187 11.9821 33.6183C11.9568 32.6179 11.0831 31.9269 10.693 31.0661C10.549 30.7485 10.528 30.4034 10.4726 30.0644C10.4687 27.1946 10.4534 24.3244 10.4735 21.455C10.4783 20.7806 10.3718 20.1009 10.4735 19.4286C10.5751 18.7572 11.4026 18.1907 11.9005 18.8701C12.2889 19.4001 12.1025 20.3016 12.1056 20.9109C12.1108 21.9419 12.116 24.2474 12.1213 25.742C12.1226 26.0744 12.1239 26.3666 12.1252 26.5959C12.13 27.4562 12.3805 28.8804 13.2459 29.4206C14.1051 29.9568 15.2864 29.6572 16.1937 30.1738C16.8784 30.5635 17.2598 31.3806 17.1747 32.1355C17.0796 32.9771 16.3425 33.526 15.89 34.1821C15.4619 34.8033 15.2589 35.549 15.2406 36.2987C15.2266 36.8717 15.3872 37.4342 15.3624 38.0071C15.3541 38.2 15.3192 38.4039 15.2502 38.5903V38.5907Z" fill="#151515"/>
</svg>
