<svg width="48" height="48" viewBox="0 0 48 48" fill="none" xmlns="http://www.w3.org/2000/svg">
<path d="M38.4953 28.88H29.6249C29.5827 28.8798 29.5413 28.8681 29.5052 28.846L26.3004 26.8671C26.2572 26.8417 26.2236 26.8027 26.205 26.7561C26.1863 26.7096 26.1836 26.6582 26.1973 26.61C26.211 26.5618 26.2403 26.5195 26.2806 26.4897C26.3209 26.4599 26.37 26.4443 26.4201 26.4454H35.2904C35.3327 26.4453 35.3742 26.4571 35.4101 26.4793L38.6149 28.4578C38.6583 28.4832 38.6921 28.5222 38.7109 28.5688C38.7296 28.6154 38.7324 28.6669 38.7187 28.7153C38.705 28.7636 38.6756 28.806 38.6351 28.8358C38.5947 28.8657 38.5455 28.8812 38.4953 28.88ZM29.6895 28.4238H37.694L35.2258 26.9011H27.2213L29.6895 28.4238Z" fill="#1A0A2D"/>
<path d="M37.9432 20.9346H29.0729C29.0306 20.9345 28.9892 20.9227 28.9532 20.9006L25.748 18.9218C25.7049 18.8964 25.6714 18.8575 25.6527 18.8111C25.6341 18.7647 25.6313 18.7134 25.6448 18.6652C25.6583 18.6171 25.6874 18.5748 25.7275 18.5449C25.7677 18.515 25.8165 18.4992 25.8665 18.5H34.7395C34.7818 18.5002 34.8232 18.5119 34.8592 18.534L38.0622 20.5129C38.1054 20.5383 38.1389 20.5773 38.1576 20.6238C38.1762 20.6704 38.1789 20.7218 38.1652 20.77C38.1515 20.8182 38.1222 20.8605 38.0819 20.8903C38.0416 20.9201 37.9926 20.9357 37.9425 20.9346H37.9432ZM29.1375 20.4789H37.142L34.6738 18.9558H26.6693L29.1375 20.4789Z" fill="#1A0A2D"/>
<path d="M32.3404 23.5694C32.5242 23.5694 32.767 23.5486 32.9033 23.41C32.9367 23.38 32.9632 23.343 32.9811 23.3018C32.9989 23.2606 33.0077 23.216 33.0068 23.171C33.0022 22.8557 32.7425 22.7444 32.4989 22.7451H32.4668H32.1327L32.135 23.5543L32.1765 23.5592C32.2309 23.5656 32.2856 23.569 32.3404 23.5694Z" fill="#FF9900"/>
<path d="M32.5231 23.8311L32.1365 23.8352L32.1395 24.7841H32.1863C32.292 24.7841 32.4612 24.7841 32.4978 24.7841H32.5057C32.5057 24.7841 32.5148 24.7841 32.531 24.7841C32.818 24.7841 33.1246 24.6576 33.1253 24.3079C33.1277 24.2503 33.1182 24.1929 33.0976 24.1391C33.0769 24.0852 33.0455 24.0362 33.0053 23.9949C32.8516 23.842 32.5975 23.8307 32.5231 23.8311Z" fill="#FF9900"/>
<path d="M34.0085 22.0406C33.5681 21.6262 32.982 21.4022 32.3774 21.4172H32.3533C31.7431 21.4379 31.1659 21.6993 30.7477 22.1441C30.3296 22.589 30.1045 23.1813 30.1215 23.7916C30.1386 24.4019 30.3964 24.9806 30.8388 25.4014C31.2811 25.8223 31.872 26.051 32.4824 26.0376H32.5054C32.9622 26.0225 33.4043 25.8722 33.7758 25.6059C34.1472 25.3395 34.4313 24.969 34.5922 24.5412C34.7531 24.1134 34.7835 23.6475 34.6796 23.2024C34.5757 22.7573 34.3422 22.353 34.0085 22.0406ZM33.3183 24.9188C33.1756 24.975 33.0239 25.0053 32.8705 25.0083H32.8237L32.8199 25.0551V25.5124H32.4775V25.0049L32.1403 25.0076V25.5116H31.7952L31.7945 25.0094L31.2145 25.014V24.7874H31.4297C31.4733 24.7872 31.515 24.7697 31.5458 24.7388C31.5765 24.7079 31.5937 24.666 31.5936 24.6224L31.5879 22.9116C31.5879 22.8263 31.52 22.767 31.4233 22.767L31.2073 22.7519V22.4363H31.7933V21.9164H32.1331V22.437H32.473V21.9152H32.8128V22.4374H32.8754C32.9929 22.4374 33.5815 22.5597 33.583 23.0362C33.583 23.5614 33.1428 23.6181 33.1352 23.6339L33.1118 23.6358C33.1363 23.6385 33.7114 23.7491 33.7072 24.3574C33.7038 24.6209 33.5762 24.8093 33.3183 24.9188Z" fill="#FF9900"/>
<path d="M18.4394 17.9994C18.4394 18.8526 17.2511 19.5442 15.7852 19.5442C14.3194 19.5442 13.1311 18.8526 13.1311 17.9994C13.1311 17.1462 14.3194 16.4546 15.7852 16.4546C17.2511 16.4546 18.4394 17.1462 18.4394 17.9994Z" fill="#E6007A"/>
<path d="M18.4394 29.637C18.4394 30.4902 17.2511 31.1819 15.7852 31.1819C14.3194 31.1819 13.1311 30.4902 13.1311 29.637C13.1311 28.7839 14.3194 28.0922 15.7852 28.0922C17.2511 28.0922 18.4394 28.7839 18.4394 29.637Z" fill="#E6007A"/>
<path d="M12.0851 21.6813C12.818 20.4115 12.8134 19.0363 12.0748 18.6097C11.3362 18.1831 10.1433 18.8667 9.41033 20.1365C8.67741 21.4063 8.68203 22.7816 9.42065 23.2082C10.1593 23.6347 11.3522 22.9512 12.0851 21.6813Z" fill="#E6007A"/>
<path d="M22.1499 24.4291C22.8885 24.8557 22.8931 26.2309 22.1602 27.5007C21.4273 28.7705 20.2344 29.4541 19.4957 29.0275C18.7571 28.6009 18.7525 27.2257 19.4854 25.9559C20.2183 24.686 21.4113 24.0025 22.1499 24.4291Z" fill="#E6007A"/>
<path d="M12.0752 29.0267C12.8138 28.6001 12.8184 27.2249 12.0855 25.9551C11.3526 24.6853 10.1596 24.0017 9.42101 24.4283C8.68239 24.8549 8.67777 26.2301 9.41069 27.4999C10.1436 28.7697 11.3365 29.4533 12.0752 29.0267Z" fill="#E6007A"/>
<path d="M22.1595 20.1359C22.8924 21.4057 22.8878 22.781 22.1492 23.2075C21.4106 23.6341 20.2176 22.9506 19.4847 21.6807C18.7518 20.4109 18.7564 19.0357 19.495 18.6091C20.2337 18.1825 21.4266 18.8661 22.1595 20.1359Z" fill="#E6007A"/>
<path d="M23.5291 28.462C21.9536 31.0726 19.0897 32.8182 15.8182 32.8182C10.8476 32.8182 6.81818 28.7887 6.81818 23.8182C6.81818 18.8476 10.8476 14.8182 15.8182 14.8182C19.0897 14.8182 21.9536 16.5638 23.5291 19.1743C23.6741 18.9048 23.8313 18.6428 24 18.3891C22.241 15.7436 19.2332 14 15.8182 14C10.3957 14 6 18.3957 6 23.8182C6 29.2406 10.3957 33.6364 15.8182 33.6364C19.2332 33.6364 22.241 31.8928 24 29.2473C23.8313 28.9936 23.6741 28.7316 23.5291 28.462Z" fill="black"/>
<path fill-rule="evenodd" clip-rule="evenodd" d="M32.1818 32.8182C37.1524 32.8182 41.1818 28.7887 41.1818 23.8182C41.1818 18.8476 37.1524 14.8182 32.1818 14.8182C27.2113 14.8182 23.1818 18.8476 23.1818 23.8182C23.1818 28.7887 27.2113 32.8182 32.1818 32.8182ZM32.1818 33.6364C37.6042 33.6364 42 29.2406 42 23.8182C42 18.3957 37.6042 14 32.1818 14C26.7594 14 22.3636 18.3957 22.3636 23.8182C22.3636 29.2406 26.7594 33.6364 32.1818 33.6364Z" fill="black"/>
</svg>
