<svg width="48" height="48" viewBox="0 0 48 48" fill="none" xmlns="http://www.w3.org/2000/svg">
<path d="M15.5346 17.7627C17.9414 17.7627 19.8925 15.806 19.8925 13.3923C19.8925 10.9787 17.9414 9.02197 15.5346 9.02197C13.1279 9.02197 11.1768 10.9787 11.1768 13.3923C11.1768 15.806 13.1279 17.7627 15.5346 17.7627Z" fill="#050A5A"/>
<path d="M35.4939 17.7625H29.4583C28.7174 17.7625 28.1074 17.1507 28.1074 16.4077V10.3548C28.1074 9.61186 28.7174 9 29.4583 9H35.4939C36.2347 9 36.8449 9.61186 36.8449 10.3548V16.4077C36.8449 17.1726 36.2347 17.7625 35.4939 17.7625Z" fill="#00FFB9"/>
<path d="M19.8926 21.4966H19.6311H13.0071C11.983 21.4966 11.155 22.327 11.155 23.354V30.2592V37.1424C11.155 38.1695 11.983 38.9999 13.0071 38.9999H18.0405C19.0646 38.9999 19.8926 38.1695 19.8926 37.1424V32.1166C19.8926 31.0896 20.7206 30.2592 21.7447 30.2592H26.5165C27.5407 30.2592 28.3686 29.4289 28.3686 28.4017V23.354C28.3686 22.327 27.5407 21.4966 26.5165 21.4966H19.8926Z" fill="#00DAFF"/>
</svg>
