<svg width="48" height="48" viewBox="0 0 48 48" fill="none" xmlns="http://www.w3.org/2000/svg">
<path d="M23.5291 28.462C21.9536 31.0726 19.0897 32.8182 15.8182 32.8182C10.8476 32.8182 6.81818 28.7887 6.81818 23.8182C6.81818 18.8476 10.8476 14.8182 15.8182 14.8182C19.0897 14.8182 21.9536 16.5638 23.5291 19.1743C23.6741 18.9048 23.8313 18.6428 24 18.3891C22.241 15.7436 19.2332 14 15.8182 14C10.3957 14 6 18.3957 6 23.8182C6 29.2406 10.3957 33.6364 15.8182 33.6364C19.2332 33.6364 22.241 31.8928 24 29.2473C23.8313 28.9936 23.6741 28.7316 23.5291 28.462Z" fill="black"/>
<path fill-rule="evenodd" clip-rule="evenodd" d="M32.1818 32.8182C37.1524 32.8182 41.1818 28.7887 41.1818 23.8182C41.1818 18.8476 37.1524 14.8182 32.1818 14.8182C27.2113 14.8182 23.1818 18.8476 23.1818 23.8182C23.1818 28.7887 27.2113 32.8182 32.1818 32.8182ZM32.1818 33.6364C37.6042 33.6364 42 29.2406 42 23.8182C42 18.3957 37.6042 14 32.1818 14C26.7594 14 22.3636 18.3957 22.3636 23.8182C22.3636 29.2406 26.7594 33.6364 32.1818 33.6364Z" fill="black"/>
<path fill-rule="evenodd" clip-rule="evenodd" d="M28.0256 18.3359H36.5084C36.7108 18.3359 36.8978 18.4408 36.9987 18.611L39.4702 22.777C39.5983 22.993 39.5602 23.2657 39.3774 23.4409L32.5749 29.9601C32.3545 30.1713 32 30.1713 31.7797 29.9601L24.9863 23.4497C24.7993 23.2704 24.7643 22.9898 24.9018 22.7724L27.5435 18.5976C27.6464 18.435 27.829 18.3359 28.0256 18.3359ZM35.4131 20.1959V21.3648H32.9967V22.1753C34.6938 22.2619 35.9671 22.6176 35.9766 23.0439L35.9765 23.9327C35.9671 24.3591 34.6938 24.7148 32.9967 24.8014V26.7903H31.3922V24.8014C29.6951 24.7148 28.4218 24.3591 28.4124 23.9327L28.4124 23.0439C28.4219 22.6176 29.6951 22.2619 31.3922 22.1753V21.3648H28.9758V20.1959H35.4131ZM32.1945 24.1908C34.0056 24.1908 35.5194 23.89 35.8898 23.4883C35.5757 23.1477 34.4394 22.8796 32.9967 22.806V23.6546C32.7382 23.6678 32.4697 23.6747 32.1945 23.6747C31.9192 23.6747 31.6508 23.6678 31.3922 23.6546V22.806C29.9496 22.8796 28.8132 23.1477 28.4991 23.4883C28.8696 23.89 30.3833 24.1908 32.1945 24.1908Z" fill="#009393"/>
<path fill-rule="evenodd" clip-rule="evenodd" d="M21.209 21.3168H12.8044C12.7643 21.3168 12.7252 21.3056 12.6911 21.2847L9.65455 19.41C9.57242 19.3592 9.53398 19.26 9.56037 19.1672C9.58653 19.0744 9.67138 19.0103 9.76784 19.0103H18.1724C18.2125 19.0103 18.2518 19.0216 18.286 19.0423L21.3225 20.9173C21.4046 20.9678 21.4431 21.067 21.4167 21.1598C21.3903 21.2526 21.3057 21.3168 21.209 21.3168ZM12.8658 20.885H20.4485L18.1112 19.442H10.5286L12.8658 20.885Z" fill="#1A0A2D"/>
<path fill-rule="evenodd" clip-rule="evenodd" d="M21.732 28.8445H13.3274C13.2874 28.8445 13.2483 28.8334 13.2141 28.8124L10.1776 26.9377C10.0955 26.887 10.057 26.7878 10.0834 26.695C10.1096 26.6021 10.1944 26.538 10.2909 26.538H18.6955C18.7355 26.538 18.7749 26.5494 18.809 26.5701L21.8455 28.445C21.9277 28.4955 21.9661 28.5947 21.9397 28.6875C21.9133 28.7804 21.8287 28.8445 21.732 28.8445ZM13.3888 28.4127H20.9715L18.6343 26.9698H11.0516L13.3888 28.4127Z" fill="#1A0A2D"/>
<path d="M14.6592 23.9485C14.6665 24.6739 15.2589 25.259 15.9828 25.259C15.9851 25.259 15.9873 25.259 15.9895 25.2589C15.9917 25.2589 15.9938 25.2588 15.9959 25.2588C16.7257 25.2515 17.3136 24.6519 17.3063 23.9221C17.3026 23.5686 17.1616 23.2376 16.9091 22.9901C16.66 22.746 16.3317 22.6118 15.9834 22.6118C15.9789 22.6118 15.9741 22.6118 15.9696 22.612C15.616 22.6154 15.285 22.7564 15.0375 23.0087C14.79 23.2615 14.6558 23.5952 14.6592 23.9485Z" fill="#1A0A2D"/>
</svg>
