<svg width="48" height="48" viewBox="0 0 48 48" fill="none" xmlns="http://www.w3.org/2000/svg">
<path d="M48 24C48 37.2822 37.2822 48 24 48C10.7178 48 0 37.2822 0 24C0 10.7178 10.7178 0 24 0C37.2822 0 48 10.7178 48 24Z" fill="#321D47"/>
<path d="M23.9671 12.6103C25.9318 12.6103 27.5245 11.0186 27.5245 9.05516C27.5245 7.09169 25.9318 5.5 23.9671 5.5C22.0024 5.5 20.4097 7.09169 20.4097 9.05516C20.4097 11.0186 22.0024 12.6103 23.9671 12.6103Z" fill="#E6007A"/>
<path d="M23.9671 42.5C25.9318 42.5 27.5245 40.9083 27.5245 38.9448C27.5245 36.9814 25.9318 35.3896 23.9671 35.3896C22.0024 35.3896 20.4097 36.9814 20.4097 38.9448C20.4097 40.9083 22.0024 42.5 23.9671 42.5Z" fill="#E6007A"/>
<path d="M10.8574 19.7206C12.8221 19.7206 14.4148 18.1289 14.4148 16.1654C14.4148 14.202 12.8221 12.6103 10.8574 12.6103C8.89268 12.6103 7.30005 14.202 7.30005 16.1654C7.30005 18.1289 8.89268 19.7206 10.8574 19.7206Z" fill="#E6007A"/>
<path d="M37.1426 19.7206C39.1073 19.7206 40.7 18.1289 40.7 16.1654C40.7 14.202 39.1073 12.6103 37.1426 12.6103C35.1779 12.6103 33.5852 14.202 33.5852 16.1654C33.5852 18.1289 35.1779 19.7206 37.1426 19.7206Z" fill="#E6007A"/>
<path d="M10.8574 35.5213C12.8221 35.5213 14.4148 33.9296 14.4148 31.9661C14.4148 30.0026 12.8221 28.4109 10.8574 28.4109C8.89268 28.4109 7.30005 30.0026 7.30005 31.9661C7.30005 33.9296 8.89268 35.5213 10.8574 35.5213Z" fill="#E6007A"/>
<path d="M37.1426 35.5213C39.1073 35.5213 40.7 33.9296 40.7 31.9661C40.7 30.0026 39.1073 28.4109 37.1426 28.4109C35.1779 28.4109 33.5852 30.0026 33.5852 31.9661C33.5852 33.9296 35.1779 35.5213 37.1426 35.5213Z" fill="#E6007A"/>
<path d="M27.3927 23.2758C28.5126 23.3416 29.4348 23.4733 30.1595 23.8025C30.8841 24.1316 31.477 24.5267 31.8723 25.1192C32.2676 25.7117 32.4652 26.3701 32.4652 27.1601C32.4652 28.016 32.2675 28.7402 31.9382 29.3327C31.5429 29.9911 31.0159 30.4519 30.2912 30.8469C29.5666 31.2419 28.6443 31.3736 27.5902 31.3736H16.0616L17.1816 23.7366L16.0616 16.4946H27.195C28.1173 16.4946 28.8419 16.6263 29.5007 16.9555C30.1595 17.2188 30.6207 17.6797 31.0159 18.2064C31.3453 18.7331 31.5429 19.3914 31.5429 20.1156C31.5429 20.774 31.4112 21.4323 31.0818 21.959C30.8183 22.5516 30.2912 23.0124 29.6324 23.4074C28.9737 23.8025 28.1173 24.0658 27.0633 24.1316L27.3927 23.2758ZM20.8707 30.3202L18.9603 28.016H25.8774C26.3386 28.016 26.668 27.8843 26.8656 27.6868C27.1291 27.4235 27.2609 27.1601 27.2609 26.7651C27.2609 26.3701 27.1291 26.1067 26.8656 25.8434C26.6021 25.58 26.2727 25.5142 25.8116 25.5142H20.0143V22.1566H25.0869C25.2846 22.1566 25.4821 22.0907 25.6798 22.0249C25.8774 21.959 26.0092 21.7615 26.0751 21.6299C26.2069 21.4323 26.2068 21.2348 26.2068 21.0373C26.2068 20.8398 26.141 20.6423 26.0751 20.5106C26.0092 20.379 25.8774 20.2473 25.6798 20.1156C25.4821 20.0498 25.2845 19.9839 25.021 19.9839H18.8944L20.8049 17.6797L21.7931 23.8025L20.8707 30.3202Z" fill="white"/>
</svg>
