<svg width="48" height="48" viewBox="0 0 48 48" fill="none" xmlns="http://www.w3.org/2000/svg">
<path d="M48 24C48 37.2507 37.2507 48 24 48C10.7493 48 0 37.2507 0 24C0 10.7493 10.7493 0 24 0C37.2507 0 48 10.7493 48 24Z" fill="#321D47"/>
<path d="M33.3282 29.5364H28.1902L27.2437 27.1733H20.7536L19.8071 29.5364H14.6691L20.8212 15.6277H27.2437L33.3282 29.5364ZM23.9986 19.2062L22.3085 23.3923H25.6887L23.9986 19.2062Z" fill="white"/>
<path d="M23.9986 12.6569C25.9775 12.6569 27.5817 11.0547 27.5817 9.0784C27.5817 7.10207 25.9775 5.49994 23.9986 5.49994C22.0197 5.49994 20.4155 7.10207 20.4155 9.0784C20.4155 11.0547 22.0197 12.6569 23.9986 12.6569Z" fill="#E6007A"/>
<path d="M23.9986 42.5C25.9775 42.5 27.5817 40.8979 27.5817 38.9215C27.5817 36.9452 25.9775 35.3431 23.9986 35.3431C22.0197 35.3431 20.4155 36.9452 20.4155 38.9215C20.4155 40.8979 22.0197 42.5 23.9986 42.5Z" fill="#E6007A"/>
<path d="M10.8831 19.7463C12.862 19.7463 14.4662 18.1442 14.4662 16.1679C14.4662 14.1916 12.862 12.5894 10.8831 12.5894C8.90421 12.5894 7.30005 14.1916 7.30005 16.1679C7.30005 18.1442 8.90421 19.7463 10.8831 19.7463Z" fill="#E6007A"/>
<path d="M37.1141 19.7463C39.093 19.7463 40.6973 18.1442 40.6973 16.1679C40.6973 14.1916 39.093 12.5894 37.1141 12.5894C35.1352 12.5894 33.531 14.1916 33.531 16.1679C33.531 18.1442 35.1352 19.7463 37.1141 19.7463Z" fill="#E6007A"/>
<path d="M10.8831 35.5455C12.862 35.5455 14.4662 33.9434 14.4662 31.9671C14.4662 29.9907 12.862 28.3886 10.8831 28.3886C8.90421 28.3886 7.30005 29.9907 7.30005 31.9671C7.30005 33.9434 8.90421 35.5455 10.8831 35.5455Z" fill="#E6007A"/>
<path d="M37.1141 35.5455C39.093 35.5455 40.6973 33.9434 40.6973 31.9671C40.6973 29.9907 39.093 28.3886 37.1141 28.3886C35.1352 28.3886 33.531 29.9907 33.531 31.9671C33.531 33.9434 35.1352 35.5455 37.1141 35.5455Z" fill="#E6007A"/>
</svg>
