<svg width="48" height="48" viewBox="0 0 48 48" fill="none" xmlns="http://www.w3.org/2000/svg">
<path d="M6 12C6 8.68629 8.68629 6 12 6H36C39.3137 6 42 8.68629 42 12V36C42 39.3137 39.3137 42 36 42H12C8.68629 42 6 39.3137 6 36V12Z" fill="#471AA0"/>
<path fill-rule="evenodd" clip-rule="evenodd" d="M28.9389 15.3203L29.0291 15.5007L32.5238 21.6572H31.993L29.2771 16.8534L30.1334 21.6572H29.671L28.6684 16.0643L21.0481 18.5443L26.1145 21.6572H25.247L20.7325 18.8824V21.6572H20.2816V18.9952L17.514 21.6572H16.8668L20.2365 18.4315L19.1543 16.0868L15.9955 21.6572H15.4821L19.0867 15.3203H28.9389ZM15.4763 26.3438L19.0641 32.6801H28.9164L32.5207 26.3438H31.9975L28.984 31.6656L30.2321 26.3438H29.778L28.4655 31.9586L21.1158 30.1325L27.7585 26.3438H26.8439L20.7325 29.8168V26.3438H20.2816V29.6365L17.1098 26.3438H16.473L20.2139 30.2227L19.1769 31.9586L15.9976 26.3438H15.4763ZM27.6989 32.2292L20.6198 30.4481L19.5376 32.2292H27.6989ZM19.4925 15.7712L20.6198 18.2061L28.1048 15.7712H19.4925Z" fill="white"/>
<path d="M11.6748 25.787H10V25.6998L10.4582 25.4761V22.4975L10 22.2738V22.1865H11.6966C12.1258 22.1865 12.4705 22.2636 12.7309 22.4178C12.9906 22.5728 13.1204 22.8193 13.1204 23.1576C13.1204 23.3612 13.0524 23.5402 12.9164 23.6944C12.7797 23.8493 12.5942 23.9704 12.36 24.0577C12.125 24.145 11.8603 24.1886 11.5657 24.1886H11.1402V25.4761L11.6748 25.6998V25.787ZM11.4511 22.4866H11.1402V23.9104H11.4893C11.7766 23.9104 12.0021 23.8439 12.1658 23.7107C12.3294 23.5784 12.4113 23.4103 12.4113 23.2067C12.4113 22.9521 12.3287 22.7684 12.1636 22.6557C11.9977 22.5429 11.7603 22.4866 11.4511 22.4866ZM15.0407 25.787H13.6278V25.6998L14.0315 25.5197V22.9994L13.6278 22.8193V22.7321H15.1116C15.4462 22.7321 15.7099 22.7993 15.9027 22.9339C16.0954 23.0685 16.1918 23.2521 16.1918 23.4849C16.1918 23.8268 15.9845 24.0722 15.5699 24.2214L16.4155 25.5306L16.7701 25.6998V25.787H15.7881L14.9589 24.3959H14.6861V25.5143L15.0407 25.6998V25.787ZM14.8934 22.9939H14.6861V24.1341H14.9152C15.1116 24.1341 15.2608 24.0824 15.3626 23.9791C15.4644 23.8751 15.5153 23.734 15.5153 23.5558C15.5153 23.1812 15.308 22.9939 14.8934 22.9939ZM18.4448 25.787H17.0417V25.6998L17.4018 25.5197V22.9994L17.0417 22.8193V22.7321H18.4448V22.8193L18.063 22.9994V25.5197L18.4448 25.6998V25.787ZM20.7241 25.8143H20.4295L19.213 22.983L18.8911 22.8193V22.7321H20.2986V22.8193L19.9221 22.983L20.7514 24.9578H20.7841L21.6133 22.983L21.2205 22.8193V22.7321H22.2352V22.8193L21.957 22.9721L20.7241 25.8143ZM23.5281 25.787H22.5134V25.6998L22.7862 25.5525L24.0027 22.7048H24.3737L25.5684 25.5306L25.9012 25.6998V25.787H24.5101V25.6998L24.8919 25.5361L24.5701 24.7614H23.4572L23.1353 25.5415L23.5281 25.6998V25.787ZM24.0136 23.4194L23.5718 24.4832H24.4555L24.0136 23.4194ZM28.0342 25.787H26.3158V25.6998L26.774 25.4761V22.4975L26.3158 22.2738V22.1865H28.0724C28.4906 22.1865 28.846 22.2574 29.1384 22.3993C29.4315 22.5411 29.6552 22.7357 29.8094 22.983C29.9643 23.2303 30.0418 23.5103 30.0418 23.8231C30.0418 24.1068 29.9916 24.3687 29.8912 24.6087C29.7916 24.8487 29.6515 25.056 29.4711 25.2306C29.2915 25.4052 29.0787 25.5415 28.8329 25.6397C28.5877 25.7379 28.3215 25.787 28.0342 25.787ZM27.8869 22.4866H27.4559V25.487H27.9687C28.2561 25.487 28.5005 25.4263 28.7019 25.3048C28.9042 25.1826 29.0587 25.0095 29.1656 24.7854C29.2733 24.5621 29.3271 24.2977 29.3271 23.9922C29.3271 23.534 29.2042 23.1685 28.9583 22.8957C28.7132 22.6229 28.3561 22.4866 27.8869 22.4866ZM33.6368 25.787H30.6309V25.6998L31.0892 25.4761V22.4975L30.6309 22.2738V22.1865H33.4841V23.1303H33.3968L33.0204 22.4866H31.7711V23.7795H32.6494L32.944 23.3158H33.0313V24.5323H32.944L32.6494 24.0795H31.7711V25.487H33.1568L33.5495 24.7232H33.6368V25.787ZM35.436 25.787H34.1595V25.6998L34.5795 25.487L35.7197 24.0522L34.585 22.4702L34.2304 22.2738V22.1865H35.8506V22.2738L35.4196 22.4811V22.5084L36.2107 23.5831L37.0671 22.5084V22.4866L36.6471 22.2738V22.1865H37.8691V22.2738L37.5199 22.4647L36.407 23.8449L37.6127 25.4815L38 25.6998V25.787H36.3525V25.6998L36.7453 25.4979V25.4761L35.9052 24.3141L34.9996 25.4706L34.9941 25.4925L35.436 25.6998V25.787Z" fill="white"/>
</svg>
