<svg width="48" height="48" viewBox="0 0 48 48" fill="none" xmlns="http://www.w3.org/2000/svg">
<path fill-rule="evenodd" clip-rule="evenodd" d="M41.407 28.5996C41.7939 27.1313 42 25.5897 42 24C42 14.0589 33.9411 6 24 6C14.0589 6 6 14.0589 6 24C6 33.9411 14.0589 42 24 42C25.5897 42 27.1313 41.7939 28.5996 41.407C24.7507 40.0154 22 36.3289 22 32C22 26.4772 26.4772 22 32 22C36.3289 22 40.0154 24.7507 41.407 28.5996Z" fill="black"/>
<path fill-rule="evenodd" clip-rule="evenodd" d="M34.3871 14.8094C34.4188 14.8347 34.4498 14.8596 34.4803 14.8838C34.849 15.1782 36 16.1823 36 16.1823C36 16.1823 34.4954 16.7485 34.1568 17.0052C33.8183 17.2619 33.412 17.6922 33.081 18.5C32.9773 18.7467 32.8422 19.1034 32.6971 19.4863C32.4737 20.0759 32.2269 20.7274 32.0353 21.1348C31.9122 21.3966 31.7593 21.6871 31.4864 22.013C28.2448 22.177 25.4103 23.8846 23.7034 26.4156C23.1611 26.38 22.2557 26.3213 22.1875 26.3213L23.316 25.9891C21.4653 25.0077 11.8808 28.7975 11.8808 28.7975V28.5484C11.0231 29.092 10 28.8202 10 28.8202L11.1586 27.9369H10.3536L18.4034 23.7771L16.5978 23.7545C16.5978 23.7545 23.5341 19.2851 25.3021 18.2207C26.3603 17.5835 27.1786 17.2223 27.757 16.9669C28.145 16.7956 28.4251 16.672 28.5972 16.5447C28.7749 16.4133 29.0572 16.1575 29.366 15.8776C29.8025 15.4822 30.2918 15.0387 30.6134 14.8309L30.6418 14.8126C31.1904 14.458 31.9887 13.9419 32.7726 14.0458C33.5563 14.1432 34.0139 14.5101 34.3871 14.8094Z" fill="white"/>
<path fill-rule="evenodd" clip-rule="evenodd" d="M32 23.1111C27.0908 23.1111 23.1111 27.0908 23.1111 32C23.1111 36.9092 27.0908 40.8889 32 40.8889C36.9092 40.8889 40.8889 36.9092 40.8889 32C40.8889 27.0908 36.9092 23.1111 32 23.1111ZM22 32C22 26.4772 26.4772 22 32 22C37.5228 22 42 26.4772 42 32C42 37.5228 37.5228 42 32 42C26.4772 42 22 37.5228 22 32Z" fill="black"/>
<path fill-rule="evenodd" clip-rule="evenodd" d="M36.0732 34.5788C36.504 33.8 36.7195 32.8504 36.7195 31.7301C36.7195 30.6098 36.504 29.6603 36.0732 28.8814C35.6423 28.1025 35.0589 27.5109 34.3232 27.1065C33.5907 26.7022 32.7687 26.5 31.8572 26.5C30.9425 26.5 30.1188 26.7022 29.3864 27.1065C28.6539 27.5109 28.0722 28.1025 27.6413 28.8814C27.2138 29.6603 27 30.6098 27 31.7301C27 32.8471 27.2138 33.795 27.6413 34.5739C28.0722 35.3494 28.6539 35.9411 29.3864 36.3487C30.1188 36.7564 30.9425 36.9602 31.8572 36.9602C32.4909 36.9602 33.0813 36.8625 33.6285 36.6671L34.4226 37.6167H36.6499L35.1482 35.7647C35.5099 35.435 35.8182 35.0397 36.0732 34.5788ZM33.618 33.9627C33.7357 33.8013 33.8366 33.6173 33.9205 33.4105C34.1094 32.9531 34.2038 32.393 34.2038 31.7301C34.2038 31.0672 34.1094 30.5071 33.9205 30.0497C33.7348 29.5923 33.4664 29.246 33.1151 29.0107C32.767 28.7753 32.3478 28.6577 31.8572 28.6577C31.37 28.6577 30.9508 28.7753 30.5994 29.0107C30.2481 29.246 29.978 29.5923 29.7891 30.0497C29.6035 30.5071 29.5107 31.0672 29.5107 31.7301C29.5107 32.393 29.6035 32.9531 29.7891 33.4105C29.978 33.8679 30.2481 34.2143 30.5994 34.4496C30.9508 34.6849 31.37 34.8026 31.8572 34.8026C31.9842 34.8026 32.1063 34.7947 32.2237 34.7789L31.0021 33.1621H32.9908L33.618 33.9627Z" fill="black"/>
</svg>
