<svg width="48" height="48" viewBox="0 0 48 48" fill="none" xmlns="http://www.w3.org/2000/svg">
<path d="M43.3238 22.375L34.6771 13.7117L34.6614 13.696L34.6272 13.666C34.5713 13.6153 34.5127 13.5676 34.4518 13.5231C34.409 13.4888 34.3662 13.4559 34.3205 13.4259C34.3006 13.4116 34.2806 13.4002 34.2592 13.3873C33.7663 13.0638 33.1699 12.9379 32.5886 13.0345C32.0073 13.1312 31.4835 13.4433 31.1212 13.9089L17.6733 27.3841V15.3795C17.6733 14.7484 17.4231 14.1432 16.9777 13.6969C16.5323 13.2507 15.9282 13 15.2984 13C14.6685 13 14.0644 13.2507 13.619 13.6969C13.1736 14.1432 12.9234 14.7484 12.9234 15.3795V27.3841L8.01384 22.465C7.56507 22.0363 6.96673 21.8004 6.34669 21.8078C5.72664 21.8152 5.13407 22.0653 4.6956 22.5046C4.25713 22.9439 4.00754 23.5376 4.00017 24.1588C3.9928 24.7801 4.22823 25.3795 4.65615 25.8292L13.6195 34.8097C13.6758 34.8669 13.7354 34.9208 13.7978 34.9712C13.8577 35.0198 13.9205 35.067 13.9832 35.1141C14.3071 35.3244 14.6772 35.4524 15.0616 35.4871H15.0716C15.1486 35.4943 15.2256 35.4986 15.3026 35.4986H15.3383C15.403 35.4986 15.4671 35.4957 15.5309 35.49H15.5779C15.6393 35.4828 15.7006 35.4757 15.7605 35.4628H15.7876C15.8546 35.4485 15.9217 35.4328 15.9873 35.4128H15.9987C16.0703 35.3912 16.1408 35.3659 16.2098 35.3371C16.3082 35.2963 16.4035 35.2486 16.4951 35.1942L16.5493 35.1627C16.639 35.1078 16.7248 35.0467 16.806 34.9798L16.8303 34.9584C16.8802 34.9155 16.9301 34.8726 16.9729 34.824L30.6091 21.1531V33.1205C30.6091 33.7516 30.8593 34.3568 31.3047 34.8031C31.7501 35.2493 32.3542 35.5 32.984 35.5C33.6139 35.5 34.218 35.2493 34.6633 34.8031C35.1087 34.3568 35.3589 33.7516 35.3589 33.1205V21.116L39.9661 25.7406C40.4134 26.178 41.0147 26.4211 41.6397 26.4173C42.2646 26.4134 42.8629 26.1629 43.3048 25.72C43.7466 25.2772 43.9964 24.6776 44 24.0514C44.0035 23.4253 43.7606 22.8229 43.3238 22.375V22.375Z" fill="black"/>
</svg>
