<svg width="48" height="48" viewBox="0 0 48 48" fill="none" xmlns="http://www.w3.org/2000/svg">
<path fill-rule="evenodd" clip-rule="evenodd" d="M33.6763 22.1399L23.9965 6L23.7563 6.82032V26.3377C25.5594 23.7177 28.5791 22 32 22C32.5712 22 33.1312 22.0479 33.6763 22.1399Z" fill="#62688F"/>
<path fill-rule="evenodd" clip-rule="evenodd" d="M22.238 29.8213C22.5506 28.4147 23.1593 27.1196 23.9955 26.0049V6L13 24.3338L22.238 29.8213Z" fill="#8A92B2"/>
<path fill-rule="evenodd" clip-rule="evenodd" d="M23.8605 37.8105L23.8605 41.6019L23.9958 41.9991L25.62 39.7005C24.9555 39.1494 24.3636 38.5139 23.8605 37.8105Z" fill="#62688F"/>
<path fill-rule="evenodd" clip-rule="evenodd" d="M22.0025 31.7745L13 26.4297L23.9955 42.0003V37.995C22.7424 36.3246 22 34.249 22 32C22 31.9246 22.0008 31.8494 22.0025 31.7745Z" fill="#8A92B2"/>
<path fill-rule="evenodd" clip-rule="evenodd" d="M23.9949 26.0059V19.3105L30.2263 22.1568C27.688 22.6112 25.4818 24.0233 23.9949 26.0059Z" fill="#454A75"/>
<path fill-rule="evenodd" clip-rule="evenodd" d="M13 24.3337L23.9954 19.3115V26.0052C23.1593 27.1198 22.5506 28.4147 22.2381 29.8212L13 24.3337Z" fill="#62688F"/>
<path fill-rule="evenodd" clip-rule="evenodd" d="M32 23.1111C27.0908 23.1111 23.1111 27.0908 23.1111 32C23.1111 36.9092 27.0908 40.8889 32 40.8889C36.9092 40.8889 40.8889 36.9092 40.8889 32C40.8889 27.0908 36.9092 23.1111 32 23.1111ZM22 32C22 26.4772 26.4772 22 32 22C37.5228 22 42 26.4772 42 32C42 37.5228 37.5228 42 32 42C26.4772 42 22 37.5228 22 32Z" fill="#454A75"/>
<path d="M32.9907 26C30.5563 26 28.5375 27.9412 28.5375 30.4118V30.5882H28.775H37.2063H37.4438V30.4118C37.4438 28 35.425 26 32.9907 26Z" fill="#53CBC8"/>
<path d="M27.5875 31.5587C27.5875 31.4125 27.7071 31.2939 27.8547 31.2939H38.2453C38.3928 31.2939 38.5125 31.4125 38.5125 31.5587C38.5125 31.7048 38.3928 31.8234 38.2453 31.8234H27.8547C27.7071 31.8234 27.5875 31.7048 27.5875 31.5587Z" fill="#E1147B"/>
<path d="M25.4501 32.794C25.4501 32.6478 25.5785 32.5293 25.6876 32.5293H33.2757C33.3847 32.5293 33.5251 32.6478 33.5251 32.794C33.5251 32.9402 33.3847 33.0587 33.2757 33.0587H25.6876C25.5785 33.0587 25.4501 32.9402 25.4501 32.794Z" fill="#E1147B"/>
<ellipse cx="26.9046" cy="31.5587" rx="0.267187" ry="0.264706" fill="#E1147B"/>
<ellipse cx="24.7672" cy="32.794" rx="0.267187" ry="0.264705" fill="#E1147B"/>
<path d="M27.5281 34.0294C27.5281 33.8832 27.634 33.7646 27.7648 33.7646H36.9695C37.1002 33.7646 37.2062 33.8832 37.2062 34.0294C37.2062 34.1755 37.1002 34.2941 36.9695 34.2941H27.7648C27.634 34.2941 27.5281 34.1755 27.5281 34.0294Z" fill="#E1147B"/>
<path d="M30.7344 35.2648C30.7344 35.1186 30.8403 35.0001 30.9711 35.0001L38.5133 35C38.644 35 38.75 35.1185 38.75 35.2647C38.75 35.4109 38.644 35.5294 38.5133 35.5294L30.9711 35.5295C30.8403 35.5295 30.7344 35.411 30.7344 35.2648Z" fill="#E1147B"/>
<ellipse cx="26.8453" cy="34.0294" rx="0.267187" ry="0.264704" fill="#E1147B"/>
<ellipse cx="25.3016" cy="35.2647" rx="0.267188" ry="0.264706" fill="#E1147B"/>
<path d="M25.9844 35.2647C25.9844 35.1185 26.1041 35 26.2516 35H29.8735C30.0211 35 30.1407 35.1185 30.1407 35.2647C30.1407 35.4109 30.0211 35.5294 29.8735 35.5294H26.2516C26.1041 35.5294 25.9844 35.4109 25.9844 35.2647Z" fill="#E1147B"/>
<ellipse cx="31.4766" cy="36.5001" rx="0.267188" ry="0.264706" fill="#E1147B"/>
<path d="M32.1594 36.5001C32.1594 36.3539 32.2811 36.2354 32.4313 36.2354H37.0829C37.233 36.2354 37.3547 36.3539 37.3547 36.5001C37.3547 36.6463 37.233 36.7648 37.0829 36.7648H32.4313C32.2811 36.7648 32.1594 36.6463 32.1594 36.5001Z" fill="#E1147B"/>
<ellipse cx="28.6265" cy="37.7354" rx="0.267187" ry="0.264706" fill="#E1147B"/>
<path d="M29.3093 37.7354C29.3093 37.5892 29.431 37.4707 29.5812 37.4707H34.2328C34.3829 37.4707 34.5046 37.5892 34.5046 37.7354C34.5046 37.8816 34.3829 38.0001 34.2328 38.0001H29.5812C29.431 38.0001 29.3093 37.8816 29.3093 37.7354Z" fill="#E1147B"/>
</svg>
