<svg width="48" height="48" viewBox="0 0 48 48" fill="none" xmlns="http://www.w3.org/2000/svg">
<path fill-rule="evenodd" clip-rule="evenodd" d="M33.6763 22.1399L23.9965 6L23.7563 6.82032V26.3377C25.5594 23.7177 28.5791 22 32 22C32.5712 22 33.1312 22.0479 33.6763 22.1399Z" fill="#62688F"/>
<path fill-rule="evenodd" clip-rule="evenodd" d="M22.238 29.8213C22.5506 28.4147 23.1593 27.1196 23.9955 26.0049V6L13 24.3338L22.238 29.8213Z" fill="#8A92B2"/>
<path fill-rule="evenodd" clip-rule="evenodd" d="M23.8605 37.8105L23.8605 41.6019L23.9958 41.9991L25.62 39.7005C24.9555 39.1494 24.3636 38.5139 23.8605 37.8105Z" fill="#62688F"/>
<path fill-rule="evenodd" clip-rule="evenodd" d="M22.0025 31.7745L13 26.4297L23.9955 42.0003V37.995C22.7424 36.3246 22 34.249 22 32C22 31.9246 22.0008 31.8494 22.0025 31.7745Z" fill="#8A92B2"/>
<path fill-rule="evenodd" clip-rule="evenodd" d="M23.9949 26.0059V19.3105L30.2263 22.1568C27.688 22.6112 25.4818 24.0233 23.9949 26.0059Z" fill="#454A75"/>
<path fill-rule="evenodd" clip-rule="evenodd" d="M13 24.3337L23.9954 19.3115V26.0052C23.1593 27.1198 22.5506 28.4147 22.2381 29.8212L13 24.3337Z" fill="#62688F"/>
<path fill-rule="evenodd" clip-rule="evenodd" d="M32 23.1111C27.0908 23.1111 23.1111 27.0908 23.1111 32C23.1111 36.9092 27.0908 40.8889 32 40.8889C36.9092 40.8889 40.8889 36.9092 40.8889 32C40.8889 27.0908 36.9092 23.1111 32 23.1111ZM22 32C22 26.4772 26.4772 22 32 22C37.5228 22 42 26.4772 42 32C42 37.5228 37.5228 42 32 42C26.4772 42 22 37.5228 22 32Z" fill="#454A75"/>
<path fill-rule="evenodd" clip-rule="evenodd" d="M32 38.75C35.7279 38.75 38.75 35.7279 38.75 32C38.75 28.2721 35.7279 25.25 32 25.25C28.2721 25.25 25.25 28.2721 25.25 32C25.25 35.7279 28.2721 38.75 32 38.75ZM32.0276 38.1163C35.4055 38.1163 38.1439 35.3779 38.1439 32C38.1439 28.6221 35.4055 25.8837 32.0276 25.8837C28.6496 25.8837 25.9112 28.6221 25.9112 32C25.9112 35.3779 28.6496 38.1163 32.0276 38.1163ZM32 37.648C35.1193 37.648 37.648 35.1193 37.648 32C37.648 28.8807 35.1193 26.352 32 26.352C28.8807 26.352 26.352 28.8807 26.352 32C26.352 35.1193 28.8807 37.648 32 37.648ZM32.0138 36.9592C34.7603 36.9592 36.9867 34.7327 36.9867 31.9862C36.9867 29.2397 34.7603 27.0133 32.0138 27.0133C29.2673 27.0133 27.0408 29.2397 27.0408 31.9862C27.0408 34.7327 29.2673 36.9592 32.0138 36.9592ZM31.7331 27.9683L35.3333 34.214L35.7194 33.5442L32.5052 27.9683H31.7331ZM28.2806 33.533L31.362 28.1874L31.3683 28.1984L31.3744 28.1878L35.026 34.5227H34.2539L33.3314 32.9223C32.9122 32.7898 32.4659 32.7183 32.0029 32.7183C31.7642 32.7183 31.5313 32.735 31.3048 32.7683L31.7495 31.998C31.8335 31.9939 31.9179 31.9919 32.0029 31.9919C32.2857 31.9919 32.5632 32.0148 32.8336 32.0588L31.3681 29.5163L28.6667 34.2027L28.2806 33.533ZM30.3755 33.4517L31.7601 31.0497L31.374 30.3799L28.986 34.5227H29.7581L29.7654 34.51C30.4277 34.1112 31.1876 33.9097 32.0174 33.9097C32.5472 33.9097 33.0552 34.0033 33.5257 34.1749L33.0084 33.2789C32.682 33.2151 32.3501 33.1831 32.0174 33.1833C31.4432 33.1833 30.891 33.2776 30.3755 33.4517Z" fill="url(#paint0_linear_4770_6263)"/>
<defs>
<linearGradient id="paint0_linear_4770_6263" x1="37.9923" y1="38.75" x2="28.0327" y2="26.4485" gradientUnits="userSpaceOnUse">
<stop stop-color="#5A81FF"/>
<stop offset="0.524" stop-color="#E40C5B"/>
<stop offset="1" stop-color="#FF4C3B"/>
</linearGradient>
</defs>
</svg>
