<svg width="48" height="48" viewBox="0 0 48 48" fill="none" xmlns="http://www.w3.org/2000/svg">
<g clip-path="url(#clip0_2011_5964)">
<path d="M0 12C0 5.37258 5.37258 0 12 0H36C42.6274 0 48 5.37258 48 12V36C48 42.6274 42.6274 48 36 48H12C5.37258 48 0 42.6274 0 36V12Z" fill="url(#paint0_linear_2011_5964)"/>
<path fill-rule="evenodd" clip-rule="evenodd" d="M21.8049 14.6108V6L6 34.1935L21.8049 14.6108ZM30.6245 31.8221L28.8209 28.3033L23.7502 33.2306L30.6245 31.8221ZM31.024 20.5885L21.8049 6V14.6145L26.5756 23.9225L19.7807 34.044L7.46338 36.5677H18.0864L13.9024 42.8L20.316 36.5677H41.1219L33.2063 24.0419L42 15.4968L31.024 20.5885Z" fill="white"/>
</g>
<defs>
<linearGradient id="paint0_linear_2011_5964" x1="48" y1="48" x2="0.146965" y2="-0.14607" gradientUnits="userSpaceOnUse">
<stop offset="0.151042" stop-color="#3300A0"/>
<stop offset="0.848958" stop-color="#5100FF"/>
</linearGradient>
<clipPath id="clip0_2011_5964">
<rect width="48" height="48" fill="white"/>
</clipPath>
</defs>
</svg>
