<svg width="48" height="48" viewBox="0 0 48 48" fill="none" xmlns="http://www.w3.org/2000/svg">
<g clip-path="url(#clip0_1709_3802)">
<path d="M0 12C0 5.37258 5.37258 0 12 0H36C42.6274 0 48 5.37258 48 12V36C48 42.6274 42.6274 48 36 48H12C5.37258 48 0 42.6274 0 36V12Z" fill="url(#paint0_linear_1709_3802)"/>
<path d="M38.815 13.1956C39.4174 13.1956 39.91 12.703 39.91 12.1006V12.095C39.91 11.4926 39.4174 11 38.815 11H9.17948C8.57708 11 8.08447 11.4926 8.08447 12.095V12.1006C8.08447 12.703 8.57708 13.1956 9.17948 13.1956H22.8994V36.0781C22.8994 36.627 23.347 37.0746 23.8959 37.0746H24.1126C24.6615 37.0746 25.1091 36.627 25.1091 36.0781V13.1956H38.815Z" fill="white"/>
<path d="M19.5412 15.3939H9.09782C8.49543 15.3939 8 15.8866 8 16.4918C8 17.0942 8.49261 17.5896 9.09782 17.5896H18.3111V25.0519H10.2322C9.65799 25.0519 9.1879 25.522 9.1879 26.0963V26.2004C9.1879 26.7747 9.65799 27.2448 10.2322 27.2448H18.3111V34.8591H9.15693C8.55454 34.8591 8.06193 35.3517 8.06193 35.9541V35.9598C8.06193 36.5622 8.55454 37.0548 9.15693 37.0548H19.544C19.9634 37.0548 20.3294 36.8155 20.5123 36.4664C20.6277 36.2835 20.6953 36.0667 20.6953 35.8331V16.6128C20.6953 16.3651 20.6193 16.1343 20.487 15.9429C20.2984 15.6163 19.9437 15.3939 19.5412 15.3939Z" fill="white"/>
<path d="M40 16.4892C40 17.0944 39.5046 17.587 38.9022 17.587H29.6889V25.0494H37.7677C38.342 25.0494 38.8121 25.5195 38.8121 26.0937V26.1979C38.8121 26.7721 38.342 27.2422 37.7677 27.2422H29.6889V34.8538H38.8402C39.4426 34.8538 39.9352 35.3464 39.9352 35.9488V35.9544C39.9352 36.5568 39.4426 37.0494 38.8402 37.0494H28.4532C28.0337 37.0494 27.6678 36.8101 27.4848 36.4611C27.3694 36.2753 27.3019 36.0586 27.3019 35.8277V16.6103C27.3019 16.3626 27.3807 16.1317 27.5102 15.9403C27.7016 15.6138 28.0563 15.3914 28.4588 15.3914H38.9022C39.5074 15.3914 40 15.8868 40 16.4892Z" fill="white"/>
<path d="M0 28H8C14.6274 28 20 33.3726 20 40V48H12C5.37258 48 0 42.6274 0 36V28Z" fill="#3F3F3F"/>
<g filter="url(#filter0_d_1709_3802)">
<path d="M15.2986 34.7265C15.1181 34.5836 14.9028 34.3885 14.5104 34.3397C14.1424 34.2909 13.7674 34.5383 13.5139 34.7021C13.2604 34.8658 12.7812 35.3467 12.5833 35.493C12.3854 35.6394 11.8785 35.7753 11.0625 36.2666C10.2465 36.7579 7.04514 38.8206 7.04514 38.8206L7.87847 38.8311L4.16319 40.751H4.53472L4 41.1586C4 41.1586 4.47222 41.2841 4.86806 41.0332V41.1482C4.86806 41.1482 9.29167 39.399 10.1458 39.852L9.625 40.0053C9.67014 40.0053 10.5104 40.0611 10.5104 40.0611C10.5308 40.2357 10.5893 40.4036 10.6817 40.553C10.7741 40.7023 10.8982 40.8294 11.0451 40.9252C11.5521 41.2597 11.5625 41.4444 11.5625 41.4444C11.5625 41.4444 11.2986 41.5524 11.2986 41.6883C11.2986 41.6883 11.6875 41.5698 12.0486 41.5803C12.2778 41.589 12.5051 41.6252 12.7257 41.6883C12.7257 41.6883 12.6979 41.5419 12.3472 41.4444C11.9965 41.3468 11.6493 40.9635 11.4792 40.7545C11.375 40.6214 11.307 40.4634 11.2821 40.296C11.2571 40.1286 11.276 39.9576 11.3368 39.7997C11.4583 39.4827 11.8819 39.3084 12.7569 38.8555C13.7882 38.3189 14.0243 37.9216 14.1701 37.6115C14.316 37.3014 14.5312 36.6847 14.6528 36.3955C14.8056 36.0227 14.9931 35.824 15.1493 35.7056C15.3056 35.5871 16 35.3258 16 35.3258C16 35.3258 15.4688 34.8624 15.2986 34.7265Z" fill="white"/>
</g>
</g>
<defs>
<filter id="filter0_d_1709_3802" x="-2" y="30" width="24" height="24" filterUnits="userSpaceOnUse" color-interpolation-filters="sRGB">
<feFlood flood-opacity="0" result="BackgroundImageFix"/>
<feColorMatrix in="SourceAlpha" type="matrix" values="0 0 0 0 0 0 0 0 0 0 0 0 0 0 0 0 0 0 127 0" result="hardAlpha"/>
<feOffset dy="4"/>
<feGaussianBlur stdDeviation="2"/>
<feComposite in2="hardAlpha" operator="out"/>
<feColorMatrix type="matrix" values="0 0 0 0 0 0 0 0 0 0 0 0 0 0 0 0 0 0 0.25 0"/>
<feBlend mode="normal" in2="BackgroundImageFix" result="effect1_dropShadow_1709_3802"/>
<feBlend mode="normal" in="SourceGraphic" in2="effect1_dropShadow_1709_3802" result="shape"/>
</filter>
<linearGradient id="paint0_linear_1709_3802" x1="48" y1="48" x2="0" y2="0" gradientUnits="userSpaceOnUse">
<stop offset="0.471407" stop-color="#000C5F"/>
<stop offset="0.75096" stop-color="#4D7EA0"/>
</linearGradient>
<clipPath id="clip0_1709_3802">
<rect width="48" height="48" fill="white"/>
</clipPath>
</defs>
</svg>
