<svg width="48" height="48" viewBox="0 0 48 48" fill="none" xmlns="http://www.w3.org/2000/svg">
<g clip-path="url(#clip0_1709_3809)">
<path d="M0 12C0 5.37258 5.37258 0 12 0H36C42.6274 0 48 5.37258 48 12V36C48 42.6274 42.6274 48 36 48H12C5.37258 48 0 42.6274 0 36V12Z" fill="url(#paint0_linear_1709_3809)"/>
<path d="M38.815 13.1956C39.4174 13.1956 39.91 12.703 39.91 12.1006V12.095C39.91 11.4926 39.4174 11 38.815 11H9.17948C8.57708 11 8.08447 11.4926 8.08447 12.095V12.1006C8.08447 12.703 8.57708 13.1956 9.17948 13.1956H22.8994V36.0781C22.8994 36.627 23.347 37.0746 23.8959 37.0746H24.1126C24.6615 37.0746 25.1091 36.627 25.1091 36.0781V13.1956H38.815Z" fill="white"/>
<path d="M19.5412 15.3939H9.09782C8.49543 15.3939 8 15.8866 8 16.4918C8 17.0942 8.49261 17.5896 9.09782 17.5896H18.3111V25.0519H10.2322C9.65799 25.0519 9.1879 25.522 9.1879 26.0963V26.2004C9.1879 26.7747 9.65799 27.2448 10.2322 27.2448H18.3111V34.8591H9.15693C8.55454 34.8591 8.06193 35.3517 8.06193 35.9541V35.9598C8.06193 36.5622 8.55454 37.0548 9.15693 37.0548H19.544C19.9634 37.0548 20.3294 36.8155 20.5123 36.4664C20.6277 36.2835 20.6953 36.0667 20.6953 35.8331V16.6128C20.6953 16.3651 20.6193 16.1343 20.487 15.9429C20.2984 15.6163 19.9437 15.3939 19.5412 15.3939Z" fill="white"/>
<path d="M40 16.4892C40 17.0944 39.5046 17.587 38.9022 17.587H29.6889V25.0494H37.7677C38.342 25.0494 38.8121 25.5195 38.8121 26.0937V26.1979C38.8121 26.7721 38.342 27.2422 37.7677 27.2422H29.6889V34.8538H38.8402C39.4426 34.8538 39.9352 35.3464 39.9352 35.9488V35.9544C39.9352 36.5568 39.4426 37.0494 38.8402 37.0494H28.4532C28.0337 37.0494 27.6678 36.8101 27.4848 36.4611C27.3694 36.2753 27.3019 36.0586 27.3019 35.8277V16.6103C27.3019 16.3626 27.3807 16.1317 27.5102 15.9403C27.7016 15.6138 28.0563 15.3914 28.4588 15.3914H38.9022C39.5074 15.3914 40 15.8868 40 16.4892Z" fill="white"/>
<path d="M0 28H8C14.6274 28 20 33.3726 20 40V48H12C5.37258 48 0 42.6274 0 36V28Z" fill="#D43079"/>
<g filter="url(#filter0_d_1709_3809)">
<path d="M9.99877 34.5169C11.1933 34.5169 12.1616 33.9535 12.1616 33.2585C12.1616 32.5634 11.1933 32 9.99877 32C8.80427 32 7.83594 32.5634 7.83594 33.2585C7.83594 33.9535 8.80427 34.5169 9.99877 34.5169Z" fill="white"/>
<path d="M9.99877 43.9991C11.1933 43.9991 12.1616 43.4357 12.1616 42.7407C12.1616 42.0457 11.1933 41.4822 9.99877 41.4822C8.80427 41.4822 7.83594 42.0457 7.83594 42.7407C7.83594 43.4357 8.80427 43.9991 9.99877 43.9991Z" fill="white"/>
<path d="M6.9847 36.2589C7.58195 35.224 7.57808 34.1032 6.97604 33.7554C6.37401 33.4077 5.4018 33.9647 4.80455 34.9996C4.20729 36.0345 4.21117 37.1554 4.8132 37.5031C5.41524 37.8509 6.38745 37.2938 6.9847 36.2589Z" fill="white"/>
<path d="M15.192 40.9995C15.7893 39.9646 15.7857 38.8439 15.1841 38.4964C14.5825 38.1489 13.6106 38.7061 13.0133 39.741C12.4161 40.7759 12.4196 41.8966 13.0213 42.2441C13.6229 42.5916 14.5948 42.0344 15.192 40.9995Z" fill="white"/>
<path d="M6.97635 42.2438C7.57838 41.896 7.58226 40.7752 6.98501 39.7403C6.38775 38.7054 5.41554 38.1484 4.81351 38.4961C4.21148 38.8438 4.2076 39.9647 4.80485 40.9996C5.4021 42.0345 6.37431 42.5915 6.97635 42.2438Z" fill="white"/>
<path d="M15.1846 37.5034C15.7862 37.1559 15.7898 36.0352 15.1925 35.0003C14.5953 33.9654 13.6234 33.4082 13.0218 33.7557C12.4202 34.1032 12.4166 35.2239 13.0139 36.2588C13.6111 37.2937 14.583 37.8509 15.1846 37.5034Z" fill="white"/>
</g>
</g>
<defs>
<filter id="filter0_d_1709_3809" x="-2" y="30" width="24" height="24" filterUnits="userSpaceOnUse" color-interpolation-filters="sRGB">
<feFlood flood-opacity="0" result="BackgroundImageFix"/>
<feColorMatrix in="SourceAlpha" type="matrix" values="0 0 0 0 0 0 0 0 0 0 0 0 0 0 0 0 0 0 127 0" result="hardAlpha"/>
<feOffset dy="4"/>
<feGaussianBlur stdDeviation="2"/>
<feComposite in2="hardAlpha" operator="out"/>
<feColorMatrix type="matrix" values="0 0 0 0 0 0 0 0 0 0 0 0 0 0 0 0 0 0 0.25 0"/>
<feBlend mode="normal" in2="BackgroundImageFix" result="effect1_dropShadow_1709_3809"/>
<feBlend mode="normal" in="SourceGraphic" in2="effect1_dropShadow_1709_3809" result="shape"/>
</filter>
<linearGradient id="paint0_linear_1709_3809" x1="48" y1="48" x2="0" y2="0" gradientUnits="userSpaceOnUse">
<stop offset="0.471407" stop-color="#000C5F"/>
<stop offset="0.75096" stop-color="#4D7EA0"/>
</linearGradient>
<clipPath id="clip0_1709_3809">
<rect width="48" height="48" fill="white"/>
</clipPath>
</defs>
</svg>
