<svg width="48" height="48" viewBox="0 0 48 48" fill="none" xmlns="http://www.w3.org/2000/svg">
<g clip-path="url(#clip0_1327_2447)">
<path d="M0 12C0 5.37258 5.37258 0 12 0H36C42.6274 0 48 5.37258 48 12V36C48 42.6274 42.6274 48 36 48H12C5.37258 48 0 42.6274 0 36V12Z" fill="url(#paint0_linear_1327_2447)"/>
<path fill-rule="evenodd" clip-rule="evenodd" d="M42 24C42 33.9411 33.9411 42 24 42C14.0589 42 6 33.9411 6 24C6 14.0589 14.0589 6 24 6C33.9411 6 42 14.0589 42 24ZM17.6918 28.1365L23.2659 17.1658L35.9999 13V15.8163L25.027 19.2188L19.6283 29.955L11.9999 35V31.3626L17.6918 28.1365ZM18.6309 23.0324L19.8625 20.7441L17.4573 17.8697H11.9997V20.2161H15.9905L18.6309 23.0324ZM22.4446 27.4906L23.6182 25.1442L28.079 30.6585H35.9999V32.8294H26.8462L22.4446 27.4906Z" fill="white"/>
</g>
<defs>
<linearGradient id="paint0_linear_1327_2447" x1="48" y1="48" x2="0.146965" y2="-0.14607" gradientUnits="userSpaceOnUse">
<stop/>
<stop offset="1" stop-color="#3F3F3F"/>
</linearGradient>
<clipPath id="clip0_1327_2447">
<rect width="48" height="48" fill="white"/>
</clipPath>
</defs>
</svg>
