<svg width="48" height="48" viewBox="0 0 48 48" fill="none" xmlns="http://www.w3.org/2000/svg">
<g clip-path="url(#clip0_1329_2089)">
<path d="M0 14C0 6.26801 6.26801 0 14 0H34C41.732 0 48 6.26801 48 14V34C48 41.732 41.732 48 34 48H14C6.26801 48 0 41.732 0 34V14Z" fill="url(#paint0_linear_1329_2089)"/>
<path d="M0 12C0 5.37258 5.37258 0 12 0H36C42.6274 0 48 5.37258 48 12V36C48 42.6274 42.6274 48 36 48H12C5.37258 48 0 42.6274 0 36V12Z" fill="url(#paint1_linear_1329_2089)"/>
<path d="M24 6C14.073 6 6 14.0714 6 23.9963C6 31.1299 10.1732 37.3108 16.2076 40.2203V40.2351H16.2372C18.586 41.3649 21.2228 42 24 42C33.9269 42 42 33.9286 42 24.0037C42 14.0714 33.9269 6 24 6ZM24 7.47693C33.1071 7.47693 40.5228 14.8911 40.5228 23.9963C40.5228 26.6104 39.9098 29.0918 38.8239 31.2923C36.4455 30.1403 34.0303 29.2838 31.5929 28.7003V14.9206C31.5929 14.4406 31.2163 14.0566 30.7435 14.0566H27.7152H20.0853H17.057C16.5917 14.0566 16.2076 14.4406 16.2076 14.9206V28.7669C13.8441 29.3502 11.4953 30.192 9.18343 31.2997C8.09028 29.0918 7.47723 26.6178 7.47723 23.9963C7.47723 14.8911 14.8929 7.47693 24 7.47693ZM10.1362 32.9612C12.0936 31.994 14.1247 31.2481 16.215 30.7312V38.5588C13.7407 37.237 11.6504 35.3022 10.1362 32.9612ZM20.0853 40.0431V21.6037C20.0853 19.4696 21.8359 17.7046 23.9261 17.7046C26.0163 17.7046 27.7152 19.4326 27.7152 21.5594C27.7152 21.5742 27.7078 21.589 27.7078 21.6037H27.7152V28.021C25.9351 27.8142 24.1478 27.7477 22.3603 27.8437L20.8904 29.9779C23.1801 29.7859 25.4107 29.8007 27.6118 30.0518C27.6339 30.0518 27.6487 30.0518 27.671 30.0592C27.6857 30.0592 27.7005 30.0592 27.7226 30.0666C28.1067 30.1108 29.5027 30.288 30.7805 30.6056L27.7226 31.6467V40.1023C26.526 40.3754 25.2852 40.5305 24.0147 40.5305C22.6483 40.5157 21.341 40.3459 20.0853 40.0431ZM31.5855 38.6623V30.768C33.6684 31.2923 35.7291 32.0604 37.7973 33.0646C36.2462 35.4204 34.1042 37.3552 31.5855 38.6623Z" fill="white"/>
<path d="M0 28H8C14.6274 28 20 33.3726 20 40V48H12C5.37258 48 0 42.6274 0 36V28Z" fill="#3F3F3F"/>
<path d="M15.2986 34.7265C15.1181 34.5837 14.9028 34.3885 14.5104 34.3398C14.1424 34.291 13.7674 34.5384 13.5139 34.7021C13.2604 34.8659 12.7812 35.3467 12.5833 35.4931C12.3854 35.6394 11.8785 35.7753 11.0625 36.2666C10.2465 36.7579 7.04514 38.8207 7.04514 38.8207L7.87847 38.8311L4.16319 40.751H4.53472L4 41.1587C4 41.1587 4.47222 41.2841 4.86806 41.0333V41.1483C4.86806 41.1483 9.29167 39.3991 10.1458 39.8521L9.625 40.0054C9.67014 40.0054 10.5104 40.0611 10.5104 40.0611C10.5308 40.2357 10.5893 40.4037 10.6817 40.553C10.7741 40.7024 10.8982 40.8295 11.0451 40.9253C11.5521 41.2598 11.5625 41.4444 11.5625 41.4444C11.5625 41.4444 11.2986 41.5524 11.2986 41.6883C11.2986 41.6883 11.6875 41.5699 12.0486 41.5803C12.2778 41.589 12.5051 41.6253 12.7257 41.6883C12.7257 41.6883 12.6979 41.542 12.3472 41.4444C11.9965 41.3469 11.6493 40.9636 11.4792 40.7545C11.375 40.6214 11.307 40.4635 11.2821 40.2961C11.2571 40.1287 11.276 39.9577 11.3368 39.7998C11.4583 39.4827 11.8819 39.3085 12.7569 38.8555C13.7882 38.3189 14.0243 37.9217 14.1701 37.6116C14.316 37.3015 14.5312 36.6847 14.6528 36.3955C14.8056 36.0227 14.9931 35.8241 15.1493 35.7056C15.3056 35.5872 16 35.3258 16 35.3258C16 35.3258 15.4688 34.8624 15.2986 34.7265Z" fill="white"/>
</g>
<defs>
<linearGradient id="paint0_linear_1329_2089" x1="48" y1="48" x2="0.146965" y2="-0.14607" gradientUnits="userSpaceOnUse">
<stop offset="0.156759" stop-color="#701AB3"/>
<stop offset="0.521964" stop-color="#A8419D"/>
<stop offset="0.7668" stop-color="#FF6899"/>
</linearGradient>
<linearGradient id="paint1_linear_1329_2089" x1="48" y1="48" x2="0.146965" y2="-0.14607" gradientUnits="userSpaceOnUse">
<stop offset="0.156759" stop-color="#701AB3"/>
<stop offset="0.521964" stop-color="#A8419D"/>
<stop offset="0.7668" stop-color="#FF6899"/>
</linearGradient>
<clipPath id="clip0_1329_2089">
<rect width="48" height="48" fill="white"/>
</clipPath>
</defs>
</svg>
