<svg width="48" height="48" viewBox="0 0 48 48" fill="none" xmlns="http://www.w3.org/2000/svg">
<g clip-path="url(#clip0_1840_3872)">
<path d="M0 12C0 5.37258 5.37258 0 12 0H36C42.6274 0 48 5.37258 48 12V36C48 42.6274 42.6274 48 36 48H12C5.37258 48 0 42.6274 0 36V12Z" fill="url(#paint0_linear_1840_3872)"/>
<path d="M38.3557 32.1918L39 32.1611C38.0182 36.3644 34.3058 38.9722 29.3356 38.9722H11.7248C11.6109 38.9722 11.5017 38.927 11.4211 38.8464C11.3406 38.7659 11.2953 38.6566 11.2953 38.5427V34.769C11.2953 34.0773 11.5701 33.414 12.0591 32.9249C12.5482 32.4359 13.2115 32.1611 13.9032 32.1611H25.3471C25.7138 32.1453 26.0739 32.0574 26.4066 31.9023C26.7393 31.7472 27.0382 31.5281 27.2862 31.2573C27.5341 30.9866 27.7262 30.6696 27.8515 30.3246C27.9768 29.9795 28.0328 29.6132 28.0163 29.2464C28.0163 27.3442 26.5743 26.7613 25.2857 26.7613H16.0201C11.2646 26.7613 7.85906 24.0921 7 19.9502H11.1112C11.0197 19.4842 10.9583 19.0127 10.9271 18.5389V17.2503C11.2339 12.3107 14.8543 9.02783 20.1314 9.02783H37.2205C37.3344 9.02783 37.4437 9.07309 37.5242 9.15364C37.6048 9.23419 37.65 9.34344 37.65 9.45736V13.2618C37.65 13.9534 37.3753 14.6167 36.8862 15.1058C36.3972 15.5949 35.7338 15.8696 35.0422 15.8696H20.0086C19.4742 15.9013 18.9733 16.1403 18.6123 16.5356C18.2513 16.931 18.0588 17.4515 18.0757 17.9866C18.0505 18.4944 18.2264 18.9916 18.5652 19.3706C18.904 19.7496 19.3785 19.9799 19.8859 20.0115H25.8993C31.1764 20.0115 34.7967 23.2944 35.1035 28.234V29.9521C35.0994 30.7051 35.0171 31.4557 34.8581 32.1918H38.3557Z" fill="white"/>
</g>
<defs>
<linearGradient id="paint0_linear_1840_3872" x1="48" y1="48" x2="-2.62577e-05" y2="2.62577e-05" gradientUnits="userSpaceOnUse">
<stop stop-color="#434852"/>
<stop offset="1" stop-color="#787F92"/>
</linearGradient>
<clipPath id="clip0_1840_3872">
<rect width="48" height="48" fill="white"/>
</clipPath>
</defs>
</svg>
