<svg width="48" height="48" viewBox="0 0 48 48" fill="none" xmlns="http://www.w3.org/2000/svg">
<g clip-path="url(#clip0_1304_1022)">
<path d="M0 12C0 5.37258 5.37258 0 12 0H36C42.6274 0 48 5.37258 48 12V36C48 42.6274 42.6274 48 36 48H12C5.37258 48 0 42.6274 0 36V12Z" fill="url(#paint0_linear_1304_1022)"/>
<path fill-rule="evenodd" clip-rule="evenodd" d="M28.3992 8.68194C26.9012 8.23843 25.3124 8 23.6667 8H12V15.5298C14.465 14.9386 24.0643 10.9025 28.3992 8.68194ZM12 18.6823C15.7756 17.7857 27.8959 12.5539 32.0708 10.2777C34.2173 11.5419 36.0427 13.2757 37.3991 15.334C32.3966 18.1137 19.0319 24.5375 12 25.9823V18.6823ZM12 29.1716C17.4375 28.1255 33.0794 21.5224 38.7884 17.9413C39.5694 19.8101 40 21.8558 40 24C40 24.4716 39.9792 24.9384 39.9384 25.3996C34.4847 28.7362 19.2823 35.031 12 36.5151V29.1716ZM12 39.8587V40H23.6667C30.9267 40 37.0804 35.36 39.206 28.9421C33.5733 32.3181 17.6385 38.6016 12 39.8587Z" fill="white"/>
</g>
<defs>
<linearGradient id="paint0_linear_1304_1022" x1="48" y1="48" x2="-2.71797e-05" y2="2.71797e-05" gradientUnits="userSpaceOnUse">
<stop offset="0.151042" stop-color="#7D20BF"/>
<stop offset="0.578125" stop-color="#584DDB"/>
<stop offset="0.942708" stop-color="#51BEF9"/>
</linearGradient>
<clipPath id="clip0_1304_1022">
<rect width="48" height="48" fill="white"/>
</clipPath>
</defs>
</svg>
