<svg width="48" height="48" viewBox="0 0 48 48" fill="none" xmlns="http://www.w3.org/2000/svg">
<circle cx="24" cy="24" r="18" fill="url(#paint0_linear_4631_4815)"/>
<path fill-rule="evenodd" clip-rule="evenodd" d="M24 41.5C33.665 41.5 41.5 33.665 41.5 24C41.5 14.335 33.665 6.5 24 6.5C14.335 6.5 6.5 14.335 6.5 24C6.5 33.665 14.335 41.5 24 41.5ZM24 42C33.9411 42 42 33.9411 42 24C42 14.0589 33.9411 6 24 6C14.0589 6 6 14.0589 6 24C6 33.9411 14.0589 42 24 42Z" fill="white"/>
<path d="M20.4205 26.6322C17.1047 30.5716 12.5551 32.0724 12.4053 31.9973C12.2555 31.9223 10.9446 25.7318 14.0158 20.1791C17.4813 13.9135 23.6041 11.9823 23.9787 12.0001C24.3532 12.018 30.4208 13.801 33.904 20.1791C37.1824 26.182 35.6644 31.9598 35.552 31.9973C35.4396 32.0348 31.2822 30.8718 27.5368 26.6322C24.7541 23.4823 24.0063 19.3912 23.9787 19.3912C23.951 19.3912 23.2942 23.2181 20.4205 26.6322Z" fill="white"/>
<defs>
<linearGradient id="paint0_linear_4631_4815" x1="17.5" y1="7" x2="34" y2="39.5" gradientUnits="userSpaceOnUse">
<stop stop-color="#FF4A38"/>
<stop offset="1" stop-color="#BD1180"/>
</linearGradient>
</defs>
</svg>
