<svg width="48" height="48" viewBox="0 0 48 48" fill="none" xmlns="http://www.w3.org/2000/svg">
<path fill-rule="evenodd" clip-rule="evenodd" d="M22.7282 9H10.3138V19.0175H6V22.6061H10.3138V26.3726H6V29.9612H10.3138V39.8571H22.7282C23.7055 39.8571 24.6523 39.7879 25.5646 39.6544C24.5713 38.8184 23.7431 37.7927 23.1357 36.6331C23.0008 36.6363 22.8649 36.638 22.7282 36.638H13.7844V29.9612H22.208C22.4789 28.6533 23.0052 27.439 23.7325 26.3726H13.7844V22.6061H28.5636C29.6352 22.214 30.7926 22 32 22C34.7412 22 37.2247 23.1029 39.0311 24.8892C39.0353 24.7354 39.0375 24.581 39.0375 24.4259V24.3378C39.0375 23.7508 39.007 23.1731 38.9472 22.6061H42V19.0175H38.1329C36.0034 13.0803 30.2794 9 22.7282 9ZM40.2675 26.3726C40.9948 27.439 41.5211 28.6533 41.792 29.9612H42V26.3726H40.2675ZM34.2828 19.0175C32.3855 14.9586 28.2728 12.2139 22.7282 12.2139H13.7844V19.0175H34.2828Z" fill="#F4B731"/>
<path fill-rule="evenodd" clip-rule="evenodd" d="M32 23.1111C27.0908 23.1111 23.1111 27.0908 23.1111 32C23.1111 36.9092 27.0908 40.8889 32 40.8889C36.9092 40.8889 40.8889 36.9092 40.8889 32C40.8889 27.0908 36.9092 23.1111 32 23.1111ZM22 32C22 26.4772 26.4772 22 32 22C37.5228 22 42 26.4772 42 32C42 37.5228 37.5228 42 32 42C26.4772 42 22 37.5228 22 32Z" fill="#F4B731"/>
<path d="M32.9907 26C30.5563 26 28.5375 27.9412 28.5375 30.4118V30.5882H28.775H37.2063H37.4438V30.4118C37.4438 28 35.425 26 32.9907 26Z" fill="#53CBC8"/>
<path d="M27.5875 31.5589C27.5875 31.4127 27.7071 31.2942 27.8547 31.2942H38.2453C38.3928 31.2942 38.5125 31.4127 38.5125 31.5589C38.5125 31.7051 38.3928 31.8236 38.2453 31.8236H27.8547C27.7071 31.8236 27.5875 31.7051 27.5875 31.5589Z" fill="#E1147B"/>
<path d="M25.4501 32.7942C25.4501 32.6481 25.5785 32.5295 25.6876 32.5295H33.2757C33.3847 32.5295 33.5251 32.6481 33.5251 32.7942C33.5251 32.9404 33.3847 33.059 33.2757 33.059H25.6876C25.5785 33.059 25.4501 32.9404 25.4501 32.7942Z" fill="#E1147B"/>
<ellipse cx="26.9046" cy="31.5589" rx="0.267187" ry="0.264706" fill="#E1147B"/>
<ellipse cx="24.7672" cy="32.7942" rx="0.267187" ry="0.264705" fill="#E1147B"/>
<path d="M27.5281 34.0294C27.5281 33.8832 27.634 33.7646 27.7648 33.7646H36.9695C37.1002 33.7646 37.2062 33.8832 37.2062 34.0294C37.2062 34.1755 37.1002 34.2941 36.9695 34.2941H27.7648C27.634 34.2941 27.5281 34.1755 27.5281 34.0294Z" fill="#E1147B"/>
<path d="M30.7344 35.2648C30.7344 35.1186 30.8403 35.0001 30.9711 35.0001L38.5133 35C38.644 35 38.75 35.1185 38.75 35.2647C38.75 35.4109 38.644 35.5294 38.5133 35.5294L30.9711 35.5295C30.8403 35.5295 30.7344 35.411 30.7344 35.2648Z" fill="#E1147B"/>
<ellipse cx="26.8453" cy="34.0294" rx="0.267187" ry="0.264704" fill="#E1147B"/>
<ellipse cx="25.3016" cy="35.2647" rx="0.267188" ry="0.264706" fill="#E1147B"/>
<path d="M25.9844 35.2647C25.9844 35.1185 26.1041 35 26.2516 35H29.8735C30.0211 35 30.1407 35.1185 30.1407 35.2647C30.1407 35.4109 30.0211 35.5294 29.8735 35.5294H26.2516C26.1041 35.5294 25.9844 35.4109 25.9844 35.2647Z" fill="#E1147B"/>
<ellipse cx="31.4766" cy="36.4998" rx="0.267188" ry="0.264706" fill="#E1147B"/>
<path d="M32.1594 36.4998C32.1594 36.3536 32.2811 36.2351 32.4313 36.2351H37.0829C37.233 36.2351 37.3547 36.3536 37.3547 36.4998C37.3547 36.646 37.233 36.7645 37.0829 36.7645H32.4313C32.2811 36.7645 32.1594 36.646 32.1594 36.4998Z" fill="#E1147B"/>
<ellipse cx="28.6265" cy="37.7354" rx="0.267187" ry="0.264706" fill="#E1147B"/>
<path d="M29.3093 37.7354C29.3093 37.5892 29.431 37.4707 29.5812 37.4707H34.2328C34.3829 37.4707 34.5046 37.5892 34.5046 37.7354C34.5046 37.8816 34.3829 38.0001 34.2328 38.0001H29.5812C29.431 38.0001 29.3093 37.8816 29.3093 37.7354Z" fill="#E1147B"/>
</svg>
