<svg width="48" height="48" viewBox="0 0 48 48" fill="none" xmlns="http://www.w3.org/2000/svg">
<path d="M21.5424 18.4254L9 17.1835C9.00607 17.0401 9.01419 16.8967 9.02431 16.7533L20.4952 17.0926C20.5255 17.6459 20.8658 18.0882 21.5262 18.4173C21.5322 18.4194 21.5383 18.4234 21.5424 18.4254ZM20.9084 15.9335C21.1697 15.6265 21.5991 15.3781 22.1926 15.1863L10.2194 12.7125C10.1424 12.8519 10.0695 12.9932 10.0006 13.1346L20.7524 16.1435C20.799 16.0708 20.8496 16.0001 20.9084 15.9315V15.9335ZM24.9798 14.8511C26.4929 14.8511 28.0466 15.0651 29.6426 15.4912C31.2388 15.9173 32.8918 16.5575 34.6012 17.4097L37.2974 10.9354V10.9395L38.0772 8.98066C37.6842 8.76054 37.2791 8.55454 36.8638 8.36068L35.9118 10.3357L36.3675 8.13856C35.9565 7.95882 35.5372 7.78718 35.1035 7.63168L34.4433 9.98026L34.5202 7.42772C34.0969 7.28636 33.6635 7.15914 33.2198 7.04L32.9362 9.88534L32.4927 6.85623C32.3245 6.81584 32.1565 6.77545 31.9864 6.73708C31.7148 6.67852 31.4433 6.624 31.172 6.57149L31.4353 10.0509L30.2261 6.40792C29.7845 6.33724 29.3409 6.27868 28.8972 6.22617L29.9849 10.475L27.6252 6.09491C27.1896 6.06058 26.7522 6.03837 26.3146 6.02221L28.6339 11.1374L24.5645 6C24.1392 6.00606 23.7239 6.02019 23.3168 6.04241L27.4165 12.03L20.9347 6.2706C20.562 6.32311 20.1994 6.38571 19.8449 6.45437L26.3734 13.1184L16.8896 7.27828C16.6445 7.37118 16.4055 7.46609 16.1726 7.56908C16.1442 7.5812 16.1159 7.59533 16.0875 7.60745L25.5348 14.3704L13.0349 9.41078C12.8668 9.54205 12.7068 9.67734 12.5488 9.81466L23.2641 14.95C23.7584 14.8834 24.3296 14.8491 24.9818 14.8491L24.9798 14.8511ZM39.5882 30.3986C39.5882 30.3259 39.5842 30.2572 39.5821 30.1845L37.6395 25.9013L39.3593 28.0721C39.1871 27.2563 38.9198 26.5212 38.5511 25.873C37.8605 24.6593 36.9468 23.6759 35.8125 22.9206C34.6784 22.1674 33.4346 21.5596 32.0875 21.1011C30.7386 20.6427 29.3814 20.2812 28.016 20.0187C26.6508 19.7562 25.4011 19.5098 24.2648 19.2816C23.7685 19.1807 23.3168 19.0696 22.9056 18.9464L9.46386 20.8992C9.51247 21.0507 9.56513 21.2001 9.62186 21.3455L24.6375 20.2146L11.8115 24.4433C11.9877 24.6008 12.166 24.7522 12.3564 24.8936L25.0628 21.6585L15.6783 26.6949C15.9538 26.804 16.2313 26.9069 16.5149 27.0019C16.5838 27.0241 16.6506 27.0443 16.7195 27.0665L25.7313 23.0054L19.5472 27.8742C19.8936 27.957 20.242 28.0358 20.5883 28.1065C20.6734 28.1246 20.7544 28.1408 20.8375 28.159L26.6266 24.2191L22.7476 28.5588C23.1932 28.6537 23.6267 28.7466 24.044 28.8355L27.7184 25.2591L25.312 29.1424C25.7454 29.2656 26.1405 29.3988 26.4908 29.5442L28.9762 26.0951L27.4064 30.0268C27.8581 30.3602 28.0889 30.7762 28.0889 31.2809C28.0889 31.3294 28.0871 31.376 28.0831 31.4224L30.3598 26.701L27.2261 41.788C27.3861 41.7678 27.5421 41.7456 27.6981 41.7233L31.8261 27.0584L31.4172 40.8186C31.6136 40.748 31.8059 40.6753 31.9944 40.5965L33.3353 27.1553L35.0569 38.9184C35.2819 38.7588 35.4965 38.5932 35.7033 38.4235L34.8362 26.9897L37.8522 36.0791C38.0772 35.7438 38.2798 35.4026 38.46 35.0532L36.2866 26.5656L39.4059 32.3412C39.5275 31.7092 39.5882 31.0609 39.5882 30.3944V30.3986ZM27.6454 32.2927C27.3518 32.5694 26.8859 32.7814 26.2499 32.9287L22.6301 41.996C22.7476 41.9979 22.8651 42 22.9826 42L27.684 32.2522C27.6718 32.2645 27.6595 32.2786 27.6454 32.2906V32.2927ZM23.5983 33.1529C23.3472 33.1529 23.094 33.1468 22.8408 33.1367L17.6391 41.5334C17.7039 41.5435 17.7708 41.5558 17.8356 41.5659L23.8961 33.1489C23.7989 33.1489 23.6996 33.1511 23.5983 33.1511V33.1529ZM19.0995 32.644L12.328 40.2209C12.328 40.2209 12.3422 40.2249 12.3483 40.2271L19.9584 32.8158C19.6728 32.7652 19.3872 32.7047 19.0995 32.6421V32.644ZM15.0767 31.3981L9.17014 36.0671C9.17014 36.0671 9.18433 36.0711 9.1904 36.0729L15.7209 31.6445L15.0788 31.3981H15.0767Z" fill="black"/>
</svg>
