<svg width="48" height="48" viewBox="0 0 48 48" fill="none" xmlns="http://www.w3.org/2000/svg">
<path d="M15.5002 31.1366L22.0612 34.6278C22.6763 34.9701 23.3597 35.107 24.0431 35.107C24.7266 35.107 25.41 34.9701 26.0251 34.6278L32.5861 31.1366C34.0213 30.3836 34.8414 28.946 34.8414 27.3031V20.6629C34.8414 20.4575 34.8414 20.3206 34.7731 20.1152L30.7408 21.6213V27.2346C30.7408 27.3031 30.6725 27.3715 30.6041 27.44L24.0431 30.9312C23.9748 30.9312 23.9064 30.9312 23.8381 30.9312L17.2771 27.44C17.2088 27.3715 17.1404 27.3031 17.1404 27.2346V21.6213L13.1082 20.1152C13.1082 20.2521 13.1082 20.4575 13.1082 20.5944V27.2346C13.1765 28.8776 14.065 30.3836 15.5002 31.1366Z" fill="#6F6F73"/>
<path d="M20.2838 21.9636V26.0709L23.9743 28.1246L27.6649 26.0709V21.9636L23.9743 19.9099L20.2838 21.9636ZM37.9164 11.9006L27.7332 6.42415C25.4096 5.19195 22.6075 5.19195 20.2838 6.42415L10.1006 11.9006C9.75888 12.106 9.41716 12.3113 9.07544 12.5852L12.766 15.4603L22.3341 10.3261C22.8809 10.0523 23.4276 9.91538 23.9743 9.91538C24.5211 9.91538 25.1362 10.0523 25.6146 10.3261L35.1144 15.4603L38.8049 12.5852C38.5999 12.3113 38.2582 12.106 37.9164 11.9006ZM26.0247 13.4066C24.7945 12.7221 23.2909 12.7221 21.9924 13.4066L15.4314 16.8979C15.2947 16.9663 15.0897 17.1032 14.953 17.1717L18.5069 19.9099L23.906 17.0348H23.9743H24.0427L29.3052 19.8414L32.859 17.1032C32.7223 17.0348 32.5856 16.9663 32.449 16.8979L26.0247 13.4066Z" fill="url(#paint0_linear_3338_14087)"/>
<path d="M41.9487 17.5137L37.7114 19.0882V29.1511C37.7114 30.4518 37.028 31.6155 35.8662 32.2316L25.683 37.7081C24.6578 38.2557 23.4276 38.2557 22.4025 37.7081L12.2193 32.2316C11.0574 31.6155 10.374 30.4518 10.374 29.1511V19.1566L6.13669 17.5821C6.06834 17.9929 6 18.4036 6 18.8143V29.1511C6 32.0263 7.5719 34.696 10.1006 36.0651L20.2838 41.5416C21.4457 42.1577 22.7442 42.5 23.9744 42.5C25.2729 42.5 26.5031 42.1577 27.6649 41.5416L37.8481 36.0651C40.3768 34.696 41.9487 32.0263 41.9487 29.1511V18.8143C42.0171 18.4036 42.0171 17.9244 41.9487 17.5137Z" fill="url(#paint1_linear_3338_14087)"/>
<defs>
<linearGradient id="paint0_linear_3338_14087" x1="35.4397" y1="8.28046" x2="10.5315" y2="24.365" gradientUnits="userSpaceOnUse">
<stop stop-color="#4EB946"/>
<stop offset="0.6105" stop-color="#70BF45"/>
</linearGradient>
<linearGradient id="paint1_linear_3338_14087" x1="5.38839" y1="23.9353" x2="42.224" y2="32.1531" gradientUnits="userSpaceOnUse">
<stop offset="0.000864307" stop-color="#707074"/>
<stop offset="0.9989" stop-color="#8D8F91"/>
</linearGradient>
</defs>
</svg>
