<svg width="48" height="48" viewBox="0 0 48 48" fill="none" xmlns="http://www.w3.org/2000/svg">
<path d="M27.9553 10.0715L29.0639 12.3602C28.4202 13.2661 27.7169 14.315 26.954 15.507C26.1911 16.699 25.4879 17.9268 24.8442 19.1903C24.2005 20.4538 23.6641 21.6935 23.235 22.9093C22.8059 24.1252 22.5913 25.198 22.5913 26.1277V26.3065C23.2111 26.7833 24.0146 27.0932 25.0039 27.2363C25.9933 27.3793 26.9755 27.4508 27.9553 27.4508V27.7369L28.9208 29.3461V38C26.513 38 24.241 37.6782 22.1074 37.0345C19.9737 36.3908 18.2143 35.318 16.834 33.8161V38H8.18008L7.1788 36.3193H7V10H15.8685V10.2861L16.834 11.8953V12.2529C17.0724 11.8476 17.3036 11.4542 17.5301 11.0728C17.7566 10.6914 17.9783 10.3338 18.1928 10L27.9553 10.0715ZM18.8365 11.0728C18.0498 12.3363 17.2941 13.6356 16.567 14.9706C15.8398 16.3057 15.2486 17.6884 14.798 19.1188V11.0728H8.07518V35.2465H14.798V28.8455C15.3702 30.0613 16.0854 31.0745 16.9436 31.8851C17.8019 32.6956 18.7555 33.3512 19.8044 33.8518C20.8534 34.3525 21.9786 34.7101 23.1825 34.9246C24.3865 35.1392 25.619 35.2465 26.8825 35.2465V28.5236C26.1673 28.5236 25.4354 28.4759 24.6845 28.3806C23.9335 28.2852 23.2541 28.0826 22.6461 27.7727C22.0382 27.4627 21.5376 27.0384 21.1442 26.502C20.7509 25.9656 20.5554 25.2456 20.5554 24.3397C20.5554 23.3384 20.7819 22.2299 21.2348 21.014C21.6878 19.7982 22.2409 18.5824 22.8965 17.3665C23.5521 16.1507 24.2434 14.9945 24.9705 13.8978C25.6977 12.8012 26.3342 11.8595 26.8825 11.0728H18.8365ZM8.75223 26.7714V27.4508C8.79991 27.5939 8.79991 27.725 8.75223 27.8442V28.3806C8.77607 28.4044 8.788 28.4283 8.788 28.4521C8.788 28.4759 8.79991 28.4998 8.82375 28.5236C8.91911 28.2852 9.08599 28.166 9.32439 28.166C9.56279 28.166 9.72967 28.2852 9.82503 28.5236C9.92039 28.2852 10.092 28.166 10.3424 28.166C10.5927 28.166 10.7667 28.2852 10.8621 28.5236C10.9336 28.2614 11.1052 28.1374 11.3794 28.1493C11.6536 28.1613 11.8133 28.2971 11.861 28.5594C11.9086 28.2971 12.0636 28.1613 12.3258 28.1493C12.5881 28.1374 12.7669 28.2638 12.8622 28.5236C12.9576 28.2852 13.1292 28.166 13.3796 28.166C13.6299 28.166 13.8039 28.2852 13.8993 28.5236C13.9708 28.3091 14.1138 28.1899 14.3284 28.166C14.543 28.1422 14.7098 28.2137 14.829 28.3806L15.0436 28.3091C15.1628 28.1899 15.3177 28.1493 15.5085 28.1827C15.6992 28.2185 15.8303 28.3329 15.9018 28.5212C15.9972 28.259 16.176 28.135 16.4382 28.147C16.7005 28.1589 16.8554 28.2948 16.9031 28.557C16.9746 28.2948 17.1415 28.1589 17.4037 28.147C17.666 28.135 17.8448 28.2614 17.9401 28.5212C18.0355 28.2828 18.2072 28.1636 18.4599 28.1636C18.7102 28.1636 18.8699 28.2828 18.9438 28.5212C19.0392 28.259 19.218 28.135 19.4802 28.147C19.7424 28.1589 19.9093 28.2948 19.9808 28.557C20.0285 28.2948 20.1835 28.1589 20.4457 28.147C20.708 28.135 20.8868 28.2614 20.9821 28.5212C21.0775 28.2828 21.2491 28.1589 21.5018 28.147C21.7521 28.135 21.9119 28.2614 21.9858 28.5212C22.0335 28.4259 22.0811 28.3544 22.1288 28.3067L21.6997 28.0921H21.6639C21.4732 28.1875 21.3111 28.1636 21.1824 28.0206C21.0513 27.8776 20.9964 27.7107 21.0203 27.52L20.8772 27.3769C20.9487 27.4961 20.9726 27.6344 20.9487 27.7894C20.9249 27.9443 20.8176 28.0468 20.6269 28.0921C20.4839 28.1636 20.3599 28.1636 20.2526 28.0921C20.1453 28.0206 20.0738 27.9252 20.0381 27.806C20.0023 27.6868 20.0023 27.5629 20.0381 27.4318C20.0738 27.3006 20.1644 27.2124 20.3051 27.1647C20.4719 27.0932 20.615 27.1051 20.7342 27.2005C20.7103 27.1767 20.6913 27.1528 20.6794 27.129C20.6674 27.1051 20.6364 27.0813 20.5888 27.0575C20.3742 27.129 20.2073 27.0527 20.0881 26.8238C19.9689 26.5974 19.9928 26.4138 20.1596 26.2708C20.0643 26.0562 19.9856 25.8226 19.9284 25.5722C19.8688 25.3219 19.8259 25.0549 19.802 24.7665C19.7782 24.8618 19.6948 24.9214 19.5517 24.9453C19.4325 24.9929 19.33 24.9762 19.249 24.8928C19.1655 24.8094 19.1107 24.714 19.0892 24.6067C19.0654 24.4994 19.0702 24.3922 19.1059 24.2849C19.1417 24.1776 19.2323 24.1132 19.3729 24.0894C19.5398 24.0656 19.6828 24.1252 19.802 24.2682C19.802 24.149 19.802 24.0489 19.802 23.963C19.802 23.8796 19.814 23.7795 19.8378 23.6603C19.814 23.7556 19.7186 23.8272 19.5517 23.8748C19.4325 23.9225 19.33 23.9106 19.249 23.8391C19.1655 23.7676 19.1107 23.6841 19.0892 23.5888C19.0654 23.4934 19.0773 23.3909 19.125 23.286C19.1727 23.1787 19.2561 23.1143 19.3753 23.0881C19.5183 23.0404 19.6304 23.0595 19.7162 23.143C19.7997 23.2264 19.8426 23.3289 19.8426 23.4457C19.8903 23.1835 19.9427 22.9046 20.0023 22.6066C20.0619 22.3086 20.1382 22.0058 20.2359 21.6935C20.1406 21.5981 20.1048 21.4861 20.1286 21.355C20.1525 21.2238 20.224 21.1356 20.3432 21.0879C20.367 21.0641 20.4028 21.0522 20.4505 21.0522C20.4982 20.9092 20.5458 20.8019 20.5935 20.7304C20.4028 20.778 20.2645 20.6946 20.1811 20.48C20.0977 20.2655 20.1501 20.1224 20.3432 20.0509C20.5339 19.9794 20.677 20.0271 20.7723 20.194C20.8915 19.9317 21.006 19.6695 21.1109 19.4072C21.2181 19.145 21.3421 18.8828 21.4875 18.6205C21.3683 18.5967 21.2849 18.549 21.2372 18.4775C21.1895 18.3821 21.1848 18.2868 21.2181 18.1914C21.2539 18.096 21.3183 18.0364 21.416 18.0126C21.559 17.9649 21.6663 18.0007 21.7378 18.1199C21.857 17.8338 21.9882 17.5549 22.1312 17.2807C22.2742 17.0066 22.4173 16.7395 22.5603 16.4749C22.4173 16.5226 22.3219 16.463 22.2742 16.2961C22.2266 16.1292 22.2742 16.022 22.4173 15.9743C22.5842 15.9028 22.6914 15.9624 22.7391 16.1531C22.8345 16.01 22.9227 15.8622 23.0061 15.7049C23.0896 15.5499 23.1897 15.4021 23.3089 15.2567C23.2612 15.1375 23.297 15.0421 23.4162 14.9706C23.44 14.9468 23.4639 14.9349 23.4877 14.9349C23.7976 14.4104 24.1314 13.874 24.489 13.3257C24.3698 13.3018 24.3149 13.2303 24.3269 13.1111C24.3388 12.9919 24.4032 12.9204 24.5247 12.8965C24.5963 12.8965 24.6559 12.9323 24.7035 13.0038C24.8227 12.7893 24.9539 12.5866 25.0969 12.3959C25.2399 12.2052 25.371 12.0145 25.4902 11.8238H19.1965C19.0773 12.0145 18.9653 12.2004 18.858 12.3792C18.7507 12.558 18.6363 12.744 18.5171 12.9323C18.6124 12.9562 18.6601 13.0229 18.6601 13.1302C18.6601 13.2375 18.6005 13.3042 18.4813 13.3257C18.4098 13.3257 18.3502 13.3138 18.3025 13.2899C18.1356 13.5522 17.9807 13.8263 17.8376 14.1124C17.6946 14.3985 17.5396 14.6726 17.3728 14.9349C17.5158 14.8872 17.6112 14.942 17.6588 15.097C17.7065 15.2519 17.6708 15.364 17.5516 15.4355C17.3847 15.507 17.2774 15.4474 17.2297 15.2567C16.896 15.8289 16.6099 16.401 16.3715 16.9732C16.5384 16.9255 16.6456 16.997 16.6933 17.1877C16.741 17.3785 16.6814 17.4977 16.5145 17.5453C16.3476 17.593 16.2404 17.5453 16.1927 17.4023C15.9304 17.9745 15.7159 18.5228 15.549 19.0473C15.6682 19.0949 15.7278 19.2094 15.7278 19.3882C15.7278 19.567 15.6324 19.6552 15.4417 19.6552C15.3464 19.679 15.251 19.6433 15.1556 19.5479L14.6908 19.4764V19.5121C14.6431 19.6313 14.5477 19.6862 14.4047 19.6719C14.2616 19.6599 14.1663 19.5956 14.1186 19.4764C14.0948 19.4525 14.0828 19.4168 14.0828 19.3691H14.0471V11.8238H8.75462V26.4853V26.7714H8.75223ZM8.82375 28.8097C8.77607 28.8574 8.75223 28.8931 8.75223 28.917V29.4176L8.82375 29.4891C8.87143 29.4415 8.92388 29.389 8.98586 29.327C9.04546 29.2674 9.11222 29.2269 9.18135 29.2031C9.01447 29.0839 8.89527 28.9527 8.82375 28.8097ZM8.82375 30.4904C8.87143 30.4427 8.91911 30.3951 8.96679 30.3474C9.01447 30.2997 9.06215 30.252 9.10983 30.2043C8.99063 30.1328 8.89527 30.0375 8.82375 29.9183L8.75223 29.9898V30.4189L8.82375 30.4904ZM9.07407 31.2414C9.02639 31.1937 8.98348 31.1508 8.94772 31.115C8.91196 31.0793 8.86905 31.0387 8.82137 30.9911L8.74985 31.0626V31.4202L8.82137 31.4917C8.86905 31.444 8.91196 31.4011 8.94772 31.3677C8.98587 31.3296 9.02639 31.2891 9.07407 31.2414ZM9.03831 32.2784L8.82375 32.0639L8.75223 32.1354V32.4215L8.82375 32.493L9.03831 32.2784ZM9.00255 33.3154L8.82375 33.1366L8.75223 33.2082V33.4227L8.82375 33.4942L9.00255 33.3154ZM8.96679 34.3525L8.82375 34.2094L8.75223 34.281V34.424L8.82375 34.4955C8.84759 34.4717 8.87143 34.455 8.89527 34.4407C8.91911 34.4288 8.94295 34.4002 8.96679 34.3525ZM9.18135 27.1647C9.32439 27.0932 9.44836 27.1004 9.55802 27.1814C9.6653 27.2649 9.73682 27.3674 9.77258 27.4866C9.80834 27.6058 9.80119 27.7321 9.75351 27.8633C9.70583 27.9944 9.61047 28.073 9.46743 28.0945C9.32439 28.1422 9.20042 28.1303 9.09076 28.0587C8.98348 27.9872 8.91196 27.8919 8.8762 27.7727C8.84044 27.6535 8.84521 27.5343 8.89527 27.4151C8.94295 27.2959 9.03831 27.2124 9.18135 27.1647ZM9.10983 26.1635C9.25287 26.092 9.37684 26.0872 9.48412 26.1444C9.5914 26.204 9.67484 26.2874 9.73444 26.3947C9.79404 26.502 9.80596 26.6212 9.7702 26.7523C9.73444 26.8834 9.64623 26.974 9.50319 27.0193C9.36015 27.0908 9.24095 27.098 9.14559 27.0384C9.05023 26.9788 8.97871 26.8954 8.93103 26.7881C8.88335 26.6808 8.87143 26.5616 8.89527 26.4305C8.91911 26.2994 8.99063 26.2112 9.10983 26.1635ZM9.25287 25.1264C9.39591 25.1026 9.50796 25.1336 9.5914 25.217C9.67484 25.3005 9.72729 25.3958 9.75113 25.5031C9.77497 25.6104 9.75589 25.7177 9.69868 25.8249C9.63908 25.9322 9.53657 25.999 9.39353 26.0204C9.25049 26.0443 9.13606 26.0157 9.055 25.9322C8.97156 25.8488 8.91673 25.7487 8.89527 25.6295C8.87143 25.5103 8.88812 25.3958 8.94772 25.2909C9.00732 25.1789 9.10983 25.1264 9.25287 25.1264ZM9.21711 23.0881C9.36015 23.0404 9.49127 23.0762 9.61047 23.1954C9.72967 23.3146 9.76543 23.4457 9.71775 23.5888C9.67007 23.7556 9.56279 23.8558 9.39591 23.8915C9.22903 23.9273 9.09791 23.8725 9.00255 23.7318C8.90719 23.6126 8.88335 23.4886 8.93103 23.3551C8.97871 23.2264 9.07407 23.1358 9.21711 23.0881ZM9.21711 24.0894C9.36015 24.0656 9.4722 24.0894 9.55802 24.1609C9.64146 24.2324 9.69391 24.3206 9.71775 24.4279C9.74159 24.5352 9.73682 24.6425 9.70106 24.7498C9.6653 24.857 9.57471 24.9238 9.43406 24.9453C9.29102 24.9929 9.17659 24.9762 9.09315 24.8928C9.00971 24.8094 8.95487 24.714 8.93342 24.6067C8.90958 24.4994 8.91434 24.3922 8.9501 24.2849C8.98586 24.1776 9.07407 24.1132 9.21711 24.0894ZM9.18135 22.0868C9.30055 22.0392 9.40068 22.0392 9.4865 22.0868C9.56994 22.1345 9.62954 22.206 9.6653 22.3014C9.70106 22.3968 9.70583 22.4969 9.68438 22.6042C9.66054 22.7114 9.58902 22.7782 9.46982 22.7997C9.35062 22.8473 9.2481 22.8473 9.16466 22.7997C9.08122 22.752 9.02162 22.6805 8.98586 22.5851C8.9501 22.4897 8.94295 22.3944 8.96679 22.299C8.99063 22.206 9.06215 22.1345 9.18135 22.0868ZM9.18135 21.0856C9.30055 21.0379 9.41498 21.045 9.52226 21.1023C9.62954 21.1619 9.68199 21.2644 9.68199 21.4074C9.70583 21.5266 9.651 21.6291 9.52226 21.7102C9.39114 21.7936 9.26479 21.8008 9.14559 21.7269C9.02639 21.6792 8.96679 21.5719 8.96679 21.405C8.96679 21.2405 9.03831 21.1332 9.18135 21.0856ZM9.18135 20.0485C9.27671 20.0008 9.36492 20.0008 9.44836 20.0485C9.5318 20.0962 9.5914 20.163 9.62716 20.2464C9.66292 20.3298 9.66769 20.4204 9.64623 20.5134C9.62239 20.6088 9.56279 20.6684 9.46743 20.6922C9.37207 20.7399 9.28148 20.7399 9.20042 20.6922C9.11699 20.6445 9.05739 20.5802 9.02163 20.4943C8.98587 20.4109 8.97871 20.3275 9.00255 20.244C9.02639 20.1606 9.08599 20.0962 9.18135 20.0485ZM9.25287 19.0115C9.37207 18.9877 9.4722 19.0306 9.55802 19.1355C9.64146 19.2427 9.65815 19.3572 9.61047 19.4764C9.56279 19.5956 9.4722 19.6623 9.34346 19.6719C9.21234 19.6838 9.12175 19.6313 9.07646 19.5121C9.00494 19.4168 8.98586 19.3143 9.02401 19.2094C9.055 19.0997 9.13367 19.0353 9.25287 19.0115ZM9.25287 18.0102C9.44359 17.9625 9.55802 18.0412 9.5914 18.2415C9.62716 18.4441 9.54849 18.5585 9.35777 18.5824C9.16705 18.6301 9.055 18.5538 9.01924 18.3487C8.98586 18.1461 9.06215 18.0341 9.25287 18.0102ZM9.25287 16.9732C9.41975 16.9493 9.52703 17.0328 9.57471 17.2235C9.62239 17.4142 9.55087 17.5215 9.36015 17.5453C9.19327 17.593 9.08599 17.5215 9.03831 17.3308C8.99063 17.1401 9.06215 17.0209 9.25287 16.9732ZM9.21711 15.9719C9.38399 15.9004 9.49604 15.9552 9.55802 16.134C9.61762 16.3128 9.56279 16.4272 9.39591 16.4725C9.25287 16.5441 9.15036 16.4964 9.09076 16.3295C9.03116 16.1626 9.07407 16.0434 9.21711 15.9719ZM9.21711 13.9693C9.36015 13.874 9.46028 13.905 9.52226 14.0599C9.58186 14.2149 9.53895 14.3174 9.39591 14.3627C9.27671 14.4104 9.18612 14.3699 9.1289 14.2387C9.06692 14.1076 9.09791 14.017 9.21711 13.9693ZM9.21711 14.9706C9.36015 14.8991 9.46743 14.9468 9.53895 15.1137C9.61047 15.2805 9.56279 15.3878 9.39591 15.4355C9.27671 15.4832 9.18612 15.4355 9.1289 15.2925C9.06692 15.1494 9.09791 15.0421 9.21711 14.9706ZM9.25287 12.9323C9.37207 12.8846 9.45551 12.9275 9.50319 13.0563C9.55087 13.1874 9.50319 13.278 9.36015 13.3233C9.24095 13.371 9.16466 13.3304 9.1289 13.1993C9.09076 13.0682 9.13367 12.98 9.25287 12.9323ZM9.25287 11.8953C9.37207 11.8476 9.45551 11.8905 9.50319 12.0216C9.55087 12.1527 9.51511 12.2314 9.39591 12.2529C9.27671 12.3006 9.19327 12.2648 9.14559 12.1456C9.09791 12.0264 9.13367 11.943 9.25287 11.8953ZM9.82503 28.8097C9.75351 28.9766 9.64623 29.1077 9.50319 29.2031C9.67007 29.2984 9.77735 29.3938 9.82503 29.4891C9.96807 29.3461 10.0873 29.2507 10.1826 29.2031C10.0157 29.0839 9.89655 28.9527 9.82503 28.8097ZM9.82503 29.9183C9.75351 30.0375 9.65815 30.1328 9.53895 30.2043C9.58663 30.252 9.63431 30.2997 9.68199 30.3474C9.72967 30.3951 9.77735 30.4427 9.82503 30.4904L10.1111 30.2043C10.0634 30.1567 10.0158 30.109 9.96807 30.0613C9.92039 30.0136 9.87271 29.9659 9.82503 29.9183ZM9.82503 30.9911C9.75351 31.0864 9.67007 31.1699 9.57471 31.2414L9.82503 31.4917L10.0754 31.2414L9.82503 30.9911ZM9.82503 32.0639L9.61047 32.2784L9.82503 32.493L10.0396 32.2784L9.82503 32.0639ZM9.82503 33.4942L10.0038 33.3154C9.93231 33.1486 9.84172 33.1176 9.73682 33.2249C9.62716 33.3321 9.65815 33.4227 9.82503 33.4942ZM9.82503 34.4955C9.84887 34.4717 9.87271 34.455 9.89655 34.4407C9.92039 34.4288 9.94423 34.4002 9.96807 34.3501L9.82503 34.2071C9.80119 34.2309 9.78212 34.2547 9.7702 34.2786C9.75828 34.3024 9.72729 34.3263 9.67961 34.3501L9.82503 34.4955ZM10.1469 27.1647C10.2899 27.0932 10.4139 27.0932 10.5212 27.1647C10.6284 27.2363 10.7119 27.3316 10.7715 27.4508C10.8311 27.57 10.843 27.6964 10.8072 27.8275C10.7715 27.9586 10.6809 28.0492 10.5402 28.0945C10.3972 28.166 10.2732 28.166 10.1636 28.0945C10.0563 28.023 9.97284 27.9276 9.91324 27.8084C9.85364 27.6892 9.84172 27.5653 9.87748 27.4341C9.91562 27.3006 10.0038 27.2124 10.1469 27.1647ZM10.1469 26.1635C10.3138 26.092 10.4735 26.1086 10.6308 26.2159C10.7858 26.3232 10.8382 26.4734 10.7905 26.6641C10.7667 26.8548 10.6666 26.9812 10.4878 27.0408C10.309 27.1004 10.1588 27.0718 10.0396 26.9502C9.92039 26.8548 9.87271 26.7118 9.89655 26.5211C9.92039 26.3304 10.0038 26.2112 10.1469 26.1635ZM10.2899 25.1264C10.4329 25.1026 10.545 25.1336 10.6308 25.217C10.7143 25.3005 10.7548 25.403 10.7548 25.5222C10.7548 25.6414 10.7238 25.7534 10.6642 25.8607C10.6046 25.968 10.5045 26.0204 10.3614 26.0204C10.2184 26.0443 10.1111 26.0085 10.0396 25.9132C9.96807 25.8178 9.92516 25.7105 9.91562 25.5913C9.9037 25.4721 9.92754 25.3648 9.98714 25.2695C10.0444 25.1741 10.1469 25.1264 10.2899 25.1264ZM10.2541 24.0894C10.3972 24.0656 10.5092 24.0894 10.5951 24.1609C10.6785 24.2324 10.7262 24.3206 10.7381 24.4279C10.75 24.5352 10.7309 24.6425 10.6857 24.7498C10.638 24.857 10.5426 24.9238 10.3996 24.9453C10.2804 24.9929 10.1779 24.9762 10.0968 24.8928C10.0134 24.8094 9.95854 24.714 9.9347 24.6067C9.91086 24.4994 9.92277 24.3922 9.97045 24.2849C10.0157 24.1776 10.1111 24.1132 10.2541 24.0894ZM10.2184 23.0881C10.3376 23.0404 10.4449 23.0476 10.5402 23.1072C10.6356 23.1668 10.6952 23.2502 10.719 23.3575C10.7429 23.4648 10.7357 23.5721 10.7 23.6794C10.6642 23.7866 10.5879 23.8534 10.4687 23.8748C10.3495 23.9225 10.2422 23.9178 10.1469 23.8582C10.0515 23.7986 9.99191 23.7151 9.96807 23.6078C9.94423 23.5006 9.949 23.4004 9.98476 23.3051C10.0205 23.2073 10.0992 23.1358 10.2184 23.0881ZM10.2184 22.0868C10.3376 22.0392 10.4377 22.0463 10.5212 22.1059C10.6046 22.1655 10.657 22.2442 10.6833 22.3395C10.7071 22.4349 10.7 22.5303 10.6642 22.6256C10.6284 22.721 10.5498 22.7806 10.4306 22.8044C10.3114 22.8521 10.216 22.8473 10.1445 22.7877C10.073 22.7281 10.0181 22.6566 9.98237 22.5732C9.94661 22.4897 9.94661 22.4015 9.98237 22.3062C10.0205 22.206 10.0992 22.1345 10.2184 22.0868ZM10.2184 21.0856C10.3376 21.014 10.4568 21.026 10.576 21.1213C10.6952 21.2167 10.7309 21.3359 10.6833 21.4789C10.6594 21.5981 10.5879 21.6887 10.4687 21.7459C10.3495 21.8055 10.2303 21.7888 10.1111 21.6911C9.99191 21.6196 9.95138 21.5123 9.98476 21.3693C10.0205 21.2286 10.0992 21.1332 10.2184 21.0856ZM10.2899 19.0115C10.4091 18.9877 10.5092 19.0186 10.5951 19.1021C10.6785 19.1855 10.6952 19.288 10.6475 19.4049C10.6237 19.5479 10.5402 19.6385 10.3972 19.6719C10.2542 19.7076 10.1469 19.6671 10.0754 19.5479C10.0038 19.4287 9.99191 19.3143 10.0396 19.2094C10.0873 19.0997 10.1707 19.0353 10.2899 19.0115ZM10.2184 20.0485C10.3138 20.0008 10.402 20.0008 10.4854 20.0485C10.5688 20.0962 10.6213 20.163 10.6451 20.2464C10.669 20.3298 10.669 20.4204 10.6451 20.5134C10.6213 20.6088 10.5498 20.6684 10.4306 20.6922C10.3352 20.7399 10.2518 20.7399 10.1802 20.6922C10.1087 20.6445 10.061 20.5802 10.0372 20.4943C10.0134 20.4109 10.0134 20.3275 10.0372 20.244C10.0634 20.1606 10.123 20.0962 10.2184 20.0485ZM10.2899 18.0102C10.4806 17.9625 10.5879 18.046 10.6117 18.2605C10.6356 18.4751 10.5521 18.5943 10.3614 18.6181C10.1707 18.642 10.0634 18.5538 10.0396 18.3511C10.0158 18.1461 10.0992 18.0341 10.2899 18.0102ZM10.2541 17.0089C10.4449 16.9374 10.5641 16.997 10.6117 17.1877C10.6594 17.3785 10.5879 17.4977 10.3972 17.5453C10.2303 17.593 10.123 17.5263 10.0754 17.3475C10.0277 17.1687 10.0873 17.0566 10.2541 17.0089ZM10.2541 15.9719C10.421 15.9004 10.5331 15.9552 10.5951 16.134C10.6547 16.3128 10.5879 16.4272 10.3972 16.4725C10.2542 16.5202 10.1516 16.4606 10.0944 16.2937C10.0324 16.1269 10.0873 16.0196 10.2541 15.9719ZM10.2184 14.9706C10.3614 14.8753 10.4735 14.911 10.5569 15.0779C10.6404 15.2448 10.5974 15.364 10.4306 15.4355C10.3114 15.4832 10.216 15.4355 10.1445 15.2925C10.0753 15.1494 10.0992 15.0421 10.2184 14.9706ZM10.2184 13.9693C10.3376 13.874 10.4377 13.8931 10.5212 14.0242C10.6046 14.1553 10.5879 14.2578 10.4687 14.3269C10.3495 14.4223 10.247 14.4104 10.1636 14.2912C10.0801 14.172 10.0992 14.0647 10.2184 13.9693ZM10.2899 11.8953C10.4091 11.8476 10.4806 11.8953 10.5045 12.0383C10.5283 12.1814 10.4806 12.2529 10.3614 12.2529C10.2422 12.3006 10.1707 12.26 10.1469 12.1289C10.123 11.9954 10.1707 11.9191 10.2899 11.8953ZM10.2899 12.9323C10.4091 12.8846 10.4878 12.9275 10.5212 13.0563C10.5569 13.1874 10.514 13.278 10.3972 13.3233C10.278 13.371 10.1993 13.3233 10.1636 13.1802C10.1278 13.0396 10.1707 12.9562 10.2899 12.9323ZM10.8621 28.8097C10.8144 28.8812 10.7596 28.9527 10.7 29.0243C10.6404 29.0958 10.5617 29.1554 10.4687 29.2031C10.5879 29.2507 10.719 29.3461 10.8621 29.4891C10.9097 29.4415 10.9622 29.389 11.0218 29.327C11.0814 29.2674 11.1338 29.215 11.1815 29.1673C11.0647 29.0958 10.9574 28.9766 10.8621 28.8097ZM10.8621 29.9183L10.576 30.2043C10.6237 30.252 10.6713 30.2997 10.719 30.3474C10.7667 30.3951 10.8144 30.4427 10.8621 30.4904C10.9097 30.4427 10.9574 30.3951 11.0051 30.3474C11.0528 30.2997 11.1005 30.252 11.1481 30.2043C11.0289 30.1328 10.9336 30.0375 10.8621 29.9183ZM10.8263 30.9911C10.7786 31.0387 10.7429 31.0817 10.719 31.115C10.6952 31.1508 10.6594 31.1937 10.6117 31.2414C10.6594 31.2891 10.6952 31.332 10.719 31.3677C10.7429 31.4035 10.7786 31.4464 10.8263 31.4917C10.874 31.444 10.9217 31.4083 10.9693 31.3844C11.017 31.3606 11.0647 31.3248 11.1124 31.2771L10.8263 30.9911ZM10.8263 32.0639C10.8025 32.1115 10.7429 32.1831 10.6475 32.2784C10.7429 32.3738 10.8025 32.4453 10.8263 32.493C10.8978 32.4453 10.9813 32.3738 11.0766 32.2784C11.0289 32.2307 10.986 32.195 10.9503 32.1711C10.9145 32.1473 10.874 32.1115 10.8263 32.0639ZM10.8263 33.1366C10.8025 33.1843 10.7786 33.2153 10.7548 33.2272C10.7309 33.2392 10.6952 33.2702 10.6475 33.3178C10.6952 33.3655 10.7309 33.3965 10.7548 33.4084C10.7786 33.4203 10.8025 33.4513 10.8263 33.499C10.874 33.4513 10.9097 33.4227 10.9336 33.4084C10.9574 33.3965 10.9932 33.3679 11.0409 33.3178C10.9932 33.2702 10.9574 33.2415 10.9336 33.2272C10.9097 33.2129 10.874 33.1843 10.8263 33.1366ZM10.6833 34.3525C10.7309 34.3763 10.7596 34.4002 10.7739 34.424C10.7858 34.4479 10.8025 34.4717 10.8263 34.4955C10.874 34.4717 10.9026 34.4479 10.9169 34.424C10.9288 34.4002 10.9574 34.3763 11.0075 34.3525C10.8859 34.2094 10.7786 34.2094 10.6833 34.3525ZM11.1839 27.1647C11.3508 27.0932 11.5105 27.1242 11.6679 27.2553C11.8228 27.3865 11.8753 27.5486 11.8276 27.7369C11.8037 27.9276 11.6965 28.054 11.5057 28.1136C11.315 28.1732 11.1601 28.1446 11.0409 28.023C10.8978 27.9038 10.843 27.7441 10.8788 27.539C10.9145 27.3388 11.017 27.2124 11.1839 27.1647ZM11.1839 26.1635C11.3508 26.092 11.5057 26.1158 11.6488 26.235C11.7918 26.3542 11.8395 26.5092 11.7918 26.6999C11.768 26.8906 11.6655 27.0098 11.4867 27.0575C11.3079 27.1052 11.1577 27.0694 11.0385 26.9502C10.9193 26.831 10.8716 26.6832 10.8954 26.502C10.9217 26.3232 11.017 26.2112 11.1839 26.1635ZM11.2912 25.1264C11.4342 25.1026 11.5463 25.1336 11.6297 25.217C11.7132 25.3005 11.7608 25.403 11.7728 25.5222C11.7847 25.6414 11.7608 25.7534 11.7012 25.8607C11.6416 25.968 11.5391 26.0204 11.3961 26.0204C11.253 26.0443 11.1458 26.0085 11.0742 25.9132C11.0027 25.8178 10.955 25.7153 10.9312 25.6104C10.9074 25.5031 10.924 25.3958 10.986 25.2885C11.0456 25.1789 11.1481 25.1264 11.2912 25.1264ZM11.2554 24.0894C11.3746 24.0417 11.4938 24.0703 11.613 24.18C11.7322 24.2873 11.7799 24.4112 11.7561 24.5543C11.7561 24.745 11.6726 24.8713 11.5057 24.9309C11.3389 24.9905 11.1958 24.9619 11.0766 24.8404C10.9574 24.745 10.9145 24.6067 10.9503 24.4279C10.986 24.2491 11.0885 24.1371 11.2554 24.0894ZM11.2197 23.0881C11.3627 23.0404 11.4748 23.0524 11.5582 23.1239C11.6416 23.1954 11.6941 23.286 11.7179 23.3909C11.7418 23.4982 11.737 23.6007 11.7012 23.6937C11.6655 23.789 11.5749 23.8486 11.4342 23.8725C11.315 23.9201 11.2125 23.9082 11.1291 23.8367C11.0456 23.7652 10.9908 23.677 10.967 23.5697C10.9431 23.4624 10.9503 23.3623 10.986 23.2669C11.0218 23.1716 11.1005 23.112 11.2197 23.0881ZM11.2197 21.0498C11.3389 21.0021 11.439 21.0093 11.5248 21.0665C11.6083 21.1261 11.6607 21.2048 11.6845 21.3001C11.7084 21.3955 11.7036 21.4908 11.6679 21.5862C11.6321 21.6816 11.5534 21.7412 11.4366 21.765C11.2221 21.8365 11.079 21.7531 11.0075 21.5147C10.9336 21.2763 11.0051 21.1213 11.2197 21.0498ZM11.2197 22.0868C11.3389 22.0392 11.439 22.0463 11.5248 22.1059C11.6083 22.1655 11.6679 22.249 11.7036 22.3562C11.7394 22.4635 11.7322 22.566 11.6845 22.6614C11.6369 22.7567 11.5534 22.8163 11.4342 22.8402C11.315 22.8879 11.2197 22.8759 11.1481 22.8044C11.0766 22.7329 11.0289 22.6495 11.0051 22.5541C10.9813 22.4587 10.9813 22.3634 11.0051 22.268C11.0289 22.1703 11.1005 22.1107 11.2197 22.0868ZM11.1839 20.0843C11.3746 19.9651 11.5248 20.008 11.6321 20.2083C11.7394 20.4109 11.6965 20.573 11.5057 20.6922C11.4104 20.7399 11.3198 20.7447 11.2387 20.7089C11.1553 20.6731 11.0957 20.6135 11.0599 20.5301C11.0242 20.4467 11.0123 20.3632 11.0242 20.2798C11.0337 20.1963 11.0885 20.132 11.1839 20.0843ZM11.2912 19.0115C11.4819 18.9638 11.6011 19.0544 11.6488 19.2785C11.6965 19.505 11.613 19.6313 11.3985 19.6552C11.2077 19.7029 11.0933 19.6194 11.0576 19.4049C11.0218 19.1903 11.1005 19.0592 11.2912 19.0115ZM11.2912 18.0102C11.4819 17.9625 11.594 18.046 11.6297 18.2605C11.6655 18.4751 11.5868 18.5943 11.3985 18.6181C11.3031 18.642 11.2316 18.6253 11.1839 18.5633C11.1362 18.5037 11.1005 18.4393 11.0766 18.3678C11.0528 18.2963 11.0576 18.2248 11.0933 18.1533C11.1315 18.0817 11.1958 18.0341 11.2912 18.0102ZM11.2554 15.9719C11.3985 15.9004 11.5057 15.9481 11.5773 16.1149C11.6488 16.2818 11.613 16.401 11.47 16.4725C11.3269 16.5441 11.2125 16.4964 11.1315 16.3295C11.0456 16.1626 11.0885 16.0434 11.2554 15.9719ZM11.2912 16.9732C11.4581 16.9255 11.5653 16.997 11.613 17.1877C11.6607 17.3785 11.6011 17.4977 11.4342 17.5453C11.3389 17.5692 11.2602 17.5573 11.2006 17.5096C11.141 17.4619 11.1052 17.4023 11.0933 17.3308C11.0814 17.2593 11.0862 17.1877 11.1124 17.1162C11.1362 17.0447 11.1958 16.997 11.2912 16.9732ZM11.2554 14.9706C11.3985 14.8753 11.5057 14.9158 11.5773 15.0946C11.6488 15.2734 11.6011 15.3878 11.4342 15.4331C11.2912 15.4808 11.1887 15.4284 11.1291 15.2734C11.0695 15.1184 11.1124 15.0183 11.2554 14.9706ZM11.2554 13.9693C11.3746 13.874 11.47 13.8978 11.5415 14.0409C11.613 14.1839 11.5892 14.2912 11.47 14.3627C11.3508 14.4342 11.2554 14.4056 11.1839 14.2721C11.1124 14.141 11.1362 14.0409 11.2554 13.9693ZM11.2912 11.8953C11.4104 11.8476 11.4891 11.8905 11.5248 12.0216C11.5606 12.1527 11.5177 12.2314 11.3985 12.2529C11.2793 12.3006 11.2006 12.2648 11.1672 12.1456C11.1315 12.0264 11.172 11.943 11.2912 11.8953ZM11.3269 12.8965C11.4461 12.8727 11.5177 12.9395 11.5415 13.0944C11.5653 13.2494 11.5057 13.3257 11.3627 13.3257C11.2435 13.3495 11.1768 13.2899 11.1672 13.1469C11.1529 13.0038 11.2077 12.9204 11.3269 12.8965ZM11.8633 28.7382C11.7918 28.9527 11.6726 29.0958 11.5057 29.1673C11.6965 29.3103 11.8157 29.4295 11.8633 29.5249C11.9349 29.4057 12.0421 29.2865 12.1852 29.1673C12.0421 29.0719 11.9349 28.9289 11.8633 28.7382ZM11.8633 29.9183C11.8157 29.9659 11.768 30.0136 11.7203 30.0613C11.6726 30.109 11.6249 30.1567 11.5773 30.2043L11.8633 30.4904C11.911 30.4427 11.9587 30.3951 12.0064 30.3474C12.0541 30.2997 12.1017 30.252 12.1494 30.2043C12.0302 30.1328 11.9349 30.0375 11.8633 29.9183ZM11.8633 30.9911L11.613 31.2414C11.6607 31.2891 11.7036 31.332 11.737 31.3677C11.7728 31.4035 11.8133 31.4464 11.861 31.4917L12.1113 31.2414C12.0636 31.1937 12.0207 31.1508 11.9849 31.115C11.9516 31.0793 11.911 31.0387 11.8633 30.9911ZM11.8633 32.0639L11.6488 32.2784L11.8633 32.493L12.0779 32.2784L11.8633 32.0639ZM11.8633 33.1366L11.6845 33.3154L11.8633 33.4942L12.0064 33.3512C11.9587 33.2559 11.911 33.1843 11.8633 33.1366ZM11.8633 34.4955L12.0064 34.3525C11.9587 34.3286 11.9277 34.3048 11.9158 34.281C11.9039 34.2571 11.8848 34.2333 11.861 34.2094L11.7179 34.3525C11.7418 34.4002 11.7656 34.4312 11.7894 34.4431C11.8157 34.4526 11.8395 34.4717 11.8633 34.4955ZM12.1852 27.1647C12.3521 27.0932 12.5118 27.1099 12.6667 27.2172C12.8217 27.3245 12.8765 27.4747 12.8289 27.6654C12.8289 27.8561 12.7335 27.9944 12.5428 28.0754C12.3521 28.1589 12.1971 28.1422 12.0779 28.023C11.9349 27.9038 11.8753 27.7488 11.8991 27.5581C11.9229 27.3674 12.0183 27.2363 12.1852 27.1647ZM12.1852 26.1635C12.3282 26.092 12.4522 26.0872 12.5619 26.1444C12.6691 26.204 12.7454 26.2874 12.7931 26.3947C12.8408 26.502 12.8455 26.6212 12.8122 26.7523C12.7764 26.8834 12.6882 26.974 12.5452 27.0193C12.4021 27.0908 12.2829 27.098 12.1876 27.0384C12.0922 26.9788 12.0207 26.8954 11.973 26.7881C11.9253 26.6808 11.9134 26.5616 11.9372 26.4305C11.9587 26.2994 12.0421 26.2112 12.1852 26.1635ZM12.3282 25.1264C12.4951 25.0788 12.6262 25.1264 12.7216 25.2695C12.8169 25.4125 12.8408 25.5675 12.7931 25.7344C12.7454 25.8774 12.6334 25.968 12.4546 26.0014C12.2758 26.0371 12.1375 25.9823 12.0421 25.8392C11.9229 25.72 11.8943 25.5722 11.9516 25.3911C12.0112 25.2146 12.1375 25.1264 12.3282 25.1264ZM12.2567 24.0894C12.3997 24.0656 12.5118 24.0894 12.5976 24.1609C12.6811 24.2324 12.7335 24.3206 12.7573 24.4279C12.7812 24.5352 12.7764 24.6425 12.7407 24.7498C12.7049 24.857 12.6143 24.9238 12.4736 24.9453C12.3306 24.9929 12.2162 24.981 12.1327 24.9095C12.0493 24.838 11.9945 24.7426 11.973 24.6234C11.9492 24.5042 11.9539 24.3898 11.9897 24.2825C12.0255 24.1776 12.1137 24.1132 12.2567 24.0894ZM12.2567 23.0881C12.3759 23.0643 12.476 23.0834 12.5619 23.143C12.6453 23.2026 12.7049 23.286 12.7407 23.3933C12.7764 23.5006 12.7693 23.6031 12.7216 23.696C12.6739 23.7914 12.5905 23.851 12.4713 23.8748C12.3521 23.9225 12.2496 23.9106 12.1661 23.8391C12.0827 23.7676 12.0231 23.6841 11.9873 23.5888C11.9516 23.4934 11.9563 23.3909 12.0064 23.286C12.0541 23.1763 12.1375 23.112 12.2567 23.0881ZM12.2209 22.0868C12.364 22.0153 12.4999 22.0463 12.6334 22.1774C12.7645 22.3086 12.7931 22.4444 12.724 22.5899C12.6763 22.7329 12.5738 22.8163 12.4212 22.8402C12.2662 22.864 12.1542 22.8163 12.0803 22.6971C11.9849 22.5779 11.9539 22.4587 11.9897 22.3395C12.0255 22.218 12.1017 22.1345 12.2209 22.0868ZM12.2209 21.0856C12.4355 20.9902 12.5905 21.057 12.6858 21.2811C12.7812 21.5075 12.7216 21.6696 12.507 21.765C12.3878 21.8127 12.2853 21.8127 12.2019 21.765C12.1184 21.7173 12.0588 21.653 12.0231 21.5671C11.9873 21.4837 11.9802 21.3955 12.004 21.3001C12.0302 21.2048 12.1017 21.1332 12.2209 21.0856ZM12.2209 20.0485C12.3163 20.0008 12.4045 20.0008 12.488 20.0485C12.5714 20.0962 12.631 20.163 12.6667 20.2464C12.7025 20.3298 12.7073 20.4204 12.6858 20.5134C12.662 20.6088 12.6024 20.6684 12.507 20.6922C12.4117 20.7399 12.3211 20.7447 12.24 20.7089C12.1566 20.6731 12.097 20.6135 12.0612 20.5301C12.0255 20.4467 12.0183 20.3584 12.0421 20.2631C12.066 20.1677 12.1256 20.0962 12.2209 20.0485ZM12.3282 19.0115C12.4236 18.9877 12.4999 19.0067 12.5595 19.0663C12.6191 19.1259 12.6548 19.1974 12.6667 19.2809C12.6787 19.3643 12.6668 19.443 12.631 19.5145C12.5952 19.586 12.5285 19.6337 12.4331 19.6576C12.2186 19.7052 12.0946 19.617 12.0588 19.3905C12.0255 19.1593 12.1137 19.0353 12.3282 19.0115ZM12.3282 18.0102C12.4474 17.9625 12.5428 17.9864 12.6143 18.0817C12.6858 18.1771 12.6977 18.2844 12.6501 18.4036C12.6024 18.5228 12.5118 18.5943 12.3831 18.6181C12.2519 18.642 12.1613 18.5943 12.116 18.4751C12.0684 18.3797 12.0636 18.2844 12.097 18.189C12.1304 18.0937 12.209 18.0341 12.3282 18.0102ZM12.2567 17.0089C12.3521 16.9613 12.4284 16.9613 12.488 17.0089C12.5476 17.0566 12.5881 17.1162 12.6143 17.1877C12.6381 17.2593 12.6381 17.3308 12.6143 17.4023C12.5905 17.4738 12.5309 17.5215 12.4355 17.5453C12.2448 17.593 12.1304 17.5263 12.097 17.3475C12.0636 17.1687 12.1137 17.0566 12.2567 17.0089ZM12.2567 15.9719C12.4474 15.9004 12.5714 15.96 12.6334 16.1507C12.693 16.3414 12.6262 16.4487 12.4355 16.4725C12.2686 16.5202 12.1613 16.4606 12.1137 16.2937C12.066 16.1269 12.1137 16.0196 12.2567 15.9719ZM12.2567 14.9706C12.3997 14.8991 12.507 14.942 12.5785 15.0946C12.6501 15.2496 12.6143 15.3616 12.4713 15.4331C12.3282 15.4808 12.2209 15.4284 12.1494 15.2734C12.0779 15.1184 12.1137 15.0183 12.2567 14.9706ZM12.2567 13.9336C12.3997 13.8621 12.4999 13.905 12.5619 14.0576C12.6215 14.2125 12.5785 14.315 12.4355 14.3603C12.3163 14.408 12.2257 14.3603 12.1685 14.2173C12.1065 14.0766 12.1375 13.9813 12.2567 13.9336ZM12.3282 11.8953C12.4474 11.8476 12.5189 11.8953 12.5428 12.0383C12.5666 12.1814 12.5189 12.2529 12.3997 12.2529C12.2805 12.2767 12.209 12.2362 12.1852 12.1289C12.1613 12.0192 12.209 11.943 12.3282 11.8953ZM12.3282 12.8965C12.4474 12.8727 12.5237 12.9275 12.5595 13.0563C12.5952 13.1874 12.5523 13.278 12.4331 13.3233C12.3139 13.371 12.2376 13.3233 12.2019 13.1802C12.1661 13.0396 12.209 12.9442 12.3282 12.8965ZM12.8646 28.8097C12.7693 28.9766 12.662 29.0958 12.5428 29.1673C12.5905 29.215 12.6429 29.2698 12.7025 29.327C12.7621 29.3866 12.8146 29.4415 12.8646 29.4891C13.0077 29.3461 13.1269 29.2388 13.2222 29.1673C13.0553 29.0958 12.9361 28.9766 12.8646 28.8097ZM12.8646 29.9183C12.7931 30.0375 12.6977 30.1328 12.5785 30.2043C12.6262 30.252 12.6739 30.2997 12.7216 30.3474C12.7693 30.3951 12.8169 30.4427 12.8646 30.4904C12.9123 30.4427 12.96 30.3951 13.0077 30.3474C13.0553 30.2997 13.103 30.252 13.1507 30.2043L12.8646 29.9183ZM12.8646 30.9911C12.7931 31.0864 12.7097 31.1699 12.6143 31.2414C12.7335 31.3606 12.8289 31.444 12.9004 31.4917C12.9481 31.444 12.9838 31.4011 13.0077 31.3677C13.0315 31.332 13.0673 31.2914 13.1149 31.2414C13.0673 31.1937 13.0243 31.1508 12.991 31.115C12.9552 31.0793 12.9123 31.0387 12.8646 30.9911ZM12.8646 32.0639C12.7693 32.1592 12.7097 32.2307 12.6858 32.2784C12.7097 32.3261 12.7693 32.3976 12.8646 32.493L13.0792 32.2784L12.8646 32.0639ZM12.8646 33.1366C12.8169 33.1843 12.7859 33.2201 12.774 33.2439C12.7621 33.2678 12.7311 33.2916 12.6834 33.3154C12.7311 33.3631 12.7669 33.3941 12.7907 33.406C12.8146 33.418 12.8384 33.449 12.8622 33.4966C12.9099 33.449 12.9457 33.4203 12.9695 33.406C12.9934 33.3941 13.0172 33.3655 13.041 33.3154C13.0172 33.2678 12.9934 33.2392 12.9695 33.2249C12.9481 33.2129 12.9123 33.1843 12.8646 33.1366ZM12.7216 34.3525C12.7931 34.424 12.8527 34.4717 12.9004 34.4955C12.9242 34.4717 12.9409 34.4479 12.9552 34.424C12.9671 34.4002 12.9838 34.3763 13.0077 34.3525C12.9123 34.1618 12.8169 34.1618 12.7216 34.3525ZM13.2222 27.1647C13.3653 27.0932 13.4892 27.0932 13.5965 27.1647C13.7038 27.2363 13.7801 27.3388 13.8278 27.4675C13.8754 27.5986 13.8754 27.725 13.8278 27.8442C13.7801 27.9634 13.6847 28.0468 13.5417 28.0945C13.3986 28.166 13.2747 28.166 13.165 28.0945C13.0553 28.023 12.9791 27.9276 12.9314 27.8084C12.8837 27.6892 12.8837 27.5653 12.9314 27.4341C12.9838 27.3006 13.0792 27.2124 13.2222 27.1647ZM13.2222 26.1635C13.3653 26.092 13.4892 26.092 13.5965 26.1635C13.7038 26.235 13.7753 26.3304 13.8111 26.4496C13.8468 26.5688 13.8397 26.6951 13.792 26.8238C13.7443 26.955 13.649 27.0336 13.5059 27.0575C13.3629 27.1052 13.2437 27.0932 13.1483 27.0217C13.053 26.9502 12.9886 26.862 12.9528 26.7547C12.9171 26.6474 12.9171 26.5354 12.9528 26.4162C12.9886 26.2946 13.0792 26.2112 13.2222 26.1635ZM13.2937 25.1264C13.4368 25.1026 13.5488 25.1264 13.6347 25.198C13.7181 25.2695 13.7705 25.3648 13.7944 25.484C13.8182 25.6032 13.8063 25.7177 13.7586 25.8249C13.7109 25.9322 13.6156 25.999 13.4725 26.0204C13.3295 26.0681 13.2103 26.0514 13.1149 25.968C13.0196 25.8845 12.9671 25.7844 12.9552 25.6628C12.9433 25.5436 12.96 25.4316 13.0077 25.3243C13.0553 25.2146 13.1507 25.1503 13.2937 25.1264ZM13.2937 24.0894C13.4368 24.0656 13.5488 24.0894 13.6347 24.1609C13.7181 24.2324 13.7658 24.3278 13.7777 24.447C13.7896 24.5662 13.7705 24.6782 13.7252 24.7855C13.6776 24.8928 13.5822 24.9453 13.4392 24.9453C13.2961 24.9691 13.1888 24.9405 13.1173 24.8547C13.0458 24.7712 12.9981 24.6759 12.9743 24.5686C12.9504 24.4613 12.9671 24.3612 13.0267 24.2658C13.084 24.1728 13.1745 24.1132 13.2937 24.0894ZM13.258 23.0881C13.3772 23.0404 13.4845 23.0476 13.5798 23.1072C13.6752 23.1668 13.7348 23.2502 13.7586 23.3575C13.7825 23.4648 13.7753 23.5721 13.7395 23.6794C13.7038 23.7866 13.6275 23.8534 13.5083 23.8748C13.3891 23.9225 13.2818 23.9178 13.1865 23.8582C13.0911 23.7986 13.0315 23.7151 13.0077 23.6078C12.9838 23.5006 12.9886 23.4004 13.0243 23.3051C13.0601 23.2073 13.1388 23.1358 13.258 23.0881ZM13.258 22.0868C13.3772 22.0392 13.4773 22.0463 13.5607 22.1059C13.6442 22.1655 13.7038 22.2442 13.7395 22.3395C13.7753 22.4349 13.7753 22.5303 13.7395 22.6256C13.7038 22.721 13.6275 22.7806 13.5083 22.8044C13.3891 22.8521 13.2866 22.8473 13.2031 22.7877C13.1197 22.7281 13.0601 22.6566 13.0243 22.5732C12.9886 22.4897 12.9886 22.4015 13.0243 22.3062C13.0601 22.206 13.1388 22.1345 13.258 22.0868ZM13.258 21.0498C13.3772 21.0021 13.4964 21.0307 13.6156 21.1404C13.7348 21.2477 13.7705 21.3716 13.7229 21.5147C13.699 21.6577 13.6156 21.7483 13.4725 21.7817C13.3295 21.8175 13.2103 21.7769 13.1149 21.6577C13.0196 21.5624 12.991 21.4503 13.0243 21.3192C13.0601 21.1857 13.1388 21.0975 13.258 21.0498ZM13.258 20.0485C13.3772 20.0008 13.4964 20.0247 13.6156 20.12C13.7348 20.2154 13.7705 20.3346 13.7229 20.4776C13.6752 20.5968 13.5846 20.6755 13.4559 20.7113C13.3247 20.747 13.2103 20.7065 13.1149 20.5873C13.0434 20.5158 13.0196 20.4204 13.0434 20.3012C13.0673 20.1796 13.1388 20.0962 13.258 20.0485ZM13.3295 19.0115C13.4249 18.9877 13.5083 19.0115 13.5798 19.083C13.6513 19.1545 13.6919 19.2332 13.7038 19.3143C13.7157 19.3977 13.6966 19.4764 13.649 19.5479C13.6013 19.6194 13.5298 19.6552 13.4344 19.6552C13.3152 19.679 13.2246 19.6623 13.1674 19.6003C13.1078 19.5407 13.072 19.4692 13.0601 19.3858C13.0482 19.3023 13.0649 19.2189 13.1126 19.1355C13.1626 19.052 13.2341 19.0115 13.3295 19.0115ZM13.2937 18.0102C13.3891 17.9864 13.4654 17.9983 13.5274 18.046C13.587 18.0937 13.6275 18.1604 13.6513 18.2415C13.6752 18.3249 13.6704 18.4083 13.6347 18.4918C13.5989 18.5752 13.5321 18.6158 13.4368 18.6158C13.2461 18.6396 13.1269 18.5561 13.0792 18.3654C13.0315 18.1771 13.103 18.0579 13.2937 18.0102ZM13.2937 17.0089C13.4845 16.9374 13.6037 16.997 13.6513 17.1877C13.699 17.3785 13.6394 17.4977 13.4725 17.5453C13.2818 17.593 13.1626 17.5263 13.1149 17.3475C13.0673 17.1687 13.1269 17.0566 13.2937 17.0089ZM13.2937 15.9719C13.4606 15.9242 13.5727 15.9838 13.6347 16.1507C13.6943 16.3176 13.6275 16.4249 13.4368 16.4725C13.2937 16.5202 13.1912 16.4606 13.134 16.2937C13.072 16.1269 13.1269 16.0196 13.2937 15.9719ZM13.258 13.9693C13.3772 13.874 13.4773 13.8978 13.5607 14.0409C13.6442 14.1839 13.6156 14.2912 13.4702 14.3627C13.351 14.4342 13.2556 14.4056 13.1841 14.2721C13.1149 14.141 13.1388 14.0409 13.258 13.9693ZM13.258 14.9706C13.401 14.8753 13.5131 14.911 13.5965 15.0779C13.6799 15.2448 13.649 15.3521 13.5059 15.3997C13.3629 15.4951 13.2556 15.4665 13.1841 15.3092C13.1149 15.1542 13.1388 15.0421 13.258 14.9706ZM13.3295 12.8965C13.4725 12.8727 13.556 12.9323 13.5798 13.0753C13.6037 13.2184 13.5441 13.3018 13.401 13.3257C13.2818 13.3733 13.2103 13.3209 13.1865 13.1659C13.1626 13.0086 13.2103 12.9204 13.3295 12.8965ZM13.3653 11.8953C13.4845 11.8476 13.5488 11.8953 13.5607 12.0383C13.5727 12.1814 13.5178 12.2529 13.401 12.2529C13.2818 12.3006 13.2151 12.26 13.2031 12.1289C13.1912 11.9954 13.2461 11.9191 13.3653 11.8953ZM13.5441 29.1673C13.6871 29.2865 13.7944 29.4057 13.8659 29.5249C13.9136 29.4772 13.9422 29.4415 13.9565 29.4176C13.9684 29.3938 13.997 29.3699 14.0471 29.3461V29.0243C13.9994 28.9766 13.9684 28.9408 13.9565 28.917C13.9446 28.8931 13.9136 28.8574 13.8659 28.8097C13.7705 28.9766 13.6633 29.0958 13.5441 29.1673ZM13.9017 29.9183C13.7586 30.0613 13.6513 30.1567 13.5798 30.2043C13.6275 30.252 13.6799 30.2997 13.7395 30.3474C13.7991 30.3951 13.8516 30.4427 13.9017 30.4904C13.9255 30.4666 13.9422 30.4427 13.9541 30.4189C13.966 30.3951 13.9946 30.3712 14.0447 30.3474V30.0971C13.997 30.0494 13.966 30.0136 13.9541 29.9898C13.9422 29.9659 13.9255 29.9421 13.9017 29.9183ZM13.9017 30.9911L13.6513 31.2414C13.699 31.3129 13.7705 31.3963 13.8659 31.4917C13.9136 31.4679 13.9422 31.444 13.9565 31.4202C13.9684 31.3963 13.997 31.3725 14.0471 31.3487V31.1341C13.9732 31.1103 13.9255 31.0626 13.9017 30.9911ZM13.9017 32.0639L13.6871 32.2784L13.9017 32.493C13.9255 32.4691 13.9422 32.4453 13.9541 32.4215C13.966 32.3976 13.9946 32.3738 14.0447 32.3499V32.2427C13.997 32.195 13.966 32.1592 13.9541 32.1354C13.9422 32.1115 13.9255 32.0877 13.9017 32.0639ZM14.0447 33.3154C13.9732 33.2439 13.9255 33.1843 13.9017 33.1366C13.854 33.1843 13.8182 33.2153 13.7944 33.2272C13.7705 33.2392 13.7467 33.2702 13.7229 33.3178C13.7467 33.3655 13.7705 33.3965 13.7944 33.4084C13.8182 33.4203 13.854 33.4513 13.9017 33.499L14.0447 33.356V33.3154ZM13.9017 34.4955L14.0447 34.3525C13.997 34.3286 13.966 34.3048 13.9541 34.281C13.9422 34.2571 13.9231 34.2333 13.9017 34.2094C13.854 34.2333 13.823 34.2571 13.8111 34.281C13.7991 34.3048 13.7801 34.3286 13.7586 34.3525C13.7825 34.424 13.8301 34.4717 13.9017 34.4955ZM14.2235 27.1647C14.4142 27.0932 14.5811 27.1242 14.7241 27.2553C14.8672 27.3865 14.9149 27.5486 14.8672 27.7369C14.8433 27.9276 14.7432 28.054 14.5644 28.1136C14.3856 28.1732 14.2235 28.1446 14.0805 28.023C13.9374 27.9038 13.8826 27.7441 13.9183 27.539C13.9541 27.3388 14.0566 27.2124 14.2235 27.1647ZM14.1877 26.1635C14.3546 26.092 14.5143 26.1086 14.6717 26.2159C14.8266 26.3232 14.891 26.4734 14.8696 26.6641C14.8457 26.8548 14.7456 26.986 14.5668 27.0575C14.388 27.129 14.2378 27.1052 14.1186 26.986C13.9756 26.8668 13.916 26.7189 13.9398 26.5378C13.9613 26.359 14.0447 26.235 14.1877 26.1635ZM14.3308 25.1264C14.4738 25.1026 14.5859 25.1264 14.6693 25.198C14.7527 25.2695 14.8004 25.3648 14.8123 25.484C14.8243 25.6032 14.8004 25.7177 14.7408 25.8249C14.6812 25.9322 14.5787 25.999 14.4357 26.0204C14.2926 26.0443 14.1854 26.0157 14.1138 25.9322C14.0423 25.8488 13.9946 25.7487 13.9708 25.6295C13.947 25.5103 13.9636 25.3958 14.0256 25.2909C14.0852 25.1789 14.1877 25.1264 14.3308 25.1264ZM14.295 24.0894C14.4381 24.0656 14.5501 24.0894 14.6335 24.1609C14.717 24.2324 14.7694 24.3206 14.7957 24.4279C14.8195 24.5352 14.8123 24.6425 14.7766 24.7498C14.7408 24.857 14.6526 24.9238 14.5096 24.9453C14.3665 24.9929 14.2521 24.9762 14.171 24.8928C14.0876 24.8094 14.0328 24.714 14.0089 24.6067C13.9851 24.4994 13.9923 24.3922 14.028 24.2849C14.0614 24.1776 14.152 24.1132 14.295 24.0894ZM14.295 23.0881C14.4142 23.0404 14.5143 23.0524 14.5978 23.1239C14.6812 23.1954 14.7408 23.2788 14.7766 23.3742C14.8123 23.4696 14.8052 23.5697 14.7575 23.677C14.7098 23.7842 14.6264 23.851 14.5072 23.8725C14.388 23.9201 14.2855 23.9082 14.2044 23.8367C14.121 23.7652 14.0614 23.6817 14.0256 23.5864C13.9899 23.491 13.9946 23.3885 14.0423 23.2836C14.0924 23.1763 14.1758 23.112 14.295 23.0881ZM14.2593 22.0868C14.3546 22.0392 14.45 22.0392 14.5453 22.0868C14.6407 22.1345 14.7074 22.206 14.7432 22.3014C14.779 22.3968 14.7837 22.4969 14.7599 22.6042C14.7361 22.7114 14.6645 22.7782 14.5453 22.7997C14.4261 22.8473 14.3236 22.8473 14.2426 22.7997C14.1591 22.752 14.0995 22.6805 14.0638 22.5851C14.028 22.4897 14.0209 22.3944 14.0447 22.299C14.0685 22.206 14.1401 22.1345 14.2593 22.0868ZM14.2593 21.0856C14.3785 21.0379 14.4905 21.0498 14.5978 21.1213C14.7051 21.1928 14.7575 21.2882 14.7575 21.4074C14.7814 21.5266 14.7337 21.6291 14.6145 21.7102C14.4953 21.7936 14.3761 21.8127 14.2569 21.765C14.1138 21.7173 14.0423 21.6029 14.0423 21.4241C14.0423 21.2453 14.1162 21.1332 14.2593 21.0856ZM14.2593 20.0485C14.3546 20.0008 14.4428 20.0008 14.5263 20.0485C14.6097 20.0962 14.6693 20.163 14.7051 20.2464C14.7408 20.3298 14.7408 20.4204 14.7051 20.5134C14.6693 20.6088 14.6026 20.6684 14.5072 20.6922C14.3165 20.7876 14.1782 20.728 14.0948 20.5134C14.0137 20.2988 14.0685 20.1439 14.2593 20.0485ZM15.2248 27.1647C15.3678 27.0932 15.4989 27.0932 15.6181 27.1647C15.7373 27.2363 15.816 27.3388 15.8518 27.4675C15.8875 27.5986 15.8875 27.725 15.8518 27.8442C15.816 27.9634 15.7278 28.0468 15.5848 28.0945C15.4417 28.166 15.3178 28.166 15.2081 28.0945C15.1008 28.023 15.0221 27.9276 14.9768 27.8084C14.9292 27.6892 14.9244 27.5653 14.9578 27.4341C14.9911 27.3006 15.0817 27.2124 15.2248 27.1647ZM15.2248 26.1635C15.3678 26.092 15.4918 26.0872 15.6014 26.1444C15.7087 26.204 15.785 26.2946 15.8327 26.4114C15.8804 26.5306 15.8851 26.657 15.8518 26.7881C15.816 26.9192 15.7278 27.0098 15.5848 27.0551C15.4417 27.1028 15.3178 27.098 15.2081 27.036C15.1008 26.9764 15.0293 26.8882 14.9935 26.769C14.9578 26.6498 14.9506 26.5306 14.9768 26.4114C14.9983 26.2946 15.0817 26.2112 15.2248 26.1635ZM15.3678 25.1264C15.5109 25.1026 15.6229 25.1336 15.7063 25.217C15.7898 25.3005 15.8327 25.403 15.8327 25.5222C15.8327 25.6414 15.8017 25.7534 15.7421 25.8607C15.6825 25.968 15.5824 26.0204 15.437 26.0204C15.2939 26.0443 15.1795 26.0085 15.0984 25.9132C15.015 25.8178 14.9721 25.7105 14.9721 25.5913C14.9721 25.4721 15.0007 25.3648 15.0627 25.2695C15.1223 25.1741 15.2248 25.1264 15.3678 25.1264ZM15.3321 24.0894C15.4751 24.0656 15.5871 24.0894 15.6706 24.1609C15.754 24.2324 15.8017 24.3206 15.8136 24.4279C15.8255 24.5352 15.8065 24.6425 15.7588 24.7498C15.7111 24.857 15.6158 24.9238 15.4727 24.9453C15.3297 24.9929 15.2152 24.9762 15.1342 24.8928C15.0507 24.8094 15.0031 24.714 14.9911 24.6067C14.9792 24.4994 14.9959 24.3922 15.046 24.2849C15.0937 24.1776 15.189 24.1132 15.3321 24.0894ZM15.2605 23.0881C15.3797 23.0404 15.487 23.0476 15.5824 23.1072C15.6777 23.1668 15.7373 23.2502 15.7612 23.3575C15.785 23.4648 15.7802 23.5721 15.7421 23.6794C15.7063 23.7866 15.6277 23.8534 15.5109 23.8748C15.3917 23.9225 15.2891 23.9178 15.2057 23.8582C15.1223 23.7986 15.0627 23.7151 15.0269 23.6078C14.9911 23.5006 14.9911 23.4004 15.0269 23.3051C15.065 23.2073 15.1413 23.1358 15.2605 23.0881ZM15.2605 22.0868C15.3797 22.0392 15.487 22.0463 15.5824 22.1059C15.6777 22.1655 15.7373 22.2442 15.7612 22.3395C15.785 22.4349 15.7802 22.5303 15.7421 22.6256C15.7063 22.721 15.6277 22.7806 15.5109 22.8044C15.3917 22.8521 15.2963 22.8473 15.2248 22.7877C15.1533 22.7281 15.1008 22.6566 15.065 22.5732C15.0293 22.4897 15.0221 22.4015 15.046 22.3062C15.0698 22.206 15.1413 22.1345 15.2605 22.0868ZM15.2605 20.0485C15.3797 20.0008 15.4989 20.0199 15.6181 20.1034C15.7373 20.1868 15.785 20.2893 15.7612 20.4061C15.7373 20.5492 15.6587 20.6517 15.5275 20.7089C15.3964 20.7685 15.282 20.7518 15.189 20.6541C15.0937 20.5825 15.0507 20.4753 15.0627 20.3322C15.0746 20.1916 15.1413 20.0962 15.2605 20.0485ZM15.2605 21.0856C15.3797 21.0379 15.4799 21.0379 15.5657 21.0856C15.6491 21.1332 15.7087 21.2048 15.7445 21.3001C15.7802 21.3955 15.7802 21.4908 15.7445 21.5862C15.7087 21.6816 15.6301 21.7412 15.5132 21.765C15.394 21.8127 15.2987 21.8127 15.2272 21.765C15.1556 21.7173 15.108 21.6458 15.0841 21.5504C15.0603 21.4551 15.0603 21.3669 15.0841 21.2834C15.1056 21.1976 15.1652 21.1332 15.2605 21.0856ZM15.94 28.8097C15.8923 28.8812 15.8089 28.9766 15.6897 29.0958C15.785 29.2865 15.8565 29.4176 15.9042 29.4891C16.0473 29.3461 16.1665 29.2507 16.2618 29.2031C16.1188 29.1077 16.0115 28.9766 15.94 28.8097ZM16.2618 27.1647C16.4287 27.0932 16.5884 27.1242 16.7434 27.2553C16.8983 27.3865 16.9508 27.5486 16.9031 27.7369C16.8554 27.9276 16.7434 28.054 16.5646 28.1136C16.3858 28.1732 16.2356 28.1446 16.1164 28.023C15.9733 27.9038 15.9137 27.7441 15.9376 27.539C15.9638 27.3388 16.0711 27.2124 16.2618 27.1647ZM16.2618 26.1635C16.4049 26.092 16.5288 26.092 16.6361 26.1635C16.7434 26.235 16.8149 26.3304 16.8507 26.4496C16.8864 26.5688 16.8793 26.688 16.8316 26.8071C16.7839 26.9263 16.6885 27.0098 16.5455 27.0575C16.4025 27.1052 16.2833 27.0932 16.1879 27.0217C16.0925 26.9502 16.0282 26.862 15.9924 26.7547C15.9567 26.6474 15.9567 26.5354 15.9924 26.4162C16.0282 26.2946 16.1188 26.2112 16.2618 26.1635ZM16.3691 25.1264C16.5121 25.1026 16.6194 25.1264 16.6909 25.198C16.7625 25.2695 16.8101 25.3577 16.834 25.465C16.8578 25.5722 16.8459 25.6795 16.7982 25.7868C16.7505 25.8941 16.6552 25.9608 16.5121 25.9823C16.3691 26.03 16.2499 26.0133 16.1545 25.9275C16.0592 25.844 16.0067 25.7439 15.9948 25.6247C15.9829 25.5055 16.0067 25.3911 16.0663 25.2862C16.1235 25.1789 16.2261 25.1264 16.3691 25.1264ZM16.2976 24.0894C16.4406 24.0417 16.5527 24.0608 16.6361 24.1418C16.7195 24.2253 16.7791 24.3206 16.8149 24.4279C16.8507 24.5352 16.8435 24.6425 16.7982 24.7498C16.7505 24.857 16.6552 24.9238 16.5121 24.9453C16.3691 24.9929 16.2547 24.981 16.1736 24.9095C16.0902 24.838 16.0353 24.7498 16.0115 24.6425C15.9877 24.5352 15.9996 24.4279 16.0473 24.3206C16.0949 24.2134 16.1784 24.1371 16.2976 24.0894ZM16.2976 23.0881C16.4168 23.0404 16.5169 23.0524 16.6003 23.1239C16.6838 23.1954 16.7434 23.2788 16.7791 23.3742C16.8149 23.4696 16.8077 23.5697 16.7625 23.677C16.7148 23.7842 16.6313 23.851 16.5121 23.8725C16.3929 23.9201 16.2904 23.9082 16.2094 23.8367C16.1259 23.7652 16.0711 23.6817 16.0496 23.5864C16.0258 23.491 16.0306 23.3885 16.0663 23.2836C16.0997 23.1763 16.1784 23.112 16.2976 23.0881ZM16.2976 21.0498C16.4406 21.0021 16.5646 21.0379 16.6742 21.1571C16.7815 21.2763 16.8101 21.4074 16.7648 21.5504C16.7172 21.6696 16.6266 21.7483 16.4978 21.7841C16.3667 21.8198 16.2523 21.7793 16.1569 21.6601C16.0616 21.5648 16.033 21.4527 16.0663 21.3216C16.0997 21.1857 16.1784 21.0975 16.2976 21.0498ZM16.2976 22.0868C16.4168 22.0392 16.5169 22.0463 16.6003 22.1059C16.6838 22.1655 16.7434 22.249 16.7791 22.3562C16.8149 22.4635 16.8077 22.566 16.7625 22.6614C16.7148 22.7567 16.6313 22.8163 16.5121 22.8402C16.3929 22.8879 16.2976 22.8759 16.2261 22.8044C16.1545 22.7329 16.1069 22.6495 16.083 22.5541C16.0592 22.4587 16.0592 22.3634 16.083 22.268C16.1069 22.1703 16.1784 22.1107 16.2976 22.0868ZM16.3691 19.0115C16.4883 18.9638 16.5884 18.9948 16.6742 19.1021C16.7577 19.2094 16.7744 19.3238 16.7267 19.443C16.679 19.5622 16.5956 19.6385 16.4764 19.6742C16.3572 19.71 16.2499 19.6695 16.1545 19.5503C16.083 19.4549 16.0711 19.3476 16.1188 19.2284C16.1665 19.1069 16.2499 19.0353 16.3691 19.0115ZM16.2618 20.0485C16.3572 20.0008 16.4454 19.9937 16.5288 20.0295C16.6123 20.0652 16.6719 20.1248 16.7076 20.2083C16.7434 20.2917 16.7553 20.3823 16.7434 20.4753C16.7315 20.5706 16.6766 20.6421 16.5837 20.6898C16.4883 20.7375 16.3977 20.7423 16.3166 20.7065C16.2332 20.6708 16.1736 20.6112 16.1378 20.5277C16.1021 20.4443 16.0902 20.3561 16.1021 20.2607C16.1116 20.1677 16.1665 20.0962 16.2618 20.0485ZM16.3691 18.0102C16.5598 17.9625 16.679 18.0341 16.7267 18.2248C16.7744 18.4155 16.7029 18.5347 16.5121 18.5824C16.3214 18.6539 16.2022 18.5895 16.1545 18.3845C16.1069 18.1842 16.1784 18.0579 16.3691 18.0102ZM16.9055 28.8097C16.834 28.9766 16.7267 29.1077 16.5837 29.2031C16.7744 29.2984 16.8816 29.4057 16.9055 29.5249C17.0008 29.3819 17.12 29.2627 17.2631 29.1673C17.12 29.0719 17.0008 28.9527 16.9055 28.8097ZM16.6552 30.2043C16.7029 30.252 16.7505 30.2997 16.7982 30.3474C16.8459 30.3951 16.8936 30.4427 16.9413 30.4904C16.9889 30.4427 17.0366 30.3951 17.0843 30.3474C17.132 30.2997 17.1797 30.252 17.2273 30.2043C17.1081 30.1328 17.0128 30.0375 16.9413 29.9183C16.8936 29.9659 16.8459 30.0136 16.7982 30.0613C16.7505 30.109 16.7029 30.1567 16.6552 30.2043ZM17.2631 26.1635C17.4061 26.092 17.5301 26.0872 17.6398 26.1444C17.747 26.204 17.8233 26.2874 17.8734 26.3947C17.9211 26.502 17.9258 26.6212 17.8901 26.7523C17.8543 26.8834 17.7637 26.974 17.6231 27.0193C17.48 27.0908 17.3561 27.098 17.2488 27.0384C17.1415 26.9788 17.0628 26.8954 17.0152 26.7881C16.9675 26.6808 16.9603 26.5616 16.9961 26.4305C17.0318 26.2994 17.12 26.2112 17.2631 26.1635ZM17.2631 27.1647C17.4061 27.0932 17.5301 27.0932 17.6398 27.1647C17.747 27.2363 17.8233 27.3316 17.8734 27.4508C17.9211 27.57 17.9258 27.6964 17.8901 27.8275C17.8543 27.9586 17.7637 28.0492 17.6231 28.0945C17.48 28.166 17.3561 28.166 17.2488 28.0945C17.1415 28.023 17.0628 27.9276 17.0152 27.8084C16.9675 27.6892 16.9603 27.5653 16.9961 27.4341C17.0318 27.3006 17.12 27.2124 17.2631 27.1647ZM17.3704 25.1264C17.5134 25.1026 17.6255 25.1336 17.7089 25.217C17.7923 25.3005 17.84 25.3958 17.8519 25.5031C17.8639 25.6104 17.8448 25.7177 17.7995 25.8249C17.7518 25.9322 17.6564 25.999 17.5134 26.0204C17.3704 26.0443 17.2559 26.0157 17.1725 25.9322C17.0891 25.8488 17.0342 25.7487 17.0128 25.6295C16.9889 25.5103 17.0056 25.3958 17.0676 25.2909C17.1248 25.1789 17.2273 25.1264 17.3704 25.1264ZM17.3346 23.0881C17.4538 23.0404 17.573 23.0643 17.6922 23.1596C17.8114 23.255 17.8591 23.3742 17.8352 23.5172C17.8352 23.6841 17.7518 23.7986 17.5849 23.8582C17.418 23.9178 17.275 23.8891 17.1558 23.7676C17.0366 23.6484 17.0009 23.5172 17.0485 23.3742C17.0962 23.2312 17.1916 23.1358 17.3346 23.0881ZM17.3704 24.0894C17.5373 24.0656 17.6684 24.1204 17.7637 24.2491C17.8591 24.3802 17.8829 24.5161 17.8352 24.6616C17.7876 24.8046 17.6922 24.9 17.5492 24.9476C17.4061 24.9953 17.275 24.9596 17.1558 24.8404C17.0366 24.7212 17.0009 24.5733 17.0485 24.3922C17.0962 24.2134 17.2035 24.1132 17.3704 24.0894ZM17.2989 21.0856C17.5134 20.9902 17.6684 21.057 17.7637 21.2811C17.8591 21.5075 17.7995 21.6696 17.5849 21.765C17.4657 21.8127 17.3632 21.8127 17.2822 21.765C17.1987 21.7173 17.1391 21.653 17.1034 21.5671C17.0676 21.4837 17.0604 21.3955 17.0843 21.3001C17.1081 21.2048 17.1797 21.1332 17.2989 21.0856ZM17.2989 22.0868C17.4181 22.0392 17.5182 22.0392 17.604 22.0868C17.6874 22.1345 17.747 22.206 17.7828 22.3014C17.8186 22.3968 17.8233 22.4969 17.7995 22.6042C17.7756 22.7114 17.7041 22.7782 17.5849 22.7997C17.4657 22.8473 17.3632 22.8473 17.2822 22.7997C17.1987 22.752 17.1391 22.6805 17.1034 22.5851C17.0676 22.4897 17.0604 22.3944 17.0843 22.299C17.1081 22.206 17.1797 22.1345 17.2989 22.0868ZM17.2989 20.0485C17.3942 20.0008 17.4824 20.0008 17.5659 20.0485C17.6493 20.0962 17.7089 20.163 17.7447 20.2464C17.7804 20.3298 17.7852 20.4204 17.7613 20.5134C17.7375 20.6088 17.6779 20.6684 17.5825 20.6922C17.4872 20.7399 17.3966 20.7447 17.3155 20.7089C17.2321 20.6731 17.1725 20.6135 17.1367 20.5301C17.101 20.4467 17.0938 20.3584 17.1201 20.2631C17.1439 20.1677 17.2035 20.0962 17.2989 20.0485ZM17.3704 19.0115C17.4896 18.9877 17.5897 19.0234 17.6731 19.1188C17.7566 19.2141 17.7733 19.3214 17.728 19.4406C17.6803 19.5598 17.5897 19.6313 17.461 19.6552C17.3298 19.679 17.2273 19.6313 17.1582 19.5121C17.1105 19.4168 17.1034 19.3143 17.1391 19.2094C17.1725 19.0997 17.2512 19.0353 17.3704 19.0115ZM17.3346 17.0089C17.43 16.9613 17.5063 16.9613 17.5659 17.0089C17.6255 17.0566 17.666 17.1162 17.6922 17.1877C17.716 17.2593 17.716 17.3308 17.6922 17.4023C17.6684 17.4738 17.6088 17.5215 17.5134 17.5453C17.3227 17.593 17.2035 17.5263 17.1558 17.3475C17.1081 17.1687 17.1677 17.0566 17.3346 17.0089ZM17.3704 18.0102C17.5611 17.9625 17.6803 18.0412 17.728 18.2415C17.7757 18.4441 17.7041 18.5585 17.5134 18.5824C17.3227 18.6301 17.2035 18.5538 17.1558 18.3487C17.1081 18.1461 17.1797 18.0341 17.3704 18.0102ZM17.3346 15.9719C17.5253 15.9004 17.6445 15.96 17.6922 16.1507C17.7399 16.3414 17.6803 16.4487 17.5134 16.4725C17.3465 16.5202 17.2393 16.4606 17.1916 16.2937C17.1439 16.1269 17.1916 16.0196 17.3346 15.9719ZM17.9425 28.8097C17.8472 28.9766 17.7399 29.0958 17.6207 29.1673L17.9425 29.4891C18.0856 29.3461 18.2048 29.2388 18.3001 29.1673C18.1332 29.0958 18.014 28.9766 17.9425 28.8097ZM17.9425 29.9183C17.871 30.0375 17.7756 30.1328 17.6565 30.2043C17.7041 30.252 17.7518 30.2997 17.7995 30.3474C17.8472 30.3951 17.8948 30.4427 17.9425 30.4904L18.2286 30.2043C18.1094 30.1328 18.014 30.0375 17.9425 29.9183ZM17.6922 31.2414L17.9425 31.4917L18.1928 31.2414C18.1452 31.1937 18.1023 31.1508 18.0665 31.115C18.0307 31.0793 17.9878 31.0387 17.9401 30.9911C17.8925 31.0387 17.8496 31.0817 17.8162 31.115C17.7828 31.1508 17.7399 31.1937 17.6922 31.2414ZM18.2644 27.1647C18.4074 27.0932 18.5385 27.0932 18.6577 27.1647C18.7769 27.2363 18.8556 27.3388 18.8914 27.4675C18.9271 27.5986 18.9271 27.725 18.8914 27.8442C18.8556 27.9634 18.7674 28.0468 18.6244 28.0945C18.4813 28.166 18.3573 28.166 18.2477 28.0945C18.1404 28.023 18.0617 27.9276 18.0164 27.8084C17.9688 27.6892 17.964 27.5653 17.9974 27.4341C18.0307 27.3006 18.1213 27.2124 18.2644 27.1647ZM18.2644 26.1635C18.4312 26.092 18.591 26.1086 18.7459 26.2159C18.9009 26.3232 18.9557 26.4734 18.908 26.6641C18.8842 26.8548 18.7817 26.9812 18.6029 27.0408C18.4241 27.1004 18.2739 27.0718 18.1547 26.9502C18.0355 26.8548 17.9807 26.7118 17.995 26.5211C18.0069 26.3304 18.0975 26.2112 18.2644 26.1635ZM18.3716 25.1264C18.5147 25.1026 18.6267 25.1264 18.7102 25.198C18.7936 25.2695 18.8461 25.3648 18.8699 25.484C18.8937 25.6032 18.8818 25.7177 18.8341 25.8249C18.7865 25.9322 18.6911 25.999 18.5481 26.0204C18.405 26.0681 18.2858 26.0514 18.1905 25.968C18.0951 25.8845 18.0403 25.7844 18.0284 25.6628C18.0164 25.5436 18.0331 25.4316 18.0832 25.3243C18.1332 25.2146 18.2286 25.1503 18.3716 25.1264ZM18.3716 24.0894C18.5147 24.0656 18.6267 24.0965 18.7102 24.18C18.7936 24.2634 18.8461 24.3588 18.8699 24.4661C18.8937 24.5733 18.8818 24.6759 18.8341 24.7688C18.7865 24.8642 18.6911 24.9238 18.5481 24.9476C18.405 24.9953 18.2906 24.9786 18.2072 24.8952C18.1237 24.8117 18.0689 24.7164 18.0474 24.6091C18.0236 24.5018 18.0355 24.3945 18.0832 24.2873C18.1332 24.1776 18.2286 24.1132 18.3716 24.0894ZM18.3359 23.0881C18.4551 23.0404 18.5624 23.0476 18.6577 23.1072C18.7531 23.1668 18.8127 23.2502 18.8365 23.3575C18.8604 23.4648 18.8556 23.5721 18.8198 23.6794C18.7841 23.7866 18.7054 23.8534 18.5886 23.8748C18.4694 23.9225 18.3621 23.9178 18.2668 23.8582C18.1714 23.7986 18.1118 23.7151 18.088 23.6078C18.0641 23.5006 18.0689 23.4004 18.107 23.3051C18.1404 23.2073 18.2167 23.1358 18.3359 23.0881ZM18.3359 22.0868C18.4551 22.0392 18.5552 22.0463 18.641 22.1059C18.7245 22.1655 18.7841 22.2442 18.8198 22.3395C18.8556 22.4349 18.8556 22.5303 18.8198 22.6256C18.7841 22.721 18.7054 22.7806 18.5886 22.8044C18.4694 22.8521 18.3669 22.8521 18.2834 22.8044C18.2 22.7567 18.1404 22.6852 18.1046 22.5899C18.0689 22.4945 18.0689 22.3991 18.1046 22.3038C18.1404 22.206 18.2167 22.1345 18.3359 22.0868ZM18.3359 21.0498C18.4312 21.0021 18.5195 21.0093 18.6029 21.0665C18.6863 21.1261 18.7459 21.1976 18.7817 21.2811C18.8175 21.3645 18.8175 21.4599 18.7817 21.5671C18.7459 21.6744 18.6792 21.7412 18.5862 21.765C18.467 21.8127 18.3716 21.8079 18.3001 21.7459C18.2286 21.6863 18.1762 21.6148 18.1404 21.5314C18.1046 21.4479 18.0975 21.3597 18.1213 21.2644C18.1452 21.169 18.2167 21.0975 18.3359 21.0498ZM18.3001 20.0843C18.4193 20.0128 18.5338 20.0128 18.641 20.0843C18.7483 20.1558 18.8008 20.2512 18.8008 20.3704C18.8008 20.4896 18.7531 20.5849 18.6577 20.6564C18.5624 20.728 18.4551 20.7399 18.3359 20.6922C18.1928 20.6445 18.1213 20.5444 18.1213 20.3871C18.1213 20.2321 18.1809 20.132 18.3001 20.0843ZM18.4074 19.0115C18.622 18.9877 18.7412 19.083 18.765 19.2976C18.7888 19.5121 18.6935 19.6313 18.4789 19.6552C18.3836 19.679 18.3049 19.6623 18.2477 19.6003C18.1881 19.5407 18.1523 19.4692 18.1404 19.3858C18.1285 19.3023 18.1452 19.2189 18.1928 19.1355C18.2405 19.052 18.312 19.0115 18.4074 19.0115ZM18.3716 18.0102C18.5624 17.9625 18.6816 18.0341 18.7292 18.2248C18.7769 18.4155 18.7054 18.5347 18.5147 18.5824C18.324 18.6539 18.2048 18.5895 18.1571 18.3845C18.1094 18.1842 18.1809 18.0579 18.3716 18.0102ZM18.3716 16.9732C18.5624 16.9255 18.6816 16.997 18.7292 17.1877C18.7769 17.3785 18.7054 17.4977 18.5147 17.5453C18.4432 17.5692 18.3764 17.5573 18.3192 17.5096C18.2596 17.4619 18.2167 17.4023 18.1928 17.3308C18.169 17.2593 18.169 17.1877 18.1928 17.1162C18.2167 17.0447 18.2763 16.997 18.3716 16.9732ZM18.3716 15.9719C18.5385 15.9242 18.6506 15.9838 18.7102 16.1507C18.7698 16.3176 18.703 16.4249 18.5123 16.4725C18.3454 16.5441 18.2381 16.4916 18.1905 16.3128C18.1452 16.1316 18.2048 16.0196 18.3716 15.9719ZM18.3359 14.9706C18.4789 14.8753 18.5862 14.911 18.6577 15.0779C18.7292 15.2448 18.6935 15.3521 18.5504 15.3997C18.4312 15.4951 18.3287 15.4665 18.2453 15.3092C18.1619 15.1542 18.1928 15.0421 18.3359 14.9706ZM18.3359 13.9693C18.4551 13.874 18.5552 13.8978 18.641 14.0409C18.7245 14.1839 18.6935 14.2912 18.5504 14.3627C18.4312 14.4342 18.3359 14.4056 18.2644 14.2721C18.1928 14.141 18.2167 14.0409 18.3359 13.9693ZM18.9438 28.8097C18.8484 28.9766 18.7412 29.0958 18.622 29.1673C18.6696 29.215 18.7221 29.2698 18.7817 29.327C18.8413 29.3866 18.8937 29.4415 18.9438 29.4891C19.0868 29.3461 19.206 29.2388 19.3014 29.1673C19.206 29.1196 19.0868 29.0004 18.9438 28.8097ZM18.9438 29.9183C18.8723 30.0375 18.7769 30.1328 18.6577 30.2043C18.7054 30.252 18.7531 30.2997 18.8008 30.3474C18.8484 30.3951 18.8961 30.4427 18.9438 30.4904C19.063 30.4189 19.1584 30.3235 19.2299 30.2043L18.9438 29.9183ZM18.9438 30.9911C18.8723 31.0864 18.7888 31.1699 18.6935 31.2414L18.9438 31.4917C19.0392 31.4202 19.1226 31.3367 19.1941 31.2414C19.1464 31.1937 19.1035 31.1508 19.0702 31.115C19.0344 31.0793 18.9915 31.0387 18.9438 30.9911ZM18.9796 32.493C19.0034 32.4453 19.063 32.3738 19.1584 32.2784L18.9438 32.0639L18.7292 32.2784C18.8246 32.3738 18.908 32.4453 18.9796 32.493ZM19.2656 26.1635C19.4087 26.092 19.5327 26.0872 19.6399 26.1444C19.7472 26.204 19.8235 26.2874 19.8736 26.3947C19.9212 26.502 19.9332 26.6212 19.9093 26.7523C19.8855 26.8834 19.802 26.974 19.659 27.0193C19.516 27.0908 19.392 27.098 19.2823 27.0384C19.1751 26.9788 19.0964 26.8954 19.0511 26.7881C19.0034 26.6808 18.9915 26.5616 19.0153 26.4305C19.0392 26.2994 19.1226 26.2112 19.2656 26.1635ZM19.3014 27.1647C19.4444 27.0932 19.5684 27.1004 19.6757 27.1814C19.783 27.2649 19.8545 27.3674 19.8903 27.4866C19.926 27.6058 19.926 27.7321 19.8903 27.8633C19.8545 27.9944 19.7639 28.073 19.6232 28.0945C19.4802 28.1422 19.3562 28.1303 19.2466 28.0587C19.1393 27.9872 19.0678 27.8919 19.032 27.7727C18.9963 27.6535 18.9963 27.5343 19.032 27.4151C19.0678 27.2959 19.1584 27.2124 19.3014 27.1647ZM19.4087 25.1264C19.5517 25.1026 19.6638 25.1336 19.7496 25.217C19.833 25.3005 19.8807 25.3958 19.8926 25.5031C19.9046 25.6104 19.8807 25.7177 19.8211 25.8249C19.7615 25.9322 19.6614 25.999 19.5183 26.0204C19.3753 26.0443 19.2609 26.0157 19.1798 25.9322C19.0964 25.8488 19.0487 25.7487 19.0368 25.6295C19.0249 25.5103 19.0487 25.3958 19.1083 25.2909C19.1631 25.1789 19.2656 25.1264 19.4087 25.1264ZM19.3014 22.0868C19.4206 22.0392 19.5207 22.0392 19.6042 22.0868C19.6876 22.1345 19.7472 22.206 19.783 22.3014C19.8187 22.3968 19.8235 22.4969 19.802 22.6042C19.7782 22.7114 19.7067 22.7782 19.5875 22.7997C19.4683 22.8473 19.3658 22.8473 19.2823 22.7997C19.1989 22.752 19.1393 22.6805 19.1035 22.5851C19.0678 22.4897 19.0606 22.3944 19.0868 22.299C19.1107 22.206 19.1822 22.1345 19.3014 22.0868ZM19.3014 21.0856C19.3968 21.014 19.4921 21.0021 19.5875 21.0498C19.6828 21.0975 19.7496 21.169 19.7854 21.2644C19.8211 21.3597 19.8259 21.4551 19.8044 21.5504C19.7806 21.6458 19.7091 21.7173 19.5899 21.765C19.4945 21.8127 19.4039 21.8127 19.3229 21.765C19.2394 21.7173 19.1798 21.653 19.1441 21.5671C19.1083 21.4837 19.1011 21.3955 19.1274 21.3001C19.1464 21.2048 19.206 21.1332 19.3014 21.0856ZM19.3014 20.0485C19.3968 20.0008 19.485 19.9937 19.5684 20.0295C19.6518 20.0652 19.7114 20.1248 19.7472 20.2083C19.783 20.2917 19.7949 20.3823 19.783 20.4753C19.7711 20.5706 19.7162 20.6421 19.6232 20.6898C19.5279 20.7375 19.4373 20.7423 19.3562 20.7065C19.2728 20.6708 19.2132 20.6112 19.1774 20.5277C19.1417 20.4443 19.1298 20.3561 19.1417 20.2607C19.1512 20.1677 19.206 20.0962 19.3014 20.0485ZM19.4087 18.0102C19.5994 17.9625 19.7138 18.0412 19.7496 18.2415C19.7854 18.4441 19.7067 18.5585 19.516 18.5824C19.3252 18.6301 19.2132 18.5538 19.1774 18.3487C19.1393 18.1461 19.218 18.0341 19.4087 18.0102ZM19.4087 19.0115C19.5994 18.9638 19.7186 19.0544 19.7663 19.2785C19.814 19.505 19.7305 19.6313 19.516 19.6552C19.3252 19.7029 19.2132 19.6194 19.1774 19.4049C19.1393 19.1903 19.218 19.0592 19.4087 19.0115ZM19.3729 17.0089C19.5398 16.9374 19.6518 16.997 19.7138 17.1877C19.7734 17.3785 19.7186 17.4977 19.5517 17.5453C19.3848 17.6169 19.2704 17.5573 19.2132 17.3665C19.1512 17.1758 19.206 17.0566 19.3729 17.0089ZM19.3729 15.9719C19.5398 15.9004 19.6518 15.9552 19.7138 16.134C19.7734 16.3128 19.7186 16.4272 19.5517 16.4725C19.4087 16.5441 19.3014 16.4916 19.2299 16.3128C19.1584 16.1316 19.206 16.0196 19.3729 15.9719ZM19.3729 14.9706C19.516 14.8991 19.6232 14.9468 19.6948 15.1137C19.7663 15.2805 19.7186 15.3878 19.5517 15.4355C19.4087 15.4832 19.3062 15.4307 19.249 15.2758C19.187 15.1184 19.2299 15.0183 19.3729 14.9706ZM19.3729 13.9693C19.4921 13.874 19.5875 13.905 19.659 14.0599C19.7305 14.2149 19.6948 14.3174 19.5517 14.3627C19.4325 14.4342 19.3419 14.3985 19.2847 14.2554C19.2227 14.1124 19.2537 14.017 19.3729 13.9693ZM19.4087 11.8953C19.5279 11.8476 19.6066 11.8905 19.6399 12.0216C19.6757 12.1527 19.6328 12.2314 19.516 12.2529C19.3968 12.3006 19.3181 12.2648 19.2823 12.1456C19.2466 12.0264 19.2895 11.943 19.4087 11.8953ZM19.4444 12.8965C19.5636 12.8727 19.628 12.9395 19.6399 13.0944C19.6519 13.2494 19.597 13.3257 19.4802 13.3257C19.361 13.3495 19.2943 13.2899 19.2823 13.1469C19.2704 13.0038 19.3252 12.9204 19.4444 12.8965ZM19.9808 28.7739C19.9332 28.917 19.814 29.06 19.6232 29.2031C19.7901 29.2984 19.9093 29.4057 19.9808 29.5249C20.0524 29.3819 20.1596 29.2746 20.3027 29.2031C20.112 29.06 20.0047 28.917 19.9808 28.7739ZM20.2669 30.2043C20.1477 30.1328 20.0524 30.0375 19.9808 29.9183C19.9332 29.9659 19.8855 30.0136 19.8378 30.0613C19.7901 30.109 19.7424 30.1567 19.6948 30.2043L19.9808 30.4904C20.0285 30.4427 20.0762 30.3951 20.1239 30.3474C20.1716 30.2997 20.2192 30.252 20.2669 30.2043ZM20.2312 31.2414C20.1835 31.1937 20.1406 31.1508 20.1072 31.115C20.0714 31.0793 20.0285 31.0387 19.9808 30.9911L19.7305 31.2414C19.802 31.3367 19.8855 31.4202 19.9808 31.4917L20.2312 31.2414ZM20.1954 32.2784L19.9808 32.0639L19.7663 32.2784L19.9808 32.493L20.1954 32.2784ZM20.1596 33.3154C20.112 33.2678 20.0762 33.2392 20.0524 33.2249C20.0285 33.2129 19.9928 33.1843 19.9451 33.1343C19.9451 33.1581 19.9379 33.17 19.9284 33.17C19.9165 33.17 19.9093 33.1819 19.9093 33.2058C20.0047 33.2558 20.0881 33.2916 20.1596 33.3154ZM20.4457 19.0115C20.5649 18.9877 20.6603 19.0186 20.7318 19.1021C20.8033 19.1855 20.8272 19.288 20.8033 19.4049C20.7556 19.5479 20.665 19.6385 20.5363 19.6719C20.4052 19.7076 20.3051 19.6671 20.2335 19.5479C20.1382 19.4287 20.1191 19.3143 20.1787 19.2094C20.2359 19.0997 20.3265 19.0353 20.4457 19.0115ZM20.41 17.0089C20.5768 16.9374 20.6889 16.997 20.7485 17.1877C20.8081 17.3785 20.7413 17.4977 20.553 17.5453C20.3623 17.593 20.2431 17.5263 20.1954 17.3475C20.1477 17.1687 20.2192 17.0566 20.41 17.0089ZM20.41 18.0102C20.6007 17.9387 20.7199 18.0054 20.7676 18.2057C20.8152 18.4083 20.7437 18.5347 20.553 18.5824C20.3623 18.6539 20.2431 18.5895 20.1954 18.3845C20.1477 18.1842 20.2192 18.0579 20.41 18.0102ZM20.41 15.9719C20.5768 15.9004 20.6841 15.9552 20.7318 16.134C20.7795 16.3128 20.7199 16.4272 20.553 16.4725C20.3861 16.5202 20.2788 16.4606 20.2312 16.2937C20.1835 16.1269 20.2431 16.0196 20.41 15.9719ZM20.3384 14.9706C20.4815 14.8991 20.5935 14.9301 20.677 15.0612C20.7604 15.1923 20.7413 15.3068 20.6221 15.3997C20.4791 15.4951 20.3647 15.4713 20.2836 15.3282C20.2002 15.1852 20.2192 15.066 20.3384 14.9706ZM20.3384 13.9693C20.4576 13.874 20.5649 13.8931 20.6603 14.0242C20.7556 14.1553 20.7437 14.2578 20.6245 14.3269C20.5053 14.4223 20.398 14.4056 20.3027 14.2721C20.2073 14.141 20.2192 14.0409 20.3384 13.9693ZM20.4457 12.9323C20.5649 12.8846 20.6436 12.9275 20.6794 13.0563C20.7151 13.1874 20.6722 13.278 20.5554 13.3233C20.4362 13.371 20.3527 13.3233 20.3051 13.1802C20.255 13.0396 20.3027 12.9562 20.4457 12.9323ZM20.4457 11.8953C20.5649 11.8476 20.6364 11.8953 20.6603 12.0383C20.6841 12.1814 20.6364 12.2529 20.5172 12.2529C20.398 12.3006 20.3265 12.26 20.3027 12.1289C20.2788 11.9954 20.3265 11.9191 20.4457 11.8953ZM20.9821 28.8097C20.9106 28.9527 20.7914 29.0839 20.6245 29.2031C20.7914 29.2984 20.9106 29.3938 20.9821 29.4891C21.1252 29.3461 21.2444 29.2388 21.3397 29.1673C21.1728 29.0958 21.0536 28.9766 20.9821 28.8097ZM20.9821 29.9183C20.9106 30.0375 20.8152 30.1328 20.696 30.2043L20.9821 30.4904C21.0298 30.4427 21.0822 30.3951 21.1442 30.3474C21.2038 30.2997 21.2563 30.252 21.304 30.2043C21.2324 30.1567 21.1728 30.109 21.1252 30.0613C21.0775 30.0136 21.0298 29.9659 20.9821 29.9183ZM20.9821 30.9911C20.9344 31.0387 20.8915 31.0864 20.8582 31.1341C20.8224 31.1818 20.7795 31.2295 20.7342 31.2771C20.7819 31.3248 20.8248 31.3606 20.8582 31.3844C20.8939 31.4083 20.9344 31.444 20.9821 31.4917C21.0536 31.444 21.1371 31.3725 21.2324 31.2771C21.1848 31.2056 21.1013 31.1103 20.9821 30.9911ZM20.9821 32.0639L20.7676 32.2784L20.9821 32.493L21.1967 32.2784L20.9821 32.0639ZM20.9821 33.4942C21.0298 33.4466 21.0656 33.418 21.0894 33.4037C21.1132 33.3917 21.1371 33.3631 21.1609 33.3131L20.9821 33.1343C20.7914 33.2559 20.7914 33.375 20.9821 33.4942ZM21.4112 16.9732C21.5304 16.9493 21.6306 16.9803 21.7164 17.0638C21.7998 17.1472 21.8165 17.2378 21.7688 17.3308C21.745 17.45 21.6735 17.5215 21.5543 17.5453C21.4351 17.5692 21.3397 17.5334 21.2682 17.4381C21.2205 17.3665 21.2086 17.2831 21.2324 17.1877C21.2563 17.0924 21.3159 17.0209 21.4112 16.9732ZM21.3755 15.9719C21.5424 15.9004 21.6616 15.9552 21.7331 16.134C21.8046 16.3128 21.7569 16.4272 21.59 16.4725C21.4232 16.5202 21.3087 16.4678 21.2491 16.3128C21.1895 16.1555 21.2324 16.0434 21.3755 15.9719ZM21.3755 14.9706C21.5185 14.8753 21.6258 14.9158 21.6973 15.0946C21.7688 15.2734 21.7331 15.3878 21.59 15.4331C21.447 15.4808 21.3445 15.4284 21.2849 15.2734C21.2253 15.1184 21.2563 15.0183 21.3755 14.9706ZM21.3755 13.9693C21.4947 13.874 21.5948 13.8978 21.6806 14.0409C21.7641 14.1839 21.745 14.2912 21.6282 14.3627C21.509 14.4342 21.4065 14.4056 21.323 14.2721C21.2372 14.141 21.2563 14.0409 21.3755 13.9693ZM21.4828 12.8965C21.602 12.8727 21.6663 12.9395 21.6806 13.0944C21.6925 13.2494 21.6282 13.3257 21.4828 13.3257C21.3636 13.3257 21.304 13.2613 21.304 13.1302C21.304 12.9991 21.3636 12.9204 21.4828 12.8965ZM21.4112 11.8953C21.5304 11.8476 21.6139 11.8905 21.6616 12.0216C21.7092 12.1527 21.6735 12.2314 21.5543 12.2529C21.4351 12.3006 21.3588 12.2648 21.323 12.1456C21.2849 12.0264 21.3159 11.943 21.4112 11.8953ZM21.6616 29.2031C21.7569 29.2507 21.8761 29.3461 22.0192 29.4891C22.0907 29.3938 22.198 29.2865 22.341 29.1673C22.2218 29.0958 22.1145 28.9766 22.0192 28.8097C21.8761 29.0004 21.7569 29.1315 21.6616 29.2031ZM22.0192 29.9183C21.8761 30.0613 21.7688 30.1567 21.6973 30.2043C21.745 30.252 21.7974 30.2997 21.8594 30.3474C21.919 30.3951 21.9715 30.4427 22.0192 30.4904C22.0668 30.4427 22.1097 30.3951 22.1431 30.3474C22.1789 30.2997 22.2194 30.252 22.2695 30.2043C22.2218 30.1567 22.1789 30.109 22.1431 30.0613C22.1074 30.0136 22.0668 29.9659 22.0192 29.9183ZM22.0192 30.9911C21.9715 31.0387 21.9286 31.0817 21.8952 31.115C21.8594 31.1508 21.8165 31.1937 21.7688 31.2414C21.8165 31.2891 21.8523 31.332 21.8761 31.3677C21.9 31.4035 21.9357 31.4464 21.9834 31.4917C22.0788 31.4202 22.1622 31.3367 22.2337 31.2414C22.1384 31.146 22.0668 31.0626 22.0192 30.9911ZM22.0192 32.0639L21.8046 32.2784L22.0192 32.493C22.0668 32.4453 22.0954 32.4095 22.1097 32.3857C22.1217 32.3619 22.1503 32.3261 22.2003 32.2784C22.1026 32.1831 22.043 32.1115 22.0192 32.0639ZM22.0192 33.4942L22.1622 33.3512C22.1384 33.3035 22.1145 33.2678 22.0907 33.2439C22.0668 33.2201 22.043 33.1843 22.0192 33.1366C21.9715 33.1843 21.9357 33.2153 21.9119 33.2272C21.888 33.2392 21.8642 33.2702 21.8404 33.3178C21.8642 33.3655 21.888 33.3965 21.9119 33.4084C21.9357 33.418 21.9715 33.4466 22.0192 33.4942ZM22.4125 14.9706C22.5556 14.8991 22.6628 14.942 22.7344 15.0946C22.8059 15.2496 22.7582 15.3616 22.5913 15.4331C22.4721 15.4808 22.3768 15.4284 22.3052 15.2734C22.2337 15.1184 22.2695 15.0183 22.4125 14.9706ZM22.4125 13.9336C22.5556 13.8621 22.6581 13.905 22.7177 14.0576C22.7773 14.2125 22.7224 14.315 22.5579 14.3603C22.4387 14.408 22.3553 14.3603 22.3076 14.2173C22.2576 14.0766 22.2933 13.9813 22.4125 13.9336ZM22.4483 12.8965C22.5675 12.8727 22.6461 12.9275 22.6795 13.0563C22.7153 13.1874 22.6724 13.278 22.5556 13.3233C22.4364 13.371 22.3577 13.3233 22.3219 13.1802C22.2862 13.0396 22.3291 12.9442 22.4483 12.8965ZM22.4483 11.8953C22.5675 11.8476 22.639 11.8953 22.6628 12.0383C22.6867 12.1814 22.639 12.2529 22.5198 12.2529C22.4006 12.2767 22.3338 12.2362 22.3219 12.1289C22.31 12.0192 22.3529 11.943 22.4483 11.8953ZM23.378 29.1673C23.1635 29.0958 23.0443 28.9527 23.0204 28.7382C22.9489 28.9289 22.8297 29.0719 22.6628 29.1673C22.8536 29.3103 22.9728 29.4295 23.0204 29.5249C23.0681 29.4295 23.1873 29.3103 23.378 29.1673ZM23.0204 30.4904C23.0681 30.4427 23.1158 30.3951 23.1635 30.3474C23.2112 30.2997 23.2588 30.252 23.3065 30.2043C23.1873 30.1328 23.092 30.0375 23.0204 29.9183C22.9728 29.9659 22.9251 30.0136 22.8774 30.0613C22.8297 30.109 22.782 30.1567 22.7344 30.2043C22.782 30.252 22.8297 30.2997 22.8774 30.3474C22.9251 30.3951 22.9728 30.4427 23.0204 30.4904ZM23.2708 31.2414C23.1992 31.1937 23.1158 31.0983 23.0204 30.9553C22.9251 31.0983 22.8416 31.1937 22.7701 31.2414C22.8178 31.2891 22.8607 31.332 22.8965 31.3677C22.9322 31.4035 22.9728 31.4464 23.0228 31.4917L23.2708 31.2414ZM23.235 32.2784L23.0204 32.0639L22.8059 32.2784L23.0204 32.493L23.235 32.2784ZM23.1992 33.3154C23.1516 33.2678 23.1158 33.2392 23.092 33.2249C23.0681 33.2129 23.0443 33.1843 23.0204 33.1343C22.9251 33.2296 22.8655 33.3011 22.8416 33.3488C22.8655 33.3727 22.8893 33.3917 22.9132 33.4037C22.937 33.4156 22.9728 33.4466 23.0204 33.4942L23.1992 33.3154ZM23.0204 34.2094C23.0204 34.2333 23.0085 34.2452 22.9847 34.2452C23.0324 34.2452 23.0681 34.2571 23.092 34.281L23.0204 34.2094ZM23.4138 13.9693C23.533 13.874 23.6284 13.8978 23.6999 14.0409C23.7714 14.1839 23.7476 14.2912 23.6284 14.3627C23.5092 14.4342 23.4138 14.4056 23.3423 14.2721C23.2708 14.141 23.2946 14.0409 23.4138 13.9693ZM23.4853 11.8953C23.6045 11.8714 23.676 11.9191 23.6999 12.0383C23.7237 12.1575 23.676 12.229 23.5568 12.2529C23.4376 12.3006 23.3661 12.26 23.3423 12.1289C23.3184 11.9954 23.3661 11.9191 23.4853 11.8953ZM23.4853 12.8965C23.6045 12.8727 23.676 12.9323 23.6999 13.0753C23.7237 13.2184 23.676 13.3018 23.5568 13.3257C23.4376 13.3733 23.3661 13.3209 23.3423 13.1659C23.3184 13.0086 23.3661 12.9204 23.4853 12.8965ZM23.6641 29.1673C23.8548 29.3103 23.974 29.4176 24.0217 29.4891C24.1647 29.3461 24.2839 29.2388 24.3793 29.1673C24.2839 29.1196 24.2243 29.0719 24.2005 29.0243C24.1528 29.0243 24.1052 29.0195 24.0575 29.0052C24.0098 28.9933 23.9621 28.9861 23.9144 28.9861C23.8191 29.0839 23.7356 29.1435 23.6641 29.1673ZM24.0217 29.9183C23.9502 30.0375 23.8548 30.1328 23.7356 30.2043C23.7833 30.252 23.831 30.2997 23.8787 30.3474C23.9264 30.3951 23.974 30.4427 24.0217 30.4904L24.3078 30.2043C24.2601 30.1567 24.2124 30.109 24.1647 30.0613C24.1171 30.0136 24.0694 29.9659 24.0217 29.9183ZM24.0217 30.9911C23.974 31.0387 23.9311 31.0817 23.8977 31.115C23.862 31.1508 23.8191 31.1937 23.7738 31.2414C23.8215 31.2891 23.8644 31.332 23.8977 31.3677C23.9335 31.4035 23.974 31.4464 24.0217 31.4917C24.0694 31.444 24.1123 31.4011 24.1481 31.3677C24.1838 31.332 24.2244 31.2914 24.2744 31.2414C24.2267 31.1937 24.1838 31.1508 24.1481 31.115C24.1099 31.0793 24.0694 31.0387 24.0217 30.9911ZM24.0217 32.0639L23.8071 32.2784L24.0217 32.493L24.2363 32.2784L24.0217 32.0639ZM23.8429 33.3512C23.9383 33.3989 23.9979 33.4466 24.0217 33.4942C24.0694 33.4466 24.1052 33.418 24.129 33.4037C24.1528 33.3917 24.1767 33.3751 24.2005 33.3488C24.1767 33.3011 24.1171 33.2296 24.0217 33.1343C23.9979 33.1843 23.9383 33.2559 23.8429 33.3512ZM24.0217 34.2094C23.9979 34.2333 23.9788 34.2571 23.9693 34.281C23.9573 34.3048 23.9264 34.3286 23.8787 34.3525C23.9025 34.3763 23.9264 34.3882 23.9502 34.3882C23.974 34.4121 24.0217 34.424 24.0932 34.424L24.1647 34.3525C24.1409 34.3286 24.1218 34.3048 24.1099 34.281C24.098 34.2571 24.0694 34.2333 24.0217 34.2094ZM24.4866 11.8953C24.6058 11.8476 24.6821 11.8905 24.7178 12.0216C24.7536 12.1527 24.7107 12.2314 24.5915 12.2529C24.4723 12.3006 24.396 12.2648 24.3602 12.1456C24.3245 12.0264 24.3674 11.943 24.4866 11.8953ZM25.023 29.4891C25.166 29.3461 25.2733 29.2507 25.3448 29.2031C25.2018 29.2031 25.0111 29.1792 24.7727 29.1315L24.7011 29.2031C24.8203 29.2746 24.9276 29.3699 25.023 29.4891ZM25.0587 29.9183L24.7727 30.2043C24.8204 30.252 24.868 30.2997 24.9157 30.3474C24.9634 30.3951 25.0111 30.4427 25.0587 30.4904C25.1064 30.4427 25.1541 30.3951 25.2018 30.3474C25.2495 30.2997 25.2971 30.252 25.3448 30.2043C25.2256 30.1328 25.1303 30.0375 25.0587 29.9183ZM25.023 30.9911C24.9753 31.0626 24.9038 31.146 24.8084 31.2414C24.8799 31.3367 24.9634 31.4202 25.0587 31.4917C25.1064 31.444 25.1422 31.4011 25.166 31.3677C25.1899 31.332 25.2256 31.2914 25.2733 31.2414C25.2256 31.1937 25.1827 31.1508 25.1493 31.115C25.1136 31.0793 25.0707 31.0387 25.023 30.9911ZM25.023 32.0639C24.9991 32.1115 24.9395 32.1831 24.8442 32.2784L25.0587 32.493L25.2733 32.2784C25.1779 32.1831 25.0945 32.1115 25.023 32.0639ZM24.8799 33.3512L25.023 33.4942C25.0707 33.4466 25.1064 33.418 25.1303 33.4037C25.1541 33.3917 25.1899 33.3631 25.2375 33.3131C25.1899 33.2177 25.1303 33.1772 25.0587 33.1867C24.9872 33.201 24.9276 33.2559 24.8799 33.3512ZM24.9157 34.3525C24.9395 34.4002 24.9753 34.4478 25.023 34.4955C25.0707 34.4717 25.1303 34.424 25.2018 34.3525C25.1541 34.3286 25.1231 34.3048 25.1112 34.281C25.0993 34.2571 25.0683 34.2333 25.0206 34.2094C24.9968 34.2333 24.9777 34.2571 24.9658 34.281C24.9562 34.3048 24.9395 34.3286 24.9157 34.3525ZM26.06 29.9183C26.0123 29.9659 25.9647 30.0136 25.917 30.0613C25.8693 30.109 25.8216 30.1567 25.7739 30.2043L26.06 30.4904L26.1315 30.4189V29.9898L26.06 29.9183ZM26.06 29.4891L26.1315 29.4176V29.2746C25.9885 29.2746 25.8812 29.2627 25.8097 29.2388C25.8574 29.2865 25.9003 29.3294 25.9361 29.3652C25.9718 29.4009 26.0123 29.4415 26.06 29.4891ZM26.06 30.9911C26.0123 31.0387 25.9694 31.0817 25.9337 31.115C25.8979 31.1508 25.855 31.1937 25.8073 31.2414C25.855 31.2891 25.8979 31.332 25.9337 31.3677C25.9694 31.4035 26.01 31.4464 26.06 31.4917L26.1315 31.4202V31.0626L26.06 30.9911ZM25.8455 32.2784L26.06 32.493L26.1315 32.4215V32.1354L26.06 32.0639L25.8455 32.2784ZM25.9527 33.2249C25.9289 33.2368 25.9051 33.2678 25.8812 33.3154C25.9051 33.3631 25.9289 33.3941 25.9527 33.406C25.9766 33.418 26.0123 33.449 26.06 33.4966L26.1315 33.4251V33.2106L26.06 33.139C26.0123 33.1843 25.9766 33.2129 25.9527 33.2249ZM26.06 34.2094L25.917 34.3525C25.9408 34.4002 25.9647 34.4312 25.9885 34.4431C26.0123 34.455 26.0362 34.4741 26.06 34.4979L26.1315 34.4264V34.2833L26.06 34.2094Z" fill="#E6007E"/>
<path d="M39.3981 27.4507V27.7368L40.3636 29.346V37.9999H31.7097L30.7085 36.3191H30.5297V27.4507H39.3981ZM31.6025 28.5235V35.2463H38.3253V28.5235H31.6025ZM32.2819 29.489C32.4011 29.3698 32.4845 29.2983 32.5322 29.2744C32.4845 29.2268 32.4607 29.191 32.4607 29.1672H32.2819V29.489ZM32.2819 30.0969V30.4903C32.3773 30.3949 32.4488 30.3353 32.4965 30.3115L32.2819 30.0969ZM32.2819 31.1697V31.4915C32.3296 31.4677 32.3582 31.4439 32.3725 31.42C32.3844 31.3962 32.413 31.3604 32.4631 31.3127C32.4154 31.2889 32.3844 31.2651 32.3725 31.2412C32.3582 31.2174 32.3296 31.1935 32.2819 31.1697ZM32.2819 32.2425V32.4928C32.3057 32.469 32.3296 32.4523 32.3534 32.4404C32.3773 32.4285 32.4011 32.4118 32.4249 32.3855C32.4011 32.3379 32.3773 32.3093 32.3534 32.295C32.3296 32.283 32.3057 32.2663 32.2819 32.2425ZM32.2819 33.3153V33.4941C32.3057 33.4703 32.3224 33.4583 32.3367 33.4583C32.3486 33.4583 32.3653 33.4464 32.3916 33.4226L32.2819 33.3153ZM32.2819 34.3881V34.4596H32.3177C32.3415 34.4596 32.3534 34.4477 32.3534 34.4239C32.3296 34.4239 32.3177 34.4191 32.3177 34.4072C32.3177 34.3929 32.3057 34.3881 32.2819 34.3881ZM33.2117 29.632C33.2593 29.489 33.3785 29.3698 33.5693 29.2744L33.462 29.1672H32.9971L32.8898 29.2744C33.0329 29.346 33.1401 29.4652 33.2117 29.632ZM33.2117 29.9896C33.164 30.0612 33.0686 30.1684 32.9256 30.3115C33.0448 30.383 33.1401 30.4784 33.2117 30.5976L33.4977 30.3115C33.4501 30.2638 33.4024 30.2113 33.3547 30.1517C33.307 30.0898 33.2593 30.0373 33.2117 29.9896ZM33.2117 31.0624C33.164 31.1101 33.1211 31.1578 33.0853 31.2055C33.0495 31.2532 33.0066 31.3008 32.9613 31.3485C33.0329 31.3962 33.1282 31.4796 33.2474 31.5988C33.2951 31.5273 33.3666 31.4439 33.462 31.3485C33.3666 31.2055 33.2832 31.1101 33.2117 31.0624ZM33.2117 32.1352C33.1163 32.2306 33.0567 32.314 33.0329 32.3855L33.2117 32.5643C33.307 32.469 33.3785 32.4094 33.4262 32.3855C33.3785 32.314 33.307 32.2306 33.2117 32.1352ZM33.2117 33.6014C33.307 33.506 33.3666 33.4345 33.3905 33.3868C33.3189 33.2438 33.2355 33.2199 33.1401 33.3153C33.0448 33.4107 33.0686 33.506 33.2117 33.6014ZM33.2117 34.2808C33.1878 34.3285 33.1521 34.3762 33.1044 34.4239V34.4596H33.3189C33.3428 34.4596 33.3547 34.4477 33.3547 34.4239C33.3309 34.4 33.307 34.3833 33.2832 34.3714C33.2593 34.3571 33.2355 34.3285 33.2117 34.2808ZM33.8911 29.2744C34.0103 29.346 34.1295 29.4532 34.2487 29.5963C34.3202 29.4771 34.4394 29.3698 34.6063 29.2744C34.5586 29.2506 34.5109 29.2148 34.4633 29.1672H33.9984L33.8911 29.2744ZM34.2487 29.9896C34.201 30.0373 34.1533 30.0921 34.1057 30.1494C34.058 30.209 34.0103 30.2638 33.9626 30.3091C34.0103 30.3568 34.058 30.3997 34.1057 30.4354C34.1533 30.4712 34.201 30.5141 34.2487 30.5618L34.5348 30.2757C34.4156 30.2042 34.3202 30.1088 34.2487 29.9896ZM34.2487 31.0624L33.9984 31.3127C34.0461 31.3843 34.1176 31.4677 34.2129 31.5631C34.2606 31.5154 34.3083 31.4796 34.356 31.4558C34.4036 31.432 34.4513 31.3962 34.499 31.3485C34.3798 31.2293 34.2964 31.134 34.2487 31.0624ZM34.2487 32.1352C34.1533 32.2306 34.0818 32.314 34.0341 32.3855C34.0818 32.4094 34.1533 32.469 34.2487 32.5643C34.3441 32.469 34.4156 32.4094 34.4633 32.3855C34.4156 32.314 34.3441 32.2306 34.2487 32.1352ZM34.2129 33.5656C34.2606 33.5418 34.2964 33.5179 34.3202 33.4941C34.3441 33.4703 34.3798 33.4464 34.4275 33.4226C34.3321 33.3272 34.2725 33.2557 34.2487 33.208L34.0699 33.3868C34.0937 33.4345 34.1414 33.4941 34.2129 33.5656ZM34.2487 34.2808L34.1057 34.4239V34.4596H34.356L34.3917 34.4239C34.3202 34.4 34.2725 34.3523 34.2487 34.2808ZM34.8924 29.2744C35.0592 29.346 35.1784 29.4652 35.25 29.632C35.3215 29.489 35.4288 29.3698 35.5718 29.2744C35.5241 29.2268 35.5003 29.191 35.5003 29.1672H35.0354C34.9877 29.2148 34.94 29.2506 34.8924 29.2744ZM35.25 29.9896C35.2023 30.0612 35.1069 30.1684 34.9639 30.3115C35.0354 30.3592 35.1308 30.4426 35.25 30.5618C35.2976 30.5141 35.3453 30.4712 35.393 30.4354C35.4407 30.3997 35.4884 30.3592 35.536 30.3091C35.4884 30.2614 35.4407 30.209 35.393 30.1494C35.3453 30.0898 35.2976 30.0373 35.25 29.9896ZM35.25 31.0624C35.2023 31.1101 35.1594 31.1578 35.1236 31.2055C35.0879 31.2532 35.0449 31.3008 34.9973 31.3485C35.0926 31.42 35.1761 31.5035 35.2476 31.5988C35.2953 31.5512 35.3382 31.5035 35.3716 31.4558C35.4073 31.4081 35.4478 31.3604 35.4955 31.3127C35.4478 31.2651 35.4049 31.2222 35.3716 31.1888C35.3382 31.1506 35.2976 31.1101 35.25 31.0624ZM35.25 32.1352L35.0354 32.3498L35.25 32.5643C35.3453 32.469 35.4168 32.4094 35.4645 32.3855C35.4168 32.314 35.3453 32.2306 35.25 32.1352ZM35.25 33.5656C35.2976 33.5418 35.3263 33.5179 35.3406 33.4941C35.3525 33.4703 35.3811 33.4464 35.4312 33.4226C35.3835 33.3749 35.3525 33.3391 35.3406 33.3153C35.3286 33.2915 35.2976 33.2557 35.25 33.208C35.2023 33.2795 35.1427 33.3391 35.0712 33.3868C35.1188 33.4345 35.1475 33.4703 35.1618 33.4941C35.1713 33.5179 35.2023 33.5418 35.25 33.5656ZM35.25 34.2808C35.2261 34.3285 35.2023 34.3595 35.1785 34.3714C35.1546 34.3833 35.1308 34.4024 35.1069 34.4239L35.1427 34.4596H35.3572C35.3811 34.4596 35.393 34.4477 35.393 34.4239C35.3692 34.4 35.3453 34.3833 35.3215 34.3714C35.2977 34.3571 35.2738 34.3285 35.25 34.2808ZM35.9294 29.2744C35.9771 29.3221 36.0295 29.3698 36.0891 29.4175C36.1487 29.4652 36.2012 29.5248 36.2489 29.5963C36.3681 29.4532 36.4873 29.346 36.6065 29.2744L36.4992 29.1672H36.0343L35.9294 29.2744ZM36.2512 29.9896C36.2036 30.0373 36.1607 30.0921 36.1249 30.1494C36.0891 30.209 36.0462 30.2638 36.0009 30.3091L36.2512 30.5594C36.3228 30.5117 36.43 30.4164 36.5731 30.2733C36.5016 30.228 36.3943 30.1327 36.2512 29.9896ZM36.2512 31.0982C36.1559 31.1936 36.0724 31.2651 36.0009 31.3127L36.287 31.5988C36.3347 31.5512 36.3704 31.5035 36.3943 31.4558C36.4181 31.4081 36.4539 31.3604 36.5016 31.3127C36.4062 31.2174 36.3228 31.1459 36.2512 31.0982ZM36.2512 32.1352C36.2274 32.1591 36.1678 32.2425 36.0724 32.3855C36.1201 32.4094 36.1487 32.4332 36.163 32.4571C36.175 32.4809 36.2036 32.5167 36.2536 32.5643C36.349 32.469 36.4205 32.4094 36.4682 32.3855C36.4181 32.314 36.3466 32.2306 36.2512 32.1352ZM36.0724 33.4226C36.1201 33.4464 36.1797 33.4941 36.2512 33.5656C36.3228 33.5179 36.3824 33.4583 36.43 33.3868C36.3585 33.3153 36.2989 33.2676 36.2512 33.2438C36.2036 33.2676 36.1726 33.2915 36.1607 33.3153C36.1487 33.3391 36.1201 33.3749 36.0724 33.4226ZM36.287 34.2808L36.1082 34.4596H36.144H36.3585C36.3824 34.4596 36.3943 34.4477 36.3943 34.4239C36.3466 34.3762 36.3108 34.3285 36.287 34.2808ZM37.5028 29.1672H37.038L36.9307 29.2744C37.0499 29.346 37.1691 29.4532 37.2883 29.5963C37.336 29.5248 37.3836 29.4652 37.4313 29.4175C37.479 29.3698 37.5267 29.3221 37.5744 29.2744V29.2387L37.5028 29.1672ZM37.2883 29.9896C37.2406 30.0373 37.1929 30.085 37.1452 30.1327C37.0976 30.1804 37.038 30.228 36.9664 30.2757C37.1095 30.4188 37.2168 30.5141 37.2883 30.5618C37.4075 30.4426 37.5028 30.3592 37.5744 30.3115C37.4313 30.1684 37.336 30.0612 37.2883 29.9896ZM37.2883 31.0624C37.1691 31.1816 37.0856 31.277 37.038 31.3485L37.2883 31.5988C37.336 31.5273 37.4194 31.4319 37.5386 31.3127C37.4432 31.2412 37.3598 31.1578 37.2883 31.0624ZM37.2883 32.1352C37.1929 32.2306 37.1214 32.314 37.0737 32.3855C37.1214 32.4094 37.1929 32.469 37.2883 32.5643L37.4671 32.3855C37.4432 32.314 37.3836 32.2306 37.2883 32.1352ZM37.1095 33.4226C37.181 33.4941 37.2406 33.5418 37.2883 33.5656C37.336 33.5418 37.3646 33.5179 37.3789 33.4941C37.3908 33.4703 37.4194 33.4345 37.4695 33.3868C37.4218 33.363 37.3622 33.3153 37.2907 33.2438C37.2168 33.2915 37.1572 33.3511 37.1095 33.4226ZM37.2883 34.2808L37.1452 34.4239C37.1452 34.4477 37.1572 34.4596 37.181 34.4596H37.3956C37.4194 34.4596 37.4313 34.4477 37.4313 34.4239C37.4075 34.4 37.3836 34.3833 37.3598 34.3714C37.336 34.3571 37.3121 34.3285 37.2883 34.2808Z" fill="white"/>
</svg>
