<svg width="48" height="48" viewBox="0 0 48 48" fill="none" xmlns="http://www.w3.org/2000/svg">
<g clip-path="url(#clip0_4535_4643)">
<path d="M33.9691 2.16211C33.7821 2.98945 33.5457 4.4005 34.1825 5.57518C34.3261 5.8393 34.4852 6.06724 34.7554 6.32412C36.5584 8.0403 37.8465 8.01618 38.9596 9.43206C39.3431 9.93497 39.6157 10.4343 39.8075 10.9372C40.7916 13.6134 39.4529 16.5416 40.4418 20.0379C40.4418 20.0391 40.443 20.0415 40.443 20.0427C40.4515 20.0705 40.4587 20.0982 40.4672 20.1259C41.3283 23.0614 44.5074 29.2809 46.3478 32.7675C47.4139 30.0516 47.9988 27.0944 47.9988 24.0009C48 14.302 42.2473 5.94663 33.9691 2.16211Z" fill="url(#paint0_linear_4535_4643)"/>
<path d="M35.2583 37.3541C32.6991 33.6069 34.0704 23.2773 27.032 19.7255C22.7663 17.5716 19.1373 19.9692 16.9423 22.1907C16.8977 22.3354 16.8507 22.4825 16.8 22.6309C16.5733 23.2785 15.6736 27.0715 12.6199 30.2855C8.87521 34.2256 5.28968 35.7838 3.48425 36.458C7.69571 43.3782 15.3082 47.9997 24.0012 47.9997C29.4621 47.9997 34.4973 46.1762 38.5303 43.1032C38.2083 40.6441 37.2579 40.2823 35.2583 37.3541Z" fill="url(#paint1_linear_4535_4643)"/>
<path d="M12.6187 30.2858C15.6736 27.0717 16.5721 23.2788 16.7988 22.6311C16.8495 22.4828 16.8965 22.3356 16.9411 22.1909C16.7952 22.3393 16.6553 22.4864 16.5214 22.6311C15.7001 25.5003 14.5279 28.256 12.4981 30.2858C8.65449 34.1294 5.28846 35.7841 3.48303 36.4583C5.28846 35.7841 8.87399 34.2259 12.6187 30.2858Z" fill="url(#paint2_linear_4535_4643)"/>
<path d="M24 0C10.7457 0 0 10.7457 0 24C0 28.5624 1.27236 32.8269 3.48302 36.4583C5.28965 35.7841 8.87518 34.2259 12.6187 30.2858C15.6736 27.0718 16.5721 23.2788 16.7988 22.6312C16.8494 22.4828 16.8965 22.3357 16.9411 22.191C17.444 20.5628 17.6249 19.1711 17.9011 17.9493C18.0639 17.1027 18.2255 16.2633 18.4088 15.4372C18.8249 13.2362 19.1723 11.4923 20.5122 9.35638C23.9228 3.91598 28.1584 2.00925 33.6277 2.00925C30.6802 0.717588 27.4239 0 24 0Z" fill="url(#paint3_linear_4535_4643)"/>
<path d="M16.5215 22.631C16.6686 22.4718 16.823 22.309 16.9846 22.1462C17.3633 20.7472 17.6347 19.3386 17.9012 17.9492C17.6009 19.2795 17.1872 20.8027 16.5215 22.631Z" fill="url(#paint4_linear_4535_4643)"/>
<path d="M16.5215 22.631C16.6686 22.4718 16.823 22.309 16.9846 22.1462C17.3633 20.7472 17.6347 19.3386 17.9012 17.9492C17.6009 19.2795 17.1872 20.8027 16.5215 22.631Z" fill="url(#paint5_linear_4535_4643)"/>
<path d="M20.5121 9.35645C19.1722 11.4923 18.8249 13.2362 18.4088 15.4372C18.8768 13.3267 19.4882 11.303 20.6327 9.47705" fill="url(#paint6_linear_4535_4643)"/>
<path d="M40.4683 20.125C39.4299 16.5889 40.8012 13.6342 39.8086 10.9351C39.6169 10.4334 39.3443 9.93287 38.9608 9.42995C37.8476 8.01407 36.5331 8.01769 34.7566 6.32201C34.513 6.09648 34.326 5.84322 34.1837 5.57307C33.5481 4.3996 33.7833 2.98854 33.9702 2.16C33.8569 2.10814 33.7435 2.05749 33.6289 2.00684C28.1596 2.00684 23.9252 3.91357 20.5134 9.35397C19.1735 11.4899 18.8261 13.2338 18.41 15.4348C18.2641 16.2042 18.1109 17.0291 17.9023 17.9469C17.6346 19.3375 17.3644 20.7461 16.9857 22.1439C19.1855 19.9345 22.794 17.5839 27.0319 19.7234C34.0703 23.2764 32.6991 33.6048 35.2583 37.352C37.2579 40.2802 38.2094 40.6408 38.529 43.1011C42 40.4575 44.7292 36.8888 46.3489 32.763C44.5085 29.28 41.3294 23.0617 40.4683 20.125Z" fill="url(#paint7_linear_4535_4643)"/>
<path d="M24.0688 25.2001L19.8236 25.2399V34.0427H15.225V13.9575H19.8236V20.6413L24.1858 20.6015L29.3343 13.9997H34.876L27.9582 22.8809V22.9195L35.309 34.0415H29.8843L24.0688 25.2001Z" fill="white"/>
<path d="M24 2.63425C25.4448 2.63425 26.8884 2.78018 28.2911 3.06842C29.6575 3.34943 31.001 3.76792 32.2854 4.31305C33.5469 4.84852 34.7626 5.51064 35.9011 6.28249C37.0287 7.04712 38.0888 7.92511 39.0525 8.89234C40.0161 9.85958 40.8917 10.9233 41.6527 12.0558C42.4221 13.1979 43.0818 14.4184 43.6161 15.6847C44.16 16.974 44.5773 18.3223 44.8559 19.6948C45.1429 21.1022 45.2888 22.5518 45.2888 24.0027C45.2888 25.4536 45.1429 26.9032 44.8559 28.3106C44.5761 29.6819 44.1588 31.0314 43.6161 32.3207C43.083 33.587 42.4221 34.8075 41.6527 35.9496C40.8905 37.0809 40.0161 38.1458 39.0525 39.1131C38.0888 40.0803 37.0287 40.9583 35.9011 41.7229C34.7626 42.4948 33.5469 43.1569 32.2854 43.6923C31.001 44.2375 29.6575 44.656 28.2911 44.937C26.8884 45.2252 25.4448 45.3711 24 45.3711C22.5552 45.3711 21.1116 45.2252 19.7089 44.937C18.3425 44.656 16.999 44.2375 15.7146 43.6923C14.4531 43.1569 13.2374 42.4948 12.0989 41.7229C10.9713 40.9583 9.91116 40.0803 8.94754 39.1131C7.98392 38.1458 7.10834 37.0821 6.34734 35.9496C5.57789 34.8075 4.91819 33.587 4.38392 32.3207C3.84 31.0314 3.42271 29.6831 3.14412 28.3106C2.85709 26.9032 2.71116 25.4536 2.71116 24.0027C2.71116 22.5518 2.85709 21.1022 3.14412 19.6948C3.42392 18.3235 3.84121 16.974 4.38392 15.6847C4.91699 14.4184 5.57789 13.1979 6.34734 12.0558C7.10955 10.9221 7.98392 9.85837 8.94875 8.89114C9.91236 7.9239 10.9725 7.04591 12.1001 6.28129C13.2386 5.50943 14.4543 4.84732 15.7158 4.31184C17.0002 3.76672 18.3437 3.34822 19.7102 3.06722C21.1116 2.78018 22.5552 2.63425 24 2.63425ZM24 1.42822C11.5767 1.42822 1.50513 11.5336 1.50513 24.0003C1.50513 36.467 11.5767 46.5723 24 46.5723C36.4233 46.5723 46.4949 36.467 46.4949 24.0003C46.4949 11.5336 36.4233 1.42822 24 1.42822Z" fill="white"/>
</g>
<defs>
<linearGradient id="paint0_linear_4535_4643" x1="40.8833" y1="2.16183" x2="40.8833" y2="276.618" gradientUnits="userSpaceOnUse">
<stop stop-color="#BA1201"/>
<stop offset="1" stop-color="#D11C01"/>
</linearGradient>
<linearGradient id="paint1_linear_4535_4643" x1="3.48276" y1="33.4414" x2="38.529" y2="33.4414" gradientUnits="userSpaceOnUse">
<stop stop-color="#BA1201"/>
<stop offset="0.4114" stop-color="#BB1401"/>
<stop offset="0.5861" stop-color="#BF1B01"/>
<stop offset="0.7161" stop-color="#C72801"/>
<stop offset="0.8238" stop-color="#D13901"/>
<stop offset="0.9167" stop-color="#DF5001"/>
<stop offset="1" stop-color="#EF6C01"/>
</linearGradient>
<linearGradient id="paint2_linear_4535_4643" x1="3.48274" y1="29.3245" x2="38.529" y2="29.3245" gradientUnits="userSpaceOnUse">
<stop stop-color="#BA1201"/>
<stop offset="0.4114" stop-color="#BB1401"/>
<stop offset="0.5861" stop-color="#BF1B01"/>
<stop offset="0.7161" stop-color="#C72801"/>
<stop offset="0.8238" stop-color="#D13901"/>
<stop offset="0.9167" stop-color="#DF5001"/>
<stop offset="1" stop-color="#EF6C01"/>
</linearGradient>
<linearGradient id="paint3_linear_4535_4643" x1="16.8137" y1="0" x2="16.8137" y2="36.4582" gradientUnits="userSpaceOnUse">
<stop stop-color="#BA1201"/>
<stop offset="0.2058" stop-color="#BC1601"/>
<stop offset="0.4191" stop-color="#C42301"/>
<stop offset="0.6358" stop-color="#D03701"/>
<stop offset="0.8535" stop-color="#E15401"/>
<stop offset="1" stop-color="#EF6C01"/>
</linearGradient>
<linearGradient id="paint4_linear_4535_4643" x1="17.2118" y1="-0.00012758" x2="17.2118" y2="36.4581" gradientUnits="userSpaceOnUse">
<stop stop-color="#BA1201"/>
<stop offset="0.2058" stop-color="#BC1601"/>
<stop offset="0.4191" stop-color="#C42301"/>
<stop offset="0.6358" stop-color="#D03701"/>
<stop offset="0.8535" stop-color="#E15401"/>
<stop offset="1" stop-color="#EF6C01"/>
</linearGradient>
<linearGradient id="paint5_linear_4535_4643" x1="17.2118" y1="43.1039" x2="17.2118" y2="2.00897" gradientUnits="userSpaceOnUse">
<stop stop-color="#D11C01"/>
<stop offset="0.0640503" stop-color="#C81801"/>
<stop offset="0.2641" stop-color="#B00D01"/>
<stop offset="0.4772" stop-color="#9F0601"/>
<stop offset="0.71" stop-color="#950101"/>
<stop offset="1" stop-color="#920001"/>
</linearGradient>
<linearGradient id="paint6_linear_4535_4643" x1="19.5209" y1="8.4463" x2="19.5209" y2="24.957" gradientUnits="userSpaceOnUse">
<stop stop-color="#BA1201"/>
<stop offset="0.2058" stop-color="#BC1601"/>
<stop offset="0.4191" stop-color="#C42301"/>
<stop offset="0.6358" stop-color="#D03701"/>
<stop offset="0.8535" stop-color="#E15401"/>
<stop offset="1" stop-color="#EF6C01"/>
</linearGradient>
<linearGradient id="paint7_linear_4535_4643" x1="31.6667" y1="127.774" x2="31.6667" y2="2.0091" gradientUnits="userSpaceOnUse">
<stop stop-color="#D11C01"/>
<stop offset="0.0640503" stop-color="#C81801"/>
<stop offset="0.2641" stop-color="#B00D01"/>
<stop offset="0.4772" stop-color="#9F0601"/>
<stop offset="0.71" stop-color="#950101"/>
<stop offset="1" stop-color="#920001"/>
</linearGradient>
<clipPath id="clip0_4535_4643">
<rect width="48" height="48" fill="white"/>
</clipPath>
</defs>
</svg>
