<svg width="48" height="48" viewBox="0 0 48 48" fill="none" xmlns="http://www.w3.org/2000/svg">
<path d="M14.0377 35.4441C21.9622 39.3436 31.5282 36.1223 35.4338 28.2102C39.3394 20.2982 36.113 10.7472 28.1886 6.84772C27.5093 6.50863 26.7735 6.22606 26.0376 6C28.0187 6.22606 29.9999 6.7912 31.9244 7.75195C40.8677 12.1601 44.5469 23.0109 40.1319 31.9402C35.7168 40.8695 24.8489 44.5429 15.9056 40.1348C10.2453 37.3656 6.73584 31.9967 6 26.2322C7.30188 30.0752 10.0754 33.4661 14.0377 35.4441Z" fill="url(#paint0_radial_4214_10738)"/>
<path d="M35.3771 22.8413C34.4715 22.8413 33.113 22.9543 31.5281 23.3499C31.4715 23.3499 31.4149 23.4065 31.3017 23.4065C31.2451 23.4065 31.1884 23.463 31.0752 23.463C30.2828 23.689 29.547 23.9716 28.8677 24.3672C28.1885 24.7063 27.5658 25.1019 26.9998 25.4975C26.9432 25.554 26.8866 25.6105 26.7734 25.667C26.7168 25.7236 26.6036 25.7801 26.547 25.8366C24.7357 27.3625 23.3206 29.397 22.4715 31.9967C22.3583 32.3358 22.2451 32.6748 22.1319 33.0704C21.9055 33.9182 21.7357 34.7659 21.6225 35.6701H21.6791C25.1885 35.5571 28.5281 34.1442 31.1318 31.7706C33.679 29.397 35.2639 26.2887 35.7167 22.8413C35.6601 22.8413 35.4903 22.8413 35.3771 22.8413Z" fill="#5076FF"/>
<path d="M19.9244 31.9405C19.0753 29.3974 17.7169 27.3063 15.8489 25.7804C15.7923 25.7239 15.6791 25.6674 15.6225 25.6109C15.5659 25.5544 15.4527 25.4979 15.3961 25.4413C14.8301 24.9892 14.2074 24.6501 13.5282 24.311C12.849 23.972 12.1131 23.6894 11.3207 23.4068C11.2641 23.4068 11.2075 23.3503 11.0943 23.3503C11.0377 23.3503 10.981 23.2938 10.8678 23.2938C9.28294 22.8982 7.92446 22.7852 7.0188 22.7852C6.84899 22.7852 6.73579 22.7852 6.56598 22.7852C7.01881 26.2325 8.66031 29.3974 11.2075 31.771C13.8112 34.1446 17.1508 35.5009 20.6602 35.614C20.547 34.7097 20.3772 33.8055 20.1508 33.0143C20.0942 32.6752 20.0376 32.3361 19.9244 31.9405Z" fill="#B80083"/>
<path d="M23.7169 28.0973C24.5093 26.9105 25.415 25.8933 26.4905 25.0456C26.5471 24.989 26.6603 24.9325 26.7169 24.876C26.7735 24.8195 26.8301 24.763 26.9433 24.7065C27.4527 24.3109 28.0188 23.9718 28.6414 23.6892C29.3772 23.2936 30.1697 23.011 31.0187 22.7285C31.3018 19.1115 30.5093 16.0597 30.1697 15.0425C29.5471 15.3251 27.7923 16.2293 25.981 17.8117C25.9244 17.8682 25.8678 17.9247 25.8112 17.9247C25.7546 17.9812 25.698 18.0378 25.6414 18.0943C25.0754 18.6029 24.566 19.168 24.0565 19.7332C22.9811 21.033 22.0754 22.5024 21.5094 24.0283C21.4528 24.1413 21.4528 24.1978 21.3962 24.3109C21.3396 24.4239 21.3396 24.5369 21.283 24.65C20.5471 26.854 20.2641 29.2842 20.4905 31.8838C20.7735 32.7315 20.9999 33.6358 21.1697 34.5965C21.3396 33.6358 21.566 32.7315 21.849 31.8838C21.9056 31.6578 22.0188 31.3752 22.132 31.1491C22.1886 30.9796 22.3018 30.7535 22.3584 30.584C22.7546 29.6798 23.2075 28.8886 23.7169 28.0973Z" fill="#5032FF"/>
<path d="M13.8111 23.7457C14.3771 24.0283 14.9431 24.3674 15.5092 24.763C15.5658 24.8195 15.6224 24.876 15.7356 24.9325C15.8488 24.989 15.9054 25.0456 15.962 25.1021C17.0375 25.9498 17.9997 26.9671 18.7356 28.1539C19.1318 28.7755 19.4714 29.3972 19.811 30.0754C19.811 28.7755 19.9242 27.5322 20.2073 26.3454C20.3771 25.5542 20.6035 24.763 20.8865 24.0283C20.2639 22.5024 19.4148 21.033 18.3393 19.7332C17.8865 19.168 17.3205 18.6029 16.7545 18.0943C16.6978 18.0378 16.6412 17.9812 16.5846 17.9247C16.528 17.8682 16.4714 17.8117 16.4148 17.8117C14.6035 16.2293 12.9054 15.3816 12.2262 15.0425C11.9432 16.0597 11.1507 19.168 11.3771 22.7285C12.2828 23.0676 13.0752 23.4066 13.8111 23.7457Z" fill="#CC00D5"/>
<path d="M18.7922 19.3373C19.8111 20.5241 20.6035 21.8239 21.2262 23.1803C21.8488 21.8239 22.6413 20.5241 23.6601 19.3373C24.1696 18.7156 24.7356 18.1505 25.3016 17.6419C23.9431 14.1945 21.962 11.7643 21.2262 10.9731C20.4903 11.7643 18.4526 14.1945 17.1507 17.6419C17.7168 18.1505 18.2828 18.7156 18.7922 19.3373Z" fill="#7800FF"/>
<defs>
<radialGradient id="paint0_radial_4214_10738" cx="0" cy="0" r="1" gradientUnits="userSpaceOnUse" gradientTransform="translate(24.0384 24.3197) rotate(-11.7527) scale(17.8641 17.8384)">
<stop offset="0.8364" stop-color="#FFF1B2"/>
<stop offset="0.9774" stop-color="#FFCF60"/>
</radialGradient>
</defs>
</svg>
