<svg width="48" height="48" viewBox="0 0 48 48" fill="none" xmlns="http://www.w3.org/2000/svg">
<path d="M33.3281 29.5364H28.1901L27.2436 27.1733H20.7535L19.807 29.5364H14.669L20.8211 15.6277H27.2436L33.3281 29.5364ZM23.9985 19.2062L22.3084 23.3923H25.6887L23.9985 19.2062Z" fill="white"/>
<path d="M23.9986 12.6569C25.9775 12.6569 27.5817 11.0547 27.5817 9.0784C27.5817 7.10207 25.9775 5.49994 23.9986 5.49994C22.0197 5.49994 20.4155 7.10207 20.4155 9.0784C20.4155 11.0547 22.0197 12.6569 23.9986 12.6569Z" fill="#E6007A"/>
<path d="M23.9985 42.5C25.9774 42.5 27.5816 40.8979 27.5816 38.9215C27.5816 36.9452 25.9774 35.3431 23.9985 35.3431C22.0196 35.3431 20.4155 36.9452 20.4155 38.9215C20.4155 40.8979 22.0196 42.5 23.9985 42.5Z" fill="#E6007A"/>
<path d="M10.883 19.7463C12.8619 19.7463 14.4662 18.1442 14.4662 16.1679C14.4662 14.1916 12.8619 12.5894 10.883 12.5894C8.90415 12.5894 7.29999 14.1916 7.29999 16.1679C7.29999 18.1442 8.90415 19.7463 10.883 19.7463Z" fill="#E6007A"/>
<path d="M37.1141 19.7463C39.093 19.7463 40.6973 18.1442 40.6973 16.1679C40.6973 14.1916 39.093 12.5894 37.1141 12.5894C35.1352 12.5894 33.531 14.1916 33.531 16.1679C33.531 18.1442 35.1352 19.7463 37.1141 19.7463Z" fill="#E6007A"/>
<path d="M10.883 35.5455C12.8619 35.5455 14.4662 33.9434 14.4662 31.9671C14.4662 29.9907 12.8619 28.3886 10.883 28.3886C8.90415 28.3886 7.29999 29.9907 7.29999 31.9671C7.29999 33.9434 8.90415 35.5455 10.883 35.5455Z" fill="#E6007A"/>
<path d="M37.1141 35.5455C39.093 35.5455 40.6973 33.9434 40.6973 31.9671C40.6973 29.9907 39.093 28.3886 37.1141 28.3886C35.1352 28.3886 33.531 29.9907 33.531 31.9671C33.531 33.9434 35.1352 35.5455 37.1141 35.5455Z" fill="#E6007A"/>
</svg>
