<svg width="48" height="48" viewBox="0 0 48 48" fill="none" xmlns="http://www.w3.org/2000/svg">
<path fill-rule="evenodd" clip-rule="evenodd" d="M23.9381 13.5513C27.5257 13.5513 30.434 11.8609 30.434 9.77564C30.434 7.69041 27.5257 6 23.9381 6C20.3505 6 17.4422 7.69041 17.4422 9.77564C17.4422 11.8609 20.3505 13.5513 23.9381 13.5513ZM39.6858 25.6021C40.0446 26.0326 40.3679 26.4939 40.6513 26.9812C40.4568 26.3956 40.1349 25.9198 39.6858 25.6021ZM28.0034 41.1694C25.2336 39.9604 23.1175 37.5333 22.332 34.565C19.5212 34.9805 17.4422 36.4613 17.4422 38.2244C17.4422 40.3096 20.3505 42 23.9381 42C25.4768 42 26.8905 41.6891 28.0034 41.1694ZM14.8597 11.2666C16.6678 12.31 16.6795 15.6728 14.8857 18.7777C13.0919 21.8826 10.1719 23.5539 8.36377 22.5105C6.55561 21.4672 6.54397 18.1044 8.33776 14.9995C10.1316 11.8946 13.0515 10.2233 14.8597 11.2666ZM14.8605 36.7337C16.6687 35.6903 16.6803 32.3275 14.8865 29.2226C13.0928 26.1177 10.1728 24.4464 8.36465 25.4898C6.55649 26.5331 6.54485 29.8959 8.33864 33.0008C10.1324 36.1057 13.0524 37.777 14.8605 36.7337ZM39.5133 22.5113C41.3202 21.4687 41.3309 18.1065 39.5371 15.0016C37.7433 11.8966 34.8244 10.2248 33.0174 11.2674C31.2105 12.31 31.1999 15.6723 32.9936 18.7772C34.7874 21.8821 37.7064 23.554 39.5133 22.5113Z" fill="#E6007A"/>
<path fill-rule="evenodd" clip-rule="evenodd" d="M32 23.1111C27.0908 23.1111 23.1111 27.0908 23.1111 32C23.1111 36.9092 27.0908 40.8889 32 40.8889C36.9092 40.8889 40.8889 36.9092 40.8889 32C40.8889 27.0908 36.9092 23.1111 32 23.1111ZM22 32C22 26.4772 26.4772 22 32 22C37.5228 22 42 26.4772 42 32C42 37.5228 37.5228 42 32 42C26.4772 42 22 37.5228 22 32Z" fill="white"/>
<path fill-rule="evenodd" clip-rule="evenodd" d="M36.0732 34.5788C36.504 33.8 36.7195 32.8504 36.7195 31.7301C36.7195 30.6098 36.504 29.6603 36.0732 28.8814C35.6423 28.1025 35.0589 27.5109 34.3232 27.1065C33.5907 26.7022 32.7687 26.5 31.8572 26.5C30.9425 26.5 30.1188 26.7022 29.3864 27.1065C28.6539 27.5109 28.0722 28.1025 27.6413 28.8814C27.2138 29.6603 27 30.6098 27 31.7301C27 32.8471 27.2138 33.795 27.6413 34.5739C28.0722 35.3494 28.6539 35.9411 29.3864 36.3487C30.1188 36.7564 30.9425 36.9602 31.8572 36.9602C32.4909 36.9602 33.0813 36.8625 33.6285 36.6671L34.4226 37.6167H36.6499L35.1482 35.7647C35.5099 35.435 35.8182 35.0397 36.0732 34.5788ZM33.618 33.9627C33.7357 33.8013 33.8366 33.6173 33.9205 33.4105C34.1094 32.9531 34.2038 32.393 34.2038 31.7301C34.2038 31.0672 34.1094 30.5071 33.9205 30.0497C33.7348 29.5923 33.4664 29.246 33.1151 29.0107C32.767 28.7753 32.3478 28.6577 31.8572 28.6577C31.37 28.6577 30.9508 28.7753 30.5994 29.0107C30.2481 29.246 29.978 29.5923 29.7891 30.0497C29.6035 30.5071 29.5107 31.0672 29.5107 31.7301C29.5107 32.393 29.6035 32.9531 29.7891 33.4105C29.978 33.8679 30.2481 34.2143 30.5994 34.4496C30.9508 34.6849 31.37 34.8026 31.8572 34.8026C31.9842 34.8026 32.1063 34.7947 32.2237 34.7789L31.0021 33.1621H32.9908L33.618 33.9627Z" fill="white"/>
</svg>
