<svg width="48" height="48" viewBox="0 0 48 48" fill="none" xmlns="http://www.w3.org/2000/svg">
<path fill-rule="evenodd" clip-rule="evenodd" d="M16.4004 16.9513H38.0816C38.2041 16.9539 38.324 16.9158 38.4225 16.843C38.5211 16.7702 38.5927 16.6667 38.6261 16.5488C38.6596 16.431 38.653 16.3053 38.6074 16.1916C38.5618 16.0779 38.4798 15.9825 38.3742 15.9204L30.5447 11.0831C30.4567 11.0291 30.3555 11.0004 30.2522 11.0001H8.56268C8.44043 10.9981 8.32096 11.0367 8.22291 11.1097C8.12487 11.1828 8.05375 11.2862 8.02066 11.4039C7.98758 11.5216 7.99437 11.647 8.03999 11.7604C8.08562 11.8738 8.1675 11.969 8.27287 12.031L16.1079 16.8682C16.1959 16.9222 16.2971 16.951 16.4004 16.9513ZM36.1249 15.8373H16.5583L10.5249 12.1141H30.0916L36.1249 15.8373ZM23.0043 36.373C22.829 36.0129 22.6746 35.6408 22.5428 35.2581H17.9076L11.8743 31.5358H22.0106C22.0278 31.1586 22.0659 30.7869 22.1238 30.4218H9.91574C9.79325 30.4192 9.67335 30.4573 9.57482 30.5301C9.47629 30.6029 9.40469 30.7064 9.37124 30.8242C9.33779 30.9421 9.34438 31.0677 9.38996 31.1815C9.43555 31.2952 9.51756 31.3906 9.62317 31.4527L17.4572 36.2899C17.5453 36.344 17.6465 36.3727 17.7498 36.373H23.0043Z" fill="#1A0A2D"/>
<path fill-rule="evenodd" clip-rule="evenodd" d="M28.4653 19.6544C27.3886 18.6416 25.956 18.094 24.4782 18.1306H24.4191C22.9275 18.1813 21.5166 18.8201 20.4945 19.9076C19.4723 20.995 18.922 22.4428 18.9637 23.9346C19.0054 25.4265 19.6357 26.8412 20.717 27.8699C21.2274 28.3555 21.8188 28.7364 22.4579 28.9998C22.618 28.4899 22.818 27.9975 23.054 27.5264L23.0531 26.9116L21.6354 26.9227V26.3689H22.1615C22.2681 26.3685 22.3701 26.3257 22.4452 26.2501C22.5203 26.1745 22.5623 26.0722 22.5621 25.9656L22.5483 21.7837C22.5483 21.5751 22.3821 21.4302 22.1458 21.4302L21.6179 21.3933V20.6217H23.0503V19.3508H23.881V20.6235H24.7117V19.348H25.5423V20.6245H25.6955C25.9826 20.6245 27.4215 20.9235 27.4252 22.0883C27.4252 23.195 26.6254 23.4506 26.3929 23.5248L26.3929 23.5248C26.3557 23.5367 26.3331 23.544 26.3305 23.5493L26.2733 23.5539C26.2885 23.5556 26.3901 23.5742 26.5332 23.6252C27.5785 22.9415 28.7595 22.4482 30.0271 22.1946C29.7439 21.2251 29.2054 20.3473 28.4653 19.6544ZM25.7155 24.2211C25.369 24.0466 24.9734 24.0306 24.8344 24.0313L23.8893 24.0414L23.896 26.14C24.4155 25.4228 25.0279 24.7773 25.7155 24.2211ZM25.7638 23.0023C25.4306 23.341 24.8372 23.3918 24.3877 23.3918C24.2538 23.3909 24.1201 23.3826 23.9871 23.3669L23.8856 23.3549L23.8801 21.377H24.6969H24.7753C25.3706 21.3751 26.0056 21.6474 26.0167 22.4181C26.019 22.5279 25.9975 22.6369 25.9539 22.7377C25.9103 22.8385 25.8454 22.9288 25.7638 23.0023Z" fill="#FF9900"/>
<path fill-rule="evenodd" clip-rule="evenodd" d="M32 23.1111C27.0908 23.1111 23.1111 27.0908 23.1111 32C23.1111 36.9092 27.0908 40.8889 32 40.8889C36.9092 40.8889 40.8889 36.9092 40.8889 32C40.8889 27.0908 36.9092 23.1111 32 23.1111ZM22 32C22 26.4772 26.4772 22 32 22C37.5228 22 42 26.4772 42 32C42 37.5228 37.5228 42 32 42C26.4772 42 22 37.5228 22 32Z" fill="#1A0A2D"/>
<path fill-rule="evenodd" clip-rule="evenodd" d="M36.0732 34.5788C36.504 33.8 36.7195 32.8504 36.7195 31.7301C36.7195 30.6098 36.504 29.6603 36.0732 28.8814C35.6423 28.1025 35.0589 27.5109 34.3232 27.1065C33.5907 26.7022 32.7687 26.5 31.8572 26.5C30.9425 26.5 30.1188 26.7022 29.3864 27.1065C28.6539 27.5109 28.0722 28.1025 27.6413 28.8814C27.2138 29.6603 27 30.6098 27 31.7301C27 32.8471 27.2138 33.795 27.6413 34.5739C28.0722 35.3494 28.6539 35.9411 29.3864 36.3487C30.1188 36.7564 30.9425 36.9602 31.8572 36.9602C32.4909 36.9602 33.0813 36.8625 33.6285 36.6671L34.4226 37.6167H36.6499L35.1482 35.7647C35.5099 35.435 35.8182 35.0397 36.0732 34.5788ZM33.618 33.9627C33.7357 33.8013 33.8366 33.6173 33.9205 33.4105C34.1094 32.9531 34.2038 32.393 34.2038 31.7301C34.2038 31.0672 34.1094 30.5071 33.9205 30.0497C33.7348 29.5923 33.4664 29.246 33.1151 29.0107C32.767 28.7753 32.3478 28.6577 31.8572 28.6577C31.37 28.6577 30.9508 28.7753 30.5994 29.0107C30.2481 29.246 29.978 29.5923 29.7891 30.0497C29.6035 30.5071 29.5107 31.0672 29.5107 31.7301C29.5107 32.393 29.6035 32.9531 29.7891 33.4105C29.978 33.8679 30.2481 34.2143 30.5994 34.4496C30.9508 34.6849 31.37 34.8026 31.8572 34.8026C31.9842 34.8026 32.1063 34.7947 32.2237 34.7789L31.0021 33.1621H32.9908L33.618 33.9627Z" fill="#1A0A2D"/>
</svg>
