<svg width="48" height="48" viewBox="0 0 48 48" fill="none" xmlns="http://www.w3.org/2000/svg">
<path fill-rule="evenodd" clip-rule="evenodd" d="M25.5256 20.3338C26.7782 20.4363 27.7692 20.8145 27.8852 21.9605C27.9271 22.3651 27.8677 22.692 27.7322 22.9543C26.9149 23.3406 26.1584 23.8343 25.4808 24.4173C24.9943 24.3231 24.4455 24.3384 24.0736 24.3487C23.9812 24.3513 23.8997 24.3536 23.8328 24.3538L23.8423 26.2154C23.4618 26.7509 23.1327 27.3256 22.8623 27.9321L22.8607 27.6423H22.1697L20.9104 27.649L21.0964 26.4922C21.0964 26.4922 21.8117 26.4996 21.7996 26.4881C21.8445 26.4908 21.8895 26.4845 21.9321 26.4698C21.9746 26.455 22.0138 26.432 22.0474 26.4021C22.081 26.3721 22.1084 26.3359 22.128 26.2953C22.1476 26.2548 22.159 26.2108 22.1616 26.1659L22.1481 23.6297H22.2506C22.2166 23.6252 22.1824 23.6229 22.1481 23.623L22.1387 21.8122C22.1003 21.616 21.9715 21.3915 21.5791 21.3915C21.5913 21.3781 20.8767 21.3956 20.8767 21.3956L20.8713 20.3621L22.2061 20.3574V20.3621C22.4063 20.3608 22.6119 20.356 22.8216 20.3506L22.8135 18.7617L23.7802 18.7563L23.7883 20.3142C23.8087 20.3137 23.829 20.3132 23.8494 20.3126C24.0875 20.3064 24.3268 20.3001 24.5609 20.3001L24.5528 18.7495L25.5202 18.7441L25.5256 20.3338ZM23.9853 23.3813C24.6456 23.3888 26.0894 23.4052 26.0845 22.4028C26.0784 21.3784 24.6935 21.422 24.0165 21.4434C23.9401 21.4458 23.8727 21.4479 23.8173 21.4482L23.8274 23.3803C23.8726 23.3801 23.9258 23.3807 23.9853 23.3813Z" fill="black"/>
<path fill-rule="evenodd" clip-rule="evenodd" d="M14.2242 16.7977C13.5626 16.8027 12.9013 16.7698 12.2435 16.6992C10.8797 16.5381 10.1719 16.1963 10.0188 15.6206C9.77276 14.7179 11.086 13.9588 12.0959 13.4633C15.9385 11.5892 24.3654 9.64423 30.8825 9.12782C32.8975 8.96805 34.5903 8.95794 35.7849 9.09816C37.1487 9.25928 37.8566 9.60108 38.0096 10.1768C38.2557 11.0795 36.9424 11.8386 35.9325 12.3341C32.0899 14.2082 23.663 16.1532 17.146 16.6696C16.0734 16.7552 15.0905 16.7977 14.2242 16.7977ZM30.9128 9.53636L30.9445 9.94085C24.5117 10.4519 16.2143 12.359 12.4485 14.1961C10.8305 14.9855 10.7975 15.4096 10.7975 15.4096C10.8514 15.6064 12.0784 16.2597 17.0833 15.8626C23.516 15.3529 31.8135 13.4431 35.5793 11.606C37.1973 10.8166 37.2316 10.3959 37.2303 10.3925C37.1764 10.1957 35.9528 9.54243 30.9445 9.9395L30.9128 9.53636ZM14.1965 38.9998C13.5349 39.0048 12.8736 38.972 12.2158 38.9014C10.852 38.7403 10.1442 38.3985 9.99114 37.8227C9.7417 36.9228 11.0556 36.1637 12.0669 35.6708C14.2788 34.5921 18.0096 33.4898 22.0208 32.6501C22.0383 32.9222 22.0666 33.1913 22.1054 33.4571C18.1934 34.2791 14.5685 35.3512 12.4194 36.3996C10.8015 37.189 10.7671 37.6097 10.7684 37.6131C10.8224 37.8099 12.046 38.4632 17.0542 38.0661C19.074 37.9059 21.2777 37.6077 23.4672 37.2172C23.6221 37.47 23.7879 37.7154 23.964 37.9527C21.6303 38.3805 19.2713 38.7067 17.1203 38.8771C16.0443 38.9567 15.0614 38.9998 14.1965 38.9998ZM17.5025 30.1163C16.5516 29.5478 15.6694 28.8717 14.8733 28.1013L16.9207 25.9535H15.9216L14.3663 27.5889C14.1545 27.355 13.9434 27.0996 13.7316 26.8435L13.7097 26.817L13.6982 23.244H12.9843V30.7271H13.7245L13.7131 27.9746C14.6941 29.0743 15.8404 30.0145 17.1108 30.7615L17.5025 30.1163Z" fill="#DADADA"/>
<path fill-rule="evenodd" clip-rule="evenodd" d="M24.6769 17.2442C26.4456 17.2404 28.1443 17.9347 29.404 19.1763C30.2155 19.9713 30.8111 20.9557 31.1398 22.0365C26.5925 22.4239 22.9132 25.8544 22.1468 30.283C21.3091 29.9505 20.5382 29.4506 19.8852 28.8041C18.6116 27.5431 17.891 25.8278 17.8821 24.0356C17.8732 22.2433 18.5766 20.5209 19.8376 19.2473C21.0985 17.9736 22.8138 17.2531 24.6061 17.2442H24.6769Z" fill="url(#paint0_linear_4456_11113)"/>
<path fill-rule="evenodd" clip-rule="evenodd" d="M27.5589 18.359C26.7667 18.1567 26.1303 18.3212 25.6133 18.8524C25.5495 18.9198 25.4896 18.9907 25.4339 19.0648L25.43 19.0697C25.2969 19.2382 25.182 19.3836 24.9229 19.4437C24.5701 19.514 24.2085 19.529 23.851 19.4882C23.7492 19.4727 23.6636 19.4538 23.5881 19.4362L23.5862 19.4358C23.3177 19.3754 23.1599 19.3399 22.8418 19.6425C22.7422 19.7436 22.6519 19.8535 22.5722 19.9709L22.5715 19.9718C22.4302 20.1663 22.2968 20.3499 22.0773 20.434C21.976 20.4716 21.8697 20.4944 21.7618 20.5014L21.7329 20.4886L21.7261 20.5028C21.5712 20.5065 21.4162 20.4966 21.263 20.4731C21.1421 20.4551 21.0204 20.4443 20.8983 20.4407C21.0643 20.1994 21.2096 19.9443 21.3324 19.6783C21.5556 19.6439 21.7457 19.4976 21.9297 19.354C22.0268 19.2741 22.1301 19.202 22.2385 19.1383C22.6072 18.936 22.7859 18.7641 23.1061 18.4129C23.4095 18.0805 23.7351 17.8736 24.1308 17.6653C24.3285 17.5643 24.5004 17.4192 24.6331 17.2412C25.9524 17.2506 27.1874 17.5587 28.2735 18.276C28.1589 18.3488 27.9135 18.4479 27.5589 18.359ZM29.0282 22.449C29.7039 22.239 30.4103 22.0987 31.1389 22.0366C30.9836 21.5297 30.7688 21.0417 30.4981 20.5829C30.0405 19.8073 29.4324 19.1309 28.7095 18.5937C28.5626 18.7008 28.394 18.6806 27.9558 18.5707C27.0956 18.353 26.646 18.5586 26.0844 19.1363C26.0478 19.1736 25.9626 19.2023 25.8782 19.2308C25.79 19.2605 25.7028 19.2899 25.6725 19.3285C25.6485 19.3589 25.6253 19.3905 25.6019 19.4223C25.4944 19.5686 25.3832 19.7199 25.1783 19.7903C25.0998 19.8273 25.0298 19.88 24.9727 19.9453C24.9234 19.9967 24.8682 20.0419 24.8082 20.0802C24.6968 20.1386 24.5727 20.1687 24.4469 20.1678L24.4324 20.169C24.3877 20.1725 24.3445 20.176 24.3019 20.1833C24.114 20.2133 23.9761 20.3224 23.8297 20.4382L23.8246 20.4422C23.6662 20.5689 23.5017 20.6997 23.2678 20.7287C23.2138 20.7354 23.164 20.7395 23.1161 20.7395C23.0054 20.7331 22.8953 20.7599 22.7999 20.8163C22.7574 20.8451 22.7167 20.8764 22.6779 20.91C22.5907 20.9979 22.476 21.0531 22.353 21.0664C22.3082 21.0711 22.2632 21.0734 22.2181 21.0732C21.9814 21.0723 21.7464 21.0318 21.5231 20.9532H21.3882C21.4907 21.0381 21.5839 21.1178 21.6675 21.1899C22.1589 21.6125 22.4292 21.8451 23.2907 21.8451C23.8435 21.8451 24.3863 21.9929 24.8628 22.2732L24.8804 22.257C25.1906 22.605 26.0836 22.4644 26.6192 22.3801L26.6487 22.3754C26.7233 22.3637 26.79 22.3531 26.8502 22.3453L27.0167 22.3217L27.0265 22.3204C27.2653 22.2872 27.4787 22.2575 27.6909 22.2482L27.7023 22.2341L27.7179 22.2469C28.021 22.2347 28.3241 22.2723 28.6152 22.3581C28.7724 22.4022 28.9062 22.4301 29.0282 22.449ZM28.0795 22.7978C27.9888 22.7893 27.8976 22.7854 27.8063 22.7862C27.8417 22.8149 27.8758 22.8433 27.9079 22.8729C27.9648 22.8473 28.022 22.8223 28.0795 22.7978ZM26.1353 23.8994C26.0509 23.905 25.966 23.9101 25.8816 23.9151C25.6262 23.9309 25.3996 24.0272 25.2018 24.1113C25.0953 24.1565 24.9972 24.1982 24.9075 24.2219C24.8513 24.2367 24.7964 24.25 24.7427 24.263C24.4894 24.3242 24.2642 24.3787 24.0762 24.5589L24.0752 24.5599C23.8591 24.7666 23.6362 24.9798 23.34 25.078C23.0549 25.1724 22.7286 25.1758 22.4131 25.1758L22.4047 25.1758C22.1087 25.1778 21.8038 25.1799 21.5367 25.2587C21.3154 25.331 21.1039 25.4304 20.907 25.5547C20.6704 25.6915 20.4405 25.823 20.1655 25.8607C20.6021 25.996 21.0024 26.2283 21.3365 26.5403C21.501 26.6977 21.6765 26.8432 21.8616 26.9758L21.8751 26.971C21.8805 26.9764 21.8805 26.9832 21.8805 26.9886C21.959 27.0418 22.041 27.0898 22.1259 27.1322C22.1569 27.1477 22.1974 27.1692 22.2432 27.1942C22.401 27.2798 22.6396 27.4086 22.7414 27.4012C22.8304 27.3861 22.9104 27.338 22.9652 27.2663C23.0227 27.1962 23.1011 27.1463 23.189 27.1241C23.2131 27.1198 23.2401 27.1187 23.2693 27.1204C23.981 25.8497 24.9621 24.7502 26.1353 23.8994ZM22.8618 27.9327C22.7319 27.9143 22.5325 27.8065 22.3802 27.7242L22.3734 27.7205C22.3477 27.7073 22.325 27.6949 22.3048 27.6838C22.2878 27.6745 22.2726 27.6662 22.2587 27.6591C22.1959 27.6281 22.1347 27.5939 22.0754 27.5566L22.0814 27.5755C22.1167 27.7194 22.1762 27.8561 22.2574 27.98C22.3036 28.0474 22.3627 28.1049 22.4313 28.1492L22.4355 28.1522C22.5151 28.2094 22.5784 28.2549 22.6241 28.4775C22.6258 28.4856 22.6274 28.4936 22.629 28.5016C22.7009 28.3091 22.7786 28.1194 22.8618 27.9327ZM22.4466 29.036C22.3052 28.9087 22.2454 28.8263 22.2182 28.7403L22.1508 28.6958L22.1137 28.6701C22.0219 28.6114 21.9249 28.5613 21.8238 28.5205C21.6384 28.4389 21.4463 28.3519 21.3404 28.1497C21.1658 27.8119 20.9285 27.6866 20.5915 27.5133L20.5106 27.4708C20.2389 27.3286 20.1384 27.1627 20.0036 26.9059C19.8782 26.6659 19.707 26.5169 19.4879 26.3666C19.2803 26.2308 19.0566 26.1216 18.8218 26.0416C18.7736 26.0231 18.7214 26.0051 18.6679 25.9867L18.6533 25.9816C18.478 25.9216 18.2811 25.8529 18.1423 25.7437C18.5006 27.0883 19.2651 28.2898 20.3314 29.184C20.8792 29.6434 21.493 30.0103 22.1483 30.2745C22.2218 29.852 22.3218 29.4385 22.4466 29.036ZM21.0061 18.667C20.9944 18.8387 21.0037 19.0112 21.0337 19.1807C21.0647 19.4051 21.0937 19.6175 21.0081 19.8595L20.9993 19.8838H20.9913V19.9013C20.878 20.1912 20.6117 20.6018 20.4863 20.7892C20.2005 20.7508 20.0677 20.5377 19.9281 20.3126C19.8442 20.1592 19.7348 20.0213 19.6045 19.9047C19.5403 19.8552 19.4727 19.8101 19.4023 19.7699C19.8869 19.1673 20.4708 18.6518 21.1288 18.2456C21.0645 18.3782 21.023 18.5206 21.0061 18.667ZM19.7299 20.4879C19.8459 20.674 19.9652 20.8641 20.1755 20.9538C20.1246 20.9625 20.0828 20.9652 20.0451 20.9676C19.9401 20.9744 19.8671 20.9792 19.7178 21.1061C19.6667 21.1496 19.5874 21.169 19.5078 21.1884C19.4193 21.2101 19.3304 21.2318 19.2789 21.2868C19.2095 21.3604 19.1622 21.4566 19.1153 21.5517C19.0496 21.685 18.985 21.8162 18.8623 21.8807C18.6386 21.993 18.4064 22.0875 18.1679 22.1632C18.4106 21.303 18.7072 20.6599 19.2466 19.9756C19.3099 20.0116 19.3701 20.0529 19.4265 20.099C19.5488 20.2106 19.6514 20.3421 19.7299 20.4879ZM18.0984 25.5781C17.9759 25.091 17.9141 24.5906 17.9144 24.0883C17.9071 23.5587 17.9621 23.0302 18.0782 22.5134C18.3253 22.4407 18.5662 22.3487 18.7989 22.2384C18.8545 22.2097 18.9066 22.1862 18.9561 22.164C19.0866 22.1052 19.1991 22.0547 19.3106 21.9364C19.3955 21.8416 19.4855 21.7516 19.5802 21.6667C19.9557 21.3478 20.2982 21.391 20.6589 21.4375C20.7452 21.449 20.8328 21.4591 20.9218 21.4651C20.984 21.5155 21.0426 21.5279 21.0977 21.5396C21.1488 21.5505 21.1969 21.5607 21.242 21.6C21.3134 21.6614 21.3801 21.723 21.4451 21.7831L21.4451 21.7831L21.4452 21.7831L21.4452 21.7831C21.7809 22.0932 22.0738 22.3638 22.7447 22.3638C23.3258 22.3638 23.7782 22.3699 24.2373 22.6456C24.2494 22.6537 24.2615 22.6611 24.275 22.6685C24.3943 22.7413 24.515 22.8222 24.6384 22.9098L24.7173 22.9658L24.72 22.9678C24.9759 23.1504 25.218 23.3233 25.5539 23.3777C25.6689 23.3932 25.7851 23.3981 25.9011 23.3925L25.903 23.3925C26.1233 23.3885 26.3155 23.385 26.4822 23.5557C26.1728 23.6656 25.6841 23.6973 25.2121 23.7256C24.816 23.7499 24.4414 23.7728 24.1793 23.8415C23.8422 23.9312 23.5984 24.1635 23.3638 24.388C23.1435 24.5989 22.936 24.7975 22.6537 24.8912C22.3772 24.9829 22.0709 24.9842 21.7673 24.9855L21.7476 24.9856C21.4375 24.9869 21.1341 24.9896 20.8537 25.0712C20.6274 25.1448 20.4112 25.2463 20.2099 25.3732C19.9213 25.5397 19.6443 25.6981 19.2816 25.6786C19.1771 25.6536 19.0719 25.6348 18.9661 25.6193L18.9364 25.6105V25.6152C18.6585 25.5806 18.3783 25.5682 18.0984 25.5781Z" fill="#DADADA"/>
<path fill-rule="evenodd" clip-rule="evenodd" d="M32 23.1111C27.0908 23.1111 23.1111 27.0908 23.1111 32C23.1111 36.9092 27.0908 40.8889 32 40.8889C36.9092 40.8889 40.8889 36.9092 40.8889 32C40.8889 27.0908 36.9092 23.1111 32 23.1111ZM22 32C22 26.4772 26.4772 22 32 22C37.5228 22 42 26.4772 42 32C42 37.5228 37.5228 42 32 42C26.4772 42 22 37.5228 22 32Z" fill="white"/>
<path fill-rule="evenodd" clip-rule="evenodd" d="M36.0732 34.5788C36.504 33.8 36.7195 32.8504 36.7195 31.7301C36.7195 30.6098 36.504 29.6603 36.0732 28.8814C35.6423 28.1025 35.0589 27.5109 34.3232 27.1065C33.5907 26.7022 32.7687 26.5 31.8572 26.5C30.9425 26.5 30.1188 26.7022 29.3864 27.1065C28.6539 27.5109 28.0722 28.1025 27.6413 28.8814C27.2138 29.6603 27 30.6098 27 31.7301C27 32.8471 27.2138 33.795 27.6413 34.5739C28.0722 35.3494 28.6539 35.9411 29.3864 36.3487C30.1188 36.7564 30.9425 36.9602 31.8572 36.9602C32.4909 36.9602 33.0813 36.8625 33.6285 36.6671L34.4226 37.6167H36.6499L35.1482 35.7647C35.5099 35.435 35.8182 35.0397 36.0732 34.5788ZM33.618 33.9627C33.7357 33.8013 33.8366 33.6173 33.9205 33.4105C34.1094 32.9531 34.2038 32.393 34.2038 31.7301C34.2038 31.0672 34.1094 30.5071 33.9205 30.0497C33.7348 29.5923 33.4664 29.246 33.1151 29.0107C32.767 28.7753 32.3478 28.6577 31.8572 28.6577C31.37 28.6577 30.9508 28.7753 30.5994 29.0107C30.2481 29.246 29.978 29.5923 29.7891 30.0497C29.6035 30.5071 29.5107 31.0672 29.5107 31.7301C29.5107 32.393 29.6035 32.9531 29.7891 33.4105C29.978 33.8679 30.2481 34.2143 30.5994 34.4496C30.9508 34.6849 31.37 34.8026 31.8572 34.8026C31.9842 34.8026 32.1063 34.7947 32.2237 34.7789L31.0021 33.1621H32.9908L33.618 33.9627Z" fill="white"/>
<defs>
<linearGradient id="paint0_linear_4456_11113" x1="24.6735" y1="30.7609" x2="24.6735" y2="17.2442" gradientUnits="userSpaceOnUse">
<stop stop-color="#603211"/>
<stop offset="0.17" stop-color="#DD7D26"/>
<stop offset="0.35" stop-color="#603211"/>
<stop offset="0.54" stop-color="#9C3520"/>
<stop offset="0.77" stop-color="#DD7D26"/>
<stop offset="1" stop-color="#603211"/>
</linearGradient>
</defs>
</svg>
