<svg width="48" height="48" viewBox="0 0 48 48" fill="none" xmlns="http://www.w3.org/2000/svg">
<path d="M31.1919 26.7117L26.4087 31.4625C26.0034 31.865 26.0038 32.5193 26.4095 32.9213L30.0647 36.5436C30.6877 37.1521 31.7061 37.1521 32.3291 36.5436L43.5326 25.601C44.1556 24.9926 44.1556 23.9977 43.5326 23.3893L32.3291 12.4563C31.7061 11.8479 30.6877 11.8479 30.0647 12.4563L26.4095 16.0787C26.0038 16.4807 26.0034 17.135 26.4087 17.5375L31.1919 22.2884C32.4379 23.5052 32.4379 25.4948 31.1919 26.7117Z" fill="#0A6E5C"/>
<path d="M16.8078 26.7117L21.5911 31.4625C21.9964 31.865 21.996 32.5193 21.5903 32.9213L17.9351 36.5436C17.3121 37.1521 16.2937 37.1521 15.6707 36.5436L4.46722 25.601C3.84426 24.9926 3.84426 23.9977 4.46722 23.3893L15.6707 12.4563C16.2937 11.8479 17.3121 11.8479 17.9351 12.4563L21.5903 16.0787C21.996 16.4807 21.9964 17.135 21.5911 17.5375L16.8078 22.2884C15.5619 23.5052 15.5619 25.4948 16.8078 26.7117Z" fill="#21BF73"/>
<path d="M18.0627 25.4037C17.5582 24.9044 17.5582 24.0951 18.0627 23.5959L23.0867 18.6242C23.5912 18.1249 24.4091 18.1249 24.9136 18.6242L29.9376 23.5959C30.4421 24.0951 30.4421 24.9044 29.9376 25.4037L24.9136 30.3753C24.4091 30.8746 23.5912 30.8746 23.0867 30.3753L18.0627 25.4037Z" fill="#21BF73"/>
</svg>
