<svg width="48" height="48" viewBox="0 0 48 48" fill="none" xmlns="http://www.w3.org/2000/svg">
<path fill-rule="evenodd" clip-rule="evenodd" d="M22.778 6.04309C32.6941 5.3693 41.28 12.8608 41.9538 22.7799L41.9574 22.7739C42.0944 24.7881 41.8945 26.7472 41.4058 28.5963C40.7476 26.7779 39.5771 25.2047 38.0686 24.0513C38.0697 23.7188 38.0589 23.3841 38.0359 23.0475H38.0329C37.6573 17.512 34.1053 12.9316 29.2814 10.966C29.2658 10.963 29.2472 10.957 29.2286 10.951C28.85 10.8244 28.4282 10.726 28.0334 10.6858C25.9514 10.4734 24.041 11.302 22.757 12.7528C21.4292 14.2498 20.7429 16.3012 20.5389 18.1252C21.1447 18.0117 21.7568 17.9345 22.3718 17.8942C24.0074 17.746 25.8002 17.842 27.7196 18.316C27.7193 18.1229 27.7141 17.9298 27.704 17.737C27.5654 17.74 27.4238 17.734 27.2792 17.7154C26.8874 17.6657 26.5093 17.5392 26.1665 17.3432C25.8236 17.1471 25.5228 16.8854 25.2813 16.573C25.0398 16.2605 24.8622 15.9035 24.7588 15.5224C24.6554 15.1413 24.6283 14.7435 24.6788 14.3518C24.7305 13.9458 24.8646 13.5546 25.073 13.2023C25.2813 12.85 25.5595 12.544 25.8904 12.3032C26.2213 12.0623 26.5979 11.8916 26.9972 11.8016C27.3965 11.7115 27.8099 11.7041 28.2122 11.7796C30.2882 12.1492 32.1211 14.4286 31.6621 19.8315C32.793 20.4663 34.002 21.3575 35.0919 22.4872C34.1183 22.1709 33.0791 22 32 22C30.0521 22 28.2343 22.5569 26.6972 23.5202C26.8718 23.0973 27.0248 22.6652 27.1556 22.2255C26.3456 22.0035 25.5632 21.8649 24.8114 21.8031H24.8054L24.6146 21.7941C23.4158 21.7353 22.1618 21.8463 20.8839 22.1481C21.0829 22.92 21.353 23.6718 21.6908 24.3939V24.3999C21.7043 24.4279 21.7182 24.4544 21.7321 24.4808C21.7475 24.5099 21.7628 24.5389 21.7772 24.5697C22.2182 25.422 22.7491 26.2237 23.3604 26.9612C22.4956 28.4408 22 30.1625 22 32C22 32.5324 22.0416 33.0552 22.1218 33.5651C20.0581 34.4593 17.4881 35.0312 14.8401 34.67C17.3316 36.81 20.5654 38.0866 24.0524 38.0701C25.2038 39.5754 26.7733 40.744 28.5874 41.4026C27.5044 41.6867 26.3793 41.8733 25.2212 41.9521C16.3929 42.5527 8.62718 36.6818 6.5476 28.3923C6.47959 28.1217 6.41797 27.8497 6.36281 27.5763C6.30461 27.2805 6.25181 26.9781 6.20561 26.6763C6.20455 26.6687 6.20312 26.6615 6.20171 26.6544C6.19913 26.6415 6.19661 26.6289 6.19661 26.6145C6.12881 26.1561 6.07361 25.6941 6.04241 25.2225C5.70641 20.2815 7.3984 15.673 10.405 12.2044C10.4236 12.1768 10.4422 12.1492 10.4638 12.1216L10.4728 12.1276C13.5003 8.68066 17.8383 6.37969 22.778 6.04309ZM19.3317 10.735L19.3407 10.723C13.5189 12.7684 9.51997 18.5074 9.95797 24.9549C9.98328 25.3022 10.0213 25.6484 10.072 25.9929C10.1531 26.394 10.277 26.7852 10.4416 27.1599C11.3008 29.0702 12.9735 30.3086 14.8707 30.6962C16.8333 31.097 18.9525 30.6656 20.6343 29.9294C20.2311 29.4578 19.8615 28.9682 19.5195 28.4601C18.5739 27.1173 17.7633 25.5123 17.2155 23.6115C17.0367 23.7165 16.8705 23.8173 16.7163 23.9193C16.7894 24.0412 16.8542 24.1678 16.9101 24.2985C17.2173 25.0342 17.2199 25.8618 16.9173 26.5993C16.6146 27.3369 16.0315 27.9242 15.2961 28.2321C14.5604 28.5393 13.7329 28.5419 12.9953 28.2392C12.2577 27.9366 11.6704 27.3535 11.3626 26.6181C11.3597 26.6112 11.3569 26.6044 11.3541 26.5975C11.3353 26.5517 11.3164 26.5058 11.3008 26.4573C10.5862 24.4737 11.6398 21.7473 16.5501 19.4433C16.5189 16.8436 17.2215 13.4584 19.3317 10.735Z" fill="url(#paint0_linear_4718_5006)"/>
<g style="mix-blend-mode:overlay" opacity="0.8">
<path d="M22.5836 28.6258C22.0036 28.0086 21.4748 27.3434 21.0033 26.6364C20.1584 25.4328 19.4837 24.1185 18.9981 22.7305C18.9753 22.7402 18.9529 22.7495 18.9308 22.7588C18.8901 22.7758 18.8503 22.7924 18.8103 22.8103C19.2998 24.2551 19.9936 25.6223 20.8707 26.8704C21.3497 27.5858 21.8899 28.2657 22.4898 28.9001C22.5197 28.8081 22.551 28.7166 22.5836 28.6258Z" fill="white"/>
</g>
<path style="mix-blend-mode:overlay" opacity="0.9" d="M22.4892 28.9018C21.8921 28.2717 21.3486 27.5908 20.8653 26.8662C19.9881 25.6183 19.294 24.2513 18.8043 22.8066C18.2067 23.0622 17.6679 23.3394 17.2059 23.6106C17.6997 25.3436 18.4805 26.9814 19.5159 28.4562C20.2202 29.508 21.0569 30.4832 22.0208 31.3498C22.0753 30.5006 22.2358 29.6802 22.4892 28.9018Z" fill="url(#paint1_radial_4718_5006)"/>
<g style="mix-blend-mode:overlay" opacity="0.5">
<path d="M31.4679 21.4321L31.4683 21.4297H31.4647L31.4679 21.4321Z" fill="url(#paint2_linear_4718_5006)" style="mix-blend-mode:overlay"/>
<path d="M32.1703 22.0014C31.9357 21.8001 31.701 21.6102 31.4679 21.4321C31.4587 21.4805 31.4503 21.5298 31.4419 21.5791C31.4334 21.6292 31.4248 21.6793 31.4155 21.7285C31.5281 21.8172 31.641 21.9087 31.7541 22.003C31.8358 22.001 31.9178 22 32 22C32.0569 22 32.1137 22.0005 32.1703 22.0014Z" fill="url(#paint3_linear_4718_5006)" style="mix-blend-mode:overlay"/>
</g>
<path style="mix-blend-mode:overlay" opacity="0.4" d="M31.4737 21.399C31.5061 21.2093 31.538 21.0223 31.5608 20.8294H31.5638C31.607 20.4844 31.6412 20.1551 31.6688 19.8311C32.8017 20.4666 34.013 21.3592 35.104 22.4911C34.1792 22.1894 33.195 22.0189 32.1736 22.0015C31.938 21.7993 31.7023 21.6086 31.4684 21.43C31.4701 21.4197 31.4719 21.4094 31.4737 21.399Z" fill="url(#paint4_radial_4718_5006)"/>
<path style="mix-blend-mode:multiply" opacity="0.3" d="M35.1066 22.4919C34.0138 21.3569 32.8004 20.4617 31.6657 19.8252C31.6381 20.1492 31.6045 20.4816 31.5577 20.8296C31.506 21.2293 31.4384 21.6266 31.3552 22.0205C31.5684 22.0069 31.7834 22 32 22C33.0845 22 34.1287 22.1726 35.1066 22.4919Z" fill="url(#paint5_linear_4718_5006)"/>
<path style="mix-blend-mode:multiply" opacity="0.3" d="M23.3621 26.9583C22.7516 26.2214 22.2214 25.4205 21.7809 24.569C21.7671 24.5396 21.7524 24.5119 21.7377 24.4841C21.723 24.4564 21.7083 24.4286 21.6945 24.3992V24.3932C21.3567 23.6712 21.0865 22.9194 20.8875 22.1475C20.3019 22.2861 19.7139 22.4589 19.1223 22.6809C18.4655 22.9433 17.8292 23.2541 17.2185 23.6108C17.7669 25.5116 18.5769 27.1166 19.5225 28.4594C19.8645 28.9676 20.2347 29.4572 20.6385 29.9288C21.3508 29.6177 21.9891 29.2497 22.5 28.8689C22.721 28.1978 23.0112 27.5581 23.3621 26.9583Z" fill="url(#paint6_linear_4718_5006)"/>
<path style="mix-blend-mode:multiply" opacity="0.3" d="M28.4449 22.6504C28.0226 22.4888 27.5924 22.3483 27.156 22.2293C27.1559 22.2295 27.1561 22.229 27.156 22.2293C27.0223 22.6737 26.8696 23.104 26.6992 23.519C27.2477 23.1754 27.8319 22.8836 28.4449 22.6504Z" fill="url(#paint7_linear_4718_5006)"/>
<path style="mix-blend-mode:multiply" opacity="0.4" d="M41.4047 28.5933C41.8918 26.7478 42.091 24.7927 41.9545 22.7827V22.7797C41.4001 22.7239 38.7013 22.9369 38.0365 23.0473C38.0593 23.3841 38.07 23.7189 38.069 24.0515C39.5765 25.2043 40.7464 26.7763 41.4047 28.5933Z" fill="url(#paint8_linear_4718_5006)"/>
<path style="mix-blend-mode:multiply" opacity="0.3" d="M22.0205 31.354C21.5279 30.9109 21.0642 30.436 20.6325 29.9323C18.9501 30.6679 16.8309 31.0993 14.8683 30.6985C12.9711 30.3109 11.2984 29.0725 10.4386 27.1627C10.2739 26.7879 10.15 26.3964 10.069 25.9951C10.5652 29.4757 12.3207 32.5128 14.8377 34.6722L14.8407 34.6728C17.4884 35.0336 20.0584 34.4619 22.1221 33.5674C22.0417 33.0568 22 32.5333 22 32C22 31.783 22.0069 31.5676 22.0205 31.354Z" fill="url(#paint9_linear_4718_5006)"/>
<path style="mix-blend-mode:multiply" opacity="0.3" d="M28.4449 22.6504C28.0226 22.4888 27.5924 22.3483 27.156 22.2293C27.1559 22.2295 27.1561 22.229 27.156 22.2293C27.0223 22.6737 26.8696 23.104 26.6992 23.519C27.2477 23.1754 27.8319 22.8836 28.4449 22.6504Z" fill="url(#paint10_linear_4718_5006)"/>
<path style="mix-blend-mode:multiply" opacity="0.4" d="M24.0541 38.0723C20.5665 38.0892 17.332 36.8126 14.8401 34.6728C14.5861 34.6396 14.3333 34.5974 14.0823 34.5462C11.0788 33.933 8.63919 32.1342 7.0312 29.3467C6.85414 29.0386 6.69274 28.7218 6.54761 28.3975C8.62719 36.687 16.3929 42.5585 25.2182 41.9573C25.2435 41.3855 25.1466 40.3377 25.0613 39.4153C25.054 39.3358 25.0467 39.2573 25.0396 39.1801C24.6846 38.8359 24.3551 38.4656 24.0541 38.0723Z" fill="url(#paint11_linear_4718_5006)"/>
<path style="mix-blend-mode:overlay" opacity="0.9" d="M27.1892 11.7639C27.5283 11.7077 27.8746 11.7118 28.2122 11.7759L28.2128 11.7783C30.4124 12.1701 32.3408 14.7021 31.5548 20.8322C31.5032 21.2313 31.4361 21.6277 31.3535 22.0206C30.582 22.0698 29.8343 22.2065 29.1202 22.4209C29.291 21.7772 29.4201 21.1221 29.5064 20.4596C30.1652 15.3093 28.9118 12.6999 27.1892 11.7639Z" fill="url(#paint12_radial_4718_5006)"/>
<g style="mix-blend-mode:overlay" opacity="0.8">
<path d="M27.1892 11.7607C28.9111 12.6973 30.1651 15.3091 29.5057 20.4571C29.42 21.1206 29.291 21.7765 29.12 22.421C29.0212 22.4506 28.923 22.4818 28.8255 22.5144C29.0092 21.8399 29.147 21.1525 29.2375 20.4571C29.8873 15.3769 28.6742 12.7711 26.9888 11.8009C26.9966 11.7991 27.0044 11.7974 27.0122 11.7956C27.072 11.7818 27.1292 11.7687 27.1892 11.7607Z" fill="white"/>
</g>
<path style="mix-blend-mode:overlay" opacity="0.5" d="M22.0001 31.9453C19.506 32.8894 16.2051 33.4266 12.9237 32.6642C13.4936 33.3941 14.1343 34.0658 14.8365 34.6694C17.4859 35.0308 20.0572 34.4581 22.1214 33.5631C22.0415 33.0539 22 32.5319 22 32.0003C22 31.9819 22 31.9636 22.0001 31.9453Z" fill="url(#paint13_radial_4718_5006)"/>
<path style="mix-blend-mode:overlay" opacity="0.6" d="M22.0058 31.6562C19.4682 32.6187 16.0451 33.1655 12.6681 32.322C12.6997 32.3637 12.7313 32.4058 12.7629 32.4478C12.8176 32.5207 12.8723 32.5936 12.9267 32.6639C16.2048 33.4261 19.5061 32.8895 22.0001 31.9459C22.0007 31.849 22.0025 31.7525 22.0058 31.6562Z" fill="url(#paint14_linear_4718_5006)"/>
<path style="mix-blend-mode:overlay" opacity="0.9" d="M11.3037 26.4607C11.3217 26.5159 11.3439 26.5687 11.3655 26.6209C11.4795 26.8921 11.6271 27.1351 11.8059 27.3541C11.7567 25.3952 13.3893 23.0012 18.176 20.999C19.7355 20.3503 21.3913 19.9632 23.0768 19.853C24.5963 19.7175 26.1275 19.8005 27.6235 20.0996C27.7009 19.4528 27.7315 18.8492 27.7255 18.3158C25.9782 17.876 24.1694 17.7334 22.3748 17.894C20.6892 18.0044 19.0332 18.3916 17.4734 19.04C11.7723 21.4244 10.5429 24.3602 11.3043 26.4637V26.4607H11.3037Z" fill="url(#paint15_radial_4718_5006)"/>
<g style="mix-blend-mode:overlay" opacity="0.8">
<path d="M18.176 21.0017C13.3893 23.0045 11.7561 25.3978 11.8059 27.3568C11.8491 27.409 11.8953 27.4588 11.9415 27.508C11.9379 25.564 13.5891 23.2109 18.3116 21.2327C19.8712 20.584 21.5269 20.1969 23.2124 20.0867C24.6776 19.9571 26.1536 20.0298 27.5989 20.3027C27.6087 20.2351 27.6169 20.1673 27.6235 20.0993C26.1273 19.802 24.5964 19.7191 23.0768 19.8533C21.3914 19.9638 19.7357 20.351 18.176 20.9993V21.0017Z" fill="white"/>
</g>
<path style="mix-blend-mode:overlay" opacity="0.3" d="M17.4704 19.034C17.6582 18.9566 17.846 18.8858 18.0368 18.815C18.3884 16.0856 19.574 12.7005 22.0268 10.0791C21.1088 10.2111 20.2058 10.4271 19.331 10.7319C17.2202 13.4553 16.5183 16.8404 16.5495 19.4408C16.8416 19.3028 17.147 19.1666 17.4674 19.0346L17.4704 19.034Z" fill="url(#paint16_radial_4718_5006)"/>
<path style="mix-blend-mode:overlay" opacity="0.4" d="M18.0363 18.8151C18.1323 18.7815 18.2247 18.7443 18.3201 18.7107C18.7142 15.9808 19.9526 12.6112 22.451 10.0234C22.3094 10.039 22.1672 10.0576 22.0256 10.0762C19.5734 12.7006 18.3879 16.0828 18.0369 18.8121V18.8151H18.0363Z" fill="url(#paint17_linear_4718_5006)"/>
<path style="mix-blend-mode:multiply" opacity="0.4" d="M22.778 6.04328C17.837 6.37928 13.5003 8.68025 10.4721 12.1272L10.4043 12.204C10.9923 12.7896 12.9207 13.9416 13.7001 14.4222C15.2531 12.749 17.1903 11.4792 19.3442 10.7226C19.4954 10.5252 19.655 10.3314 19.8218 10.1436C21.8546 7.84866 24.6301 6.63787 27.8521 6.63787C28.2097 6.63787 28.9399 6.69667 28.9549 6.69667C26.9501 6.11995 24.8597 5.89861 22.7786 6.04268L22.778 6.04328Z" fill="url(#paint18_linear_4718_5006)"/>
<path style="mix-blend-mode:multiply" opacity="0.5" d="M28.0369 10.6827C28.4311 10.7229 28.8529 10.8213 29.2321 10.9479C29.2501 10.9539 29.2693 10.9599 29.2843 10.9629C30.8296 11.5936 32.251 12.4927 33.4831 13.6185C33.4831 13.6185 33.4891 13.6215 33.4921 13.6245C34.0837 12.9501 35.2201 12.2079 35.2201 12.2079C35.2201 12.2079 33.4801 10.4271 30.8155 9.87275C28.9519 9.48455 24.7472 9.11196 22.0946 13.6245L22.1192 13.6005C22.3166 13.3041 22.523 13.0149 22.76 12.7497C24.0446 11.2989 25.9544 10.4697 28.0369 10.6827Z" fill="url(#paint19_linear_4718_5006)"/>
<path style="mix-blend-mode:multiply" opacity="0.5" d="M10.4481 27.1659C10.2833 26.7911 10.1592 26.3997 10.0779 25.9984C10.0749 25.9804 10.0689 25.9612 10.0659 25.9426C9.83794 24.2824 9.91174 22.6006 10.2663 20.9806V20.971C9.38495 20.7982 8.17476 20.1826 8.17476 20.1826C8.17476 20.1826 7.50277 22.5826 8.35656 25.1638C8.95415 26.9715 10.7313 30.8007 15.9645 30.8409C15.9645 30.8409 15.9495 30.8373 15.9309 30.8313C15.5769 30.8097 15.2229 30.7731 14.8749 30.7023C12.9771 30.3141 11.3043 29.0757 10.4445 27.1659H10.4481Z" fill="url(#paint20_linear_4718_5006)"/>
<path style="mix-blend-mode:multiply" opacity="0.6" d="M27.2791 17.7121C27.4237 17.7301 27.5653 17.7361 27.7039 17.7331C27.7039 17.7331 27.6085 15.8635 27.3805 14.9023C27.1495 13.9441 26.8105 13.3063 26.4409 12.9463C26.1733 12.6877 25.3321 12.3667 24.6793 14.3443C24.6287 14.736 24.6558 15.1338 24.7591 15.515C24.8624 15.8961 25.0399 16.2532 25.2814 16.5657C25.5229 16.8782 25.8236 17.14 26.1664 17.3361C26.5092 17.5322 26.8873 17.6587 27.2791 17.7085V17.7115V17.7121Z" fill="url(#paint21_linear_4718_5006)"/>
<path style="mix-blend-mode:multiply" opacity="0.5" d="M16.9143 24.3044C16.8581 24.1739 16.7932 24.0474 16.7199 23.9258C16.7199 23.9258 15.1455 24.9422 14.4309 25.6196C13.7163 26.2976 13.3341 26.9108 13.2081 27.4123C13.1187 27.7729 13.2603 28.6603 15.2997 28.2379C16.0351 27.9301 16.6182 27.3428 16.9208 26.6052C17.2235 25.8676 17.2209 25.0401 16.9137 24.3044H16.9143Z" fill="url(#paint22_linear_4718_5006)"/>
<path style="mix-blend-mode:multiply" opacity="0.3" d="M19.3322 10.7343C17.2221 13.4576 16.5195 16.8428 16.5507 19.4426C16.8548 19.2998 17.1618 19.1633 17.4717 19.0334C18.4591 18.6209 19.4874 18.3142 20.5394 18.1184C20.7434 16.2944 21.4298 14.243 22.7576 12.746C24.0416 11.2952 25.952 10.4661 28.0346 10.6791C28.4287 10.7193 28.8505 10.8177 29.2297 10.9442C29.2477 10.9502 29.2663 10.9562 29.2819 10.9592C27.3053 10.1527 25.1699 9.8103 23.0402 9.95846C21.7466 10.0479 20.5082 10.3095 19.3376 10.7223C19.3346 10.7253 19.3316 10.7313 19.3286 10.7343H19.3322Z" fill="url(#paint23_linear_4718_5006)"/>
<path style="mix-blend-mode:multiply" opacity="0.3" d="M20.5298 20.2867C20.6052 20.9143 20.7235 21.5359 20.8838 22.1473C22.1624 21.8455 23.4158 21.7345 24.6146 21.7933L24.8054 21.8023H24.8114C25.5632 21.8641 26.3456 22.0027 27.1562 22.2247C27.3284 21.6487 27.4736 21.0505 27.578 20.4283C27.6919 19.6525 27.7255 18.9343 27.7225 18.3092C25.8038 17.8352 24.011 17.7392 22.3754 17.8874C21.7603 17.9277 21.1483 18.0048 20.5424 18.1184C20.456 18.9007 20.4524 19.6429 20.5328 20.2843L20.5298 20.2867Z" fill="url(#paint24_linear_4718_5006)"/>
<path d="M37 27L33.234 37H30.7358L27 27H29.1057L31.9887 34.6556L34.8943 27H37Z" fill="white"/>
<defs>
<linearGradient id="paint0_linear_4718_5006" x1="11.7166" y1="36.2846" x2="34.6657" y2="13.3324" gradientUnits="userSpaceOnUse">
<stop stop-color="#E6007A"/>
<stop offset="0.21" stop-color="#703AC2"/>
<stop offset="0.46" stop-color="#0070EB"/>
<stop offset="0.77" stop-color="#0297FB"/>
<stop offset="1" stop-color="#0AE2FF"/>
</linearGradient>
<radialGradient id="paint1_radial_4718_5006" cx="0" cy="0" r="1" gradientUnits="userSpaceOnUse" gradientTransform="translate(24.2647 29.9466) rotate(120) scale(6.84473)">
<stop stop-color="white"/>
<stop offset="1" stop-color="white" stop-opacity="0"/>
</radialGradient>
<linearGradient id="paint2_linear_4718_5006" x1="36.7363" y1="29.2992" x2="34.7713" y2="26.0016" gradientUnits="userSpaceOnUse">
<stop stop-color="white" stop-opacity="0"/>
<stop offset="1" stop-color="white"/>
</linearGradient>
<linearGradient id="paint3_linear_4718_5006" x1="36.7363" y1="29.2992" x2="34.7713" y2="26.0016" gradientUnits="userSpaceOnUse">
<stop stop-color="white" stop-opacity="0"/>
<stop offset="1" stop-color="white"/>
</linearGradient>
<radialGradient id="paint4_radial_4718_5006" cx="0" cy="0" r="1" gradientUnits="userSpaceOnUse" gradientTransform="translate(34.3338 23.7892) rotate(-120) scale(3.98299)">
<stop stop-color="white"/>
<stop offset="1" stop-color="white" stop-opacity="0"/>
</radialGradient>
<linearGradient id="paint5_linear_4718_5006" x1="30.314" y1="27.0209" x2="32.1619" y2="27.4463" gradientUnits="userSpaceOnUse">
<stop stop-color="#231F20"/>
<stop offset="1" stop-color="white"/>
</linearGradient>
<linearGradient id="paint6_linear_4718_5006" x1="19.1223" y1="22.8591" x2="20.0463" y2="24.7784" gradientUnits="userSpaceOnUse">
<stop stop-color="#231F20"/>
<stop offset="1" stop-color="white"/>
</linearGradient>
<linearGradient id="paint7_linear_4718_5006" x1="25.3454" y1="28.7216" x2="26.8394" y2="26.6613" gradientUnits="userSpaceOnUse">
<stop stop-color="#231F20"/>
<stop offset="1" stop-color="white"/>
</linearGradient>
<linearGradient id="paint8_linear_4718_5006" x1="38.2951" y1="30.2064" x2="40.0015" y2="25.0188" gradientUnits="userSpaceOnUse">
<stop stop-color="#231F20"/>
<stop offset="1" stop-color="white"/>
</linearGradient>
<linearGradient id="paint9_linear_4718_5006" x1="20.2071" y1="27.8281" x2="17.2221" y2="29.2513" gradientUnits="userSpaceOnUse">
<stop stop-color="#231F20"/>
<stop offset="1" stop-color="white"/>
</linearGradient>
<linearGradient id="paint10_linear_4718_5006" x1="25.3454" y1="28.7216" x2="26.8394" y2="26.6613" gradientUnits="userSpaceOnUse">
<stop stop-color="#231F20"/>
<stop offset="1" stop-color="white"/>
</linearGradient>
<linearGradient id="paint11_linear_4718_5006" x1="11.9752" y1="30.9762" x2="16.8795" y2="36.0954" gradientUnits="userSpaceOnUse">
<stop stop-color="#231F20"/>
<stop offset="1" stop-color="white"/>
</linearGradient>
<radialGradient id="paint12_radial_4718_5006" cx="0" cy="0" r="1" gradientUnits="userSpaceOnUse" gradientTransform="translate(29.1302 20.3546) scale(6.84473)">
<stop stop-color="white"/>
<stop offset="1" stop-color="white" stop-opacity="0"/>
</radialGradient>
<radialGradient id="paint13_radial_4718_5006" cx="0" cy="0" r="1" gradientUnits="userSpaceOnUse" gradientTransform="translate(19.0142 33.0521) scale(3.98299 3.983)">
<stop stop-color="white"/>
<stop offset="1" stop-color="white" stop-opacity="0"/>
</radialGradient>
<linearGradient id="paint14_linear_4718_5006" x1="13.0377" y1="32.3782" x2="16.8764" y2="32.3254" gradientUnits="userSpaceOnUse">
<stop stop-color="white" stop-opacity="0"/>
<stop offset="1" stop-color="white"/>
</linearGradient>
<radialGradient id="paint15_radial_4718_5006" cx="0" cy="0" r="1" gradientUnits="userSpaceOnUse" gradientTransform="translate(18.2787 21.377) rotate(-120) scale(6.84473)">
<stop stop-color="white"/>
<stop offset="1" stop-color="white" stop-opacity="0"/>
</radialGradient>
<radialGradient id="paint16_radial_4718_5006" cx="0" cy="0" r="1" gradientUnits="userSpaceOnUse" gradientTransform="translate(18.6497 15.1569) rotate(120) scale(3.98299)">
<stop stop-color="white"/>
<stop offset="1" stop-color="white" stop-opacity="0"/>
</radialGradient>
<linearGradient id="paint17_linear_4718_5006" x1="22.2194" y1="10.3168" x2="20.348" y2="13.669" gradientUnits="userSpaceOnUse">
<stop stop-color="white" stop-opacity="0"/>
<stop offset="1" stop-color="white"/>
</linearGradient>
<linearGradient id="paint18_linear_4718_5006" x1="23.0558" y1="8.61245" x2="17.1902" y2="10.3188" gradientUnits="userSpaceOnUse">
<stop stop-color="#231F20"/>
<stop offset="1" stop-color="white"/>
</linearGradient>
<linearGradient id="paint19_linear_4718_5006" x1="25.7264" y1="11.5821" x2="33.5881" y2="13.3815" gradientUnits="userSpaceOnUse">
<stop stop-color="#231F20"/>
<stop offset="1" stop-color="white"/>
</linearGradient>
<linearGradient id="paint20_linear_4718_5006" x1="12.3801" y1="28.7169" x2="10.0101" y2="21.0076" gradientUnits="userSpaceOnUse">
<stop stop-color="#231F20"/>
<stop offset="1" stop-color="white"/>
</linearGradient>
<linearGradient id="paint21_linear_4718_5006" x1="27.4453" y1="14.4799" x2="24.9595" y2="16.9693" gradientUnits="userSpaceOnUse">
<stop stop-color="#231F20"/>
<stop offset="1" stop-color="white"/>
</linearGradient>
<linearGradient id="paint22_linear_4718_5006" x1="14.0337" y1="25.7714" x2="17.4308" y2="26.684" gradientUnits="userSpaceOnUse">
<stop stop-color="#231F20"/>
<stop offset="1" stop-color="white"/>
</linearGradient>
<linearGradient id="paint23_linear_4718_5006" x1="23.42" y1="16.9322" x2="22.7822" y2="14.7296" gradientUnits="userSpaceOnUse">
<stop stop-color="#231F20"/>
<stop offset="1" stop-color="white"/>
</linearGradient>
<linearGradient id="paint24_linear_4718_5006" x1="27.4148" y1="20.7769" x2="25.0706" y2="20.3515" gradientUnits="userSpaceOnUse">
<stop stop-color="#231F20"/>
<stop offset="1" stop-color="white"/>
</linearGradient>
</defs>
</svg>
