<svg width="48" height="48" viewBox="0 0 48 48" fill="none" xmlns="http://www.w3.org/2000/svg">
<path fill-rule="evenodd" clip-rule="evenodd" d="M13.001 24.3337L23.9964 19.3115V26.0039C23.1599 27.1186 22.5508 28.4138 22.2382 29.8206L13.001 24.3337Z" fill="white"/>
<path fill-rule="evenodd" clip-rule="evenodd" d="M33.6774 22.1401L23.9975 6L23.7573 6.82033V26.3363C25.5605 23.7171 28.5797 22 32 22C32.5716 22 33.132 22.048 33.6774 22.1401Z" fill="#343434"/>
<path fill-rule="evenodd" clip-rule="evenodd" d="M22.2381 29.8208C22.5508 28.4138 23.1599 27.1185 23.9965 26.0036V6L13.001 24.3338L22.2381 29.8208Z" fill="#8C8C8C"/>
<path fill-rule="evenodd" clip-rule="evenodd" d="M23.8615 37.8125L23.8615 41.6035L23.9968 42.0007L25.621 39.702C24.9566 39.151 24.3646 38.5157 23.8615 37.8125Z" fill="#3C3C3B"/>
<path fill-rule="evenodd" clip-rule="evenodd" d="M22.0025 31.7739L13.001 26.4297L23.9965 42.0003V37.9964C22.7428 36.3257 22 34.2496 22 32C22 31.9244 22.0008 31.8491 22.0025 31.7739Z" fill="#8C8C8C"/>
<path fill-rule="evenodd" clip-rule="evenodd" d="M23.9957 26.0047V19.3115L30.2253 22.157C27.688 22.6114 25.4825 24.023 23.9957 26.0047Z" fill="#141414"/>
<path d="M37 27L33.234 37H30.7358L27 27H29.1057L31.9887 34.6556L34.8943 27H37Z" fill="black"/>
</svg>
