<svg width="48" height="48" viewBox="0 0 48 48" fill="none" xmlns="http://www.w3.org/2000/svg">
<path fill-rule="evenodd" clip-rule="evenodd" d="M41.407 28.5996C41.7939 27.1314 42 25.5897 42 24C42 14.0589 33.9411 6 24 6C14.0589 6 6 14.0589 6 24C6 33.9411 14.0589 42 24 42C25.5897 42 27.1314 41.7939 28.5996 41.407C24.7507 40.0154 22 36.3289 22 32C22 26.4772 26.4772 22 32 22C36.3289 22 40.0154 24.7507 41.407 28.5996Z" fill="#0090FF"/>
<path fill-rule="evenodd" clip-rule="evenodd" d="M25.0615 24.7857L25.6154 21.8551L29.2122 22.3937C29.6755 22.2595 30.1527 22.1579 30.6411 22.0916L30.8769 21.214L25.8 20.4813C26.1022 19.5389 26.3641 18.5964 26.6234 17.6634C26.9183 16.6017 27.2099 15.5521 27.5538 14.5285C27.8308 13.8874 28.2923 13.2464 28.7538 12.7884C29.4 12.1474 30.2308 12.2389 30.7846 12.9716C30.9231 13.109 31.0385 13.2463 31.1538 13.3837C31.2692 13.5211 31.3846 13.6585 31.5231 13.7958C31.8923 14.1622 32.3538 14.2538 32.7231 13.979C33 13.7043 33 13.2464 33 12.88C33 12.6969 32.8154 12.5137 32.7231 12.4221C32.1692 11.781 31.3385 11.5063 30.5077 11.5063C28.5692 11.4147 27.2769 12.3305 26.1692 13.7958C25.0615 15.2612 24.6 16.9096 24.1385 18.5581C24.0309 18.8249 23.9547 19.0917 23.8733 19.3765C23.815 19.5807 23.754 19.7941 23.6769 20.0234L18.2308 19.2908L18.0462 20.7561L23.3077 21.5803L22.6615 24.4194L17.5846 23.6867L17.4 25.0605L22.2923 25.7931V26.1594C21.9081 27.9894 21.4598 29.7558 21.0009 31.5645C20.9086 31.9283 20.8158 32.2938 20.7231 32.6618C20.4462 33.6692 19.9846 34.6766 19.1538 35.4093C18.4154 35.9588 17.6769 35.8672 17.1231 35.1345C16.9385 34.7682 16.6615 34.4019 16.3846 34.1271C16.1077 34.0355 15.6462 33.9439 15.4615 34.0355C15.1846 34.2187 15 34.6766 15 35.0429C15 35.3177 15.2769 35.684 15.5538 35.8672C16.3846 36.5082 17.4923 36.5998 18.5077 36.4167C20.157 36.1583 21.3981 35.1711 22.1543 33.7596C22.0529 33.1884 22 32.6004 22 32C22 29.1658 23.179 26.607 25.0734 24.7874L25.0615 24.7857Z" fill="white"/>
<path d="M37 27L33.234 37H30.7358L27 27H29.1057L31.9887 34.6556L34.8943 27H37Z" fill="#0090FF"/>
</svg>
