<svg width="48" height="48" viewBox="0 0 48 48" fill="none" xmlns="http://www.w3.org/2000/svg">
<path d="M26.6418 8C20.1501 8 14.7668 13.1765 14.7668 19.7647V20.2353H15.4001H37.8834H38.5168V19.7647C38.5168 13.3333 33.1334 8 26.6418 8Z" fill="#53CBC8"/>
<path d="M7.9585 32.7059C7.9585 32.316 8.27749 32 8.671 32H18.3293C18.7228 32 19.0418 32.316 19.0418 32.7059C19.0418 33.0957 18.7228 33.4118 18.3293 33.4118H8.671C8.27749 33.4118 7.9585 33.0957 7.9585 32.7059Z" fill="#E1147B"/>
<path fill-rule="evenodd" clip-rule="evenodd" d="M37.3167 23.529H40.6541C41.0476 23.529 41.3666 23.2129 41.3666 22.8231C41.3666 22.4332 41.0476 22.1172 40.6541 22.1172H33.5357C34.908 22.3287 36.1883 22.8192 37.3167 23.529ZM30.4643 22.1172H12.9458C12.5523 22.1172 12.2333 22.4332 12.2333 22.8231C12.2333 23.2129 12.5523 23.529 12.9458 23.529H26.6833C27.8117 22.8192 29.092 22.3287 30.4643 22.1172ZM24.4765 25.4121H7.16684C6.87599 25.4121 6.53357 25.7281 6.53357 26.118C6.53357 26.5078 6.87599 26.8239 7.16684 26.8239H23.4421C23.7459 26.3228 24.0923 25.8505 24.4765 25.4121ZM22.5552 28.7061H12.706C12.3574 28.7061 12.0748 29.0221 12.0748 29.4119C12.0748 29.8018 12.3574 30.1178 12.706 30.1178H22.1769C22.269 29.634 22.396 29.1625 22.5552 28.7061ZM22 32.0001L21.2562 32.0002C20.9076 32.0002 20.625 32.3162 20.625 32.706C20.625 33.0959 20.9076 33.4119 21.2562 33.4119L22.0989 33.4119C22.0337 32.9507 22 32.4794 22 32.0001ZM24.4765 38.5879C24.9334 39.1092 25.4436 39.5826 25.9986 39.9997H17.5498C17.1494 39.9997 16.8248 39.6836 16.8248 39.2938C16.8248 38.9039 17.1494 38.5879 17.5498 38.5879H24.4765ZM22.5558 35.2956C22.7036 35.7192 22.879 36.1298 23.0801 36.5252C22.9539 36.6374 22.7871 36.7057 22.6042 36.7057C22.2107 36.7057 21.8917 36.3897 21.8917 35.9998C21.8917 35.6261 22.1849 35.3202 22.5558 35.2956ZM41.9533 32.9729C41.9667 32.8335 41.9773 32.6933 41.985 32.5523C41.9948 32.6017 42 32.6531 42 32.7059C42 32.8004 41.9834 32.8905 41.9533 32.9729ZM10.4123 23.529C10.8058 23.529 11.1248 23.2129 11.1248 22.8231C11.1248 22.4332 10.8058 22.1172 10.4123 22.1172C10.0188 22.1172 9.69983 22.4332 9.69983 22.8231C9.69983 23.2129 10.0188 23.529 10.4123 23.529ZM5.425 26.118C5.425 26.5078 5.106 26.8239 4.7125 26.8239C4.319 26.8239 4 26.5078 4 26.118C4 25.7281 4.319 25.4121 4.7125 25.4121C5.106 25.4121 5.425 25.7281 5.425 26.118ZM10.254 30.1178C10.6475 30.1178 10.9665 29.8018 10.9665 29.4119C10.9665 29.0221 10.6475 28.7061 10.254 28.7061C9.8605 28.7061 9.5415 29.0221 9.5415 29.4119C9.5415 29.8018 9.8605 30.1178 10.254 30.1178ZM6.85017 32.7059C6.85017 33.0957 6.53117 33.4118 6.13767 33.4118C5.74417 33.4118 5.42517 33.0957 5.42517 32.7059C5.42517 32.316 5.74417 32 6.13767 32C6.53117 32 6.85017 32.316 6.85017 32.7059ZM15.004 39.9997C15.3975 39.9997 15.7165 39.6836 15.7165 39.2938C15.7165 38.9039 15.3975 38.5879 15.004 38.5879C14.6105 38.5879 14.2915 38.9039 14.2915 39.2938C14.2915 39.6836 14.6105 39.9997 15.004 39.9997Z" fill="#E1147B"/>
<path d="M37 27L33.234 37H30.7358L27 27H29.1057L31.9887 34.6556L34.8943 27H37Z" fill="#E1147B"/>
</svg>
