<svg width="48" height="48" viewBox="0 0 48 48" fill="none" xmlns="http://www.w3.org/2000/svg">
<path fill-rule="evenodd" clip-rule="evenodd" d="M26.0132 17.7367C28.2636 17.9476 30.0428 18.6395 30.2405 20.7021C30.2946 21.2781 30.2368 21.7687 30.0885 22.1828C28.071 22.5733 26.2698 23.5702 24.8821 24.9763C24.3187 24.941 23.7741 24.9531 23.3544 24.9624C23.1873 24.9661 23.0401 24.9693 22.9193 24.969V27.8064C22.3292 29.0818 22 30.5026 22 32.0003C22 32.6052 22.0537 33.1976 22.1566 33.7729H21.1236V30.8668H17.6277L17.9572 28.7878C17.9572 28.7878 19.2455 28.8075 19.2224 28.7878C19.3035 28.794 19.3849 28.7838 19.462 28.7577C19.539 28.7317 19.6099 28.6903 19.6705 28.6362C19.7323 28.583 19.7828 28.518 19.819 28.445C19.8552 28.372 19.8764 28.2925 19.8814 28.2111V20.3825C19.8478 20.1518 19.7259 19.9432 19.5416 19.8006C19.3572 19.658 19.1246 19.5926 18.8929 19.6181C18.9127 19.595 17.6277 19.6181 17.6277 19.6181V17.7565H21.1565V14.8965H22.883V17.684H24.2735V14.8965H26.0132V17.7367ZM23.2188 23.2264C24.4123 23.2476 26.9951 23.2935 26.9951 21.4863C26.9951 19.6333 24.4928 19.6984 23.276 19.73C23.1405 19.7336 23.021 19.7367 22.9226 19.7367V23.2227C23.0069 23.2227 23.1067 23.2245 23.2188 23.2264Z" fill="#F09242"/>
<path fill-rule="evenodd" clip-rule="evenodd" d="M13.9977 38.9651C16.9573 40.9432 20.4369 41.9993 23.9967 42C25.5512 42.0003 27.0957 41.7992 28.5923 41.4043C27.8667 41.1414 27.1803 40.7969 26.544 40.3819C24.6384 40.6765 22.6859 40.6381 20.7748 40.2581C17.5582 39.6184 14.6033 38.0395 12.2838 35.7209C9.96427 33.4023 8.38418 30.448 7.74323 27.2316C7.10229 24.0152 7.42926 20.681 8.68282 17.6503C9.93639 14.6197 12.0603 12.0287 14.786 10.2049C17.5118 8.38107 20.7171 7.40624 23.9967 7.40363C26.1765 7.4019 28.3353 7.82986 30.3497 8.66305C32.364 9.49623 34.1943 10.7183 35.736 12.2594C37.2777 13.8004 38.5005 15.6303 39.3344 17.6443C40.1684 19.6582 40.5972 21.8169 40.5964 23.9967C40.596 24.8603 40.5283 25.7188 40.3953 26.5648C40.8043 27.1952 41.1442 27.8746 41.4043 28.5923C41.7992 27.0957 42.0003 25.5512 42 23.9967C41.9993 20.4369 40.9432 16.9573 38.9651 13.9977C36.987 11.0381 34.1757 8.73151 30.8868 7.36955C27.5978 6.00758 23.9789 5.65139 20.4876 6.34603C16.9962 7.04067 13.7892 8.75494 11.2721 11.2721C8.75494 13.7892 7.04067 16.9962 6.34603 20.4876C5.65139 23.9789 6.00758 27.5978 7.36955 30.8868C8.73151 34.1757 11.0381 36.987 13.9977 38.9651Z" fill="#141414"/>
<path fill-rule="evenodd" clip-rule="evenodd" d="M24.0099 9.97443C20.5147 9.97443 17.146 11.2824 14.5667 13.6411L13.5552 12.6526C16.4004 10.0295 20.1285 8.57324 23.9983 8.57324C27.8682 8.57324 31.5963 10.0295 34.4415 12.6526L33.453 13.6411C30.8737 11.2824 27.505 9.97443 24.0099 9.97443ZM34.3657 14.5439L35.3542 13.5554V13.5323C37.9772 16.3775 39.4335 20.1057 39.4335 23.9755C39.4335 24.4033 39.4157 24.8294 39.3805 25.2527C38.9697 24.8036 38.5183 24.392 38.0323 24.0239C38.0323 24.0116 38.0323 23.9993 38.0323 23.987C38.0323 20.4919 36.7243 17.1232 34.3657 14.5439ZM24.0137 38.0194C24.008 38.0194 24.0023 38.0194 23.9967 38.0194C20.5015 38.0194 17.1329 36.7114 14.5535 34.3528L13.565 35.3412C16.4102 37.9643 20.1384 39.4206 24.0082 39.4206C24.4214 39.4206 24.8329 39.404 25.242 39.3711C24.7928 38.9591 24.3815 38.5066 24.0137 38.0194ZM13.6408 33.4401C11.285 30.8613 9.97871 27.4947 9.97871 24.0019C9.97871 20.509 11.285 17.1424 13.6408 14.5636L12.6524 13.5752C10.0293 16.4204 8.573 20.1485 8.573 24.0183C8.573 27.8882 10.0293 31.6163 12.6524 34.4615L13.6408 33.4401Z" fill="#5A5564"/>
<path fill-rule="evenodd" clip-rule="evenodd" d="M32 23.1111C27.0908 23.1111 23.1111 27.0908 23.1111 32C23.1111 36.9092 27.0908 40.8889 32 40.8889C36.9092 40.8889 40.8889 36.9092 40.8889 32C40.8889 27.0908 36.9092 23.1111 32 23.1111ZM22 32C22 26.4772 26.4772 22 32 22C37.5228 22 42 26.4772 42 32C42 37.5228 37.5228 42 32 42C26.4772 42 22 37.5228 22 32Z" fill="#141414"/>
<path fill-rule="evenodd" clip-rule="evenodd" d="M32 38.75C35.7279 38.75 38.75 35.7279 38.75 32C38.75 28.2721 35.7279 25.25 32 25.25C28.2721 25.25 25.25 28.2721 25.25 32C25.25 35.7279 28.2721 38.75 32 38.75ZM32.0276 38.1163C35.4055 38.1163 38.1439 35.3779 38.1439 32C38.1439 28.6221 35.4055 25.8837 32.0276 25.8837C28.6496 25.8837 25.9112 28.6221 25.9112 32C25.9112 35.3779 28.6496 38.1163 32.0276 38.1163ZM32 37.648C35.1193 37.648 37.648 35.1193 37.648 32C37.648 28.8807 35.1193 26.352 32 26.352C28.8807 26.352 26.352 28.8807 26.352 32C26.352 35.1193 28.8807 37.648 32 37.648ZM32.0138 36.9592C34.7603 36.9592 36.9867 34.7327 36.9867 31.9862C36.9867 29.2397 34.7603 27.0133 32.0138 27.0133C29.2673 27.0133 27.0408 29.2397 27.0408 31.9862C27.0408 34.7327 29.2673 36.9592 32.0138 36.9592ZM31.7331 27.9683L35.3333 34.214L35.7194 33.5442L32.5052 27.9683H31.7331ZM28.2806 33.533L31.362 28.1874L31.3683 28.1984L31.3744 28.1878L35.026 34.5227H34.2539L33.3314 32.9223C32.9122 32.7898 32.4659 32.7183 32.0029 32.7183C31.7642 32.7183 31.5313 32.735 31.3048 32.7683L31.7495 31.998C31.8335 31.9939 31.9179 31.9919 32.0029 31.9919C32.2857 31.9919 32.5632 32.0148 32.8336 32.0588L31.3681 29.5163L28.6667 34.2027L28.2806 33.533ZM30.3755 33.4517L31.7601 31.0497L31.374 30.3799L28.986 34.5227H29.7581L29.7654 34.51C30.4277 34.1112 31.1876 33.9097 32.0174 33.9097C32.5472 33.9097 33.0552 34.0033 33.5257 34.1749L33.0084 33.2789C32.682 33.2151 32.3501 33.1831 32.0174 33.1833C31.4432 33.1833 30.891 33.2776 30.3755 33.4517Z" fill="url(#paint0_linear_4770_6633)"/>
<defs>
<linearGradient id="paint0_linear_4770_6633" x1="37.9923" y1="38.75" x2="28.0327" y2="26.4485" gradientUnits="userSpaceOnUse">
<stop stop-color="#5A81FF"/>
<stop offset="0.524" stop-color="#E40C5B"/>
<stop offset="1" stop-color="#FF4C3B"/>
</linearGradient>
</defs>
</svg>
