<svg width="48" height="48" viewBox="0 0 48 48" fill="none" xmlns="http://www.w3.org/2000/svg">
<path fill-rule="evenodd" clip-rule="evenodd" d="M26.0132 17.7367C28.2636 17.9476 30.0428 18.6395 30.2405 20.7021C30.2946 21.2781 30.2368 21.7687 30.0885 22.1828C28.071 22.5733 26.2698 23.5702 24.8821 24.9763C24.3187 24.941 23.7741 24.9531 23.3544 24.9624C23.1873 24.9661 23.0401 24.9693 22.9193 24.969V27.8064C22.3292 29.0818 22 30.5026 22 32.0003C22 32.6052 22.0537 33.1976 22.1566 33.7729H21.1236V30.8668H17.6277L17.9572 28.7878C17.9572 28.7878 19.2455 28.8075 19.2224 28.7878C19.3035 28.794 19.3849 28.7838 19.462 28.7577C19.539 28.7317 19.6099 28.6903 19.6705 28.6362C19.7323 28.583 19.7828 28.518 19.819 28.445C19.8552 28.372 19.8764 28.2925 19.8814 28.2111V20.3825C19.8478 20.1518 19.7259 19.9432 19.5416 19.8006C19.3572 19.658 19.1246 19.5926 18.8929 19.6181C18.9127 19.595 17.6277 19.6181 17.6277 19.6181V17.7565H21.1565V14.8965H22.883V17.684H24.2735V14.8965H26.0132V17.7367ZM23.2188 23.2264C24.4123 23.2476 26.9951 23.2935 26.9951 21.4863C26.9951 19.6333 24.4928 19.6984 23.276 19.73C23.1405 19.7336 23.021 19.7367 22.9226 19.7367V23.2227C23.0069 23.2227 23.1067 23.2245 23.2188 23.2264Z" fill="#F09242"/>
<path fill-rule="evenodd" clip-rule="evenodd" d="M13.9977 38.9651C16.9573 40.9432 20.4369 41.9993 23.9967 42C25.5512 42.0003 27.0957 41.7992 28.5923 41.4043C27.8667 41.1414 27.1803 40.7969 26.544 40.3819C24.6384 40.6765 22.6859 40.6381 20.7748 40.2581C17.5582 39.6184 14.6033 38.0395 12.2838 35.7209C9.96427 33.4023 8.38418 30.448 7.74323 27.2316C7.10229 24.0152 7.42926 20.681 8.68282 17.6503C9.93639 14.6197 12.0603 12.0287 14.786 10.2049C17.5118 8.38107 20.7171 7.40624 23.9967 7.40363C26.1765 7.4019 28.3353 7.82986 30.3497 8.66305C32.364 9.49623 34.1943 10.7183 35.736 12.2594C37.2777 13.8004 38.5005 15.6303 39.3344 17.6443C40.1684 19.6582 40.5972 21.8169 40.5964 23.9967C40.596 24.8603 40.5283 25.7188 40.3953 26.5648C40.8043 27.1952 41.1442 27.8746 41.4043 28.5923C41.7992 27.0957 42.0003 25.5512 42 23.9967C41.9993 20.4369 40.9432 16.9573 38.9651 13.9977C36.987 11.0381 34.1757 8.73151 30.8868 7.36955C27.5978 6.00758 23.9789 5.65139 20.4876 6.34603C16.9962 7.04067 13.7892 8.75494 11.2721 11.2721C8.75494 13.7892 7.04067 16.9962 6.34603 20.4876C5.65139 23.9789 6.00758 27.5978 7.36955 30.8868C8.73151 34.1757 11.0381 36.987 13.9977 38.9651Z" fill="#141414"/>
<path fill-rule="evenodd" clip-rule="evenodd" d="M24.0099 9.97443C20.5147 9.97443 17.146 11.2824 14.5667 13.6411L13.5552 12.6526C16.4004 10.0295 20.1285 8.57324 23.9983 8.57324C27.8682 8.57324 31.5963 10.0295 34.4415 12.6526L33.453 13.6411C30.8737 11.2824 27.505 9.97443 24.0099 9.97443ZM34.3657 14.5439L35.3542 13.5554V13.5323C37.9772 16.3775 39.4335 20.1057 39.4335 23.9755C39.4335 24.4033 39.4157 24.8294 39.3805 25.2527C38.9697 24.8036 38.5183 24.392 38.0323 24.0239C38.0323 24.0116 38.0323 23.9993 38.0323 23.987C38.0323 20.4919 36.7243 17.1232 34.3657 14.5439ZM24.0137 38.0194C24.008 38.0194 24.0023 38.0194 23.9967 38.0194C20.5015 38.0194 17.1329 36.7114 14.5535 34.3528L13.565 35.3412C16.4102 37.9643 20.1384 39.4206 24.0082 39.4206C24.4214 39.4206 24.8329 39.404 25.242 39.3711C24.7928 38.9591 24.3815 38.5066 24.0137 38.0194ZM13.6408 33.4401C11.285 30.8613 9.97871 27.4947 9.97871 24.0019C9.97871 20.509 11.285 17.1424 13.6408 14.5636L12.6524 13.5752C10.0293 16.4204 8.573 20.1485 8.573 24.0183C8.573 27.8882 10.0293 31.6163 12.6524 34.4615L13.6408 33.4401Z" fill="#5A5564"/>
<path fill-rule="evenodd" clip-rule="evenodd" d="M32 23.1111C27.0908 23.1111 23.1111 27.0908 23.1111 32C23.1111 36.9092 27.0908 40.8889 32 40.8889C36.9092 40.8889 40.8889 36.9092 40.8889 32C40.8889 27.0908 36.9092 23.1111 32 23.1111ZM22 32C22 26.4772 26.4772 22 32 22C37.5228 22 42 26.4772 42 32C42 37.5228 37.5228 42 32 42C26.4772 42 22 37.5228 22 32Z" fill="#141414"/>
<path d="M32.9907 26C30.5563 26 28.5375 27.9412 28.5375 30.4118V30.5882H28.775H37.2063H37.4438V30.4118C37.4438 28 35.425 26 32.9907 26Z" fill="#53CBC8"/>
<path d="M27.5875 31.5587C27.5875 31.4125 27.7071 31.2939 27.8547 31.2939H38.2453C38.3928 31.2939 38.5125 31.4125 38.5125 31.5587C38.5125 31.7048 38.3928 31.8234 38.2453 31.8234H27.8547C27.7071 31.8234 27.5875 31.7048 27.5875 31.5587Z" fill="#E1147B"/>
<path d="M25.4501 32.794C25.4501 32.6478 25.5785 32.5293 25.6876 32.5293H33.2757C33.3847 32.5293 33.5251 32.6478 33.5251 32.794C33.5251 32.9402 33.3847 33.0587 33.2757 33.0587H25.6876C25.5785 33.0587 25.4501 32.9402 25.4501 32.794Z" fill="#E1147B"/>
<ellipse cx="26.9046" cy="31.5587" rx="0.267187" ry="0.264706" fill="#E1147B"/>
<ellipse cx="24.7672" cy="32.794" rx="0.267187" ry="0.264705" fill="#E1147B"/>
<path d="M27.5281 34.0294C27.5281 33.8832 27.634 33.7646 27.7648 33.7646H36.9695C37.1002 33.7646 37.2062 33.8832 37.2062 34.0294C37.2062 34.1755 37.1002 34.2941 36.9695 34.2941H27.7648C27.634 34.2941 27.5281 34.1755 27.5281 34.0294Z" fill="#E1147B"/>
<path d="M30.7344 35.2648C30.7344 35.1186 30.8403 35.0001 30.9711 35.0001L38.5133 35C38.644 35 38.75 35.1185 38.75 35.2647C38.75 35.4109 38.644 35.5294 38.5133 35.5294L30.9711 35.5295C30.8403 35.5295 30.7344 35.411 30.7344 35.2648Z" fill="#E1147B"/>
<ellipse cx="26.8453" cy="34.0294" rx="0.267187" ry="0.264704" fill="#E1147B"/>
<ellipse cx="25.3016" cy="35.2647" rx="0.267188" ry="0.264706" fill="#E1147B"/>
<path d="M25.9844 35.2647C25.9844 35.1185 26.1041 35 26.2516 35H29.8735C30.0211 35 30.1407 35.1185 30.1407 35.2647C30.1407 35.4109 30.0211 35.5294 29.8735 35.5294H26.2516C26.1041 35.5294 25.9844 35.4109 25.9844 35.2647Z" fill="#E1147B"/>
<ellipse cx="31.4766" cy="36.5001" rx="0.267188" ry="0.264706" fill="#E1147B"/>
<path d="M32.1594 36.5001C32.1594 36.3539 32.2811 36.2354 32.4313 36.2354H37.0829C37.233 36.2354 37.3547 36.3539 37.3547 36.5001C37.3547 36.6463 37.233 36.7648 37.0829 36.7648H32.4313C32.2811 36.7648 32.1594 36.6463 32.1594 36.5001Z" fill="#E1147B"/>
<ellipse cx="28.6265" cy="37.7354" rx="0.267187" ry="0.264706" fill="#E1147B"/>
<path d="M29.3093 37.7354C29.3093 37.5892 29.431 37.4707 29.5812 37.4707H34.2328C34.3829 37.4707 34.5046 37.5892 34.5046 37.7354C34.5046 37.8816 34.3829 38.0001 34.2328 38.0001H29.5812C29.431 38.0001 29.3093 37.8816 29.3093 37.7354Z" fill="#E1147B"/>
</svg>
