<svg width="48" height="48" viewBox="0 0 48 48" fill="none" xmlns="http://www.w3.org/2000/svg">
<path d="M14.0377 35.4441C21.9622 39.3436 31.5282 36.1223 35.4338 28.2102C39.3394 20.2982 36.113 10.7472 28.1886 6.84772C27.5093 6.50863 26.7735 6.22606 26.0376 6C28.0187 6.22606 29.9999 6.7912 31.9244 7.75195C40.8677 12.1601 44.5469 23.0109 40.1319 31.9402C35.7168 40.8695 24.8489 44.5429 15.9056 40.1348C10.2453 37.3656 6.73584 31.9967 6 26.2322C7.30188 30.0752 10.0754 33.4661 14.0377 35.4441Z" fill="url(#paint0_radial_4214_10653)"/>
<path d="M35.3771 22.8418C34.4714 22.8418 33.1129 22.9548 31.528 23.3504C31.4714 23.3504 31.4148 23.4069 31.3016 23.4069C31.245 23.4069 31.1884 23.4635 31.0752 23.4635C30.2828 23.6895 29.5469 23.9721 28.8677 24.3677C28.1884 24.7068 27.5658 25.1024 26.9998 25.498C26.9432 25.5545 26.8866 25.611 26.7734 25.6675C26.7167 25.724 26.6035 25.7806 26.5469 25.8371C24.7356 27.363 23.3205 29.3975 22.4715 31.9972C22.3583 32.3362 22.2451 32.6753 22.1319 33.0709C21.9055 33.9187 21.7356 34.7664 21.6224 35.6706H21.679C25.1885 35.5576 28.5281 34.1447 31.1318 31.7711C33.679 29.3975 35.2639 26.2892 35.7167 22.8418C35.6601 22.8418 35.4903 22.8418 35.3771 22.8418Z" fill="#0081E4"/>
<path d="M19.9243 31.9405C19.0753 29.3974 17.7168 27.3063 15.8489 25.7804C15.7923 25.7239 15.6791 25.6674 15.6225 25.6109C15.5659 25.5544 15.4527 25.4979 15.3961 25.4413C14.83 24.9892 14.2074 24.6501 13.5281 24.311C12.8489 23.972 12.1131 23.6894 11.3206 23.4068C11.264 23.4068 11.2074 23.3503 11.0942 23.3503C11.0376 23.3503 10.981 23.2938 10.8678 23.2938C9.28288 22.8982 7.9244 22.7852 7.01874 22.7852C6.84893 22.7852 6.73573 22.7852 6.56592 22.7852C7.01875 26.2325 8.66024 29.3974 11.2074 31.771C13.8112 34.1446 17.1508 35.5009 20.6602 35.614C20.547 34.7097 20.3772 33.8055 20.1507 33.0143C20.0941 32.6752 20.0375 32.3361 19.9243 31.9405Z" fill="#EFC705"/>
<path d="M23.7168 28.0978C24.5093 26.911 25.4149 25.8938 26.4904 25.0461C26.547 24.9895 26.6602 24.933 26.7168 24.8765C26.7734 24.82 26.83 24.7635 26.9432 24.707C27.4526 24.3114 28.0187 23.9723 28.6413 23.6897C29.3771 23.2941 30.1696 23.0115 31.0187 22.729C31.3017 19.112 30.5092 16.0602 30.1696 15.043C29.547 15.3255 27.7923 16.2298 25.9809 17.8122C25.9243 17.8687 25.8677 17.9252 25.8111 17.9252C25.7545 17.9817 25.6979 18.0382 25.6413 18.0948C25.0753 18.6034 24.5659 19.1685 24.0564 19.7337C22.981 21.0335 22.0753 22.5029 21.5093 24.0288C21.4527 24.1418 21.4527 24.1983 21.3961 24.3114C21.3395 24.4244 21.3395 24.5374 21.2829 24.6504C20.547 26.8545 20.264 29.2846 20.4904 31.8843C20.7734 32.732 20.9998 33.6363 21.1697 34.597C21.3395 33.6363 21.5659 32.732 21.8489 31.8843C21.9055 31.6583 22.0187 31.3757 22.1319 31.1496C22.1885 30.9801 22.3017 30.754 22.3583 30.5845C22.7546 29.6802 23.2074 28.889 23.7168 28.0978Z" fill="#52C9C6"/>
<path d="M13.811 23.7462C14.377 24.0288 14.9431 24.3679 15.5091 24.7635C15.5657 24.82 15.6223 24.8765 15.7355 24.933C15.8487 24.9895 15.9053 25.0461 15.9619 25.1026C17.0374 25.9503 17.9997 26.9675 18.7355 28.1544C19.1317 28.776 19.4714 29.3977 19.811 30.0758C19.811 28.776 19.9242 27.5327 20.2072 26.3459C20.377 25.5547 20.6034 24.7635 20.8864 24.0288C20.2638 22.5029 19.4147 21.0335 18.3393 19.7337C17.8865 19.1685 17.3204 18.6034 16.7544 18.0948C16.6978 18.0382 16.6412 17.9817 16.5846 17.9252C16.528 17.8687 16.4714 17.8122 16.4148 17.8122C14.6035 16.2298 12.9054 15.3821 12.2261 15.043C11.9431 16.0602 11.1506 19.1685 11.3771 22.729C12.2827 23.068 13.0752 23.4071 13.811 23.7462Z" fill="#ADD004"/>
<path d="M18.7921 19.3378C19.811 20.5246 20.6034 21.8244 21.2261 23.1808C21.8487 21.8244 22.6412 20.5246 23.66 19.3378C24.1695 18.7161 24.7355 18.151 25.3015 17.6424C23.943 14.195 21.9619 11.7648 21.2261 10.9736C20.4902 11.7648 18.4525 14.195 17.1506 17.6424C17.7167 18.151 18.2827 18.7161 18.7921 19.3378Z" fill="#5CCC4E"/>
<defs>
<radialGradient id="paint0_radial_4214_10653" cx="0" cy="0" r="1" gradientUnits="userSpaceOnUse" gradientTransform="translate(24.0384 24.3197) rotate(-11.7527) scale(17.8641 17.8384)">
<stop offset="0.8364" stop-color="#FFF1B2"/>
<stop offset="0.9774" stop-color="#FFCF60"/>
</radialGradient>
</defs>
</svg>
