<svg width="48" height="48" viewBox="0 0 48 48" fill="none" xmlns="http://www.w3.org/2000/svg">
<path fill-rule="evenodd" clip-rule="evenodd" d="M33.6763 22.1399L23.9965 6L23.7563 6.82032V26.3378C25.5593 23.7178 28.5791 22 32 22C32.5712 22 33.1312 22.0479 33.6763 22.1399Z" fill="#343434"/>
<path fill-rule="evenodd" clip-rule="evenodd" d="M22.238 29.8213C22.5505 28.4147 23.1593 27.1196 23.9955 26.005V6L13 24.3338L22.238 29.8213Z" fill="#8C8C8C"/>
<path fill-rule="evenodd" clip-rule="evenodd" d="M23.8605 37.8105L23.8604 41.603L23.9958 42.0002L25.6204 39.7009C24.9558 39.1497 24.3637 38.5141 23.8605 37.8105Z" fill="#3C3C3B"/>
<path fill-rule="evenodd" clip-rule="evenodd" d="M22.0025 31.7745L13 26.4297L23.9955 42.0003V37.995C22.7424 36.3246 22 34.249 22 32C22 31.9246 22.0008 31.8494 22.0025 31.7745Z" fill="#8C8C8C"/>
<path fill-rule="evenodd" clip-rule="evenodd" d="M23.9948 26.0059V19.3105L30.2262 22.1568C27.688 22.6112 25.4818 24.0233 23.9948 26.0059Z" fill="#141414"/>
<path fill-rule="evenodd" clip-rule="evenodd" d="M13 24.3337L23.9953 19.3115V26.0052C23.1593 27.1198 22.5506 28.4147 22.238 29.8212L13 24.3337Z" fill="#393939"/>
<path fill-rule="evenodd" clip-rule="evenodd" d="M32 23.1111C27.0908 23.1111 23.1111 27.0908 23.1111 32C23.1111 36.9092 27.0908 40.8889 32 40.8889C36.9092 40.8889 40.8889 36.9092 40.8889 32C40.8889 27.0908 36.9092 23.1111 32 23.1111ZM22 32C22 26.4772 26.4771 22 32 22C37.5228 22 42 26.4772 42 32C42 37.5228 37.5228 42 32 42C26.4771 42 22 37.5228 22 32Z" fill="#141414"/>
<path fill-rule="evenodd" clip-rule="evenodd" d="M28.5375 30.4118C28.5375 27.9412 30.5563 26 32.9906 26C35.425 26 37.4437 28 37.4437 30.4118V30.5882H37.2063H28.775H28.5375V30.4118ZM27.8546 31.2941C27.707 31.2941 27.5874 31.4126 27.5874 31.5588C27.5874 31.705 27.707 31.8235 27.8546 31.8235H38.2452C38.3928 31.8235 38.5124 31.705 38.5124 31.5588C38.5124 31.4126 38.3928 31.2941 38.2452 31.2941H27.8546ZM25.45 32.7941C25.45 32.6479 25.5785 32.5294 25.6875 32.5294H33.2757C33.3847 32.5294 33.525 32.6479 33.525 32.7941C33.525 32.9403 33.3847 33.0588 33.2757 33.0588H25.6875C25.5785 33.0588 25.45 32.9403 25.45 32.7941ZM26.9046 31.8235C27.0522 31.8235 27.1718 31.705 27.1718 31.5588C27.1718 31.4126 27.0522 31.2941 26.9046 31.2941C26.7571 31.2941 26.6374 31.4126 26.6374 31.5588C26.6374 31.705 26.7571 31.8235 26.9046 31.8235ZM25.0343 32.7941C25.0343 32.9403 24.9147 33.0589 24.7672 33.0589C24.6196 33.0589 24.5 32.9403 24.5 32.7941C24.5 32.648 24.6196 32.5294 24.7672 32.5294C24.9147 32.5294 25.0343 32.648 25.0343 32.7941ZM27.7647 33.7646C27.634 33.7646 27.528 33.8831 27.528 34.0293C27.528 34.1755 27.634 34.294 27.7647 34.294H36.9695C37.1002 34.294 37.2062 34.1755 37.2062 34.0293C37.2062 33.8831 37.1002 33.7646 36.9695 33.7646H27.7647ZM30.7343 35.2649C30.7343 35.1188 30.8403 35.0002 30.971 35.0002L38.5133 35.0002C38.644 35.0002 38.75 35.1187 38.75 35.2649C38.75 35.4111 38.644 35.5296 38.5133 35.5296L30.971 35.5297C30.8403 35.5297 30.7343 35.4111 30.7343 35.2649ZM26.8453 34.294C26.9928 34.294 27.1124 34.1755 27.1124 34.0293C27.1124 33.8831 26.9928 33.7646 26.8453 33.7646C26.6977 33.7646 26.5781 33.8831 26.5781 34.0293C26.5781 34.1755 26.6977 34.294 26.8453 34.294ZM25.5688 35.2649C25.5688 35.4111 25.4491 35.5296 25.3016 35.5296C25.154 35.5296 25.0344 35.4111 25.0344 35.2649C25.0344 35.1187 25.154 35.0002 25.3016 35.0002C25.4491 35.0002 25.5688 35.1187 25.5688 35.2649ZM26.2516 35.0002C26.104 35.0002 25.9844 35.1187 25.9844 35.2649C25.9844 35.4111 26.104 35.5296 26.2516 35.5296H29.8734C30.021 35.5296 30.1406 35.4111 30.1406 35.2649C30.1406 35.1187 30.021 35.0002 29.8734 35.0002H26.2516ZM31.7438 36.4999C31.7438 36.6461 31.6241 36.7646 31.4766 36.7646C31.329 36.7646 31.2094 36.6461 31.2094 36.4999C31.2094 36.3537 31.329 36.2352 31.4766 36.2352C31.6241 36.2352 31.7438 36.3537 31.7438 36.4999ZM32.4313 36.2352C32.2811 36.2352 32.1594 36.3537 32.1594 36.4999C32.1594 36.6461 32.2811 36.7646 32.4313 36.7646H37.0829C37.233 36.7646 37.3547 36.6461 37.3547 36.4999C37.3547 36.3537 37.233 36.2352 37.0829 36.2352H32.4313ZM28.8937 37.7353C28.8937 37.8815 28.7741 38.0001 28.6265 38.0001C28.479 38.0001 28.3593 37.8815 28.3593 37.7353C28.3593 37.5892 28.479 37.4706 28.6265 37.4706C28.7741 37.4706 28.8937 37.5892 28.8937 37.7353ZM29.5812 37.4706C29.431 37.4706 29.3093 37.5892 29.3093 37.7353C29.3093 37.8815 29.431 38.0001 29.5812 38.0001H34.2328C34.3829 38.0001 34.5046 37.8815 34.5046 37.7353C34.5046 37.5892 34.3829 37.4706 34.2328 37.4706H29.5812Z" fill="black"/>
</svg>
