<svg width="48" height="48" viewBox="0 0 48 48" fill="none" xmlns="http://www.w3.org/2000/svg">
<path d="M24 6C14.0604 6 6 14.0604 6 24C6 33.9396 14.0604 42 24 42C33.9396 42 42 33.9396 42 24C42 14.0604 33.9432 6 24 6ZM14.8812 24.6048L14.9568 24.4824L19.6404 17.1564C19.7088 17.052 19.8708 17.0628 19.9212 17.178C20.7024 18.9312 21.3792 21.1128 21.0624 22.47C20.9292 23.028 20.5584 23.784 20.1408 24.4824C20.0868 24.5832 20.0292 24.684 19.9644 24.7812C19.9356 24.8244 19.8852 24.8496 19.8312 24.8496H15.018C14.8884 24.8496 14.8128 24.7092 14.8812 24.6048ZM35.7504 27.1248C35.7504 27.1932 35.7108 27.2508 35.6532 27.276C35.2896 27.4308 34.0476 28.0032 33.5328 28.7196C32.2152 30.552 31.2108 33.1728 28.9608 33.1728H19.5792C16.2528 33.1728 13.56 30.4692 13.56 27.132V27.024C13.56 26.9376 13.632 26.8656 13.722 26.8656H18.9492C19.0536 26.8656 19.1292 26.9592 19.122 27.0636C19.0824 27.402 19.1472 27.7512 19.3092 28.068C19.6188 28.698 20.2632 29.0904 20.958 29.0904H23.5464V27.0708H20.9868C20.8572 27.0708 20.778 26.9196 20.8536 26.8116C20.8824 26.7684 20.9112 26.7252 20.9472 26.6748C21.1884 26.3292 21.534 25.7964 21.8796 25.188C22.1136 24.7776 22.3404 24.3384 22.524 23.8992C22.56 23.82 22.5888 23.7372 22.6212 23.658C22.6716 23.5176 22.722 23.3844 22.758 23.2548C22.794 23.1432 22.8264 23.028 22.8552 22.92C22.9416 22.5456 22.9776 22.1496 22.9776 21.7392C22.9776 21.5772 22.9704 21.408 22.956 21.2496C22.9488 21.0732 22.9272 20.8968 22.9056 20.7204C22.8912 20.5656 22.8624 20.4108 22.8336 20.2524C22.794 20.0184 22.7436 19.7844 22.686 19.5504L22.6644 19.4604C22.6212 19.2984 22.5816 19.1472 22.5312 18.9852C22.3836 18.4812 22.218 17.988 22.038 17.5272C21.9732 17.3436 21.9012 17.1672 21.8256 16.9944C21.7176 16.728 21.606 16.4868 21.5052 16.26C21.4512 16.1556 21.408 16.062 21.3648 15.9648C21.3144 15.8568 21.264 15.7488 21.21 15.6444C21.174 15.5652 21.1308 15.4896 21.102 15.4176L20.7852 14.8344C20.742 14.7552 20.814 14.658 20.9004 14.6832L22.8804 15.2196H22.8876C22.8912 15.2196 22.8912 15.2196 22.8948 15.2196L23.154 15.2952L23.442 15.3744L23.5464 15.4032V14.2296C23.5464 13.6608 24 13.2 24.5652 13.2C24.846 13.2 25.1016 13.3152 25.2816 13.5024C25.4652 13.6896 25.5804 13.9452 25.5804 14.2296V15.9756L25.7928 16.0332C25.8072 16.0404 25.8252 16.0476 25.8396 16.0584C25.89 16.0944 25.9656 16.152 26.0592 16.224C26.1348 16.2816 26.214 16.3536 26.3076 16.4292C26.4984 16.584 26.7288 16.782 26.9772 17.0088C27.042 17.0664 27.1068 17.124 27.168 17.1852C27.4884 17.484 27.8484 17.8332 28.194 18.222C28.2912 18.3336 28.3848 18.4416 28.482 18.5604C28.5756 18.6792 28.68 18.7944 28.7664 18.9096C28.8852 19.0644 29.0076 19.2264 29.1192 19.3956C29.1696 19.4748 29.2308 19.5576 29.2776 19.6368C29.4216 19.8492 29.544 20.0688 29.6628 20.2884C29.7132 20.3892 29.7636 20.5008 29.8068 20.6088C29.94 20.904 30.0444 21.2028 30.1092 21.5052C30.1308 21.57 30.1452 21.6384 30.1524 21.7032V21.7176C30.174 21.804 30.1812 21.8976 30.1884 21.9948C30.2172 22.3008 30.2028 22.6104 30.138 22.92C30.1092 23.0496 30.0732 23.172 30.03 23.3052C29.9832 23.4312 29.94 23.5608 29.8824 23.6868C29.7708 23.9424 29.6412 24.2016 29.4864 24.4392C29.436 24.5292 29.3748 24.6228 29.3172 24.7128C29.2524 24.8064 29.184 24.8964 29.1264 24.9828C29.0436 25.0944 28.9572 25.2096 28.8672 25.314C28.788 25.422 28.7088 25.53 28.6188 25.6272C28.4964 25.7748 28.3776 25.9116 28.2516 26.0448C28.1796 26.1312 28.1004 26.2212 28.0176 26.3004C27.9384 26.3904 27.8556 26.4696 27.7836 26.5416C27.6576 26.6676 27.5568 26.7612 27.4704 26.844L27.2652 27.0276C27.2364 27.0564 27.1968 27.0708 27.1572 27.0708H25.5804V29.0904H27.564C28.0068 29.0904 28.428 28.9356 28.77 28.644C28.8852 28.5432 29.3928 28.104 29.994 27.4416C30.0156 27.4164 30.0408 27.402 30.0696 27.3948L35.5452 25.8108C35.6496 25.782 35.7504 25.8576 35.7504 25.9656V27.1248Z" fill="white"/>
</svg>
