<svg width="48" height="48" viewBox="0 0 48 48" fill="none" xmlns="http://www.w3.org/2000/svg">
<path fill-rule="evenodd" clip-rule="evenodd" d="M24 36C30.6274 36 36 30.6274 36 24C36 17.3726 30.6274 12 24 12C17.3726 12 12 17.3726 12 24C12 30.6274 17.3726 36 24 36ZM27.0993 23.5827C26.4678 24.3742 25.8353 25.2574 25.8353 26.27V29.5412C25.8353 30.5353 25.0294 31.3412 24.0353 31.3412C23.0412 31.3412 22.2353 30.5353 22.2353 29.5412V26.27C22.2353 25.2574 21.6028 24.3742 20.9713 23.5827C20.437 22.9131 20.1177 22.0644 20.1177 21.1412C20.1177 18.9775 21.8716 17.2235 24.0353 17.2235C26.199 17.2235 27.9529 18.9775 27.9529 21.1412C27.9529 22.0644 27.6336 22.9131 27.0993 23.5827Z" fill="white"/>
</svg>
