<svg width="48" height="48" viewBox="0 0 48 48" fill="none" xmlns="http://www.w3.org/2000/svg">
<path d="M5.99994 12C5.99994 8.68629 8.68623 6 11.9999 6H35.9999C39.3136 6 41.9999 8.68629 41.9999 12V36C41.9999 39.3137 39.3136 42 35.9999 42H11.9999C8.68623 42 5.99994 39.3137 5.99994 36V12Z" fill="url(#paint0_linear_2655_5757)"/>
<path fill-rule="evenodd" clip-rule="evenodd" d="M29.5314 16.5953C30.0727 17.8125 30.4109 19.1649 30.4109 20.5511V20.6863L35.0118 16.5953V11.7268L29.5314 16.5953ZM28.956 20.5846C28.956 15.716 24.5919 11.7603 19.2468 11.7603V15.4118C22.5283 15.4118 25.2008 17.6432 25.3023 20.4156L22.8327 22.6131C23.4755 23.7627 23.9153 25.0474 24.0844 26.3998L26.2834 24.4389C27.8395 27.4141 31.1887 29.4427 35.0454 29.4427V25.7913C31.6623 25.7574 28.956 23.4246 28.956 20.5846ZM28.7193 32.5531V36.2044C24.4905 36.2044 20.9045 33.7364 19.5852 30.3892L12.9545 36.2721V31.4034L14.9166 29.6792L17.5554 27.3126L18.8409 26.1631C18.1981 23.8978 15.7962 22.2073 12.9545 22.2073V18.5559C18.2996 18.5559 22.6637 22.5116 22.6637 27.3801C22.6637 30.2201 25.3701 32.5531 28.7193 32.5531Z" fill="white"/>
<defs>
<linearGradient id="paint0_linear_2655_5757" x1="5.99994" y1="24" x2="41.9999" y2="24" gradientUnits="userSpaceOnUse">
<stop stop-color="#35519D"/>
<stop offset="1" stop-color="#3EA9AA"/>
</linearGradient>
</defs>
</svg>
