<svg width="48" height="48" viewBox="0 0 48 48" fill="none" xmlns="http://www.w3.org/2000/svg">
<g clip-path="url(#clip0_1320_2553)">
<path d="M0 12C0 5.37258 5.37258 0 12 0H36C42.6274 0 48 5.37258 48 12V36C48 42.6274 42.6274 48 36 48H12C5.37258 48 0 42.6274 0 36V12Z" fill="url(#paint0_linear_1320_2553)"/>
<path fill-rule="evenodd" clip-rule="evenodd" d="M40 38.9685H24.9183L17.4959 31.5201L25.0002 24.0015L40 38.9685Z" fill="white"/>
<path fill-rule="evenodd" clip-rule="evenodd" d="M39.9692 9L25.0001 24.0018L17.4794 16.4954L25.0001 9H39.9692Z" fill="white"/>
<path fill-rule="evenodd" clip-rule="evenodd" d="M17.4967 31.5205L10.0333 39.0002V24.0332L17.4967 31.5205Z" fill="white"/>
<path fill-rule="evenodd" clip-rule="evenodd" d="M17.4797 16.4956L10.0334 23.9194V24.0327L10 23.9999V9.03223L17.4797 16.4956Z" fill="white"/>
</g>
<defs>
<linearGradient id="paint0_linear_1320_2553" x1="48" y1="48" x2="-2.71797e-05" y2="2.71797e-05" gradientUnits="userSpaceOnUse">
<stop stop-color="#A91056"/>
<stop offset="1" stop-color="#F34594"/>
</linearGradient>
<clipPath id="clip0_1320_2553">
<rect width="48" height="48" fill="white"/>
</clipPath>
</defs>
</svg>
