<svg width="48" height="48" viewBox="0 0 48 48" fill="none" xmlns="http://www.w3.org/2000/svg">
<g clip-path="url(#clip0_1300_1353)">
<path d="M0 12C0 5.37258 5.37258 0 12 0H36C42.6274 0 48 5.37258 48 12V36C48 42.6274 42.6274 48 36 48H12C5.37258 48 0 42.6274 0 36V12Z" fill="url(#paint0_linear_1300_1353)"/>
<g filter="url(#filter0_d_1300_1353)">
<path d="M40.4695 28.541L36.5173 26.3336L27.7154 31.5073C27.1283 31.8436 26.485 32.0183 25.8334 32.0183C25.1819 32.0183 24.5387 31.8436 23.9514 31.5073L12.3701 25.1608L8.36 27.5063C7.94877 27.7709 7.60525 28.163 7.36583 28.6412C7.12641 29.1194 7 29.6658 7 30.2225C7 30.7793 7.12641 31.3257 7.36583 31.8039C7.60525 32.2821 7.94877 32.6741 8.36 32.9387L23.8791 41.4754C24.4641 41.8205 25.1082 42 25.7611 42C26.4139 42 27.058 41.8205 27.6431 41.4754L40.3971 33.939C40.805 33.6794 41.1471 33.2948 41.388 32.8246C41.6289 32.3545 41.7599 31.8161 41.7672 31.2654C41.7746 30.7147 41.6581 30.1717 41.4299 29.6926C41.2018 29.2135 40.8702 28.8159 40.4695 28.541Z" fill="white"/>
<path d="M21.4265 6.51101C22.0141 6.17466 22.6577 6 23.3096 6C23.9616 6 24.6053 6.17466 25.1928 6.51101L40.4896 15.1339C40.8975 15.3999 41.2378 15.7915 41.4749 16.2679C41.712 16.7443 41.837 17.2878 41.837 17.8415C41.837 18.3952 41.712 18.9387 41.4749 19.415C41.2378 19.8914 40.8975 20.2831 40.4896 20.5491L27.7278 28.0855C27.1423 28.4306 26.4979 28.6101 25.8446 28.6101C25.1914 28.6101 24.547 28.4306 23.9615 28.0855L8.43295 19.4626C8.02103 19.2006 7.67661 18.8103 7.43647 18.3334C7.19633 17.8566 7.06949 17.311 7.06949 16.755C7.06949 16.199 7.19633 15.6534 7.43647 15.1766C7.67661 14.6997 8.02103 14.3094 8.43295 14.0474L21.4265 6.51101Z" fill="white"/>
</g>
<path d="M0 28H8C14.6274 28 20 33.3726 20 40V48H12C5.37258 48 0 42.6274 0 36V28Z" fill="#D43079"/>
<g filter="url(#filter1_d_1300_1353)">
<path d="M9.99889 34.5169C11.1934 34.5169 12.1617 33.9535 12.1617 33.2585C12.1617 32.5634 11.1934 32 9.99889 32C8.80439 32 7.83606 32.5634 7.83606 33.2585C7.83606 33.9535 8.80439 34.5169 9.99889 34.5169Z" fill="white"/>
<path d="M9.99889 43.9991C11.1934 43.9991 12.1617 43.4357 12.1617 42.7407C12.1617 42.0457 11.1934 41.4822 9.99889 41.4822C8.80439 41.4822 7.83606 42.0457 7.83606 42.7407C7.83606 43.4357 8.80439 43.9991 9.99889 43.9991Z" fill="white"/>
<path d="M6.98482 36.2589C7.58207 35.224 7.5782 34.1032 6.97617 33.7554C6.37413 33.4077 5.40192 33.9647 4.80467 34.9996C4.20742 36.0345 4.21129 37.1554 4.81333 37.5031C5.41536 37.8509 6.38757 37.2938 6.98482 36.2589Z" fill="white"/>
<path d="M15.1921 40.9995C15.7894 39.9646 15.7858 38.8439 15.1842 38.4964C14.5826 38.1489 13.6107 38.7061 13.0135 39.741C12.4162 40.7759 12.4198 41.8966 13.0214 42.2441C13.623 42.5916 14.5949 42.0344 15.1921 40.9995Z" fill="white"/>
<path d="M6.97647 42.2438C7.5785 41.896 7.58238 40.7752 6.98513 39.7403C6.38788 38.7054 5.41566 38.1484 4.81363 38.4961C4.2116 38.8438 4.20772 39.9647 4.80497 40.9996C5.40222 42.0345 6.37444 42.5915 6.97647 42.2438Z" fill="white"/>
<path d="M15.1847 37.5034C15.7864 37.1559 15.7899 36.0352 15.1927 35.0003C14.5954 33.9654 13.6235 33.4082 13.0219 33.7557C12.4203 34.1032 12.4167 35.2239 13.014 36.2588C13.6112 37.2937 14.5831 37.8509 15.1847 37.5034Z" fill="white"/>
</g>
</g>
<defs>
<filter id="filter0_d_1300_1353" x="-4" y="0" width="56" height="56" filterUnits="userSpaceOnUse" color-interpolation-filters="sRGB">
<feFlood flood-opacity="0" result="BackgroundImageFix"/>
<feColorMatrix in="SourceAlpha" type="matrix" values="0 0 0 0 0 0 0 0 0 0 0 0 0 0 0 0 0 0 127 0" result="hardAlpha"/>
<feOffset dy="4"/>
<feGaussianBlur stdDeviation="2"/>
<feComposite in2="hardAlpha" operator="out"/>
<feColorMatrix type="matrix" values="0 0 0 0 0 0 0 0 0 0 0 0 0 0 0 0 0 0 0.25 0"/>
<feBlend mode="normal" in2="BackgroundImageFix" result="effect1_dropShadow_1300_1353"/>
<feBlend mode="normal" in="SourceGraphic" in2="effect1_dropShadow_1300_1353" result="shape"/>
</filter>
<filter id="filter1_d_1300_1353" x="-2" y="30" width="24" height="24" filterUnits="userSpaceOnUse" color-interpolation-filters="sRGB">
<feFlood flood-opacity="0" result="BackgroundImageFix"/>
<feColorMatrix in="SourceAlpha" type="matrix" values="0 0 0 0 0 0 0 0 0 0 0 0 0 0 0 0 0 0 127 0" result="hardAlpha"/>
<feOffset dy="4"/>
<feGaussianBlur stdDeviation="2"/>
<feComposite in2="hardAlpha" operator="out"/>
<feColorMatrix type="matrix" values="0 0 0 0 0 0 0 0 0 0 0 0 0 0 0 0 0 0 0.25 0"/>
<feBlend mode="normal" in2="BackgroundImageFix" result="effect1_dropShadow_1300_1353"/>
<feBlend mode="normal" in="SourceGraphic" in2="effect1_dropShadow_1300_1353" result="shape"/>
</filter>
<linearGradient id="paint0_linear_1300_1353" x1="48" y1="48" x2="4.29153e-06" y2="-4.29153e-06" gradientUnits="userSpaceOnUse">
<stop offset="0.0873541" stop-color="#5314F1"/>
<stop offset="0.746756" stop-color="#04E2FF"/>
</linearGradient>
<clipPath id="clip0_1300_1353">
<rect width="48" height="48" fill="white"/>
</clipPath>
</defs>
</svg>
