<svg width="48" height="48" viewBox="0 0 48 48" fill="none" xmlns="http://www.w3.org/2000/svg">
<g clip-path="url(#clip0_1403_3629)">
<path d="M0 12C0 5.37258 5.37258 0 12 0H36C42.6274 0 48 5.37258 48 12V36C48 42.6274 42.6274 48 36 48H12C5.37258 48 0 42.6274 0 36V12Z" fill="url(#paint0_linear_1403_3629)"/>
<path d="M40.0001 35.6797V31.2821L32.5633 23.6862H28.0841L40.0001 35.6797Z" fill="white"/>
<path d="M8.00008 12.6892V17.0775L15.4368 24.6733H19.916L8.00008 12.6892Z" fill="white"/>
<path d="M11.905 7.99976H16.2525L23.7525 15.5223L31.1919 7.99976H35.7277L23.7525 20.0532L11.905 7.99976Z" fill="white"/>
<path d="M12.636 39.9998H16.9834L24.4834 32.4772L31.9228 39.9998H36.4586L24.4834 27.9463L12.636 39.9998Z" fill="white"/>
<path d="M24.0526 26.7469C25.144 26.7469 26.0288 25.8519 26.0288 24.7479C26.0288 23.644 25.144 22.749 24.0526 22.749C22.9613 22.749 22.0765 23.644 22.0765 24.7479C22.0765 25.8519 22.9613 26.7469 24.0526 26.7469Z" fill="white"/>
<path d="M0 28H8C14.6274 28 20 33.3726 20 40V48H12C5.37258 48 0 42.6274 0 36V28Z" fill="#D43079"/>
<g filter="url(#filter0_d_1403_3629)">
<path d="M9.99889 34.5169C11.1934 34.5169 12.1617 33.9535 12.1617 33.2585C12.1617 32.5634 11.1934 32 9.99889 32C8.80439 32 7.83606 32.5634 7.83606 33.2585C7.83606 33.9535 8.80439 34.5169 9.99889 34.5169Z" fill="white"/>
<path d="M9.99889 43.9991C11.1934 43.9991 12.1617 43.4357 12.1617 42.7407C12.1617 42.0457 11.1934 41.4822 9.99889 41.4822C8.80439 41.4822 7.83606 42.0457 7.83606 42.7407C7.83606 43.4357 8.80439 43.9991 9.99889 43.9991Z" fill="white"/>
<path d="M6.98482 36.2589C7.58207 35.224 7.5782 34.1032 6.97617 33.7554C6.37413 33.4077 5.40192 33.9647 4.80467 34.9996C4.20742 36.0345 4.21129 37.1554 4.81333 37.5031C5.41536 37.8509 6.38757 37.2938 6.98482 36.2589Z" fill="white"/>
<path d="M15.1921 40.9995C15.7894 39.9646 15.7858 38.8439 15.1842 38.4964C14.5826 38.1489 13.6107 38.7061 13.0135 39.741C12.4162 40.7759 12.4198 41.8966 13.0214 42.2441C13.623 42.5916 14.5949 42.0344 15.1921 40.9995Z" fill="white"/>
<path d="M6.97647 42.2438C7.5785 41.896 7.58238 40.7752 6.98513 39.7403C6.38788 38.7054 5.41566 38.1484 4.81363 38.4961C4.2116 38.8438 4.20772 39.9647 4.80497 40.9996C5.40222 42.0345 6.37444 42.5915 6.97647 42.2438Z" fill="white"/>
<path d="M15.1847 37.5034C15.7864 37.1559 15.7899 36.0352 15.1927 35.0003C14.5954 33.9654 13.6235 33.4082 13.0219 33.7557C12.4203 34.1032 12.4167 35.2239 13.014 36.2588C13.6112 37.2937 14.5831 37.8509 15.1847 37.5034Z" fill="white"/>
</g>
</g>
<defs>
<filter id="filter0_d_1403_3629" x="-2" y="30" width="24" height="24" filterUnits="userSpaceOnUse" color-interpolation-filters="sRGB">
<feFlood flood-opacity="0" result="BackgroundImageFix"/>
<feColorMatrix in="SourceAlpha" type="matrix" values="0 0 0 0 0 0 0 0 0 0 0 0 0 0 0 0 0 0 127 0" result="hardAlpha"/>
<feOffset dy="4"/>
<feGaussianBlur stdDeviation="2"/>
<feComposite in2="hardAlpha" operator="out"/>
<feColorMatrix type="matrix" values="0 0 0 0 0 0 0 0 0 0 0 0 0 0 0 0 0 0 0.25 0"/>
<feBlend mode="normal" in2="BackgroundImageFix" result="effect1_dropShadow_1403_3629"/>
<feBlend mode="normal" in="SourceGraphic" in2="effect1_dropShadow_1403_3629" result="shape"/>
</filter>
<linearGradient id="paint0_linear_1403_3629" x1="48" y1="48" x2="0" y2="0" gradientUnits="userSpaceOnUse">
<stop offset="0.281472" stop-color="#2B2D36"/>
<stop offset="0.738793" stop-color="#4D4E56"/>
</linearGradient>
<clipPath id="clip0_1403_3629">
<rect width="48" height="48" fill="white"/>
</clipPath>
</defs>
</svg>
