<svg width="48" height="48" viewBox="0 0 48 48" fill="none" xmlns="http://www.w3.org/2000/svg">
<g clip-path="url(#clip0_1320_2691)">
<path d="M0 12C0 5.37258 5.37258 0 12 0H36C42.6274 0 48 5.37258 48 12V36C48 42.6274 42.6274 48 36 48H12C5.37258 48 0 42.6274 0 36V12Z" fill="url(#paint0_linear_1320_2691)"/>
<path d="M14.7422 23.7826L23.7377 8.29068C23.9602 7.90742 24.5107 7.9021 24.7406 8.28098L30.0881 17.0944C30.4601 17.7075 30.1987 18.5087 29.5371 18.783L15.4697 24.6172C14.9537 24.8312 14.4613 24.2663 14.7422 23.7826Z" fill="white"/>
<path d="M41.3982 36.6776L32.0393 20.7444C31.7444 20.2424 31.126 20.0343 30.5887 20.2564L15.8236 26.3575C15.3324 26.5604 15.1334 27.1515 15.4015 27.6112L21.2902 37.7102C21.3949 37.8897 21.5867 38 21.794 38H40.6439C41.321 38 41.7417 37.2625 41.3982 36.6776Z" fill="white"/>
<path d="M19.0496 37.12L13.7621 28.0521C13.4222 27.4693 12.5805 27.4734 12.2464 28.0595L7.07775 37.125C6.85545 37.5149 7.13635 38 7.5844 38H18.5458C18.9963 38 19.2769 37.5099 19.0496 37.12Z" fill="white"/>
</g>
<defs>
<linearGradient id="paint0_linear_1320_2691" x1="48" y1="48" x2="-2.71797e-05" y2="2.71797e-05" gradientUnits="userSpaceOnUse">
<stop offset="0.163836" stop-color="#AA41B9"/>
<stop offset="0.53848" stop-color="#4491F3"/>
<stop offset="1" stop-color="#7FF6AF"/>
</linearGradient>
<clipPath id="clip0_1320_2691">
<rect width="48" height="48" fill="white"/>
</clipPath>
</defs>
</svg>
