<svg width="48" height="48" viewBox="0 0 48 48" fill="none" xmlns="http://www.w3.org/2000/svg">
<path fill-rule="evenodd" clip-rule="evenodd" d="M14.2242 16.7977C13.5626 16.8027 12.9013 16.7699 12.2435 16.6993C10.8797 16.5382 10.1718 16.1964 10.0188 15.6206C9.77269 14.7179 11.086 13.9588 12.0958 13.4633C15.9385 11.5892 24.3655 9.64423 30.8826 9.12783C32.8976 8.96805 34.5904 8.95794 35.785 9.09816C37.1489 9.25929 37.8567 9.60108 38.0098 10.1768C38.2558 11.0795 36.9426 11.8386 35.9327 12.3341C32.09 14.2083 23.663 16.1532 17.1459 16.6696C16.0734 16.7552 15.0904 16.7977 14.2242 16.7977ZM33.7848 9.81412C33.0102 9.81412 32.0738 9.84985 30.9446 9.93951C24.5118 10.4519 16.2143 12.3591 12.4484 14.1961C10.8304 14.9856 10.7974 15.4096 10.7974 15.4096C10.8507 15.6065 12.0783 16.2597 17.0833 15.8627C23.5161 15.353 31.8136 13.4431 35.5794 11.606C37.1974 10.8166 37.2318 10.3959 37.2304 10.3925C37.1886 10.2402 36.445 9.81412 33.7848 9.81412ZM14.1965 38.9994C13.5349 39.0044 12.8736 38.9715 12.2158 38.9009C10.852 38.7398 10.1441 38.398 9.99108 37.8223C9.74164 36.9223 11.0556 36.1632 12.0668 35.6704C14.2787 34.5916 18.0096 33.4893 22.0208 32.6496C22.0382 32.9212 22.0664 33.19 22.1051 33.4553C18.1933 34.2774 14.5684 35.3494 12.4194 36.3978C10.8014 37.1872 10.767 37.6079 10.7684 37.6113C10.8223 37.8081 12.0459 38.4614 17.0542 38.0643C19.0737 37.9041 21.277 37.606 23.4662 37.2156C23.6213 37.4688 23.7874 37.7147 23.9637 37.9524C21.6302 38.3802 19.2712 38.7062 17.1203 38.8767C16.0443 38.9562 15.0614 38.9994 14.1965 38.9994ZM30.6489 22.0905C30.3261 20.9753 29.7204 19.9591 28.887 19.1426C27.6273 17.901 25.9286 17.2067 24.1599 17.2105H24.0924C22.3002 17.2194 20.5849 17.94 19.3239 19.2136C18.0629 20.4872 17.3595 22.2097 17.3684 24.0019C17.3773 25.7942 18.0979 27.5095 19.3715 28.7705C20.1501 29.5413 21.0963 30.1038 22.1237 30.4226C22.2367 29.7098 22.4249 29.0221 22.6801 28.3678V27.575H20.5652L20.778 26.3393H21.2373C21.6135 26.3393 21.8289 25.9861 21.8289 25.6309V21.9423C21.8289 21.5966 21.6224 21.3597 21.2479 21.3597H20.552V20.1148H22.6801V18.8699H23.5313V20.1148H23.9569V18.8699H24.8081V20.1368C26.6446 20.1974 27.3719 20.8758 27.5805 21.641C27.8273 22.5457 27.2157 23.305 26.6897 23.4901C26.7028 23.4934 26.7159 23.4967 26.7292 23.5002C27.897 22.7745 29.2254 22.2828 30.6489 22.0905ZM25.4936 24.4059C24.9865 24.2806 24.2989 24.262 23.5313 24.262V26.3393C23.6073 26.3393 23.6822 26.3389 23.756 26.3383C24.2496 25.6209 24.8344 24.9712 25.4936 24.4059ZM23.5313 23.4345C24.4723 23.4345 25.9053 23.3698 25.9053 22.3971C25.9053 21.5672 25.0209 21.3597 23.5313 21.3597V23.4345ZM17.5025 30.1163C16.5517 29.5478 15.6694 28.8717 14.8733 28.1013L16.9207 25.9535H15.9216L14.3663 27.5889C14.1546 27.3551 13.9435 27.0998 13.7318 26.8438L13.7317 26.8436L13.7316 26.8435L13.7097 26.817L13.6982 23.244H12.9843V30.7271H13.7245L13.7131 27.9746C14.6941 29.0743 15.8405 30.0145 17.1108 30.7615L17.5025 30.1163Z" fill="white"/>
<path fill-rule="evenodd" clip-rule="evenodd" d="M32 23.1111C27.0908 23.1111 23.1111 27.0908 23.1111 32C23.1111 36.9092 27.0908 40.8889 32 40.8889C36.9092 40.8889 40.8889 36.9092 40.8889 32C40.8889 27.0908 36.9092 23.1111 32 23.1111ZM22 32C22 26.4772 26.4772 22 32 22C37.5228 22 42 26.4772 42 32C42 37.5228 37.5228 42 32 42C26.4772 42 22 37.5228 22 32Z" fill="white"/>
<path fill-rule="evenodd" clip-rule="evenodd" d="M36.0732 34.5788C36.504 33.8 36.7195 32.8504 36.7195 31.7301C36.7195 30.6098 36.504 29.6603 36.0732 28.8814C35.6423 28.1025 35.0589 27.5109 34.3232 27.1065C33.5907 26.7022 32.7687 26.5 31.8572 26.5C30.9425 26.5 30.1188 26.7022 29.3864 27.1065C28.6539 27.5109 28.0722 28.1025 27.6413 28.8814C27.2138 29.6603 27 30.6098 27 31.7301C27 32.8471 27.2138 33.795 27.6413 34.5739C28.0722 35.3494 28.6539 35.9411 29.3864 36.3487C30.1188 36.7564 30.9425 36.9602 31.8572 36.9602C32.4909 36.9602 33.0813 36.8625 33.6285 36.6671L34.4226 37.6167H36.6499L35.1482 35.7647C35.5099 35.435 35.8182 35.0397 36.0732 34.5788ZM33.618 33.9627C33.7357 33.8013 33.8366 33.6173 33.9205 33.4105C34.1094 32.9531 34.2038 32.393 34.2038 31.7301C34.2038 31.0672 34.1094 30.5071 33.9205 30.0497C33.7348 29.5923 33.4664 29.246 33.1151 29.0107C32.767 28.7753 32.3478 28.6577 31.8572 28.6577C31.37 28.6577 30.9508 28.7753 30.5994 29.0107C30.2481 29.246 29.978 29.5923 29.7891 30.0497C29.6035 30.5071 29.5107 31.0672 29.5107 31.7301C29.5107 32.393 29.6035 32.9531 29.7891 33.4105C29.978 33.8679 30.2481 34.2143 30.5994 34.4496C30.9508 34.6849 31.37 34.8026 31.8572 34.8026C31.9842 34.8026 32.1063 34.7947 32.2237 34.7789L31.0021 33.1621H32.9908L33.618 33.9627Z" fill="white"/>
</svg>
