<svg width="48" height="48" viewBox="0 0 48 48" fill="none" xmlns="http://www.w3.org/2000/svg">
<path fill-rule="evenodd" clip-rule="evenodd" d="M34.576 10.5996H13.8403C13.3596 10.5996 12.9133 10.8418 12.6618 11.2393L6.20429 21.4443C5.86806 21.9757 5.95368 22.6617 6.41092 23.0999L23.0168 39.0143C23.5403 39.516 24.3736 39.5301 24.9145 39.0566C23.1133 37.2481 22 34.7541 22 32C22 31.5984 22.0237 31.2023 22.0697 30.813V26.4041C17.9212 26.1924 14.8087 25.3229 14.7856 24.2807L14.7858 22.108C14.8089 21.0658 17.9212 20.1963 22.0697 19.9846V18.0035H16.163V15.1462H31.8986V18.0035H25.9919V19.9846C30.1037 20.1944 33.1978 21.0505 33.2746 22.0805C35.6676 22.3849 37.7966 23.5351 39.3524 25.2219L41.5891 23.0784C42.036 22.6501 42.1289 21.9836 41.8158 21.4554L35.7745 11.2719C35.5278 10.856 35.0707 10.5996 34.576 10.5996ZM30.5279 22.1076C29.3018 21.8214 27.7387 21.6156 25.9919 21.5265V23.6007C25.3598 23.6329 24.7037 23.6499 24.0308 23.6499C23.3579 23.6499 22.7018 23.6329 22.0697 23.6007V21.5265C18.5433 21.7065 15.7656 22.3617 14.9976 23.1944C15.9032 24.1762 19.6036 24.9115 24.0308 24.9115C24.3435 24.9115 24.6526 24.9078 24.9573 24.9006C26.4356 23.4341 28.3695 22.426 30.5279 22.1076Z" fill="white"/>
<path fill-rule="evenodd" clip-rule="evenodd" d="M32 23.1111C27.0908 23.1111 23.1111 27.0908 23.1111 32C23.1111 36.9092 27.0908 40.8889 32 40.8889C36.9092 40.8889 40.8889 36.9092 40.8889 32C40.8889 27.0908 36.9092 23.1111 32 23.1111ZM22 32C22 26.4772 26.4772 22 32 22C37.5228 22 42 26.4772 42 32C42 37.5228 37.5228 42 32 42C26.4772 42 22 37.5228 22 32Z" fill="white"/>
<path fill-rule="evenodd" clip-rule="evenodd" d="M36.0732 34.5788C36.504 33.8 36.7195 32.8504 36.7195 31.7301C36.7195 30.6098 36.504 29.6603 36.0732 28.8814C35.6423 28.1025 35.0589 27.5109 34.3232 27.1065C33.5907 26.7022 32.7687 26.5 31.8572 26.5C30.9425 26.5 30.1188 26.7022 29.3864 27.1065C28.6539 27.5109 28.0722 28.1025 27.6413 28.8814C27.2138 29.6603 27 30.6098 27 31.7301C27 32.8471 27.2138 33.795 27.6413 34.5739C28.0722 35.3494 28.6539 35.9411 29.3864 36.3487C30.1188 36.7564 30.9425 36.9602 31.8572 36.9602C32.4909 36.9602 33.0813 36.8625 33.6285 36.6671L34.4226 37.6167H36.6499L35.1482 35.7647C35.5099 35.435 35.8182 35.0397 36.0732 34.5788ZM33.618 33.9627C33.7357 33.8013 33.8366 33.6173 33.9205 33.4105C34.1094 32.9531 34.2038 32.393 34.2038 31.7301C34.2038 31.0672 34.1094 30.5071 33.9205 30.0497C33.7348 29.5923 33.4664 29.246 33.1151 29.0107C32.767 28.7753 32.3478 28.6577 31.8572 28.6577C31.37 28.6577 30.9508 28.7753 30.5994 29.0107C30.2481 29.246 29.978 29.5923 29.7891 30.0497C29.6035 30.5071 29.5107 31.0672 29.5107 31.7301C29.5107 32.393 29.6035 32.9531 29.7891 33.4105C29.978 33.8679 30.2481 34.2143 30.5994 34.4496C30.9508 34.6849 31.37 34.8026 31.8572 34.8026C31.9842 34.8026 32.1063 34.7947 32.2237 34.7789L31.0021 33.1621H32.9908L33.618 33.9627Z" fill="white"/>
</svg>
