<svg width="48" height="48" viewBox="0 0 48 48" fill="none" xmlns="http://www.w3.org/2000/svg">
<path fill-rule="evenodd" clip-rule="evenodd" d="M33.7188 40.0742C33.3115 40.481 32.847 40.8148 32.3329 41.0782C32.1922 41.1511 32.0488 41.2175 31.9028 41.2775C27.293 43.1987 19.2311 40.0412 12.5126 33.33C4.7923 25.6181 1.76955 16.1341 5.76109 12.1469C6.82551 11.0836 8.28124 10.5186 9.9903 10.408C10.5365 8.77286 11.4613 7.50376 12.7716 6.74807C16.5463 4.57116 22.4149 7.29205 27.4069 13.0057C28.1221 11.3721 28.524 9.54047 28.524 7.56721H30.8212C30.8212 15.2968 37.1083 20.8525 44 20.8525V23.1472C40.6112 23.1472 37.3685 24.5197 34.9477 26.7981C36.3046 31.5895 36.2516 35.9151 34.7364 38.6653C34.4708 39.1886 34.1325 39.6609 33.7188 40.0742ZM33.9228 27.875C33.614 28.2249 33.147 28.8125 32.6343 29.6718C32.6322 29.6752 32.6302 29.6788 32.6282 29.6824C31.4891 31.5954 30.8212 33.8303 30.8212 36.2513H28.524C28.524 28.8236 22.3577 23.1472 15.3451 23.1472V20.8525C18.5418 20.8525 21.5625 19.6981 23.9035 17.7096C20.7811 15.0604 17.5194 13.2114 14.5991 12.2827C13.2405 11.8506 12.004 11.6294 10.9084 11.5981C10.6612 12.6563 10.5586 13.8965 10.6252 15.3062C10.804 19.0952 12.2129 23.7566 14.867 28.3486C17.5211 32.9406 20.8579 36.4901 24.0534 38.5393C26.9476 40.3954 29.4718 40.8816 31.2949 40.2166C31.5485 40.1195 31.7865 40.0059 32.0084 39.8763C32.6648 39.4807 33.2222 38.8896 33.6573 38.1146C33.6774 38.0747 33.6971 38.0344 33.7163 37.9937C33.7179 38.0014 33.7188 38.0053 33.7188 38.0053C35.1092 35.4086 34.7465 31.7854 34.4346 30.004C34.421 29.9268 34.4078 29.8522 34.3949 29.7801C34.3735 29.6578 34.351 29.5349 34.3275 29.4114C34.088 28.1303 33.9715 27.8204 33.9715 27.8204C33.9714 27.8204 33.9715 27.8203 33.9715 27.8204C33.9713 27.8198 33.9711 27.8194 33.9709 27.8188C33.9548 27.8375 33.9388 27.8562 33.9228 27.875ZM13.3675 32.476C16.4044 35.5095 19.6971 37.7672 22.7606 39.1278C19.5792 36.9125 16.3786 33.3794 13.8199 28.9524C10.1779 22.6511 8.75617 16.1302 9.66155 11.6504C8.37682 11.8043 7.34746 12.2703 6.61603 13.0009C5.10353 14.5118 4.72405 17.2952 5.89699 20.9753C7.04899 24.5897 9.61539 28.7279 13.3675 32.476ZM26.8214 14.1783C26.2601 15.1733 25.5759 16.079 24.793 16.8801C20.1895 12.9442 15.2192 10.6388 11.2765 10.4071C11.7564 9.19406 12.4757 8.31333 13.3762 7.79401C15.2242 6.72822 18.0105 7.08347 21.2645 9.17025C23.123 10.3621 25.0294 12.0615 26.8214 14.1783Z" fill="white"/>
</svg>
