<svg width="48" height="48" viewBox="0 0 48 48" fill="none" xmlns="http://www.w3.org/2000/svg">
<path d="M24.4412 6C24.9962 6.00318 25.5257 6.01588 26.0307 6.08047C31.117 6.27953 33.995 7.31929 36.3606 8.31988H36.401C36.8348 8.52 37.2675 8.67988 37.662 8.88C38.1744 9.12035 38.5689 9.32047 38.8846 9.51953V31.2402L36.3606 33.0805L36.3213 33.1196L28.8694 38.4805L25.9914 40.56L23.9787 42L22.0863 40.6405L19.1295 38.5196L11.6373 33.1196L9.11539 31.2805V9.55976C9.47049 9.40094 9.90427 9.15953 10.4167 8.92024C10.8101 8.76035 11.2056 8.56024 11.6787 8.35906C14.0443 7.32141 16.9617 6.24141 22.1267 6.04129C22.7189 6 23.3493 6 24.0191 6H24.4412ZM23.9798 13.3599C23.3493 13.3599 22.7189 13.4001 22.0873 13.4404C21.1804 13.5198 20.2342 13.6405 19.3273 13.8004L15.6604 14.5204V28.8801L19.525 31.6405V25.7598H28.5143V31.6405L32.4577 28.8801H32.379V14.5204L28.7514 13.8004C27.8445 13.6405 26.9376 13.5198 25.9914 13.4404C25.3215 13.4001 24.6507 13.3599 23.9798 13.3599ZM24.0191 17.2002C24.6889 17.2002 25.3598 17.2002 26.0296 17.2796C26.8589 17.3601 27.6861 17.4395 28.5143 17.5994V21.6801H19.524V17.5994H19.6431C20.4702 17.4406 21.2984 17.3601 22.1267 17.2796C22.7571 17.2394 23.3887 17.2002 24.0191 17.2002Z" fill="white"/>
</svg>
