<svg width="48" height="48" viewBox="0 0 48 48" fill="none" xmlns="http://www.w3.org/2000/svg">
<path d="M38.9174 10.7747L38.8017 10.8155C38.6707 10.8617 38.5537 10.9404 38.4613 11.044L33.7685 16.2904L34.7718 17.6966L38.9174 10.7747Z" fill="white"/>
<path d="M9.53753 11.0441L14.2303 16.2904L13.227 17.6967L9.08134 10.7748L9.19705 10.8156C9.32805 10.8618 9.44514 10.9404 9.53753 11.0441Z" fill="white"/>
<path d="M13.0367 30.5682C11.5906 30.2427 10.8292 29.4552 10.8292 29.4552L11.0069 30.0449C11.157 30.5428 11.4549 30.9833 11.8608 31.3082L12.0313 31.4446C12.0313 31.4446 18.9915 33.1653 19.9561 34.2598C19.9561 34.2598 19.6112 33.5083 19.2224 32.9992C19.0851 32.8192 18.9024 32.6802 18.6922 32.5959C17.7191 32.206 14.3034 30.8533 13.0367 30.5682Z" fill="white"/>
<path fill-rule="evenodd" clip-rule="evenodd" d="M20.4385 36.6528C20.2126 36.2914 19.5464 35.6685 19.06 35.2366C18.708 34.9241 18.2911 34.6949 17.8387 34.5644C16.7812 34.2595 14.7557 33.6939 13.8716 33.5733C12.8222 33.4303 11.7048 33.0555 11.4068 32.9514C11.4035 32.9502 11.4001 32.9496 11.397 32.9496C11.3753 32.9496 11.3596 32.975 11.372 32.9959C11.9523 33.9767 12.536 34.2598 12.536 34.2598C13.0336 35.4462 13.7019 36.2292 14.0708 36.6024C14.2316 36.7652 14.4291 36.8851 14.647 36.9552C15.2189 37.1393 16.4518 37.5288 17.0254 37.6547C17.428 37.743 17.8983 37.7638 18.2518 37.7638C18.5659 37.7638 18.7877 37.7474 18.7877 37.7474C19.2708 37.6359 19.63 37.4382 19.8892 37.2411L19.8884 37.2428C20.4419 37.1556 20.2069 37.358 20.2069 37.358C20.2069 37.358 19.3257 37.8217 18.8702 38.035C18.4146 38.2484 17.814 38.1277 17.814 38.1277L15.5509 37.7104C15.8477 38.0165 17.239 38.3874 17.8882 38.5266C18.5374 38.6657 18.8703 38.4802 18.8703 38.4802C18.8703 38.4802 20.1421 38.0164 20.7172 37.7638C21.2924 37.5113 21.0697 36.9683 21.0697 36.9683C20.8656 35.9759 20.5692 35.2431 20.5692 35.2431L20.3833 35.039C20.3833 35.039 20.5595 36.3747 20.5689 36.5787C20.5775 36.7826 20.4385 36.6528 20.4385 36.6528ZM18.0199 37.1985C17.9913 37.1977 17.9623 37.1971 17.9343 37.196C17.6065 37.1424 15.8726 36.8399 14.4762 36.2131L14.4749 36.212L14.4731 36.2104C14.4607 36.1899 13.9857 35.4061 13.862 35.1131C13.862 35.1131 13.7604 34.5156 14.0107 34.5156C14.0165 34.5156 14.0224 34.5159 14.0285 34.5165C14.0347 34.5172 14.041 34.5182 14.0476 34.5195C14.3444 34.5798 17.2902 35.1832 18.7316 36.087C18.7316 36.087 19.3334 36.9405 18.0199 37.1985Z" fill="white"/>
<path d="M13.9224 24.7518L14.2782 26.0034C14.3342 26.2006 14.4874 26.3554 14.684 26.4134L16.2214 26.8679C16.4028 26.9215 16.5971 26.912 16.7725 26.841L17.188 26.6725L15.9431 26.0022C15.5515 25.7913 15.206 25.1715 15.3638 24.7556L16.5016 22.6471L16.5186 23.2187C16.5455 23.4147 16.6237 23.5992 16.7451 23.7553C16.9074 23.9636 17.1027 24.1863 17.3363 24.4094C17.8292 24.88 18.3226 25.1906 18.7091 25.3926C18.4322 24.9501 18.1247 24.3605 17.8928 23.6302C17.7532 23.1905 17.6674 22.7827 17.6145 22.4244V21.1094L17.4476 20.5693L15.8803 21.4962L15.8744 21.4999L15.8683 21.5041C15.8653 21.5063 15.8622 21.5084 15.8591 21.5104L14.5792 23.3043L14.017 24.1477C13.8986 24.3255 13.8639 24.5463 13.9224 24.7518Z" fill="white"/>
<path d="M36.3065 31.3082L36.1359 31.4446C36.1359 31.4446 29.1758 33.1653 28.2112 34.2598C28.2112 34.2598 28.5561 33.5082 28.9449 32.9992C29.0823 32.8192 29.265 32.6802 29.4751 32.5959C30.4482 32.2058 33.8639 30.8531 35.1306 30.5682C36.5767 30.2429 37.3381 29.4552 37.3381 29.4552L37.1603 30.0449C37.0103 30.5428 36.7125 30.9833 36.3065 31.3082Z" fill="white"/>
<path fill-rule="evenodd" clip-rule="evenodd" d="M27.4506 37.7637C28.0257 38.0163 29.2975 38.4801 29.2975 38.4801C29.2975 38.4801 29.6303 38.6655 30.2797 38.5265C30.929 38.3873 32.3202 38.0163 32.617 37.7103L30.3539 38.1276C30.3539 38.1276 29.7533 38.2482 29.2976 38.0349C28.842 37.8215 27.9609 37.3579 27.9609 37.3579C27.9609 37.3579 27.7259 37.1555 28.2793 37.2427L28.2785 37.241C28.5378 37.4381 28.897 37.6358 29.38 37.7473C29.38 37.7473 29.6018 37.7637 29.916 37.7637C30.2694 37.7637 30.7396 37.7429 31.1424 37.6546C31.7158 37.5286 32.9487 37.1391 33.5207 36.9551C33.7385 36.885 33.936 36.7651 34.0969 36.6023C34.4657 36.2291 35.1342 35.4463 35.6317 34.2597C35.6317 34.2597 36.2156 33.9767 36.7957 32.9958C36.8082 32.9749 36.7924 32.9495 36.7707 32.9495C36.7676 32.9495 36.7643 32.9501 36.7609 32.9512C36.463 33.0555 35.3455 33.4302 34.2961 33.5732C33.412 33.6938 31.3866 34.2594 30.3291 34.5643C29.8767 34.6948 29.4598 34.924 29.1077 35.2365C28.6212 35.6684 27.9552 36.2913 27.7293 36.6527C27.7293 36.6527 27.5902 36.7825 27.5994 36.5784C27.6087 36.3744 27.785 35.0388 27.785 35.0388L27.599 35.2429C27.599 35.2429 27.3026 35.9756 27.0985 36.9681C27.0981 36.9682 26.8755 37.5111 27.4506 37.7637ZM29.4355 36.087C30.8771 35.1832 33.8227 34.5797 34.1197 34.5195C34.1262 34.5182 34.1325 34.5172 34.1386 34.5166C34.1447 34.5159 34.1507 34.5156 34.1565 34.5156C34.4068 34.5156 34.3052 35.1131 34.3052 35.1131C34.1864 35.3947 33.743 36.1297 33.6978 36.2046L33.6972 36.2056L33.6943 36.2104L33.6912 36.2131C32.2948 36.8397 30.5609 37.1424 30.2331 37.196L30.2164 37.1966L30.1961 37.1972L30.1475 37.1985C28.8339 36.9405 29.4355 36.087 29.4355 36.087Z" fill="white"/>
<path d="M31.6487 23.2187C31.6217 23.4147 31.5436 23.5992 31.4221 23.7553C31.2599 23.9636 31.0646 24.1863 30.8309 24.4094C30.3381 24.88 29.8446 25.1906 29.4581 25.3926C29.7352 24.9501 30.0427 24.3605 30.2744 23.6302C30.4141 23.1905 30.4999 22.7826 30.5527 22.4244V21.1094L30.7197 20.5693L32.2869 21.4962C32.2911 21.4986 32.295 21.5014 32.299 21.5041C32.302 21.5063 32.305 21.5084 32.3082 21.5104L33.588 23.3043L34.1503 24.1477C34.2688 24.3255 34.3035 24.5463 34.245 24.7518L33.8891 26.0034C33.833 26.2006 33.68 26.3553 33.4834 26.4134L31.946 26.8679C31.7646 26.9215 31.5703 26.9121 31.3949 26.841L30.9793 26.6725L32.2243 26.0022C32.616 25.7913 32.9613 25.1715 32.8036 24.7556L31.639 22.5728L31.6487 23.2187Z" fill="white"/>
<path fill-rule="evenodd" clip-rule="evenodd" d="M43.5735 18.7966L41.1433 27.3821L40.5222 27.9257L40.298 30.3377L42.5331 29.7751H43.4043L41.743 33.9234L38.0445 39.2523C37.7472 39.6858 37.3295 40.0099 36.8363 40.1899C34.4235 41.0697 26.4639 43.909 24.0274 43.9978V44H23.9713V43.9978C21.5348 43.9089 13.5751 41.0697 11.1623 40.1899C10.6691 40.0099 10.2514 39.6858 9.95414 39.2523L6.25559 33.9232L4.59414 29.7751H5.46538L7.70045 30.3377L7.47627 27.9257L6.85541 27.3821L4.42522 18.7966C4.20943 17.9748 4.193 17.1085 4.3757 16.2853L5.83848 9.6957C6.00591 8.94156 6.34052 8.23451 6.81773 7.627L9.55736 4.13862C9.69813 3.95937 9.96736 3.95294 10.1165 4.1253L18.3339 13.166L19.2208 12.5327C19.4336 12.3806 19.6781 12.2791 19.936 12.2354L22.9367 11.727H25.0621L28.0628 12.2354C28.3207 12.2791 28.5652 12.3806 28.778 12.5327L29.6778 13.1751L37.8822 4.1253C38.0312 3.95294 38.3006 3.95937 38.4413 4.13862L41.181 7.627C41.6582 8.23451 41.9928 8.94156 42.1602 9.6957L43.623 16.2853C43.8057 17.1085 43.7892 17.9748 43.5735 18.7966ZM38.8044 30.926L39.2254 26.3551L37.551 21.6714L39.9246 25.4443L41.9456 18.3628C42.092 17.8052 42.1032 17.2131 41.9783 16.6504L40.5986 10.4349C40.4312 9.68064 40.0966 8.97373 39.6194 8.3661L38.3786 6.78621C38.2378 6.60696 37.9686 6.60053 37.8195 6.77289L31.0667 14.1665L33.0946 15.6145L27.0369 13.5289L25.1233 13.2978H22.8758L20.9622 13.5289L14.9046 15.6145L16.9325 14.1665L10.1797 6.77289C10.0306 6.60053 9.76132 6.60696 9.62056 6.78621L8.37978 8.3661C7.90257 8.97373 7.56796 9.68075 7.40053 10.4349L6.02072 16.6504C5.89581 17.2131 5.90708 17.8052 6.05348 18.3628L8.07448 25.4443L10.4478 21.6714L8.77311 26.3551L9.19403 30.926L9.83211 32.1639C9.87658 32.2725 9.78396 32.3875 9.66836 32.3673L7.74228 31.9529L6.99894 31.8574L7.36412 32.3696L10.1162 36.3178C10.1312 36.3397 10.1472 36.3607 10.1633 36.3816L10.1805 36.4043L11.4365 38.2359C11.5206 38.3586 11.6386 38.4503 11.7778 38.5011C14.7202 39.574 17.4435 40.4932 19.6531 41.1596C20.5919 41.447 21.4105 41.6761 22.0866 41.8406C22.1442 41.855 22.2008 41.869 22.2565 41.8826C22.3045 41.8944 22.3518 41.9058 22.3983 41.9169V41.9148L22.535 41.9449C23.1604 42.0832 23.651 42.1577 23.9991 42.1682C24.3473 42.1577 24.8378 42.0832 25.4633 41.9449L25.5999 41.9148V41.9169C25.6656 41.9012 25.7327 41.885 25.8014 41.868C25.8377 41.8591 25.8745 41.8499 25.9117 41.8406C26.5878 41.6761 27.4065 41.4469 28.3452 41.1596C30.5549 40.4932 33.2781 39.574 36.2205 38.5011C36.3598 38.4502 36.4778 38.3585 36.5619 38.2359L37.8178 36.4043L37.8352 36.3816C37.8512 36.3607 37.8673 36.3398 37.8823 36.3178L40.6345 32.3696L40.9996 31.8574L40.2563 31.9529L38.3302 32.3673C38.2146 32.3875 38.122 32.2725 38.1665 32.1639L38.8044 30.926Z" fill="white"/>
</svg>
