<svg width="48" height="48" viewBox="0 0 48 48" fill="none" xmlns="http://www.w3.org/2000/svg">
<path fill-rule="evenodd" clip-rule="evenodd" d="M26.0967 6.21205L11.7985 14.4751C11.5565 14.6103 11.355 14.8076 11.2147 15.0467C11.0744 15.2857 11.0004 15.5579 11.0004 15.8351V23.5163L26.0801 14.7245C26.3291 14.5854 26.6096 14.5124 26.8948 14.5124C27.18 14.5124 27.4604 14.5854 27.7094 14.7245L32.0654 17.235C32.3689 17.4137 32.7232 17.4861 33.0725 17.441C33.4217 17.3958 33.746 17.2356 33.994 16.9856L37.0365 13.9265C37.2067 13.7518 37.3351 13.5409 37.4119 13.3094C37.4887 13.078 37.512 12.8322 37.4799 12.5905C37.4479 12.3487 37.3615 12.1174 37.227 11.914C37.0926 11.7105 36.9138 11.5402 36.704 11.4159L27.6928 6.21205C27.4498 6.07309 27.1747 6 26.8948 6C26.6148 6 26.3397 6.07309 26.0967 6.21205ZM27.6924 41.7879L36.7369 36.5674C36.8623 36.4987 36.9748 36.4087 37.0694 36.3014C37.3648 36.0026 37.5305 35.5994 37.5305 35.1792C37.5305 34.759 37.3648 34.3557 37.0694 34.0569L34.0102 30.9977C33.76 30.7515 33.436 30.5938 33.0878 30.5488C32.7397 30.5038 32.3863 30.5739 32.0816 30.7484L27.6924 33.2755C27.4494 33.4144 27.1743 33.4875 26.8943 33.4875C26.6144 33.4875 26.3393 33.4144 26.0963 33.2755L19.1633 29.2687C18.9202 29.1297 18.7183 28.9288 18.5781 28.6863C18.4379 28.4439 18.3645 28.1687 18.3653 27.8887V20.9058L11 25.1787V32.1449C10.9992 32.4249 11.0727 32.7002 11.2128 32.9426C11.353 33.185 11.555 33.3859 11.798 33.5249L26.0963 41.7879C26.3393 41.9269 26.6144 42 26.8943 42C27.1743 42 27.4494 41.9269 27.6924 41.7879Z" fill="white"/>
</svg>
