<svg width="48" height="48" viewBox="0 0 48 48" fill="none" xmlns="http://www.w3.org/2000/svg">
<path fill-rule="evenodd" clip-rule="evenodd" d="M13.9997 9.03355C16.9598 7.05568 20.4399 6 24 6C33.8522 6 41.9103 14.0581 42 24C42 27.5601 40.9443 31.0402 38.9665 34.0003C36.9886 36.9603 34.1774 39.2674 30.8883 40.6298C27.5992 41.9922 23.98 42.3487 20.4884 41.6541C16.9967 40.9596 13.7894 39.2453 11.2721 36.7279C8.75474 34.2106 7.04041 31.0033 6.34587 27.5116C5.65134 24.02 6.0078 20.4008 7.37018 17.1117C8.73255 13.8226 11.0397 11.0114 13.9997 9.03355ZM30.6867 35.7028C33.4166 34.1463 35.5182 31.6863 36.6293 28.7467V28.7623C36.7682 28.3841 36.8179 27.9788 36.7745 27.5782C36.7311 27.1776 36.5958 26.7925 36.3791 26.4527C36.1625 26.113 35.8703 25.8279 35.5253 25.6196C35.1804 25.4114 34.792 25.2855 34.3905 25.252C33.8962 25.2567 33.4154 25.4145 33.0145 25.7036C32.6136 25.9928 32.3121 26.3992 32.1517 26.8667C31.5519 28.5223 30.4557 29.9525 29.0128 30.9619C27.5699 31.9713 25.8506 32.5107 24.0897 32.5066C22.5077 32.5157 20.9535 32.0904 19.5966 31.2771C18.2396 30.4638 17.1319 29.2937 16.3942 27.8942C15.6564 26.4947 15.3169 24.9196 15.4127 23.3404C15.5085 21.7613 16.0358 20.2388 16.9373 18.9387C17.8387 17.6386 19.0797 16.6109 20.525 15.9675C21.9703 15.3241 23.5645 15.0898 25.1338 15.29C26.7031 15.4902 28.1874 16.1173 29.4248 17.103C30.6623 18.0886 31.6055 19.395 32.1517 20.8797C32.315 21.345 32.6181 21.7484 33.0196 22.0347C33.4211 22.321 33.9013 22.4761 34.3944 22.4789C35.0317 22.4659 35.6392 22.207 36.09 21.7563C36.5407 21.3055 36.7996 20.698 36.8126 20.0607C36.7946 19.7835 36.7327 19.511 36.6293 19.2533C35.507 16.2854 33.3753 13.8075 30.6084 12.2544C27.8414 10.7013 24.6159 10.1723 21.4978 10.7601C18.3797 11.3478 15.5682 13.0149 13.5566 15.4688C11.545 17.9227 10.4618 21.0066 10.4971 24.1794C10.5452 27.3216 11.6878 30.3486 13.7279 32.7389C15.7681 35.1291 18.578 36.733 21.6737 37.274C24.7693 37.815 27.9567 37.2594 30.6867 35.7028ZM20.5251 21.5943C20.0559 22.2762 19.8005 23.0825 19.7916 23.9102C19.7781 24.4515 19.8718 24.9902 20.0673 25.4951C20.2628 26.0001 20.5562 26.4614 20.9307 26.8525C21.3051 27.2437 21.7532 27.5569 22.2492 27.7742C22.7452 27.9915 23.2792 28.1085 23.8206 28.1187C24.6479 28.1457 25.4645 27.9257 26.1662 27.4867C26.868 27.0477 27.423 26.4095 27.7605 25.6537C28.0979 24.8979 28.2026 24.0586 28.0611 23.2431C27.9195 22.4275 27.5382 21.6726 26.9658 21.0747C26.3934 20.4768 25.6558 20.063 24.8472 19.8861C24.0385 19.7091 23.1955 19.7771 22.4257 20.0814C21.6559 20.3857 20.9942 20.9124 20.5251 21.5943Z" fill="white"/>
</svg>
