<svg width="48" height="48" viewBox="0 0 48 48" fill="none" xmlns="http://www.w3.org/2000/svg">
<path fill-rule="evenodd" clip-rule="evenodd" d="M17.7746 6.08547C17.9722 5.97139 18.2157 5.97152 18.4132 6.08581L24.1139 9.38482L29.8147 6.08581C30.0122 5.97152 30.2557 5.97139 30.4533 6.08547L36.4883 9.56943C36.6858 9.68341 36.8074 9.89406 36.8074 10.122V16.7074L42.3422 19.9103C42.5036 19.9501 42.6494 20.0525 42.7401 20.2073C42.8017 20.3125 42.8298 20.4282 42.8276 20.5418L42.8278 20.5593V27.4836C42.8278 27.7113 42.7064 27.9218 42.5093 28.0358L36.8074 31.3354V37.8917C36.8074 38.1201 36.6853 38.3311 36.4873 38.4449L30.4523 41.9142C30.3352 41.9816 30.2021 42.0088 30.072 41.9961C29.9727 41.9865 29.8801 41.9542 29.7995 41.9045L24.1139 38.6282L18.4398 41.898C18.3401 41.9625 18.2212 42 18.0936 42C17.966 42 17.8471 41.9626 17.7474 41.898L11.7406 38.4449C11.5426 38.3311 11.4205 38.1201 11.4205 37.8917V31.3354L5.71858 28.0358C5.52147 27.9218 5.4001 27.7113 5.4001 27.4836V20.5709C5.39926 20.5244 5.40351 20.4775 5.41308 20.4312C5.44925 20.2546 5.55914 20.0993 5.71858 20.007L11.4205 16.7074V10.1427C11.4167 10.0266 11.4445 9.90805 11.5075 9.80033C11.5613 9.70823 11.6347 9.63462 11.7192 9.58168C11.7259 9.57748 11.7327 9.5734 11.7396 9.56943L17.7746 6.08547ZM12.6966 15.9693V11.2345L16.7694 13.6152L12.6966 15.9693ZM12.6964 18.1879V23.6668L17.4552 26.4092V20.9696L12.6964 18.1879ZM18.0952 19.8656L13.3275 17.0786L18.0763 14.3338L22.8554 17.0994L18.0952 19.8656ZM23.4759 18.2148V23.5599L18.7314 26.3085V20.9718L23.4759 18.2148ZM24.7521 18.2148L29.4961 20.9716V26.3719L24.7521 23.5908V18.2148ZM30.1324 19.8654L25.3946 17.1122L30.2842 14.4212L34.8938 17.0822L30.1324 19.8654ZM18.7316 28.6174V34.0954L23.4756 36.8432V31.3512L18.7316 28.6174ZM24.7518 36.7834V31.3512L29.4958 28.6174V34.0324L24.7518 36.7834ZM28.8881 27.4947L24.1137 30.246L19.2843 27.463L24.0874 24.6805L28.8881 27.4947ZM35.531 23.6885L30.7722 26.4012V20.9696L35.531 18.1879V23.6885ZM19.351 13.5971L24.1202 16.3569L28.9924 13.6755L24.1009 10.8517L19.351 13.5971ZM22.8266 10.1142L18.0932 7.37506L13.3285 10.1257L18.0409 12.8803L22.8266 10.1142ZM35.5313 15.9767V11.2341L31.4492 13.6202L35.5313 15.9767ZM30.1769 12.8857L34.8991 10.1255L30.1347 7.37506L25.3886 10.1216L30.1769 12.8857ZM30.7719 27.8703V33.2923L35.531 30.5325V25.1574L30.7719 27.8703ZM30.7719 34.7675L35.5313 32.0075V37.5225L30.7719 40.2585V34.7675ZM25.3882 37.8896L29.4958 35.5076V40.2566L25.3882 37.8896ZM17.4555 33.3563V27.8823L12.6964 25.1397V30.5998L17.4555 33.3563ZM12.6966 32.0746L17.4555 34.831V40.2582L12.6966 37.5225V32.0746ZM18.7316 35.5702L22.7878 37.9195L18.7316 40.2569V35.5702ZM36.8072 29.8611L41.5517 27.1156V21.6432L36.8072 24.4232V29.8611ZM36.8072 22.9442L40.8964 20.548L36.8072 18.1817V22.9442ZM11.4203 18.182L7.30549 20.5631L11.4203 22.9742V18.182ZM11.4203 24.4532L6.67624 21.6735V27.1156L11.4203 29.8609V24.4532Z" fill="white"/>
</svg>
