<svg width="48" height="48" viewBox="0 0 48 48" fill="none" xmlns="http://www.w3.org/2000/svg">
<path fill-rule="evenodd" clip-rule="evenodd" d="M26.2447 20.9971L25.4755 25.1L32.7837 26.1257L32.2709 28.049L25.0908 27.0232C24.5779 28.69 24.3215 30.485 23.6804 32.0236C23.0394 33.8186 22.3983 35.6136 21.629 37.2804C20.6033 39.4601 18.8083 40.9987 16.3722 41.3833C14.9618 41.6398 13.4232 41.5115 12.2693 40.614C11.8846 40.3576 11.5 39.8447 11.5 39.4601C11.5 38.9472 11.7564 38.3062 12.1411 38.0497C12.3975 37.9215 13.0386 38.0497 13.4232 38.1779C13.8079 38.5626 14.1925 39.0755 14.4489 39.5883C15.2182 40.614 16.244 40.7423 17.2697 39.973C18.4236 38.9472 19.0647 37.5369 19.4493 36.1265C20.2186 33.0493 20.9879 30.1004 21.629 27.0232V26.5104L14.8336 25.4846L15.09 23.5614L22.1419 24.5871L23.0394 20.6125L15.7311 19.4585L15.9875 17.4071L23.5522 18.4328C23.8087 17.6635 23.9369 17.0224 24.1933 16.3814C24.8344 14.0735 25.4755 11.7656 27.014 9.71418C28.5526 7.66274 30.3476 6.38059 33.0402 6.5088C34.1941 6.5088 35.348 6.89345 36.1173 7.79095C36.2455 7.91917 36.502 8.1756 36.502 8.43203C36.502 8.94489 36.502 9.58597 36.1173 9.97061C35.6045 10.3553 34.9634 10.227 34.4505 9.71418C34.0659 9.32954 33.8094 8.94489 33.4248 8.56025C32.6555 7.53452 31.5016 7.40631 30.6041 8.30382C29.963 8.94489 29.3219 9.8424 28.9373 10.7399C28.0398 13.4324 27.3987 16.2532 26.5012 19.0739L33.553 20.0996L33.0402 22.0228L26.2447 20.9971Z" fill="white"/>
</svg>
