<svg width="48" height="48" viewBox="0 0 48 48" fill="none" xmlns="http://www.w3.org/2000/svg">
<path d="M35.499 17.7626H29.4633C28.7225 17.7626 28.1124 17.1508 28.1124 16.4078V10.3548C28.1124 9.61186 28.7225 9 29.4633 9H35.499C36.2398 9 36.85 9.61186 36.85 10.3548V16.4078C36.85 17.1726 36.2398 17.7626 35.499 17.7626Z" fill="white"/>
<path d="M15.5393 17.7627C17.9462 17.7627 19.8973 15.8061 19.8973 13.3924C19.8973 10.9787 17.9462 9.02197 15.5393 9.02197C13.1325 9.02197 11.1814 10.9787 11.1814 13.3924C11.1814 15.8061 13.1325 17.7627 15.5393 17.7627Z" fill="white"/>
<path d="M26.5216 21.4966C27.5458 21.4966 28.3738 22.327 28.3738 23.354V28.4018C28.3738 29.4289 27.5458 30.2592 26.5216 30.2592H21.7498C20.7256 30.2592 19.8976 31.0896 19.8976 32.1167V37.1426C19.8976 38.1696 19.0696 39 18.0455 39H13.0121C11.988 39 11.16 38.1696 11.16 37.1426V23.354C11.16 22.327 11.988 21.4966 13.0121 21.4966H26.5216Z" fill="white"/>
</svg>
