<svg width="48" height="48" viewBox="0 0 48 48" fill="none" xmlns="http://www.w3.org/2000/svg">
<path fill-rule="evenodd" clip-rule="evenodd" d="M24 44C35.0457 44 44 35.0457 44 24C44 12.9543 35.0457 4 24 4C12.9543 4 4 12.9543 4 24C4 35.0457 12.9543 44 24 44ZM29.1656 23.3044C28.113 24.6237 27.0588 26.0957 27.0588 27.7834V33.2353C27.0588 34.8922 25.7157 36.2353 24.0588 36.2353C22.402 36.2353 21.0589 34.8922 21.0589 33.2353V27.7834C21.0589 26.0957 20.0047 24.6237 18.9521 23.3044C18.0617 22.1884 17.5294 20.774 17.5294 19.2353C17.5294 15.6292 20.4527 12.7059 24.0588 12.7059C27.6649 12.7059 30.5882 15.6292 30.5882 19.2353C30.5882 20.774 30.056 22.1884 29.1656 23.3044Z" fill="white"/>
</svg>
