<svg width="48" height="48" viewBox="0 0 48 48" fill="none" xmlns="http://www.w3.org/2000/svg">
<path fill-rule="evenodd" clip-rule="evenodd" d="M37.0149 12.9565C37.0539 12.9877 37.092 13.0183 37.1296 13.0481C37.5833 13.4104 39 14.6462 39 14.6462C39 14.6462 37.1481 15.3431 36.7315 15.659C36.3148 15.975 35.8148 16.5046 35.4074 17.4988C35.2798 17.8024 35.1135 18.2415 34.9349 18.7127C34.66 19.4383 34.3561 20.2402 34.1204 20.7416C33.9379 21.1297 33.7024 21.5689 33.2196 22.0736C32.8199 22.025 32.4129 22 32 22C28.2169 22 24.9244 24.1007 23.2255 27.1993C22.6504 27.1622 22.0602 27.125 22 27.125L23.3889 26.7162C21.1111 25.5082 9.31481 30.1727 9.31481 30.1727V29.8661C8.25926 30.5351 7 30.2006 7 30.2006L8.42593 29.1134H7.43519L17.3426 23.9937L15.1204 23.9658C15.1204 23.9658 23.6574 18.4651 25.8333 17.155C27.1357 16.3708 28.1428 15.9262 28.8548 15.6119C29.3323 15.4011 29.677 15.2489 29.8889 15.0922C30.1076 14.9305 30.455 14.6157 30.8351 14.2713C31.3723 13.7845 31.9745 13.2388 32.3704 12.983L32.4053 12.9605C33.0804 12.524 34.0631 11.8888 35.0278 12.0167C35.9924 12.1366 36.5556 12.5882 37.0149 12.9565Z" fill="white"/>
<path fill-rule="evenodd" clip-rule="evenodd" d="M32 23.1111C27.0908 23.1111 23.1111 27.0908 23.1111 32C23.1111 36.9092 27.0908 40.8889 32 40.8889C36.9092 40.8889 40.8889 36.9092 40.8889 32C40.8889 27.0908 36.9092 23.1111 32 23.1111ZM22 32C22 26.4772 26.4772 22 32 22C37.5228 22 42 26.4772 42 32C42 37.5228 37.5228 42 32 42C26.4772 42 22 37.5228 22 32Z" fill="white"/>
<path fill-rule="evenodd" clip-rule="evenodd" d="M36.0732 34.5788C36.504 33.8 36.7195 32.8504 36.7195 31.7301C36.7195 30.6098 36.504 29.6603 36.0732 28.8814C35.6423 28.1025 35.0589 27.5109 34.3232 27.1065C33.5907 26.7022 32.7687 26.5 31.8572 26.5C30.9425 26.5 30.1188 26.7022 29.3864 27.1065C28.6539 27.5109 28.0722 28.1025 27.6413 28.8814C27.2138 29.6603 27 30.6098 27 31.7301C27 32.8471 27.2138 33.795 27.6413 34.5739C28.0722 35.3494 28.6539 35.9411 29.3864 36.3487C30.1188 36.7564 30.9425 36.9602 31.8572 36.9602C32.4909 36.9602 33.0813 36.8625 33.6285 36.6671L34.4226 37.6167H36.6499L35.1482 35.7647C35.5099 35.435 35.8182 35.0397 36.0732 34.5788ZM33.618 33.9627C33.7357 33.8013 33.8366 33.6173 33.9205 33.4105C34.1094 32.9531 34.2038 32.393 34.2038 31.7301C34.2038 31.0672 34.1094 30.5071 33.9205 30.0497C33.7348 29.5923 33.4664 29.246 33.1151 29.0107C32.767 28.7753 32.3478 28.6577 31.8572 28.6577C31.37 28.6577 30.9508 28.7753 30.5994 29.0107C30.2481 29.246 29.978 29.5923 29.7891 30.0497C29.6035 30.5071 29.5107 31.0672 29.5107 31.7301C29.5107 32.393 29.6035 32.9531 29.7891 33.4105C29.978 33.8679 30.2481 34.2143 30.5994 34.4496C30.9508 34.6849 31.37 34.8026 31.8572 34.8026C31.9842 34.8026 32.1063 34.7947 32.2237 34.7789L31.0021 33.1621H32.9908L33.618 33.9627Z" fill="white"/>
</svg>
