<svg width="48" height="48" viewBox="0 0 48 48" fill="none" xmlns="http://www.w3.org/2000/svg">
<path fill-rule="evenodd" clip-rule="evenodd" d="M23.9931 6C20.433 6.00137 16.9533 7.05839 13.994 9.03739C11.0347 11.0164 8.72865 13.8285 7.36753 17.1181C6.00642 20.4077 5.65135 24.027 6.34722 27.5184C7.04309 31.0098 8.75866 34.2164 11.277 36.7328C13.7953 39.2492 17.0032 40.9623 20.4951 41.6555C23.1886 42.1901 25.9576 42.0995 28.5923 41.4043C27.9694 41.1786 27.3754 40.8928 26.8172 40.5538C23.7017 41.0841 20.4962 40.7247 17.5709 39.5123C14.5023 38.2405 11.8798 36.0872 10.0352 33.3247C8.19065 30.5623 7.20681 27.3148 7.20818 23.9931C7.21502 19.5436 8.98563 15.2782 12.1319 12.1319C15.2782 8.98563 19.5436 7.21502 23.9931 7.20817C27.3148 7.20681 30.5623 8.19064 33.3247 10.0352C36.0872 11.8798 38.2405 14.5023 39.5123 17.5709C40.7247 20.4962 41.0841 23.7017 40.5538 26.8172C40.8928 27.3754 41.1786 27.9694 41.4043 28.5923C41.7983 27.0992 42.0006 25.5538 42 23.9931C41.9991 21.6293 41.5326 19.2888 40.6272 17.1053C39.7218 14.9218 38.3951 12.938 36.723 11.2672C35.0509 9.59639 33.0661 8.27128 30.8819 7.36753C28.6977 6.46378 26.3569 5.9991 23.9931 6ZM39.2451 25.1073C39.2682 24.8006 39.2821 24.4924 39.2866 24.1833C39.3412 20.489 38.0589 16.8994 35.6761 14.0758H35.6692C35.5363 13.9377 35.4017 13.8014 35.2619 13.6719L34.5214 14.4831C36.8338 17.1102 38.1763 20.5579 38.1556 24.1185C38.5426 24.4212 38.9068 24.7518 39.2451 25.1073ZM30.1979 22.162C30.3342 21.7577 30.3847 21.2825 30.3291 20.7258L30.3256 20.731C30.1271 18.6426 28.3391 17.9522 26.0763 17.7348V14.8714H24.3383V17.6778C23.8775 17.6778 23.408 17.6778 22.9403 17.6951V14.8714H21.1936V17.752H17.6502V19.6264C17.6502 19.6264 18.9412 19.604 18.9222 19.6264C19.1552 19.6008 19.3891 19.6667 19.5743 19.8104C19.7595 19.9541 19.8816 20.1641 19.9147 20.3962V28.2855C19.9098 28.3667 19.889 28.4462 19.8534 28.5193C19.8178 28.5924 19.7681 28.6578 19.7072 28.7117C19.6462 28.7656 19.5753 28.8069 19.4983 28.8333C19.4214 28.8597 19.34 28.8706 19.2588 28.8654C19.2812 28.8862 17.9868 28.8654 17.9868 28.8654L17.6416 30.959H21.1712V33.8932H22.179C22.0615 33.2801 22 32.6473 22 32C22 30.4617 22.3473 29.0045 22.9679 27.7026V25.0287C23.0873 25.0287 23.2325 25.0251 23.397 25.0212C23.7931 25.0116 24.3014 24.9994 24.8324 25.0268C26.2515 23.5684 28.1118 22.5416 30.1979 22.162ZM24.0645 38.0859C23.5718 38.0887 23.0789 38.0627 22.5882 38.0079C19.7433 37.732 17.0502 36.5952 14.868 34.7493C14.7873 34.6906 14.7076 34.6329 14.6256 34.5735L14.6215 34.5705L14.6191 34.5688L14.6176 34.5677L14.5228 34.499L13.7271 35.2118C16.5111 37.9613 20.3272 39.2834 24.0829 39.2816H24.3711C24.6171 39.2752 24.8624 39.2629 25.1069 39.2447C24.7303 38.8863 24.3817 38.4988 24.0645 38.0859ZM14.5124 13.4734C16.2846 11.8702 18.436 10.745 20.7637 10.2039C23.0913 9.66273 25.5184 9.72351 27.8161 10.3805L28.0163 10.4374C28.1164 10.4668 28.2148 10.4978 28.3132 10.5306C28.4547 10.5755 28.5962 10.6238 28.7343 10.6739L28.8724 10.7239C29.0605 10.793 29.2486 10.8672 29.4333 10.9449L29.4557 10.9552C30.9279 11.5882 32.296 12.4401 33.5135 13.482L34.2832 12.6501C34.2107 12.5775 34.1364 12.5092 34.0622 12.441C34.0306 12.4118 33.9989 12.3827 33.9674 12.3532C31.3022 10.0445 27.92 8.72965 24.3952 8.63209H23.7912C22.6479 8.64792 21.5097 8.7868 20.3962 9.04632L20.1684 9.10155L19.9785 9.1516C18.869 9.44909 17.7967 9.87118 16.782 10.4098C15.671 11.0063 14.6596 11.772 13.7841 12.6795L14.5124 13.4734ZM27.0636 21.5077C27.0636 23.3289 24.4662 23.2828 23.2679 23.2616C23.1557 23.2596 23.0557 23.2578 22.9713 23.2578V19.749C23.0705 19.749 23.191 19.7458 23.3276 19.7422C24.5509 19.7102 27.0636 19.6445 27.0636 21.5077ZM13.5373 14.4417L12.6915 13.7012C6.95446 19.7145 7.78983 29.4989 12.6915 34.1624L13.5545 33.4876C11.1686 30.891 9.84331 27.494 9.84044 23.9677C9.83756 20.4413 11.1573 17.0422 13.539 14.4417H13.5373Z" fill="white"/>
<path fill-rule="evenodd" clip-rule="evenodd" d="M32 23.1111C27.0908 23.1111 23.1111 27.0908 23.1111 32C23.1111 36.9092 27.0908 40.8889 32 40.8889C36.9092 40.8889 40.8889 36.9092 40.8889 32C40.8889 27.0908 36.9092 23.1111 32 23.1111ZM22 32C22 26.4772 26.4772 22 32 22C37.5228 22 42 26.4772 42 32C42 37.5228 37.5228 42 32 42C26.4772 42 22 37.5228 22 32Z" fill="white"/>
<path fill-rule="evenodd" clip-rule="evenodd" d="M28.5375 30.4118C28.5375 27.9412 30.5563 26 32.9907 26C35.425 26 37.4438 28 37.4438 30.4118V30.5882H37.2063H28.775H28.5375V30.4118ZM27.8546 31.2941C27.7071 31.2941 27.5875 31.4126 27.5875 31.5588C27.5875 31.705 27.7071 31.8235 27.8546 31.8235H38.2453C38.3928 31.8235 38.5125 31.705 38.5125 31.5588C38.5125 31.4126 38.3928 31.2941 38.2453 31.2941H27.8546ZM25.4501 32.7941C25.4501 32.6479 25.5785 32.5294 25.6876 32.5294H33.2757C33.3847 32.5294 33.5251 32.6479 33.5251 32.7941C33.5251 32.9403 33.3847 33.0588 33.2757 33.0588H25.6876C25.5785 33.0588 25.4501 32.9403 25.4501 32.7941ZM26.9047 31.8235C27.0522 31.8235 27.1718 31.705 27.1718 31.5588C27.1718 31.4126 27.0522 31.2941 26.9047 31.2941C26.7571 31.2941 26.6375 31.4126 26.6375 31.5588C26.6375 31.705 26.7571 31.8235 26.9047 31.8235ZM25.0344 32.7941C25.0344 32.9403 24.9148 33.0589 24.7672 33.0589C24.6196 33.0589 24.5 32.9403 24.5 32.7941C24.5 32.648 24.6196 32.5294 24.7672 32.5294C24.9148 32.5294 25.0344 32.648 25.0344 32.7941ZM27.7648 33.7646C27.6341 33.7646 27.5281 33.8831 27.5281 34.0293C27.5281 34.1755 27.6341 34.294 27.7648 34.294H36.9695C37.1002 34.294 37.2062 34.1755 37.2062 34.0293C37.2062 33.8831 37.1002 33.7646 36.9695 33.7646H27.7648ZM30.7344 35.2649C30.7344 35.1188 30.8403 35.0002 30.9711 35.0002L38.5133 35.0002C38.644 35.0002 38.75 35.1187 38.75 35.2649C38.75 35.4111 38.644 35.5296 38.5133 35.5296L30.9711 35.5297C30.8403 35.5297 30.7344 35.4111 30.7344 35.2649ZM26.8453 34.294C26.9928 34.294 27.1125 34.1755 27.1125 34.0293C27.1125 33.8831 26.9928 33.7646 26.8453 33.7646C26.6977 33.7646 26.5781 33.8831 26.5781 34.0293C26.5781 34.1755 26.6977 34.294 26.8453 34.294ZM25.5688 35.2649C25.5688 35.4111 25.4492 35.5296 25.3016 35.5296C25.154 35.5296 25.0344 35.4111 25.0344 35.2649C25.0344 35.1187 25.154 35.0002 25.3016 35.0002C25.4492 35.0002 25.5688 35.1187 25.5688 35.2649ZM26.2516 35.0002C26.104 35.0002 25.9844 35.1187 25.9844 35.2649C25.9844 35.4111 26.104 35.5296 26.2516 35.5296H29.8735C30.021 35.5296 30.1407 35.4111 30.1407 35.2649C30.1407 35.1187 30.021 35.0002 29.8735 35.0002H26.2516ZM31.7438 36.4999C31.7438 36.6461 31.6242 36.7646 31.4766 36.7646C31.329 36.7646 31.2094 36.6461 31.2094 36.4999C31.2094 36.3537 31.329 36.2352 31.4766 36.2352C31.6242 36.2352 31.7438 36.3537 31.7438 36.4999ZM32.4313 36.2352C32.2812 36.2352 32.1594 36.3537 32.1594 36.4999C32.1594 36.6461 32.2812 36.7646 32.4313 36.7646H37.0829C37.233 36.7646 37.3548 36.6461 37.3548 36.4999C37.3548 36.3537 37.233 36.2352 37.0829 36.2352H32.4313ZM28.8937 37.7353C28.8937 37.8815 28.7741 38.0001 28.6265 38.0001C28.479 38.0001 28.3594 37.8815 28.3594 37.7353C28.3594 37.5892 28.479 37.4706 28.6265 37.4706C28.7741 37.4706 28.8937 37.5892 28.8937 37.7353ZM29.5812 37.4706C29.4311 37.4706 29.3093 37.5892 29.3093 37.7353C29.3093 37.8815 29.4311 38.0001 29.5812 38.0001H34.2328C34.383 38.0001 34.5047 37.8815 34.5047 37.7353C34.5047 37.5892 34.383 37.4706 34.2328 37.4706H29.5812Z" fill="white"/>
</svg>
