<svg width="48" height="48" viewBox="0 0 48 48" fill="none" xmlns="http://www.w3.org/2000/svg">
<g clip-path="url(#clip0_1304_1037)">
<path d="M0 12C0 5.37258 5.37258 0 12 0H36C42.6274 0 48 5.37258 48 12V36C48 42.6274 42.6274 48 36 48H12C5.37258 48 0 42.6274 0 36V12Z" fill="url(#paint0_linear_1304_1037)"/>
<path fill-rule="evenodd" clip-rule="evenodd" d="M21.1286 22.4819H13C13 17.7735 14.4129 12.8182 16.9308 9.58562C19.4161 10.9186 21.5199 12.8739 23.0352 15.244C22.3612 16.3844 21.1286 18.9523 21.1286 22.4819ZM23.1593 32.8191C22.4947 31.7124 21.2151 29.1144 21.2151 25.5181H13.0865C13.0865 30.2994 14.5435 35.3352 17.135 38.5632C19.5994 37.1961 21.6765 35.2121 23.1593 32.8191ZM17.7133 39.2327C22.5759 36.4669 25.9709 31.4062 26.4355 25.5181H34.2727C34.2727 33.412 30.0418 42 23.5499 42C21.2737 42 19.3073 40.9442 17.7133 39.2327ZM26.413 22.4819C25.8622 16.6192 22.4033 11.6053 17.4985 8.90735C19.1148 7.11358 21.1257 6 23.4634 6C29.9553 6 34.1862 14.588 34.1862 22.4819H26.413Z" fill="white"/>
<path d="M0 28H8C14.6274 28 20 33.3726 20 40V48H12C5.37258 48 0 42.6274 0 36V28Z" fill="#3F3F3F"/>
<path d="M15.2986 34.7265C15.1181 34.5836 14.9028 34.3885 14.5104 34.3397C14.1424 34.2909 13.7674 34.5383 13.5139 34.7021C13.2604 34.8658 12.7812 35.3467 12.5833 35.493C12.3854 35.6394 11.8785 35.7753 11.0625 36.2666C10.2465 36.7579 7.04514 38.8206 7.04514 38.8206L7.87847 38.8311L4.16319 40.751H4.53472L4 41.1586C4 41.1586 4.47222 41.2841 4.86806 41.0332V41.1482C4.86806 41.1482 9.29167 39.399 10.1458 39.852L9.625 40.0053C9.67014 40.0053 10.5104 40.0611 10.5104 40.0611C10.5308 40.2357 10.5893 40.4036 10.6817 40.553C10.7741 40.7023 10.8982 40.8294 11.0451 40.9252C11.5521 41.2597 11.5625 41.4444 11.5625 41.4444C11.5625 41.4444 11.2986 41.5524 11.2986 41.6883C11.2986 41.6883 11.6875 41.5698 12.0486 41.5803C12.2778 41.589 12.5051 41.6252 12.7257 41.6883C12.7257 41.6883 12.6979 41.5419 12.3472 41.4444C11.9965 41.3468 11.6493 40.9635 11.4792 40.7545C11.375 40.6214 11.307 40.4634 11.2821 40.296C11.2571 40.1286 11.276 39.9576 11.3368 39.7997C11.4583 39.4827 11.8819 39.3084 12.7569 38.8555C13.7882 38.3189 14.0243 37.9216 14.1701 37.6115C14.316 37.3014 14.5312 36.6847 14.6528 36.3955C14.8056 36.0227 14.9931 35.824 15.1493 35.7056C15.3056 35.5871 16 35.3258 16 35.3258C16 35.3258 15.4688 34.8624 15.2986 34.7265Z" fill="white"/>
</g>
<defs>
<linearGradient id="paint0_linear_1304_1037" x1="48" y1="48" x2="-2.71797e-05" y2="2.71797e-05" gradientUnits="userSpaceOnUse">
<stop offset="0.161458" stop-color="#DF5262"/>
<stop offset="0.53125" stop-color="#EC725D"/>
<stop offset="0.753207" stop-color="#F38861"/>
</linearGradient>
<clipPath id="clip0_1304_1037">
<rect width="48" height="48" fill="white"/>
</clipPath>
</defs>
</svg>
