<svg width="48" height="48" viewBox="0 0 48 48" fill="none" xmlns="http://www.w3.org/2000/svg">
<g clip-path="url(#clip0_1301_798)">
<path d="M0 12C0 5.37258 5.37258 0 12 0H36C42.6274 0 48 5.37258 48 12V36C48 42.6274 42.6274 48 36 48H12C5.37258 48 0 42.6274 0 36V12Z" fill="url(#paint0_linear_1301_798)"/>
<path d="M40.253 17.197C38.3734 16.1108 35.9365 17.1403 35.4454 19.2466C35.1242 20.6256 35.6437 21.9763 36.8055 22.8263C36.9849 22.9586 36.966 23.0719 36.9283 23.223C36.7205 24.1298 36.3143 24.942 35.7571 25.6788C34.2364 27.5111 31.8279 28.3612 29.4949 27.8323C28.5882 27.6339 27.5681 27.02 26.8975 27.6906C26.4063 28.1817 26.4347 28.6729 26.5669 29.1263C27.1147 31.0058 26.9164 32.9421 25.868 34.5856C24.8951 36.1062 22.9966 36.8996 21.6932 37.2019C21.4949 37.2491 21.2115 37.353 21.0793 37.0696C20.5976 36.0023 19.6625 35.4829 18.5291 35.3412C14.7227 35.0011 13.5231 40.026 16.8762 41.6789C18.5102 42.4817 20.5692 41.7356 21.2776 40.0543C21.3626 39.856 21.4665 39.771 21.6838 39.7521C23.025 39.6293 24.2812 39.1948 25.4146 38.477C26.4913 37.7969 27.3792 36.8996 28.0592 35.8229C29.0321 34.2739 29.4571 32.5737 29.4005 30.7414C29.391 30.4014 29.3816 30.4108 29.731 30.458C32.8857 30.9303 36.2104 29.5607 38.0428 26.9255C38.5528 26.1888 39.1101 24.5359 39.4312 23.6575C39.5068 23.4497 39.554 23.3458 39.7618 23.2891C42.5387 22.4296 42.7654 18.5854 40.253 17.197ZM18.2646 39.8654C16.6967 39.8276 16.6023 37.4852 18.2268 37.4569C19.7381 37.4758 19.9175 39.771 18.2646 39.8654ZM38.704 21.3151C38.0239 21.3056 37.4761 20.7673 37.4855 20.1061C37.5233 18.4532 39.8846 18.576 39.8752 20.1817C39.8563 20.8239 39.3462 21.3245 38.704 21.3151ZM20.8148 31.8654C16.5739 31.7992 11.7852 30.5619 9.45226 26.7083C6.7226 22.4391 8.61164 17.2631 8.97055 12.6161C9.06501 11.5677 9.10279 10.5193 9.01778 9.47085C8.88555 8.51689 9.72617 7.82739 10.6235 8.03519C11.4546 8.18631 12.2953 8.31854 13.1359 8.29021C16.2717 8.2052 22.6755 7.68571 25.339 8.83802C28.9471 10.4059 31.2328 14.0234 31.6201 17.792C31.7995 19.1994 31.809 20.6256 31.6767 22.0424C31.6106 22.7508 31.0628 23.2325 30.3639 23.2041C29.7499 23.1852 29.1927 22.6658 29.136 22.0613C29.1266 22.0046 29.136 21.9385 29.136 21.8724C29.5421 16.7531 28.2198 11.3127 22.2599 10.7554C20.5598 10.5854 18.8596 10.6987 17.1595 10.7743C15.3838 10.8498 13.6176 10.8971 11.8419 10.7365C11.7002 10.7271 11.6058 10.7176 11.6058 10.916C11.5963 13.23 11.2185 15.5063 10.8879 17.7826C10.4251 20.8523 10.1418 24.2053 12.5408 26.5761C14.7604 28.6729 17.934 29.2868 20.8998 29.3057C22.4866 29.3813 22.6094 31.8559 20.8148 31.8654ZM19.3508 22.7791C21.6082 22.883 21.6554 26.1227 19.3791 26.1794C18.4252 26.1699 17.6696 25.3765 17.679 24.4037C17.679 23.4875 18.4157 22.7697 19.3508 22.7791ZM24.4512 18.1321C26.7275 18.1982 26.7747 21.4662 24.5268 21.5418C23.5917 21.5418 22.7983 20.7578 22.7888 19.8416C22.7888 18.8688 23.5067 18.1226 24.4512 18.1321Z" fill="white"/>
</g>
<defs>
<linearGradient id="paint0_linear_1301_798" x1="48" y1="48" x2="-2.62577e-05" y2="2.62577e-05" gradientUnits="userSpaceOnUse">
<stop stop-color="#5C09BA"/>
<stop offset="0.583333" stop-color="#C72F9E"/>
<stop offset="1" stop-color="#FCA027"/>
</linearGradient>
<clipPath id="clip0_1301_798">
<rect width="48" height="48" fill="white"/>
</clipPath>
</defs>
</svg>
