<svg width="48" height="48" viewBox="0 0 48 48" fill="none" xmlns="http://www.w3.org/2000/svg">
<g clip-path="url(#clip0_1300_1506)">
<path d="M0 12C0 5.37258 5.37258 0 12 0H36C42.6274 0 48 5.37258 48 12V36C48 42.6274 42.6274 48 36 48H12C5.37258 48 0 42.6274 0 36V12Z" fill="url(#paint0_linear_1300_1506)"/>
<path d="M38.6957 39H30.8696V32.4783H25.6521V24.6522H33.4782V31.1739H38.6957V39Z" fill="white"/>
<path d="M17.8261 24.6522H25.6521V16.8261H17.8261V9H10V39H17.8261V24.6522Z" fill="white"/>
<path d="M38.6957 16.8261L25.6521 16.8261L25.6522 9H38.6957V16.8261Z" fill="white"/>
</g>
<defs>
<linearGradient id="paint0_linear_1300_1506" x1="48" y1="48" x2="-2.62577e-05" y2="2.62577e-05" gradientUnits="userSpaceOnUse">
<stop stop-color="#0B8789"/>
<stop offset="1" stop-color="#36F7FA"/>
</linearGradient>
<clipPath id="clip0_1300_1506">
<rect width="48" height="48" fill="white"/>
</clipPath>
</defs>
</svg>
