<svg width="48" height="48" viewBox="0 0 48 48" fill="none" xmlns="http://www.w3.org/2000/svg">
<g clip-path="url(#clip0_1346_2628)">
<path d="M0 12C0 5.37258 5.37258 0 12 0H36C42.6274 0 48 5.37258 48 12V36C48 42.6274 42.6274 48 36 48H12C5.37258 48 0 42.6274 0 36V12Z" fill="url(#paint0_linear_1346_2628)"/>
<path d="M34.6576 38.5073C39.1105 35.2305 42 29.9528 42 24.0002C42 14.0591 33.9412 6 23.9999 6C14.0588 6 6 14.0591 6 24.0002C6 29.9529 8.88958 35.2307 13.3426 38.5075L22.5405 23.9632H13.1291V20.8627H22.5405V17.6719H13.1291V14.5714H34.871V17.6719H25.4614V20.8627H34.871V23.9632H25.4614L34.6576 38.5073Z" fill="white"/>
<path d="M32.1269 40.0653L23.9999 27.2083L15.8729 40.0653C18.3142 41.3027 21.0756 42 23.9999 42C26.9242 42 29.6856 41.3027 32.1269 40.0653Z" fill="white"/>
<path d="M0 28H8C14.6274 28 20 33.3726 20 40V48H12C5.37258 48 0 42.6274 0 36V28Z" fill="#3F3F3F"/>
<path d="M15.2986 34.7265C15.1181 34.5837 14.9028 34.3885 14.5104 34.3398C14.1424 34.291 13.7674 34.5384 13.5139 34.7021C13.2604 34.8659 12.7812 35.3467 12.5833 35.4931C12.3854 35.6394 11.8785 35.7753 11.0625 36.2666C10.2465 36.7579 7.04514 38.8207 7.04514 38.8207L7.87847 38.8311L4.16319 40.751H4.53472L4 41.1587C4 41.1587 4.47222 41.2841 4.86806 41.0333V41.1483C4.86806 41.1483 9.29167 39.3991 10.1458 39.8521L9.625 40.0054C9.67014 40.0054 10.5104 40.0611 10.5104 40.0611C10.5308 40.2357 10.5893 40.4037 10.6817 40.553C10.7741 40.7024 10.8982 40.8295 11.0451 40.9253C11.5521 41.2598 11.5625 41.4444 11.5625 41.4444C11.5625 41.4444 11.2986 41.5524 11.2986 41.6883C11.2986 41.6883 11.6875 41.5699 12.0486 41.5803C12.2778 41.589 12.5051 41.6253 12.7257 41.6883C12.7257 41.6883 12.6979 41.542 12.3472 41.4444C11.9965 41.3469 11.6493 40.9636 11.4792 40.7545C11.375 40.6214 11.307 40.4635 11.2821 40.2961C11.2571 40.1287 11.276 39.9577 11.3368 39.7998C11.4583 39.4827 11.8819 39.3085 12.7569 38.8555C13.7882 38.3189 14.0243 37.9217 14.1701 37.6116C14.316 37.3015 14.5312 36.6847 14.6528 36.3955C14.8056 36.0227 14.9931 35.8241 15.1493 35.7056C15.3056 35.5872 16 35.3258 16 35.3258C16 35.3258 15.4688 34.8624 15.2986 34.7265Z" fill="white"/>
</g>
<defs>
<linearGradient id="paint0_linear_1346_2628" x1="48" y1="48" x2="-2.71797e-05" y2="2.71797e-05" gradientUnits="userSpaceOnUse">
<stop stop-color="#B01915"/>
<stop offset="0.750895" stop-color="#E73B33"/>
</linearGradient>
<clipPath id="clip0_1346_2628">
<rect width="48" height="48" fill="white"/>
</clipPath>
</defs>
</svg>
