<svg width="48" height="48" viewBox="0 0 48 48" fill="none" xmlns="http://www.w3.org/2000/svg">
<g clip-path="url(#clip0_1300_1249)">
<path d="M0 12C0 5.37258 5.37258 0 12 0H36C42.6274 0 48 5.37258 48 12V36C48 42.6274 42.6274 48 36 48H12C5.37258 48 0 42.6274 0 36V12Z" fill="url(#paint0_linear_1300_1249)"/>
<path fill-rule="evenodd" clip-rule="evenodd" d="M30.815 19.2237C33.6724 15.8183 33.2283 10.741 29.8228 7.88342C26.4295 5.03615 21.3766 5.46686 18.5134 8.83879L18.5054 8.81689C14.3279 10.3374 12.174 14.9565 13.6945 19.1339C15.215 23.3115 19.8342 25.4654 24.0115 23.9451L21.2586 16.381L18.5463 8.9292L24.6485 14.0497C26.666 15.7425 27.2593 16.2403 28.1174 16.9603C28.7078 17.4557 29.4237 18.0563 30.815 19.2237ZM29.4945 39.1323C33.6721 37.6117 35.826 32.9926 34.3054 28.815C32.785 24.6377 28.1659 22.4838 23.9884 24.0041L26.7416 31.5682L27.7619 34.372L29.4945 39.1323ZM18.1457 40.1166C14.7401 37.2592 14.2959 32.1819 17.1535 28.7764L19.7167 30.9272L23.3197 33.9504L29.4859 39.1246C26.6285 42.5302 21.5512 42.9743 18.1457 40.1166Z" fill="white"/>
<path d="M0 28H8C14.6274 28 20 33.3726 20 40V48H12C5.37258 48 0 42.6274 0 36V28Z" fill="#D43079"/>
<g filter="url(#filter0_d_1300_1249)">
<path d="M9.99889 34.5169C11.1934 34.5169 12.1617 33.9535 12.1617 33.2585C12.1617 32.5634 11.1934 32 9.99889 32C8.80439 32 7.83606 32.5634 7.83606 33.2585C7.83606 33.9535 8.80439 34.5169 9.99889 34.5169Z" fill="white"/>
<path d="M9.99889 43.9991C11.1934 43.9991 12.1617 43.4357 12.1617 42.7407C12.1617 42.0457 11.1934 41.4822 9.99889 41.4822C8.80439 41.4822 7.83606 42.0457 7.83606 42.7407C7.83606 43.4357 8.80439 43.9991 9.99889 43.9991Z" fill="white"/>
<path d="M6.98482 36.2589C7.58207 35.224 7.5782 34.1032 6.97617 33.7554C6.37413 33.4077 5.40192 33.9647 4.80467 34.9996C4.20742 36.0345 4.21129 37.1554 4.81333 37.5031C5.41536 37.8509 6.38757 37.2938 6.98482 36.2589Z" fill="white"/>
<path d="M15.1921 40.9995C15.7894 39.9646 15.7858 38.8439 15.1842 38.4964C14.5826 38.1489 13.6107 38.7061 13.0135 39.741C12.4162 40.7759 12.4198 41.8966 13.0214 42.2441C13.623 42.5916 14.5949 42.0344 15.1921 40.9995Z" fill="white"/>
<path d="M6.97647 42.2438C7.5785 41.896 7.58238 40.7752 6.98513 39.7403C6.38788 38.7054 5.41566 38.1484 4.81363 38.4961C4.2116 38.8438 4.20772 39.9647 4.80497 40.9996C5.40222 42.0345 6.37444 42.5915 6.97647 42.2438Z" fill="white"/>
<path d="M15.1847 37.5034C15.7864 37.1559 15.7899 36.0352 15.1927 35.0003C14.5954 33.9654 13.6235 33.4082 13.0219 33.7557C12.4203 34.1032 12.4167 35.2239 13.014 36.2588C13.6112 37.2937 14.5831 37.8509 15.1847 37.5034Z" fill="white"/>
</g>
</g>
<defs>
<filter id="filter0_d_1300_1249" x="-2" y="30" width="24" height="24" filterUnits="userSpaceOnUse" color-interpolation-filters="sRGB">
<feFlood flood-opacity="0" result="BackgroundImageFix"/>
<feColorMatrix in="SourceAlpha" type="matrix" values="0 0 0 0 0 0 0 0 0 0 0 0 0 0 0 0 0 0 127 0" result="hardAlpha"/>
<feOffset dy="4"/>
<feGaussianBlur stdDeviation="2"/>
<feComposite in2="hardAlpha" operator="out"/>
<feColorMatrix type="matrix" values="0 0 0 0 0 0 0 0 0 0 0 0 0 0 0 0 0 0 0.25 0"/>
<feBlend mode="normal" in2="BackgroundImageFix" result="effect1_dropShadow_1300_1249"/>
<feBlend mode="normal" in="SourceGraphic" in2="effect1_dropShadow_1300_1249" result="shape"/>
</filter>
<linearGradient id="paint0_linear_1300_1249" x1="48" y1="48" x2="0" y2="0" gradientUnits="userSpaceOnUse">
<stop stop-color="#23371A"/>
<stop offset="0.747945" stop-color="#89C62D"/>
</linearGradient>
<clipPath id="clip0_1300_1249">
<rect width="48" height="48" fill="white"/>
</clipPath>
</defs>
</svg>
