<svg width="48" height="48" viewBox="0 0 48 48" fill="none" xmlns="http://www.w3.org/2000/svg">
<g clip-path="url(#clip0_1300_1272)">
<path d="M0 12C0 5.37258 5.37258 0 12 0H36C42.6274 0 48 5.37258 48 12V36C48 42.6274 42.6274 48 36 48H12C5.37258 48 0 42.6274 0 36V12Z" fill="url(#paint0_linear_1300_1272)"/>
<path fill-rule="evenodd" clip-rule="evenodd" d="M30.8149 19.2237C33.6724 15.8183 33.2282 10.741 29.8227 7.88342C26.4295 5.03615 21.3765 5.46686 18.5133 8.83879L18.5054 8.81689C14.3279 10.3374 12.1739 14.9565 13.6944 19.1339C15.2149 23.3115 19.8341 25.4654 24.0115 23.9451L21.2585 16.381L18.5462 8.9292L24.6485 14.0497C26.6659 15.7425 27.2592 16.2403 28.1173 16.9603C28.7078 17.4557 29.4236 18.0563 30.8149 19.2237ZM29.4945 39.1323C33.672 37.6117 35.826 32.9926 34.3054 28.815C32.785 24.6377 28.1659 22.4838 23.9883 24.0041L26.7415 31.5682L27.7619 34.372L29.4945 39.1323ZM18.1456 40.1166C14.74 37.2592 14.2958 32.1819 17.1534 28.7764L19.7166 30.9272L23.3196 33.9504L29.4859 39.1246C26.6284 42.5302 21.5511 42.9743 18.1456 40.1166Z" fill="white"/>
<path d="M0 28H8C14.6274 28 20 33.3726 20 40V48H12C5.37258 48 0 42.6274 0 36V28Z" fill="#3F3F3F"/>
<path d="M15.2986 34.7265C15.1181 34.5837 14.9028 34.3885 14.5104 34.3398C14.1424 34.291 13.7674 34.5384 13.5139 34.7021C13.2604 34.8659 12.7812 35.3467 12.5833 35.4931C12.3854 35.6394 11.8785 35.7753 11.0625 36.2666C10.2465 36.7579 7.04514 38.8207 7.04514 38.8207L7.87847 38.8311L4.16319 40.751H4.53472L4 41.1587C4 41.1587 4.47222 41.2841 4.86806 41.0333V41.1483C4.86806 41.1483 9.29167 39.3991 10.1458 39.8521L9.625 40.0054C9.67014 40.0054 10.5104 40.0611 10.5104 40.0611C10.5308 40.2357 10.5893 40.4037 10.6817 40.553C10.7741 40.7024 10.8982 40.8295 11.0451 40.9253C11.5521 41.2598 11.5625 41.4444 11.5625 41.4444C11.5625 41.4444 11.2986 41.5524 11.2986 41.6883C11.2986 41.6883 11.6875 41.5699 12.0486 41.5803C12.2778 41.589 12.5051 41.6253 12.7257 41.6883C12.7257 41.6883 12.6979 41.542 12.3472 41.4444C11.9965 41.3469 11.6493 40.9636 11.4792 40.7545C11.375 40.6214 11.307 40.4635 11.2821 40.2961C11.2571 40.1287 11.276 39.9577 11.3368 39.7998C11.4583 39.4827 11.8819 39.3085 12.7569 38.8555C13.7882 38.3189 14.0243 37.9217 14.1701 37.6116C14.316 37.3015 14.5312 36.6847 14.6528 36.3955C14.8056 36.0227 14.9931 35.8241 15.1493 35.7056C15.3056 35.5872 16 35.3258 16 35.3258C16 35.3258 15.4688 34.8624 15.2986 34.7265Z" fill="white"/>
</g>
<defs>
<linearGradient id="paint0_linear_1300_1272" x1="48" y1="48" x2="0" y2="0" gradientUnits="userSpaceOnUse">
<stop stop-color="#1C3816"/>
<stop offset="0.749836" stop-color="#4F6B49"/>
</linearGradient>
<clipPath id="clip0_1300_1272">
<rect width="48" height="48" fill="white"/>
</clipPath>
</defs>
</svg>
