<svg width="48" height="48" viewBox="0 0 48 48" fill="none" xmlns="http://www.w3.org/2000/svg">
<path d="M13.9475 25.8236L14.9475 18.2924L6.26001 12.2611L14.1975 14.9486L16.0725 12.0736L22.9162 7.82361L38.01 16.1361L38.7913 28.8236L32.0725 38.1674L26.76 38.9799L29.51 33.9486V29.1049L27.51 25.3236L25.4787 23.9799L22.3537 27.1986V30.6049L19.9162 32.8861L16.8225 33.2611L15.4475 34.0424L13.1975 33.3236L12.26 29.9486L13.9475 27.5736V25.8236Z" fill="white"/>
<path d="M27.8225 12.1986C26.1663 11.8548 24.3538 11.9486 24.3538 11.9486C24.3538 11.9486 23.76 14.6986 20.0725 15.4173C20.1038 15.4173 24.9475 17.0736 27.8225 12.1986Z" fill="#94A6C3"/>
<path d="M29.3225 37.1361C31.3225 35.5736 32.8225 33.4174 33.51 30.9799C33.5413 30.8861 33.8225 30.7299 34.01 30.6049C34.3225 30.4174 34.635 30.2611 34.6975 30.0111C34.8225 29.2924 34.885 28.5424 34.885 27.7924C34.885 27.5111 34.6038 27.2299 34.3225 26.9486C34.1038 26.7611 33.885 26.5424 33.885 26.3861C33.5725 23.5424 32.26 20.8861 30.1663 18.9486L29.9475 19.1674C31.9788 21.0736 33.2913 23.6674 33.5725 26.4174C33.6038 26.6674 33.8538 26.9174 34.1038 27.1674C34.3225 27.3549 34.5725 27.6361 34.5725 27.7611C34.5725 28.4799 34.51 29.1986 34.385 29.9174C34.3538 30.0424 34.0725 30.1674 33.8538 30.2924C33.5413 30.4486 33.26 30.6049 33.1975 30.8549C32.4475 33.5111 30.7288 35.8236 28.4475 37.3236C28.8538 36.4486 30.135 33.6049 30.8225 32.1674L30.6975 27.5424L26.7288 23.6986L24.4788 24.0111L22.01 28.0111C22.01 28.0111 23.1663 29.4799 21.5413 31.1986C19.9475 32.8861 18.6975 33.2611 18.6975 33.2611L17.5413 32.6361C17.885 32.1986 18.5725 31.5424 19.1038 31.1049C20.01 30.3549 20.9163 30.2924 20.9163 29.4799C20.9475 27.7924 19.135 28.2611 19.135 28.2611L18.4788 28.8861L18.1975 31.1986L16.8225 32.9174L16.6663 32.8861L14.4163 32.3861C14.4163 32.3861 15.7913 31.6674 16.01 30.8549C16.2288 30.0736 15.5725 27.4799 15.5413 27.3236C15.5725 27.3549 16.1975 27.8861 16.4788 28.7611C16.9788 27.3861 17.635 26.0736 17.8225 25.9486C18.01 25.8236 20.5413 24.4799 20.5413 24.4799L19.6975 26.6986L20.3225 26.3549L21.8225 22.6674C21.8225 22.6674 23.2913 21.9486 24.385 21.9486C26.3538 21.9174 29.26 19.5111 27.9475 15.1986C28.3225 15.3549 34.8225 18.6049 35.9475 24.9799C36.7913 29.8861 34.01 34.4799 29.3225 37.1361Z" fill="#94A6C3"/>
<path d="M21.8849 12.8861C22.6037 12.0424 22.3224 10.7924 22.3224 10.7924L20.2287 13.8861C20.1974 13.8861 20.9787 13.9174 21.8849 12.8861Z" fill="#1B314F"/>
<path d="M14.8538 29.7925L15.1038 28.5425C15.1038 28.5425 14.0725 30.355 13.9788 30.605C13.885 30.8862 14.0413 31.3862 14.4475 31.355C14.8538 31.3237 15.3538 30.73 15.3538 30.2925C15.3538 29.73 14.8538 29.7925 14.8538 29.7925Z" fill="#1B314F"/>
<path d="M33.4163 9.91735C33.4163 9.91735 34.9788 9.97985 36.6038 10.1674C32.9475 7.29234 29.4787 6.44859 26.6662 6.44859C22.7912 6.44859 20.1662 8.04235 20.01 8.1361L21.2287 6.19859C21.2287 6.19859 16.3538 5.72984 14.635 10.8861C14.1975 9.79235 13.7913 8.1986 13.7913 8.1986C13.7913 8.1986 11.26 10.4174 12.4475 14.1049C9.54125 13.0424 5.385 11.5736 5.22875 11.5424C5.01 11.5111 4.9475 11.6049 4.9475 11.6049C4.9475 11.6049 4.885 11.6986 5.0725 11.8549C5.41625 12.1361 11.9788 16.9799 13.4162 17.9174C13.1037 19.0424 13.1037 19.5736 13.4162 20.1049C13.8537 20.8236 13.885 21.1986 13.8225 21.7299C13.76 22.2611 13.1975 26.8549 13.0725 27.4174C12.9475 27.9799 11.635 29.9799 11.6975 30.5736C11.76 31.1674 12.5725 33.6986 13.2913 33.9799C13.8225 34.1674 15.135 34.5736 16.01 34.5736C16.3225 34.5736 16.6037 34.5111 16.7287 34.3861C17.26 33.9174 17.4162 33.8236 17.7912 33.8236C17.8225 33.8236 17.8537 33.8236 17.885 33.8236C18.0412 33.8236 18.2287 33.8549 18.4475 33.8549C18.9475 33.8549 19.6037 33.7611 20.0725 33.3236C20.76 32.6361 21.9475 31.6986 22.3225 31.2611C22.7912 30.6674 23.0413 29.8549 22.9163 29.0424C22.8225 28.2924 23.2288 27.6361 23.6975 26.9799C24.2913 26.1986 25.385 24.7924 25.385 24.7924C27.5412 26.4174 28.885 28.8861 28.885 31.6361C28.885 36.5111 24.635 40.4486 19.385 40.4486C18.5725 40.4486 17.7912 40.3549 17.01 40.1674C19.4162 41.0111 21.4475 41.2924 23.1037 41.2924C26.635 41.2924 28.51 40.0111 28.51 40.0111C28.51 40.0111 27.8537 40.8549 26.7912 41.8236C26.8225 41.8236 26.8225 41.8236 26.8225 41.8236C32.6662 41.0111 35.51 36.1986 35.51 36.1986C35.51 36.1986 35.2913 37.7611 35.01 38.8236C42.7913 32.9799 41.4788 25.6674 41.4475 25.4174C41.51 25.5111 42.2913 26.4486 42.6975 26.9486C43.9477 14.0736 33.4163 9.91735 33.4163 9.91735ZM21.4475 30.4799C21.3225 30.6361 20.7913 31.1049 20.4163 31.4486C20.0413 31.7924 19.635 32.1361 19.3225 32.4486C19.1975 32.5736 18.9475 32.6361 18.5725 32.6361C18.4475 32.6361 18.3225 32.6361 18.2288 32.6361C18.1663 32.6361 18.1037 32.6361 18.0412 32.6361C17.9787 32.6361 17.9475 32.6361 17.9163 32.6361C17.8225 32.6361 17.7287 32.6361 17.635 32.6361C18.1037 32.0111 19.4788 30.5736 19.9475 30.2611C20.51 29.8861 20.7912 29.5111 20.4475 28.8549C20.1037 28.1986 19.1975 28.3549 19.1975 28.3549C19.1975 28.3549 19.7288 28.1361 20.1975 28.1361C19.6038 27.9799 18.8537 28.1361 18.51 28.4799C18.135 28.8236 18.1975 30.0424 18.0412 30.8236C17.885 31.6361 17.3537 32.0424 16.5412 32.7924C16.1037 33.1986 15.7912 33.3236 15.5412 33.3236C15.01 33.2299 14.385 33.0736 13.9475 32.9174C13.635 32.5111 13.1662 31.1674 13.0412 30.6049C13.135 30.2924 13.51 29.6361 13.6975 29.2611C14.0725 28.5424 14.2912 28.1361 14.3537 27.7611C14.4787 27.2299 14.885 23.9486 15.0413 22.5736C15.4475 23.1049 16.01 23.9799 15.885 24.5424C16.7913 23.2611 16.135 22.0111 15.8225 21.5111C15.5413 21.0111 15.1662 20.0111 15.4787 18.9486C15.7912 17.8861 16.9163 14.9486 16.9163 14.9486C16.9163 14.9486 17.2912 15.6049 17.8225 15.4799C18.3537 15.3549 22.635 8.91735 22.635 8.91735C22.635 8.91735 23.7912 11.4486 22.5725 13.2924C21.3225 15.1361 20.1038 15.4799 20.1038 15.4799C20.1038 15.4799 21.8225 15.7924 23.4162 14.6361C24.0725 16.1674 24.6975 17.7611 24.7288 17.9799C24.635 18.1986 23.385 21.1986 23.26 21.3861C23.1975 21.4486 22.76 21.5736 22.4475 21.6361C21.9163 21.7924 21.6037 21.8861 21.4787 21.9799C21.26 22.1674 20.26 24.9174 19.7913 26.2611C19.2288 26.4174 18.6662 26.7299 18.26 27.3549C18.4787 27.1986 19.1662 27.1049 19.6662 27.0424C20.1037 27.0111 21.4475 27.7299 21.7912 29.0736C21.7912 29.1049 21.7912 29.1049 21.7912 29.1361C21.8537 29.6361 21.6975 30.1049 21.4475 30.4799ZM18.51 30.8549C18.7912 30.4486 18.76 29.7611 18.7913 29.5424C18.8225 29.3236 18.885 28.9174 19.135 28.8549C19.385 28.7924 19.9787 28.8861 19.9787 29.3236C19.9787 29.7299 19.5412 29.8236 19.2287 30.1049C19.01 30.3236 18.5725 30.7924 18.51 30.8549ZM30.9788 24.8861C31.2913 23.2924 31.3225 21.9174 31.2288 20.7924C32.4475 22.4174 33.1975 24.3861 33.4163 26.4174C33.4475 26.6674 33.6975 26.9174 33.9475 27.1674C34.1663 27.3549 34.4163 27.6049 34.4163 27.7611C34.4163 28.4799 34.3538 29.1986 34.2288 29.9174C34.1975 30.0111 33.9162 30.1674 33.6975 30.2924C33.385 30.4486 33.1037 30.6049 33.0412 30.8549C32.3537 33.2611 30.885 35.3861 28.9163 36.8861C31.8225 33.8549 33.2288 28.8549 30.9788 24.8861ZM29.01 37.1674C31.0412 35.6049 32.6038 33.4174 33.2913 30.9486C33.3225 30.8549 33.6038 30.6986 33.7913 30.5736C34.1038 30.4174 34.4162 30.2299 34.4787 29.9799C34.6037 29.2611 34.6663 28.5111 34.6663 27.7611C34.6663 27.4799 34.385 27.1986 34.1038 26.9174C33.9475 26.7299 33.6975 26.5111 33.6975 26.3549C33.4475 24.0736 32.5413 21.9174 31.135 20.1361C30.51 16.3861 28.01 15.2299 27.9475 15.1986C28.01 15.2924 29.635 17.6361 28.51 20.3861C27.3537 23.1674 24.385 22.7299 24.135 22.7611C23.885 22.7611 22.9163 24.0111 21.6975 26.3236C21.5412 26.2611 20.885 26.1049 20.135 26.2299C20.6975 24.6674 21.5412 22.4486 21.6975 22.2611C21.76 22.1986 22.2288 22.0736 22.5413 21.9799C23.135 21.8236 23.4162 21.7299 23.51 21.6049C23.5725 21.5111 23.885 20.7924 24.1975 20.0424C24.4788 20.0424 25.1975 19.9799 25.26 19.9486C25.3225 19.8861 25.9163 18.3549 25.9163 18.1674C25.9163 18.0111 24.6975 14.9799 24.2288 13.8236C24.4475 13.5736 24.6663 13.2611 24.885 12.9174C31.2913 13.6049 36.2913 19.0424 36.2913 25.6361C36.2913 30.6986 33.3225 35.1049 29.01 37.1674Z" fill="#1B314F"/>
<path d="M20.6975 20.2924C21.2912 19.6049 20.9787 18.3236 19.885 18.1049C20.1662 17.4486 20.5725 16.1361 20.5725 16.1361C20.5725 16.1361 17.385 21.1361 17.1037 21.2299C16.8225 21.3236 16.5412 20.2299 16.5412 20.2299C15.9475 22.5111 17.5412 22.8236 17.7287 22.1049C18.6037 21.8861 20.1037 20.9486 20.6975 20.2924Z" fill="#1B314F"/>
<path d="M17.9788 21.5112L19.6038 18.73C19.6038 18.73 20.5413 19.1987 20.0725 19.9487C19.4788 20.8237 17.9788 21.5112 17.9788 21.5112Z" fill="#FFD923"/>
<path d="M38.0725 34.3861C37.6038 35.0111 37.0725 35.6674 36.4475 36.2924C40.4788 28.5424 36.635 21.4486 36.4788 21.1674C36.76 21.4486 37.0413 21.7611 37.2913 22.0424C40.385 25.4799 40.76 30.6361 38.0725 34.3861Z" fill="#D82122"/>
<path d="M41.8225 24.4174C40.4163 20.6362 38.4163 17.4174 34.01 14.5112C29.76 11.6987 25.1975 11.9174 24.9475 11.9487C24.9163 11.9487 24.885 11.9487 24.885 11.9487C25.0413 11.8862 25.1975 11.8549 25.3538 11.8237C26.3225 11.5112 27.5725 11.2612 28.8225 11.1049C32.135 10.6362 35.4788 11.7612 37.76 14.1674C37.7913 14.1987 37.7913 14.1987 37.8225 14.2299C40.4163 16.9799 41.76 20.4174 41.8225 24.4174Z" fill="#D82122"/>
<path d="M33.01 8.94872C28.3538 8.07372 25.3538 8.51122 23.1975 9.32372C23.135 9.07372 22.9163 8.57372 22.7288 8.16747C22.0725 8.94872 21.385 9.88622 20.9475 10.48C19.76 11.2925 19.26 12.0737 19.26 12.0737C19.9475 9.72997 21.9475 7.97997 24.385 7.54248C25.0725 7.41748 25.8225 7.35498 26.635 7.35498C28.7913 7.38623 30.9475 7.91747 33.01 8.94872Z" fill="#D82122"/>
<path d="M15.7912 14.9487C12.1349 14.8237 13.3537 10.5737 13.4162 10.3237C13.4162 10.355 13.6662 13.6675 15.7912 14.9487Z" fill="#D82122"/>
<path d="M19.385 7.29236C16.5725 8.97985 17.135 13.0111 17.135 13.0111C14.4475 8.91735 19.1662 7.38611 19.385 7.29236Z" fill="#D82122"/>
<path d="M14.76 16.0736C14.9475 16.2299 15.135 16.5111 14.9163 16.9174C14.7913 17.1361 14.6038 17.1049 14.3225 16.9799C13.9475 16.7924 11.6975 15.4799 9.66626 14.1361C11.9788 14.9486 14.3225 15.8236 14.6975 16.0111C14.6975 16.0111 14.7288 16.0424 14.76 16.0736Z" fill="white"/>
</svg>
