<svg width="48" height="48" viewBox="0 0 48 48" fill="none" xmlns="http://www.w3.org/2000/svg">
<path fill-rule="evenodd" clip-rule="evenodd" d="M35.4187 11.005C34.2492 10.2461 33.4163 9.91734 33.4163 9.91734C33.4163 9.91734 33.9631 9.9392 34.7463 9.9959C35.0471 10.0177 35.3828 10.0446 35.7358 10.0774C36.0171 10.1035 36.3094 10.1334 36.6037 10.1673C36.0859 9.7601 35.5717 9.39361 35.0627 9.06452C31.978 7.07023 29.0804 6.44858 26.6663 6.44858C24.5358 6.44858 22.7831 6.93034 21.6109 7.3797C20.6663 7.74182 20.0986 8.0829 20.0137 8.13385L20.01 8.13608L21.2287 6.19858L21.3199 5.25057C21.6487 5.2822 21.9378 5.48203 22.0835 5.77857C22.1453 5.90428 22.1775 6.03974 22.1808 6.17542C23.365 5.8086 24.8934 5.4962 26.6663 5.4962C29.6853 5.4962 33.3629 6.40746 37.1925 9.41868C37.5274 9.68208 37.6467 10.1359 37.4844 10.53C37.3996 10.7358 37.2487 10.8992 37.0636 11.0013C37.7533 11.5294 38.4934 12.176 39.2212 12.9543C41.8593 15.7756 44.3003 20.2961 43.6454 27.0406C43.6081 27.4251 43.3422 27.7489 42.9724 27.8604C42.8031 27.9115 42.6275 27.9134 42.4634 27.8718C42.2498 30.7548 40.9928 35.5215 35.5819 39.5851C35.2575 39.8287 34.8145 39.8402 34.478 39.6135C34.3417 39.5217 34.235 39.399 34.1632 39.2595C34.1087 39.3103 34.0533 39.3613 33.9967 39.4124C32.4581 40.8052 30.1166 42.3271 26.9536 42.7669C26.9102 42.7729 26.8664 42.776 26.8225 42.776H26.7912C26.398 42.776 26.0452 42.5343 25.9032 42.1677C25.8798 42.1072 25.8628 42.0454 25.8523 41.9831C25.0718 42.1383 24.1538 42.2447 23.1037 42.2447C21.3367 42.2447 19.199 41.9442 16.6948 41.0661C16.2163 40.8983 15.9531 40.3848 16.0964 39.8983C16.2397 39.4118 16.7391 39.1229 17.2323 39.2412C17.9413 39.4114 18.648 39.4962 19.385 39.4962C24.178 39.4962 27.9327 35.9186 27.9327 31.6361C27.9327 29.5251 27.0373 27.5889 25.5296 26.1599C25.5254 26.1652 25.5212 26.1706 25.517 26.176C25.1728 26.6207 24.7581 27.1584 24.4644 27.5447C23.9891 28.2116 23.8225 28.5803 23.8601 28.9143C24.0222 30.0007 23.6874 31.0691 23.07 31.8512C23.0621 31.8613 23.0539 31.8712 23.0456 31.8809C22.8012 32.166 22.3367 32.571 21.9229 32.9318C21.9041 32.9483 21.8853 32.9646 21.8666 32.9809C21.45 33.3444 21.0422 33.7007 20.7459 33.997C20.7382 34.0047 20.7303 34.0123 20.7223 34.0199C19.9844 34.7085 19.0213 34.8072 18.4475 34.8072C18.2886 34.8072 18.1456 34.7952 18.0488 34.787L18.0436 34.7866C18.0423 34.7865 18.0409 34.7864 18.0396 34.7863C17.9447 34.7783 17.9088 34.776 17.885 34.776H17.7912C17.7755 34.776 17.7636 34.7763 17.7548 34.7766C17.737 34.7878 17.7053 34.8095 17.6541 34.8497C17.5842 34.9045 17.4959 34.9795 17.3734 35.0874C17.139 35.3074 16.8584 35.4037 16.6707 35.4506C16.4528 35.5051 16.2241 35.526 16.01 35.526C15.4539 35.526 14.8164 35.4014 14.2924 35.2714C13.7534 35.1377 13.2628 34.9798 12.9743 34.878C12.9642 34.8743 12.9542 34.8706 12.9442 34.8667C12.6696 34.7593 12.4641 34.5779 12.3239 34.4282C12.1765 34.2707 12.0486 34.0913 11.9394 33.916C11.721 33.5653 11.5266 33.1487 11.3656 32.7516C11.055 31.9852 10.7958 31.1049 10.7503 30.6733C10.7202 30.3867 10.79 30.115 10.842 29.9451C10.9018 29.7496 10.985 29.5456 11.0716 29.3526C11.2422 28.9727 11.4662 28.5491 11.6591 28.1843L11.6673 28.1688C11.8041 27.9102 11.924 27.6832 12.0165 27.4933C12.0624 27.3991 12.0965 27.324 12.1201 27.2665C12.1365 27.2266 12.1432 27.2064 12.1447 27.202C12.197 26.9549 12.3598 25.7446 12.5262 24.4413C12.69 23.1582 12.8459 21.8802 12.8766 21.6185C12.9025 21.3991 12.8987 21.2925 12.8765 21.1912C12.8525 21.0813 12.7907 20.9088 12.6027 20.6001C12.6009 20.597 12.5991 20.5941 12.5973 20.5911C12.5967 20.59 12.596 20.5888 12.5953 20.5877C12.1791 19.8801 12.1581 19.1842 12.3334 18.333C10.2071 16.8561 4.80379 12.8655 4.46941 12.5919C4.4672 12.5901 4.46499 12.5883 4.46279 12.5865C4.26495 12.4216 4.06372 12.1774 4.00266 11.8416C3.97241 11.6752 3.98344 11.5183 4.01912 11.3815C4.03649 11.3149 4.05889 11.2561 4.08261 11.2054C4.09447 11.1801 4.1067 11.1567 4.11887 11.1353C4.12496 11.1246 4.13105 11.1143 4.13709 11.1045C4.14011 11.0997 4.14312 11.0949 4.14612 11.0902C4.14762 11.0879 4.14911 11.0856 4.1506 11.0833L4.15284 11.0799L4.15395 11.0782C4.15451 11.0774 4.15506 11.0765 4.94749 11.6048C4.94749 11.6048 4.88499 11.6986 5.07249 11.8548C5.08769 11.8673 5.11505 11.8886 5.15358 11.9182C5.15974 11.9229 5.1662 11.9278 5.17294 11.933C5.26952 12.0067 5.42415 12.123 5.62496 12.273C5.89599 12.4753 6.25114 12.739 6.66129 13.0422C8.78855 14.6148 12.3952 17.2514 13.4162 17.9173C13.1037 19.0423 13.1037 19.5736 13.4162 20.1048C13.8537 20.8236 13.885 21.1985 13.8225 21.7299C13.76 22.2611 13.1975 26.8548 13.0725 27.4173C13.022 27.6443 12.7781 28.1056 12.5092 28.6141C12.112 29.3652 11.6602 30.2195 11.6975 30.5736C11.76 31.1673 12.5725 33.6985 13.2912 33.9799C13.8225 34.1673 15.135 34.5736 16.01 34.5736C16.3225 34.5736 16.6037 34.5111 16.7287 34.3861C17.26 33.9173 17.4163 33.8236 17.7912 33.8236H17.885C17.9566 33.8236 18.0347 33.8302 18.1192 33.8372H18.1193C18.2196 33.8457 18.3289 33.8548 18.4475 33.8548C18.9475 33.8548 19.6037 33.7611 20.0725 33.3236C20.3966 32.9995 20.8317 32.6199 21.2406 32.2633C21.6989 31.8634 22.1243 31.4923 22.3225 31.2611C22.7912 30.6673 23.0412 29.8548 22.9163 29.0423C22.8225 28.2923 23.2287 27.6361 23.6975 26.9799C24.2912 26.1985 25.385 24.7923 25.385 24.7923C25.4612 24.8498 25.5364 24.9082 25.6105 24.9678C25.7847 25.1076 25.9533 25.2531 26.1158 25.4041C27.8406 27.0058 28.885 29.2117 28.885 31.6361C28.885 35.8563 25.6999 39.3741 21.4382 40.2428C20.777 40.3776 20.0901 40.4485 19.385 40.4485C18.5725 40.4485 17.7912 40.3548 17.01 40.1673C17.847 40.4608 18.6387 40.6863 19.385 40.8555C20.1267 41.0237 20.8237 41.1363 21.4758 41.205C22.0536 41.266 22.5963 41.2923 23.1037 41.2923C24.4525 41.2923 25.5595 41.1054 26.4128 40.8744C27.7937 40.5005 28.51 40.0111 28.51 40.0111C28.51 40.0111 28.3248 40.2492 27.992 40.6176C27.7189 40.9198 27.3466 41.3097 26.8954 41.7278C26.8713 41.7502 26.847 41.7725 26.8225 41.795C26.8213 41.7961 26.8202 41.7972 26.8189 41.7983C26.8098 41.8067 26.8006 41.8151 26.7912 41.8236H26.8225C27.4159 41.7411 27.9784 41.6173 28.51 41.4616C31.2237 40.6665 33.1359 39.0375 34.2683 37.8012C35.0989 36.8943 35.51 36.1985 35.51 36.1985C35.51 36.1985 35.4376 36.7158 35.3226 37.3574C35.2716 37.6412 35.2124 37.9493 35.1474 38.2478C35.1039 38.4474 35.0579 38.6427 35.01 38.8236C35.4322 38.5065 35.8276 38.1851 36.198 37.8607C40.7756 33.8512 41.5155 29.3891 41.5482 27.0486C41.5497 26.9413 41.5497 26.8383 41.5486 26.7401C41.5486 26.7396 41.5485 26.7391 41.5485 26.7386C41.5485 26.7386 41.5485 26.7385 41.5485 26.7384C41.5485 26.7384 41.5485 26.7383 41.5485 26.7382C41.5485 26.7381 41.5485 26.738 41.5485 26.7378C41.5485 26.7373 41.5485 26.7367 41.5485 26.7363V26.7362C41.5485 26.7361 41.5485 26.736 41.5485 26.7359C41.5485 26.7342 41.5485 26.7325 41.5484 26.7309C41.5484 26.7308 41.5484 26.7308 41.5484 26.7307C41.5395 26.0379 41.4717 25.5816 41.4522 25.45L41.4497 25.4332C41.4487 25.4263 41.448 25.4211 41.4475 25.4173C41.4499 25.421 41.4534 25.4259 41.458 25.432C41.4613 25.4365 41.4652 25.4417 41.4696 25.4474C41.5237 25.5181 41.6567 25.6814 41.8219 25.8826C41.9169 25.9983 42.0226 26.1266 42.1299 26.2569L42.13 26.257L42.1301 26.2571L42.1302 26.2572L42.1313 26.2586C42.2566 26.4106 42.384 26.5654 42.4996 26.7063C42.5712 26.7937 42.6384 26.8758 42.6975 26.9485C42.738 26.5317 42.7661 26.124 42.7827 25.7253C42.7827 25.7252 42.7827 25.7251 42.7827 25.7251C42.7827 25.7241 42.7827 25.7231 42.7827 25.7221C42.7827 25.7216 42.7827 25.721 42.7828 25.7204C42.7828 25.7202 42.7828 25.72 42.7828 25.7198C42.7828 25.7197 42.7828 25.7197 42.7828 25.7196C42.7828 25.7194 42.7828 25.7193 42.7828 25.7191C42.7828 25.7187 42.7829 25.7183 42.7829 25.718C42.7829 25.7176 42.7829 25.7172 42.7829 25.7168C42.7829 25.7168 42.7829 25.7167 42.7829 25.7166C42.7851 25.6639 42.7871 25.6113 42.7888 25.5589C43.0691 17.2142 38.2545 12.8451 35.4187 11.005ZM14.0924 9.27916C14.1147 9.35452 14.1381 9.43194 14.1622 9.51078C14.3006 9.96305 14.4654 10.4621 14.635 10.8861C14.794 10.4091 14.98 9.98021 15.1867 9.59466C16.5258 7.09652 18.7319 6.41686 20.0755 6.2433C20.7661 6.15409 21.2287 6.19858 21.2287 6.19858C21.3199 5.25057 21.3194 5.25053 21.3188 5.25047L21.3177 5.25036L21.3149 5.25011L21.3083 5.24951C21.3055 5.24927 21.3025 5.24901 21.299 5.24873C21.2961 5.24848 21.2928 5.24822 21.2894 5.24794C21.2745 5.24677 21.2548 5.24536 21.2307 5.24392C21.1827 5.24102 21.1168 5.23796 21.035 5.23633C20.8718 5.23304 20.644 5.23537 20.3683 5.25624C19.8191 5.2978 19.0659 5.41393 18.2476 5.71492C17.0828 6.14338 15.8111 6.94014 14.822 8.36694C14.8069 8.31218 14.7932 8.26184 14.781 8.21662C14.7593 8.1359 14.7423 8.07171 14.7309 8.0281C14.7252 8.0063 14.7208 7.98966 14.7181 7.9787L14.7149 7.96657L14.7141 7.96334C14.6323 7.64247 14.3896 7.38705 14.0734 7.28895C13.757 7.19084 13.4125 7.2641 13.1635 7.48239L13.7912 8.19858C13.1635 7.48239 13.1631 7.48273 13.1627 7.48307L13.1619 7.48379L13.16 7.48541L13.1557 7.48928C13.1525 7.49214 13.1486 7.49558 13.1442 7.49958C13.1354 7.50759 13.1242 7.51787 13.1109 7.5304C13.0842 7.55545 13.0489 7.58956 13.0065 7.63258C12.9218 7.71852 12.8083 7.84058 12.6791 7.99744C12.4216 8.31015 12.0964 8.76763 11.8144 9.35892C11.4114 10.204 11.1021 11.3139 11.1944 12.6368C10.1466 12.2587 9.06126 11.871 8.125 11.5392C7.41306 11.2869 6.78597 11.0664 6.32629 10.9068C6.09678 10.8271 5.90702 10.7619 5.76858 10.7153C5.69977 10.6921 5.64058 10.6725 5.59428 10.6576C5.59304 10.6572 5.59146 10.6567 5.58958 10.6561C5.56459 10.648 5.48537 10.6224 5.41552 10.6084C5.39825 10.605 5.38087 10.602 5.36343 10.5995C5.10539 10.5627 4.84692 10.5881 4.61199 10.6948C4.49797 10.7467 4.40283 10.8118 4.32564 10.8809C4.28747 10.9151 4.25452 10.9494 4.22626 10.9825C4.21214 10.9991 4.1992 11.0153 4.18737 11.031C4.18146 11.0388 4.17581 11.0466 4.17043 11.0542C4.16774 11.058 4.16512 11.0617 4.16256 11.0655L4.15876 11.071L4.1569 11.0738L4.15598 11.0752C4.15552 11.0759 4.15506 11.0765 4.94749 11.6048C4.94749 11.6048 5.00999 11.5111 5.22874 11.5423C5.23891 11.5444 5.26604 11.5525 5.30865 11.5662C5.30979 11.5666 5.31094 11.5669 5.31209 11.5673C5.41771 11.6014 5.61468 11.6683 5.88224 11.7609C6.20292 11.8718 6.62499 12.0195 7.11263 12.1914C8.30777 12.6128 9.89675 13.1795 11.3523 13.7065C11.7293 13.843 12.0975 13.9769 12.4475 14.1048C12.3233 13.7193 12.2398 13.3498 12.1898 12.9972C11.9415 11.2463 12.5196 9.91254 13.0492 9.10081C13.4329 8.51264 13.7912 8.19858 13.7912 8.19858C13.7912 8.19858 13.9118 8.67164 14.0924 9.27916ZM4.98035 12.4614C4.98032 12.4614 4.98099 12.4616 4.98241 12.462C4.98109 12.4616 4.98038 12.4614 4.98035 12.4614Z" fill="white"/>
<path d="M21.4475 30.4799C21.3512 30.6002 21.014 30.906 20.6926 31.1972C20.5968 31.2841 20.5024 31.3697 20.4163 31.4487C20.286 31.5681 20.1519 31.6876 20.0193 31.8057L20.0192 31.8058C19.7702 32.0276 19.5264 32.2448 19.3224 32.4487C19.1975 32.5737 18.9475 32.6361 18.5724 32.6361H17.6349C17.8229 32.3857 18.1565 32.0045 18.5189 31.6176C18.7187 31.4326 18.9205 31.2558 19.1037 31.1049C19.4242 30.8398 19.7445 30.6605 20.0249 30.5037C20.5375 30.217 20.9163 30.0051 20.9163 29.4798C20.936 28.4149 20.2214 28.2087 19.6914 28.2016C19.8495 28.1649 20.0276 28.1361 20.1975 28.1361C19.6037 27.9799 18.8537 28.1361 18.51 28.4799C18.26 28.7091 18.2045 29.3272 18.1488 29.9452C18.1211 30.2542 18.0933 30.5633 18.0412 30.8237C17.9013 31.5513 17.4606 31.9531 16.7865 32.5678L16.7856 32.5686L16.7836 32.5704C16.7059 32.6414 16.625 32.7151 16.5412 32.7924C16.5216 32.8107 16.5022 32.8283 16.483 32.8455L14.4163 32.3861C14.4163 32.3861 15.7912 31.6674 16.01 30.8549C16.2059 30.1552 15.6999 28.0015 15.5697 27.4474C15.5545 27.3828 15.5444 27.3399 15.5412 27.3237C15.5431 27.3256 15.5473 27.3294 15.5535 27.3351C15.6482 27.4217 16.2148 27.94 16.4787 28.7612C16.9787 27.3861 17.6349 26.0737 17.8224 25.9486C17.9836 25.8413 19.8748 24.8341 20.4043 24.5526C20.1728 25.1808 19.9511 25.8028 19.7912 26.2612C19.2287 26.4175 18.6663 26.7299 18.26 27.3549C18.4787 27.1987 19.1663 27.1049 19.6663 27.0424C20.1037 27.0112 21.4475 27.7299 21.7912 29.0737V29.1361C21.8537 29.6361 21.6975 30.1049 21.4475 30.4799Z" fill="white" fill-opacity="0.7"/>
<path d="M20.3865 26.1976C21.0277 26.1391 21.559 26.2682 21.6975 26.3236C22.9163 24.0111 23.885 22.7611 24.135 22.7611C24.1615 22.7578 24.2188 22.7598 24.3013 22.7626C24.9953 22.7864 27.4766 22.8718 28.51 20.386C29.6182 17.6773 28.0581 15.3626 27.9513 15.2043L27.9475 15.1986C29.26 19.5111 26.3537 21.9173 24.385 21.9485C23.2912 21.9485 21.8225 22.6673 21.8225 22.6673L20.3865 26.1976Z" fill="white" fill-opacity="0.7"/>
<path d="M27.9475 15.1986C27.9486 15.1991 27.9502 15.1998 27.9524 15.201C28.0874 15.2665 30.4221 16.3991 31.0952 19.9138C32.6481 21.7261 33.6216 23.9895 33.8849 26.386C33.8849 26.5423 34.1037 26.7611 34.3225 26.9485C34.6037 27.2298 34.8849 27.5111 34.8849 27.7923C34.8849 28.5423 34.8225 29.2923 34.6975 30.0111C34.6422 30.2323 34.3909 30.3801 34.1172 30.5413L34.0908 30.5568C34.0802 30.5631 34.0696 30.5694 34.0589 30.5757C34.0427 30.5853 34.0263 30.595 34.01 30.6048C33.9675 30.6331 33.9202 30.6631 33.8721 30.6935L33.872 30.6936C33.7078 30.7975 33.5342 30.9073 33.51 30.9798C32.8737 33.2356 31.5417 35.2504 29.7614 36.7767C32.7002 35.123 34.916 32.3428 35.831 29.0365C36.1347 27.7339 36.1865 26.3694 35.9475 24.9798C34.8225 18.6048 28.3225 15.3549 27.9475 15.1986Z" fill="white" fill-opacity="0.7"/>
<path d="M20.4377 15.5129C21.0148 15.542 22.2491 15.483 23.4163 14.6361C23.5349 14.913 23.6525 15.1917 23.7657 15.4641C22.3301 15.8493 21.0429 15.6508 20.4377 15.5129Z" fill="white" fill-opacity="0.7"/>
<path d="M24.747 15.1101C25.5247 14.7522 26.3104 14.192 27.0259 13.3352C26.3343 13.1372 25.6189 12.9961 24.885 12.9174C24.6663 13.2611 24.4475 13.5736 24.2288 13.8236C24.3582 14.1428 24.5448 14.6049 24.747 15.1101Z" fill="white" fill-opacity="0.7"/>
<path d="M26.0625 28.0937C26.375 26.5 26.4062 25.125 26.3125 24C27.5312 25.625 28.2812 27.5937 28.5 29.625C28.5312 29.875 28.7812 30.125 29.0312 30.375C29.25 30.5625 29.5 30.8125 29.5 30.9688C29.5 31.6875 29.4374 32.4063 29.3125 33.125C29.2829 33.2139 29.0286 33.3589 28.8159 33.4802L28.7812 33.5C28.4687 33.6563 28.1874 33.8125 28.125 34.0625C27.4374 36.4688 25.9687 38.5937 24 40.0937C26.9062 37.0625 28.3125 32.0625 26.0625 28.0937Z" fill="white" fill-opacity="0.7"/>
<path fill-rule="evenodd" clip-rule="evenodd" d="M17.135 13.0111C17.135 13.0111 16.5725 8.97986 19.385 7.29236C19.3751 7.29661 19.3559 7.30381 19.3287 7.31406C18.7535 7.53026 14.5694 9.10304 17.135 13.0111ZM23.1975 9.32365C25.3537 8.51116 28.3537 8.07365 33.01 8.94865C30.9475 7.91741 28.7913 7.38616 26.635 7.3549C25.8225 7.3549 25.0725 7.41741 24.385 7.54241C21.9475 7.9799 19.9475 9.7299 19.26 12.0737C19.26 12.0737 19.76 11.2924 20.9475 10.4799L20.9971 10.4126C21.4358 9.81702 22.0968 8.91976 22.7288 8.16741C22.9162 8.57365 23.135 9.07365 23.1975 9.32365ZM34.01 14.5111C38.4162 17.4173 40.4162 20.636 41.8225 24.4173C41.76 20.4173 40.4162 16.9799 37.8225 14.2299L37.76 14.1673C35.4788 11.7611 32.135 10.6361 28.8225 11.1048C27.5725 11.2611 26.3225 11.5111 25.3537 11.8236C25.1975 11.8548 25.0413 11.8861 24.885 11.9486H24.9475C25.1975 11.9173 29.76 11.6986 34.01 14.5111ZM38.0725 34.386C37.6037 35.0111 37.0725 35.6674 36.4475 36.2923C40.4788 28.5423 36.635 21.4486 36.4788 21.1674C36.76 21.4486 37.0413 21.7611 37.2913 22.0423C40.385 25.4799 40.76 30.636 38.0725 34.386ZM13.4085 10.3535C13.2899 10.8062 12.2364 14.8271 15.7912 14.9486C13.6663 13.6674 13.4163 10.3549 13.4163 10.3237L13.4145 10.3305L13.4125 10.3384L13.4085 10.3535ZM19.6037 18.7299L17.9788 21.5112C17.9788 21.5112 19.4788 20.8237 20.0725 19.9486C20.5413 19.1986 19.6037 18.7299 19.6037 18.7299ZM18.519 31.6175C18.7188 31.4325 18.9206 31.2557 19.1037 31.1048C19.4241 30.8397 19.7446 30.6604 20.025 30.5036C20.5375 30.2169 20.9162 30.005 20.9162 29.4799C20.9359 28.4149 20.2213 28.2087 19.6914 28.2015C19.6996 28.1996 19.7078 28.1978 19.716 28.1959C19.4263 28.2606 19.1974 28.3549 19.1974 28.3549C19.1974 28.3549 20.1037 28.1986 20.4474 28.8549C20.7912 29.5111 20.51 29.8861 19.9475 30.2611C19.6667 30.4483 19.0606 31.0394 18.519 31.6175ZM21.4788 21.9799C21.3346 22.1034 20.8513 23.3394 20.4043 24.5526C19.8749 24.834 17.9836 25.8412 17.8225 25.9486C17.635 26.0736 16.9788 27.386 16.4788 28.7611C16.2148 27.9399 15.6482 27.4216 15.5535 27.335C15.5473 27.3293 15.5432 27.3255 15.5413 27.3236C15.5445 27.3399 15.5546 27.3827 15.5697 27.4473C15.6999 28.0014 16.2059 30.1551 16.01 30.8548C15.7913 31.6673 14.4162 32.386 14.4162 32.386L16.4831 32.8454C16.0758 33.2096 15.78 33.3236 15.5413 33.3236C15.01 33.2299 14.385 33.0736 13.9474 32.9174C13.635 32.5111 13.1662 31.1674 13.0412 30.6049C13.1087 30.38 13.3218 29.9772 13.5058 29.6292L13.5059 29.6291L13.506 29.6289L13.5061 29.6286C13.5777 29.4932 13.645 29.3661 13.6974 29.2611L13.7495 29.1613C14.0928 28.504 14.2942 28.1184 14.3537 27.7611C14.4788 27.2299 14.885 23.9486 15.0413 22.5736C15.4474 23.1049 16.01 23.9799 15.885 24.5423C16.7913 23.2611 16.135 22.0111 15.8225 21.5111C15.5412 21.0111 15.1662 20.0111 15.4788 18.9486C15.7913 17.8861 16.9162 14.9486 16.9162 14.9486C16.9162 14.9486 17.2913 15.6049 17.8225 15.4799C18.3537 15.3549 22.635 8.91736 22.635 8.91736C22.635 8.91736 23.7913 11.4486 22.5725 13.2924C21.3225 15.1361 20.1037 15.4799 20.1037 15.4799C20.1037 15.4799 20.2269 15.5022 20.4376 15.5129C21.0429 15.6507 22.3301 15.8492 23.7657 15.464C24.2791 16.6986 24.7032 17.8006 24.7288 17.9799C24.7129 18.0168 24.6641 18.133 24.5933 18.3015L24.5931 18.3024L24.5929 18.3027L24.5928 18.303L24.5927 18.3033C24.2437 19.1343 23.3638 21.2303 23.26 21.3861C23.1974 21.4486 22.76 21.5736 22.4475 21.6361C21.9162 21.7923 21.6037 21.8861 21.4788 21.9799ZM22.3225 10.7923C22.3225 10.7923 22.6037 12.0423 21.885 12.8861C20.9788 13.9173 20.1975 13.886 20.2288 13.886L22.3225 10.7923ZM15.1037 28.5424L14.8537 29.7924C14.8537 29.7924 15.3537 29.7299 15.3537 30.2924C15.3537 30.7299 14.8537 31.3237 14.4475 31.3549C14.0412 31.3861 13.885 30.8861 13.9788 30.6049C14.0725 30.3549 15.1037 28.5424 15.1037 28.5424ZM19.885 18.1048C20.9788 18.3236 21.2913 19.6048 20.6975 20.2923C20.1037 20.9486 18.6037 21.8861 17.7288 22.1048C17.5412 22.8236 15.9475 22.5111 16.5412 20.2299C16.5412 20.2299 16.8225 21.3236 17.1037 21.2299C17.385 21.1361 20.5725 16.1361 20.5725 16.1361C20.5725 16.1361 20.1662 17.4486 19.885 18.1048ZM18.7761 29.7387C18.7592 30.0413 18.7313 30.5352 18.51 30.8549C18.5317 30.8331 18.5991 30.762 18.6867 30.6694L18.6869 30.6693C18.8509 30.496 19.0862 30.2474 19.2288 30.1049C19.326 30.0173 19.4354 29.9479 19.54 29.8816C19.7712 29.7349 19.9788 29.6034 19.9788 29.3236C19.9788 28.8861 19.385 28.7923 19.135 28.8549C18.885 28.9174 18.8225 29.3236 18.7912 29.5423C18.7846 29.589 18.7808 29.6568 18.7761 29.7387ZM33.2913 30.9486C32.6037 33.4174 31.0413 35.6049 29.01 37.1674C29.2653 37.0453 29.5158 36.915 29.7614 36.7768C31.5416 35.2504 32.8737 33.2356 33.51 30.9799C33.5341 30.9074 33.7077 30.7975 33.8719 30.6936L33.8721 30.6935C33.9202 30.6631 33.9675 30.6331 34.01 30.6048C34.0195 30.5991 34.0292 30.5934 34.0388 30.5877L34.059 30.5757C34.0696 30.5694 34.0802 30.5631 34.0909 30.5568L34.1172 30.5413C34.391 30.3802 34.6422 30.2323 34.6974 30.0111C34.8225 29.2923 34.885 28.5423 34.885 27.7923C34.885 27.5111 34.6037 27.2299 34.3225 26.9486C34.1037 26.7611 33.885 26.5423 33.885 26.386C33.6216 23.9896 32.6481 21.7261 31.0953 19.9139C31.1093 19.987 31.1225 20.061 31.135 20.1361C32.5412 21.9174 33.4474 24.0736 33.6974 26.3549C33.6974 26.4717 33.8372 26.6234 33.973 26.7709C34.0189 26.8207 34.0643 26.87 34.1037 26.9174C34.385 27.1986 34.6662 27.4799 34.6662 27.7611C34.6662 28.5111 34.6037 29.2611 34.4788 29.9799C34.4162 30.2299 34.1037 30.4174 33.7913 30.5736C33.749 30.6018 33.7019 30.6316 33.6541 30.6619L33.6533 30.6623L33.6532 30.6624C33.4891 30.7662 33.3154 30.8761 33.2913 30.9486ZM27.9475 15.1986L27.9477 15.1987C28.3251 15.3561 34.8227 18.6061 35.9474 24.9799C36.1865 26.3694 36.1347 27.7339 35.8311 29.0364C36.1311 27.9525 36.2913 26.812 36.2913 25.6361C36.2913 19.7978 32.3712 14.8659 27.0258 13.3352C26.3103 14.1919 25.5247 14.7521 24.7471 15.11C25.2775 16.4344 25.9162 18.0542 25.9162 18.1674C25.9162 18.3549 25.3225 19.8861 25.26 19.9486C25.1974 19.9799 24.4788 20.0423 24.1974 20.0423C23.885 20.7923 23.5725 21.5111 23.51 21.6049C23.4162 21.7299 23.135 21.8236 22.5412 21.9799C22.4777 21.9989 22.4078 22.0193 22.3361 22.04C22.0551 22.1219 21.7472 22.2113 21.6974 22.2611C21.5412 22.4486 20.6974 24.6674 20.135 26.2299C20.2202 26.2157 20.3042 26.2051 20.3865 26.1976L21.8225 22.6673C21.8225 22.6673 23.2913 21.9486 24.385 21.9486C26.3537 21.9173 29.2599 19.5111 27.9475 15.1986ZM14.9163 16.9174C15.135 16.5111 14.9475 16.2299 14.76 16.0736L14.6975 16.0111C14.3225 15.8236 11.9788 14.9486 9.66626 14.1361C11.6975 15.4799 13.9475 16.7923 14.3225 16.9799C14.6037 17.1049 14.7913 17.1361 14.9163 16.9174Z" fill="white"/>
</svg>
