<svg width="48" height="48" viewBox="0 0 48 48" fill="none" xmlns="http://www.w3.org/2000/svg">
<path d="M28.6174 4L4 19.3869L7.23456 24.5577L14.0582 20.3361V17.012H19.4011L31.911 9.25577L28.6174 4ZM32.7713 10.6482L22.4916 17.0305H34.0046L35.9838 15.819L32.7713 10.6482ZM36.8625 17.1745L34.2409 18.7738V21.7618H29.4223L22.7353 25.9206H33.6428L39.8903 22.0462L36.8625 17.1745ZM14.8262 21.7765L8.09859 25.9575L11.311 31.1025L14.084 29.385V25.9206H19.6522L26.3391 21.7765H14.8262ZM40.7507 23.4238L34.2779 27.4497V30.6704H29.0642L16.0816 38.7184L19.3826 44L44 28.6131L40.7507 23.4238ZM15.0773 30.6704L12.1787 32.4691L15.2287 37.3444L25.9773 30.6704H15.0773Z" fill="white"/>
</svg>
