<svg width="48" height="48" viewBox="0 0 48 48" fill="none" xmlns="http://www.w3.org/2000/svg">
<path d="M23.9893 6C33.9364 6 42 14.0589 42 24C42 33.9411 33.9364 42 23.9893 42C15.5499 42 8.46641 36.1994 6.51276 28.3699C8.84931 28.3339 10.2097 27.2374 10.2097 25.552C10.2097 24.1738 9.26602 23.3818 7.54184 23.0889L7.40798 23.0675L6.40647 22.9155L6.24015 22.8862C6.16143 22.8715 6.08628 22.856 6.01468 22.8386C6.04358 22.3946 6.08805 21.9555 6.14765 21.5213C6.28017 21.5004 6.42871 21.4893 6.5937 21.4893C7.44756 21.5275 8.28586 21.7288 9.06322 22.0822L9.24156 22.1662L9.99758 20.427C8.98584 19.9146 7.8696 19.6448 6.73735 19.6372L6.51054 19.6386C8.46152 11.805 15.5468 6 23.9893 6ZM24.3669 19.6274L24.2468 19.6301L24.1281 19.6314C21.8858 19.6897 20.1069 21.3942 20.1069 24C20.1069 26.6058 21.8858 28.3103 24.1281 28.3686L24.2468 28.3699C25.1678 28.4063 26.0528 28.0223 26.6554 27.3312L26.7328 27.2392V28.1561L28.919 28.1557V19.8528H26.7328V20.7697C26.1587 20.0461 25.2861 19.627 24.3669 19.6274ZM15.9986 19.6274L15.726 19.631C13.1515 19.6923 11.4367 21.5311 11.4367 23.9991C11.4367 26.4672 13.1511 28.3059 15.726 28.3672L15.9986 28.3708C17.198 28.3654 18.3352 27.8339 19.1081 26.9174L19.1957 26.8098L17.6009 25.4476C17.1451 25.972 16.4874 26.2778 15.7923 26.2881C14.6351 26.2881 13.7177 25.3885 13.7177 24.0004C13.7177 22.6213 14.6449 21.7128 15.8012 21.7128C16.4491 21.7102 17.0659 21.9822 17.5004 22.4577L17.5756 22.544L19.1873 21.1986C18.4223 20.2092 17.2443 19.6314 15.9986 19.6274ZM33.4098 20.7368L33.3422 20.831V19.8532H31.1631V28.1561H33.4005V23.6062C33.4005 22.3466 34.1979 21.7297 35.158 21.7297C36.1546 21.7297 36.7408 22.3408 36.7768 23.4773L36.7786 23.5889V28.1588H39.0164V22.8698C39.0582 22.0004 38.7318 21.1537 38.1172 20.5372C37.5021 19.9208 36.6558 19.5919 35.7859 19.631C34.856 19.579 33.9648 19.9959 33.4098 20.7368ZM6 24.8889L6.56791 24.9685C7.53473 25.1054 7.94653 25.328 7.94653 25.7307C7.94653 26.2005 7.48536 26.4885 6.52477 26.509L6.24415 26.5121L6.1521 26.5103C6.07783 25.9765 6.02668 25.436 6 24.8889ZM24.5986 21.7128C25.8051 21.7128 26.7875 22.6822 26.8031 23.8876C26.8182 25.0934 25.8611 26.0876 24.6551 26.1183C23.449 26.1494 22.4421 25.2054 22.3959 24.0004C22.3674 23.4004 22.5871 22.8155 23.0043 22.3826C23.421 21.9497 23.9973 21.7075 24.5986 21.7128Z" fill="white"/>
</svg>
