<svg width="48" height="48" viewBox="0 0 48 48" fill="none" xmlns="http://www.w3.org/2000/svg">
<path d="M12.1889 16.79C18.712 10.4033 29.288 10.4033 35.8112 16.79L36.5962 17.5586C36.9224 17.878 36.9224 18.3957 36.5962 18.7151L33.9107 21.3445C33.7476 21.5042 33.4832 21.5042 33.3201 21.3445L32.2398 20.2868C27.689 15.8312 20.3109 15.8312 15.7602 20.2868L14.6032 21.4195C14.4402 21.5792 14.1758 21.5792 14.0127 21.4195L11.3272 18.7901C11.0009 18.4707 11.0009 17.953 11.3272 17.6336L12.1889 16.79ZM41.3652 22.2279L43.7554 24.568C44.0815 24.8874 44.0815 25.4051 43.7554 25.7245L32.978 36.2767C32.6519 36.5959 32.123 36.5959 31.7969 36.2767L24.1477 28.7875C24.0661 28.7076 23.9339 28.7076 23.8524 28.7875L16.2034 36.2767C15.8773 36.5959 15.3484 36.5959 15.0223 36.2767L4.24462 25.7244C3.91846 25.405 3.91846 24.8873 4.24462 24.5679L6.63478 22.2277C6.96094 21.9084 7.48975 21.9084 7.81591 22.2277L15.4652 29.717C15.5467 29.7969 15.6788 29.7969 15.7604 29.717L23.4093 22.2277C23.7354 21.9084 24.2643 21.9084 24.5904 22.2277L32.2397 29.717C32.3212 29.7969 32.4534 29.7969 32.535 29.717L40.184 22.2279C40.5103 21.9085 41.039 21.9085 41.3652 22.2279Z" fill="white"/>
</svg>
