<svg width="48" height="48" viewBox="0 0 48 48" fill="none" xmlns="http://www.w3.org/2000/svg">
<path d="M16.8079 26.7117L21.5911 31.4626C21.9964 31.8651 21.996 32.5194 21.5904 32.9213L17.9351 36.5437C17.3121 37.1522 16.2937 37.1522 15.6707 36.5437L4.46722 25.6011C3.84426 24.9926 3.84426 23.9978 4.46722 23.3893L15.6707 12.4563C16.2937 11.8479 17.3121 11.8479 17.9351 12.4563L21.5904 16.0787C21.996 16.4808 21.9964 17.135 21.5911 17.5375L16.8079 22.2884C15.5619 23.5053 15.5619 25.4948 16.8079 26.7117Z" fill="white"/>
<path d="M31.1921 26.7117L26.4088 31.4626C26.0036 31.8651 26.004 32.5194 26.4096 32.9213L30.0649 36.5437C30.6879 37.1522 31.7063 37.1522 32.3293 36.5437L43.5328 25.6011C44.1557 24.9926 44.1557 23.9978 43.5328 23.3893L32.3293 12.4563C31.7063 11.8479 30.6879 11.8479 30.0649 12.4563L26.4096 16.0787C26.004 16.4808 26.0036 17.135 26.4088 17.5375L31.1921 22.2884C32.4381 23.5053 32.4381 25.4948 31.1921 26.7117Z" fill="white"/>
<path d="M18.0627 23.5961C17.5582 24.0953 17.5582 24.9047 18.0627 25.4039L23.0867 30.3756C23.5912 30.8749 24.4091 30.8749 24.9136 30.3756L29.9376 25.4039C30.4421 24.9047 30.4421 24.0953 29.9376 23.5961L24.9136 18.6244C24.4091 18.1252 23.5912 18.1252 23.0867 18.6244L18.0627 23.5961Z" fill="white"/>
</svg>
