<svg width="48" height="48" viewBox="0 0 48 48" fill="none" xmlns="http://www.w3.org/2000/svg">
<g clip-path="url(#clip0_1300_1364)">
<path d="M0 12C0 5.37258 5.37258 0 12 0H36C42.6274 0 48 5.37258 48 12V36C48 42.6274 42.6274 48 36 48H12C5.37258 48 0 42.6274 0 36V12Z" fill="url(#paint0_linear_1300_1364)"/>
<path d="M40.4695 28.541L36.5173 26.3336L27.7154 31.5073C27.1283 31.8436 26.485 32.0183 25.8334 32.0183C25.1819 32.0183 24.5387 31.8436 23.9514 31.5073L12.3701 25.1608L8.36 27.5063C7.94877 27.7709 7.60525 28.163 7.36583 28.6412C7.12641 29.1194 7 29.6658 7 30.2225C7 30.7793 7.12641 31.3257 7.36583 31.8039C7.60525 32.2821 7.94877 32.6741 8.36 32.9387L23.8791 41.4754C24.4641 41.8205 25.1082 42 25.7611 42C26.4139 42 27.058 41.8205 27.6431 41.4754L40.3971 33.939C40.805 33.6794 41.1471 33.2948 41.388 32.8246C41.6289 32.3545 41.7599 31.8161 41.7672 31.2654C41.7746 30.7147 41.6581 30.1717 41.4299 29.6926C41.2018 29.2135 40.8702 28.8159 40.4695 28.541Z" fill="white"/>
<path d="M21.4265 6.51101C22.0141 6.17466 22.6577 6 23.3096 6C23.9616 6 24.6053 6.17466 25.1928 6.51101L40.4896 15.1339C40.8975 15.3999 41.2378 15.7915 41.4749 16.2679C41.712 16.7443 41.837 17.2878 41.837 17.8415C41.837 18.3952 41.712 18.9387 41.4749 19.415C41.2378 19.8914 40.8975 20.2831 40.4896 20.5491L27.7278 28.0855C27.1423 28.4306 26.4979 28.6101 25.8446 28.6101C25.1914 28.6101 24.547 28.4306 23.9615 28.0855L8.43295 19.4626C8.02103 19.2006 7.67661 18.8103 7.43647 18.3334C7.19633 17.8566 7.06949 17.311 7.06949 16.755C7.06949 16.199 7.19633 15.6534 7.43647 15.1766C7.67661 14.6997 8.02103 14.3094 8.43295 14.0474L21.4265 6.51101Z" fill="white"/>
<path d="M0 28H8C14.6274 28 20 33.3726 20 40V48H12C5.37258 48 0 42.6274 0 36V28Z" fill="#3F3F3F"/>
<path d="M15.2986 34.7265C15.1181 34.5837 14.9028 34.3885 14.5104 34.3398C14.1424 34.291 13.7674 34.5384 13.5139 34.7021C13.2604 34.8659 12.7812 35.3467 12.5833 35.4931C12.3854 35.6394 11.8785 35.7753 11.0625 36.2666C10.2465 36.7579 7.04514 38.8207 7.04514 38.8207L7.87847 38.8311L4.16319 40.751H4.53472L4 41.1587C4 41.1587 4.47222 41.2841 4.86806 41.0333V41.1483C4.86806 41.1483 9.29167 39.3991 10.1458 39.8521L9.625 40.0054C9.67014 40.0054 10.5104 40.0611 10.5104 40.0611C10.5308 40.2357 10.5893 40.4037 10.6817 40.553C10.7741 40.7024 10.8982 40.8295 11.0451 40.9253C11.5521 41.2598 11.5625 41.4444 11.5625 41.4444C11.5625 41.4444 11.2986 41.5524 11.2986 41.6883C11.2986 41.6883 11.6875 41.5699 12.0486 41.5803C12.2778 41.589 12.5051 41.6253 12.7257 41.6883C12.7257 41.6883 12.6979 41.542 12.3472 41.4444C11.9965 41.3469 11.6493 40.9636 11.4792 40.7545C11.375 40.6214 11.307 40.4635 11.2821 40.2961C11.2571 40.1287 11.276 39.9577 11.3368 39.7998C11.4583 39.4827 11.8819 39.3085 12.7569 38.8555C13.7882 38.3189 14.0243 37.9217 14.1701 37.6116C14.316 37.3015 14.5312 36.6847 14.6528 36.3955C14.8056 36.0227 14.9931 35.8241 15.1493 35.7056C15.3056 35.5872 16 35.3258 16 35.3258C16 35.3258 15.4688 34.8624 15.2986 34.7265Z" fill="white"/>
</g>
<defs>
<linearGradient id="paint0_linear_1300_1364" x1="48" y1="48" x2="4.29153e-06" y2="-4.29153e-06" gradientUnits="userSpaceOnUse">
<stop offset="0.0873541" stop-color="#5314F1"/>
<stop offset="0.746756" stop-color="#04E2FF"/>
</linearGradient>
<clipPath id="clip0_1300_1364">
<rect width="48" height="48" fill="white"/>
</clipPath>
</defs>
</svg>
